<?xml version="1.0" standalone="no"?>
<!DOCTYPE svg PUBLIC "-//W3C//DTD SVG 20010904//EN"
 "http://www.w3.org/TR/2001/REC-SVG-20010904/DTD/svg10.dtd">
<svg version="1.0" xmlns="http://www.w3.org/2000/svg"
 width="1848.000000pt" height="1104.000000pt" viewBox="0 0 1848.000000 1104.000000"
 preserveAspectRatio="xMidYMid meet">
<metadata>
Created by potrace 1.16, written by Peter Selinger 2001-2019
</metadata>
<g transform="translate(0.000000,1104.000000) scale(0.100000,-0.100000)"
fill="#000000" stroke="none">
<path d="M10303 10982 c-15 -27 -86 -158 -158 -291 l-130 -240 -4125 -3 -4125
-3 0 -4665 0 -4665 8340 0 8340 0 0 4665 0 4665 -4206 5 -4205 5 154 283 c85
156 152 285 149 288 -3 3 -18 -17 -34 -44z m-7563 -598 c0 -27 4 -43 10 -39 6
3 10 24 10 46 l0 39 480 0 480 0 0 -46 c0 -27 4 -43 10 -39 6 3 10 24 10 46
l0 39 480 0 480 0 0 -46 c0 -27 4 -43 10 -39 6 3 10 24 10 46 l0 39 480 0 480
0 0 -45 c0 -25 5 -45 10 -45 6 0 10 20 10 45 l0 45 480 0 480 0 0 -90 c0 -53
4 -90 10 -90 6 0 10 37 10 90 l0 90 480 0 480 0 0 -45 c0 -25 5 -45 10 -45 6
0 10 20 10 45 l0 45 480 0 480 0 0 -39 c0 -22 5 -43 10 -46 6 -4 10 12 10 39
l0 46 480 0 480 0 0 -39 c0 -22 4 -43 10 -46 6 -4 10 12 10 39 l0 46 480 0
480 0 0 -39 c0 -22 5 -43 10 -46 6 -4 10 12 10 39 l0 46 480 0 480 0 0 -90 c0
-53 4 -90 10 -90 6 0 10 37 10 90 l0 90 485 0 485 0 2 -47 2 -48 3 48 4 47
485 0 484 0 2 -47 2 -48 3 48 4 47 485 0 484 0 2 -47 2 -48 3 48 4 47 485 0
484 0 2 -47 2 -48 3 48 4 47 485 0 484 0 2 -92 2 -93 3 93 4 92 484 0 485 0 2
-47 2 -48 3 48 4 47 485 0 484 0 0 -225 0 -225 -80 0 c-47 0 -80 -4 -80 -10 0
-6 33 -10 80 -10 l80 0 0 -225 0 -225 -82 -2 -83 -2 83 -3 82 -4 0 -224 0
-225 -80 0 c-47 0 -80 -4 -80 -10 0 -6 33 -10 80 -10 l80 0 0 -225 0 -225
-167 -2 -168 -2 168 -3 167 -3 0 -225 0 -225 -80 0 c-47 0 -80 -4 -80 -10 0
-6 33 -10 80 -10 l80 0 0 -215 c0 -206 -1 -215 -19 -215 -11 0 -23 -4 -26 -10
-3 -5 -27 -10 -52 -10 -38 0 -135 -14 -380 -55 -18 -3 -33 -9 -33 -14 0 -4 78
5 173 21 299 49 287 40 -200 -141 l-441 -164 -473 -369 c-261 -203 -703 -542
-984 -753 l-510 -383 -486 -250 -486 -251 -248 -71 -248 -71 -64 63 c-34 34
-63 58 -63 53 0 -5 25 -34 55 -65 l55 -56 -202 -58 c-112 -32 -439 -127 -728
-211 l-525 -152 -485 -23 -485 -22 -490 -137 -490 -137 -435 109 c-239 60
-691 171 -1005 248 -540 131 -594 146 -1035 292 l-465 153 -491 326 -492 326
-488 409 -489 409 -490 329 -490 330 -375 56 c-343 52 -368 57 -290 59 98 2
76 17 -28 19 -39 1 -61 5 -57 11 4 6 -5 10 -19 10 -14 0 -26 -3 -26 -7 0 -5
-251 -7 -557 -6 -307 1 -625 -2 -708 -7 -82 -4 -222 -11 -310 -14 -190 -7
-346 -14 -472 -22 l-93 -5 0 100 0 101 74 0 c41 0 78 5 81 10 4 6 -23 10 -74
10 l-81 0 0 225 0 225 75 0 c43 0 75 4 75 10 0 6 -32 10 -75 10 l-75 0 0 225
0 225 163 2 162 2 -162 3 -163 3 0 225 0 225 75 0 c43 0 75 4 75 10 0 6 -32
10 -75 10 l-75 0 0 225 0 225 83 2 82 2 -82 3 -83 4 0 224 0 225 75 0 c43 0
75 4 75 10 0 6 -32 10 -75 10 l-75 0 0 225 0 225 480 0 480 0 0 -46z m15690
-2974 l0 -220 -80 0 c-47 0 -80 -4 -80 -10 0 -6 33 -10 80 -10 l80 0 0 -225 0
-225 -165 0 c-103 0 -165 -4 -165 -10 0 -6 62 -10 165 -10 l165 0 0 -225 0
-225 -82 -2 -83 -2 83 -3 82 -4 0 -224 0 -225 -80 0 c-47 0 -80 -4 -80 -10 0
-6 33 -10 80 -10 l80 0 0 -225 0 -225 -80 0 c-47 0 -80 -4 -80 -10 0 -6 33
-10 80 -10 l80 0 0 -220 0 -220 -159 0 c-96 0 -162 -4 -166 -10 -4 -7 52 -10
159 -10 l166 0 0 -225 0 -225 -80 0 c-47 0 -80 -4 -80 -10 0 -6 33 -10 80 -10
l80 0 0 -225 0 -225 -82 -2 -83 -2 83 -3 82 -4 0 -224 0 -225 -80 0 c-47 0
-80 -4 -80 -10 0 -6 33 -10 80 -10 l80 0 0 -225 0 -225 -167 -2 -168 -2 168
-3 167 -3 0 -225 0 -225 -80 0 c-47 0 -80 -4 -80 -10 0 -6 33 -10 80 -10 l80
0 0 -225 0 -225 -80 0 c-47 0 -80 -4 -80 -10 0 -6 33 -10 80 -10 l80 0 0 -220
0 -220 -80 0 c-47 0 -80 -4 -80 -10 0 -6 33 -10 80 -10 l80 0 0 -220 0 -220
-26 6 c-19 5 -25 4 -20 -5 5 -8 -111 -11 -458 -11 l-466 0 -2 48 -2 47 -3 -48
-4 -47 -485 0 -484 0 -2 93 -2 92 -3 -92 -4 -93 -484 0 -485 0 -2 48 -2 47 -3
-47 -4 -48 -485 0 -484 0 -2 48 -2 47 -3 -48 -4 -47 -485 0 -484 0 -2 48 -2
47 -3 -47 -4 -48 -485 0 -484 0 -2 48 -2 47 -3 -48 -4 -47 -485 0 -484 0 0 91
c0 57 -4 88 -10 84 -5 -3 -10 -44 -10 -91 l0 -84 -192 0 c-105 0 -189 2 -187
4 2 2 38 27 79 56 89 63 85 59 78 65 -2 3 -47 -24 -98 -60 l-94 -65 -273 0
-273 0 0 46 c0 27 -4 43 -10 39 -5 -3 -10 -24 -10 -46 l0 -39 -480 0 -480 0 0
40 c0 22 -4 40 -10 40 -5 0 -10 -18 -10 -40 l0 -40 -480 0 -480 0 0 40 c0 22
-4 40 -10 40 -5 0 -10 -18 -10 -40 l0 -40 -480 0 -480 0 0 40 c0 22 -4 40 -10
40 -5 0 -10 -18 -10 -40 l0 -40 -480 0 -480 0 0 90 c0 53 -4 90 -10 90 -6 0
-10 -37 -10 -90 l0 -90 -480 0 -480 0 0 40 c0 22 -4 40 -10 40 -5 0 -10 -18
-10 -40 l0 -40 -480 0 -480 0 0 40 c0 22 -4 40 -10 40 -5 0 -10 -18 -10 -40
l0 -40 -442 1 c-314 1 -432 4 -405 11 20 6 37 14 37 19 0 11 8 12 -78 -10
l-72 -19 0 39 c0 21 -4 39 -10 39 -5 0 -10 -18 -10 -40 l0 -40 -480 0 -480 0
0 39 c0 22 -4 43 -10 46 -6 4 -10 -12 -10 -39 l0 -46 -480 0 -480 0 0 225 0
225 81 0 c51 0 78 4 74 10 -3 6 -40 10 -81 10 l-74 0 0 220 0 220 74 0 c41 0
78 5 81 10 4 6 -23 10 -74 10 l-81 0 0 225 0 225 75 0 c43 0 75 4 75 10 0 6
-32 10 -75 10 l-75 0 0 225 0 225 163 2 162 2 -163 3 -162 3 0 225 0 225 75 0
c43 0 75 4 75 10 0 6 -32 10 -75 10 l-75 0 0 225 0 225 83 2 82 2 -83 3 -82 4
0 224 0 225 75 0 c43 0 75 4 75 10 0 6 -32 10 -75 10 l-75 0 0 225 0 225 160
0 c100 0 160 4 160 10 0 6 -60 10 -160 10 l-160 0 0 220 0 220 74 0 c41 0 78
5 81 10 4 6 -23 10 -74 10 l-81 0 0 225 0 225 75 0 c43 0 75 4 75 10 0 6 -32
10 -75 10 l-75 0 0 225 0 225 83 2 82 2 -83 3 -82 4 0 224 0 225 160 0 c100 0
160 4 160 10 0 6 -60 10 -160 10 l-160 0 0 225 0 225 81 0 c51 0 78 4 74 10
-3 6 -40 10 -81 10 l-74 0 0 109 0 109 103 6 c56 3 147 8 202 11 55 3 201 10
325 17 126 7 490 12 825 13 492 0 607 -3 640 -14 61 -22 245 -59 245 -49 0 4
-8 8 -17 8 -9 0 -14 2 -11 5 3 3 142 -15 309 -40 l304 -45 489 -327 490 -328
492 -412 493 -413 490 -324 489 -324 509 -165 c474 -155 540 -174 993 -282
267 -64 700 -171 963 -237 l478 -121 489 137 489 136 493 25 493 24 410 119
c226 66 553 161 728 212 l319 92 24 -23 c26 -25 33 -16 9 11 -14 16 3 22 232
88 l248 71 490 254 490 253 490 369 c270 203 711 540 980 750 l490 381 345
128 c190 71 351 131 359 134 9 3 12 1 7 -6 -10 -17 -9 -17 105 38 57 27 114
49 127 50 l22 0 0 -220z m-14493 44 c-3 -3 -12 -4 -19 -1 -8 3 -5 6 6 6 11 1
17 -2 13 -5z"/>
<path d="M4115 10170 c-3 -5 3 -10 14 -10 20 0 21 -5 21 -134 0 -130 -1 -134
-22 -141 -22 -8 -22 -8 5 -12 15 -2 37 -2 50 0 l22 4 -22 8 c-22 7 -23 12 -23
128 0 70 4 117 9 112 5 -6 45 -68 90 -140 l81 -129 0 152 c0 147 1 152 21 152
11 0 17 5 14 10 -3 6 -21 10 -40 10 -19 0 -37 -4 -40 -10 -3 -5 3 -10 14 -10
20 0 21 -5 20 -112 0 -91 -3 -110 -12 -95 -7 10 -42 65 -79 122 -56 87 -72
105 -92 105 -14 0 -28 -4 -31 -10z"/>
<path d="M4430 10170 c0 -5 9 -10 20 -10 19 0 20 -7 20 -135 0 -128 -1 -135
-20 -135 -11 0 -20 -4 -20 -10 0 -6 45 -10 115 -10 l115 0 0 45 c0 52 -17 61
-22 13 l-3 -33 -67 -3 -68 -3 0 66 0 65 30 0 c25 0 30 -4 30 -25 0 -14 5 -25
10 -25 6 0 10 27 10 60 0 33 -4 60 -10 60 -5 0 -10 -11 -10 -25 0 -21 -5 -25
-30 -25 l-30 0 0 60 0 61 68 -3 c66 -3 67 -3 70 -33 6 -54 22 -52 22 3 l0 52
-115 0 c-70 0 -115 -4 -115 -10z"/>
<path d="M4717 10174 c-10 -11 -9 -82 2 -88 5 -4 12 12 16 34 6 38 9 40 41 40
l34 0 0 -134 c0 -130 -1 -134 -22 -141 -21 -7 -20 -8 10 -12 18 -2 45 -2 60 0
26 4 26 4 5 12 -22 7 -23 11 -23 141 l0 134 34 0 c32 0 35 -2 41 -41 9 -52 28
-38 23 17 l-3 39 -106 3 c-58 1 -108 -1 -112 -4z"/>
<path d="M2880 9970 c0 -7 192 -10 555 -10 363 0 555 3 555 10 0 7 -192 10
-555 10 -363 0 -555 -3 -555 -10z"/>
<path d="M4115 9700 c3 -5 13 -10 21 -10 11 0 14 -24 14 -135 0 -132 0 -135
-22 -135 -15 0 -19 -3 -12 -10 7 -7 51 -10 110 -8 l99 3 3 48 c2 28 -1 47 -7
47 -6 0 -11 -11 -11 -24 0 -49 -8 -56 -71 -56 l-59 0 0 135 c0 113 2 135 15
135 8 0 15 5 15 10 0 6 -23 10 -51 10 -31 0 -48 -4 -44 -10z"/>
<path d="M4350 9700 c0 -5 8 -10 18 -10 16 0 22 -19 41 -122 36 -198 39 -201
65 -50 10 59 22 110 26 115 3 4 15 -39 24 -95 20 -110 24 -128 35 -128 3 0 18
61 31 136 22 121 28 137 47 145 35 13 28 19 -22 19 -25 0 -45 -4 -45 -10 0 -5
7 -10 16 -10 12 0 15 -6 11 -22 -3 -13 -11 -56 -18 -97 -14 -83 -20 -77 -39
39 -22 133 -41 130 -66 -10 -10 -55 -19 -98 -21 -97 -2 2 -10 43 -19 91 -16
84 -16 88 2 101 17 13 14 14 -33 15 -29 0 -53 -4 -53 -10z"/>
<path d="M2893 9503 c9 -2 23 -2 30 0 6 3 -1 5 -18 5 -16 0 -22 -2 -12 -5z"/>
<path d="M3053 9503 c9 -2 23 -2 30 0 6 3 -1 5 -18 5 -16 0 -22 -2 -12 -5z"/>
<path d="M3223 9503 c9 -2 23 -2 30 0 6 3 -1 5 -18 5 -16 0 -22 -2 -12 -5z"/>
<path d="M3383 9503 c9 -2 23 -2 30 0 6 3 -1 5 -18 5 -16 0 -22 -2 -12 -5z"/>
<path d="M3553 9503 c9 -2 23 -2 30 0 6 3 -1 5 -18 5 -16 0 -22 -2 -12 -5z"/>
<path d="M3713 9503 c9 -2 25 -2 35 0 9 3 1 5 -18 5 -19 0 -27 -2 -17 -5z"/>
<path d="M3883 9503 c9 -2 23 -2 30 0 6 3 -1 5 -18 5 -16 0 -22 -2 -12 -5z"/>
<path d="M4676 9244 c-5 -20 -11 -24 -24 -18 -9 4 -40 9 -67 12 -40 3 -56 -1
-78 -18 -54 -43 -28 -95 64 -125 83 -27 99 -40 99 -81 0 -31 -4 -37 -36 -50
-63 -26 -118 1 -142 71 -9 26 -10 18 -10 -50 0 -68 2 -75 10 -49 10 31 11 31
40 17 37 -19 111 -12 138 12 27 25 26 77 -2 109 -13 14 -52 36 -87 48 -35 13
-69 31 -75 41 -16 25 3 50 48 61 55 14 100 -10 119 -66 l15 -43 1 78 c1 81 -2
94 -13 51z"/>
<path d="M4747 9233 c26 -5 25 -2 55 -165 13 -71 26 -128 30 -128 7 0 22 63
40 171 6 39 14 65 18 57 4 -7 15 -61 26 -120 10 -60 22 -108 25 -108 8 0 19
48 45 192 15 83 20 98 38 101 12 2 -1 4 -29 4 -27 0 -40 -2 -27 -4 14 -3 22
-10 19 -17 -3 -7 -11 -47 -18 -89 -7 -43 -16 -77 -19 -77 -4 0 -12 33 -19 73
-19 107 -22 117 -36 117 -13 0 -26 -47 -40 -142 -4 -27 -11 -48 -15 -48 -4 0
-12 33 -19 73 -7 39 -15 80 -17 89 -3 11 2 18 18 21 13 2 -4 4 -37 4 -33 0
-50 -2 -38 -4z"/>
<path d="M4145 9070 c4 -6 57 -10 126 -10 73 0 119 4 119 10 0 6 -49 10 -126
10 -81 0 -123 -4 -119 -10z"/>
<path d="M2880 9040 c0 -6 47 -10 120 -10 73 0 120 4 120 10 0 6 -47 10 -120
10 -73 0 -120 -4 -120 -10z"/>
<path d="M3350 9040 c0 -6 47 -10 120 -10 73 0 120 4 120 10 0 6 -47 10 -120
10 -73 0 -120 -4 -120 -10z"/>
<path d="M3820 9040 c0 -6 35 -10 85 -10 50 0 85 4 85 10 0 6 -35 10 -85 10
-50 0 -85 -4 -85 -10z"/>
<path d="M6164 8775 c-7 -30 -3 -29 -43 -9 -57 29 -151 -2 -151 -49 0 -38 27
-65 88 -87 83 -31 102 -46 102 -80 0 -36 -31 -60 -78 -60 -48 0 -71 16 -92 63
l-19 42 0 -75 c0 -59 2 -70 10 -50 14 34 13 33 50 15 64 -34 149 6 149 70 0
47 -24 71 -91 94 -92 31 -118 61 -83 95 18 18 85 21 115 5 11 -6 29 -29 39
-52 l19 -42 0 73 c1 74 -4 90 -15 47z"/>
<path d="M4191 8767 c-38 -19 -63 -71 -68 -140 -6 -76 7 -111 49 -137 67 -42
153 2 153 79 0 77 -67 117 -137 82 l-40 -19 6 21 c3 12 6 27 6 34 0 6 12 25
26 42 19 23 34 31 59 31 38 0 52 -14 36 -34 -8 -10 -8 -16 3 -25 10 -9 16 -8
25 3 13 16 0 53 -23 68 -17 12 -68 9 -95 -5z m80 -136 c18 -14 24 -29 24 -61
0 -32 -6 -47 -24 -61 -52 -42 -116 -9 -116 61 0 47 29 80 70 80 13 0 33 -9 46
-19z"/>
<path d="M5030 8770 c0 -5 7 -10 15 -10 13 0 15 -22 15 -135 0 -113 -2 -135
-15 -135 -8 0 -15 -4 -15 -10 0 -6 42 -10 105 -10 l105 0 0 52 c0 55 -16 57
-22 3 -3 -29 -4 -30 -65 -33 l-63 -3 0 136 c0 113 2 135 15 135 8 0 15 5 15
10 0 6 -20 10 -45 10 -25 0 -45 -4 -45 -10z"/>
<path d="M5260 8770 c0 -5 8 -10 18 -10 16 0 22 -19 41 -122 36 -198 40 -202
66 -55 9 56 21 108 25 115 3 8 15 -33 25 -90 29 -169 34 -169 65 0 26 148 28
152 46 152 8 0 14 5 14 10 0 6 -18 10 -40 10 -22 0 -40 -4 -40 -10 0 -5 7 -10
15 -10 19 0 18 -5 -4 -110 -18 -84 -18 -85 -26 -45 -28 148 -32 160 -46 163
-12 2 -19 -19 -34 -98 -10 -55 -20 -99 -21 -97 -4 4 -34 158 -34 175 0 6 7 12
15 12 8 0 15 5 15 10 0 6 -22 10 -50 10 -27 0 -50 -4 -50 -10z"/>
<path d="M6230 8770 c0 -5 6 -10 14 -10 18 0 20 -4 47 -152 30 -169 35 -169
64 0 10 58 22 98 26 90 4 -7 15 -59 25 -115 25 -146 30 -143 64 50 20 108 26
127 42 127 10 0 18 5 18 10 0 6 -18 10 -40 10 -22 0 -40 -4 -40 -10 0 -5 7
-10 16 -10 9 0 14 -6 11 -13 -3 -8 -11 -48 -18 -90 -7 -43 -16 -77 -20 -77 -3
0 -9 19 -12 43 -13 90 -29 147 -42 147 -16 0 -19 -10 -36 -108 -7 -40 -15 -75
-19 -77 -3 -2 -12 30 -19 72 -7 42 -15 82 -18 90 -3 7 2 13 11 13 9 0 16 5 16
10 0 6 -20 10 -45 10 -25 0 -45 -4 -45 -10z"/>
<path d="M4450 8638 c-23 -73 -48 -138 -56 -144 -23 -18 -16 -24 26 -24 22 0
40 5 40 10 0 6 -10 10 -21 10 -17 0 -20 4 -15 23 3 12 6 25 6 30 0 4 27 7 60
7 56 0 61 -2 70 -26 13 -33 13 -34 -5 -34 -8 0 -15 -4 -15 -10 0 -5 20 -10 45
-10 25 0 45 5 45 10 0 6 -6 10 -14 10 -10 0 -30 48 -61 140 -26 77 -51 140
-55 140 -5 0 -28 -60 -50 -132z m90 -60 c0 -4 -22 -8 -49 -8 l-50 0 26 77 26
77 24 -69 c12 -38 23 -73 23 -77z"/>
<path d="M5750 8670 l0 -59 -62 -4 -63 -3 63 -2 62 -2 0 -60 c0 -33 4 -60 10
-60 6 0 10 27 10 60 l0 59 58 4 57 3 -57 2 -58 2 0 60 c0 33 -4 60 -10 60 -6
0 -10 -27 -10 -60z"/>
<path d="M4753 8643 c37 -2 97 -2 135 0 37 2 6 3 -68 3 -74 0 -105 -1 -67 -3z"/>
<path d="M2938 8573 c34 -2 90 -2 125 0 34 2 6 3 -63 3 -69 0 -97 -1 -62 -3z"/>
<path d="M3248 8573 c12 -2 30 -2 40 0 9 3 -1 5 -23 4 -22 0 -30 -2 -17 -4z"/>
<path d="M3468 8573 c34 -2 90 -2 125 0 34 2 6 3 -63 3 -69 0 -97 -1 -62 -3z"/>
<path d="M3778 8573 c12 -2 30 -2 40 0 9 3 -1 5 -23 4 -22 0 -30 -2 -17 -4z"/>
<path d="M3953 8573 c9 -2 23 -2 30 0 6 3 -1 5 -18 5 -16 0 -22 -2 -12 -5z"/>
<path d="M4695 8560 c4 -6 57 -10 125 -10 68 0 121 4 125 10 4 6 -40 10 -125
10 -85 0 -129 -4 -125 -10z"/>
<path d="M4780 8330 c-64 -90 -81 -197 -46 -302 17 -52 72 -135 83 -124 2 2
-7 21 -21 43 -14 21 -32 72 -41 116 -20 93 -9 163 36 245 31 56 24 71 -11 22z"/>
<path d="M5890 8316 c67 -98 64 -278 -5 -380 -30 -45 -15 -48 19 -3 44 58 61
115 61 207 0 89 -19 144 -68 198 -34 37 -38 25 -7 -22z"/>
<path d="M4171 8284 c-66 -56 -68 -228 -3 -263 37 -20 98 -13 129 13 24 20 28
32 27 71 -1 56 -24 83 -78 92 -29 4 -44 1 -67 -16 -32 -24 -35 -18 -18 42 15
56 80 92 119 67 12 -8 13 -13 3 -29 -15 -24 1 -39 22 -21 20 16 19 26 -5 50
-29 29 -90 27 -129 -6z m100 -123 c17 -18 29 -40 29 -56 0 -30 -49 -85 -75
-85 -9 0 -30 14 -47 30 -25 26 -29 36 -24 62 7 36 22 57 51 68 31 13 34 12 66
-19z"/>
<path d="M4403 8303 c15 -4 17 -19 17 -143 0 -123 -2 -139 -17 -144 -10 -2 31
-4 90 -3 95 2 110 4 123 21 21 29 18 92 -5 115 -19 19 -19 20 0 37 29 26 25
78 -7 103 -23 18 -40 21 -123 20 -53 -1 -88 -3 -78 -6z m160 -12 c47 -18 48
-88 2 -109 -14 -7 -46 -12 -70 -12 l-45 0 0 65 0 65 44 0 c25 0 56 -4 69 -9z
m15 -147 c16 -11 22 -25 22 -53 0 -50 -18 -64 -91 -69 l-59 -4 0 71 0 71 53 0
c31 0 61 -6 75 -16z"/>
<path d="M4947 8299 c-69 -41 -68 -241 2 -279 11 -5 36 -10 56 -10 61 0 95 53
95 150 0 98 -34 150 -97 150 -21 0 -46 -5 -56 -11z m88 -22 c53 -45 44 -220
-11 -246 -59 -27 -98 24 -98 129 0 117 49 169 109 117z"/>
<path d="M5335 8288 c-23 -20 -27 -30 -21 -52 6 -23 9 -26 22 -16 11 10 12 16
3 26 -27 32 57 68 107 45 18 -8 24 -18 24 -44 0 -39 -15 -57 -47 -57 -13 0
-23 -4 -23 -10 0 -5 10 -10 23 -10 28 0 41 -9 56 -37 18 -34 13 -62 -15 -90
-22 -21 -32 -25 -66 -20 -50 7 -81 33 -58 47 13 8 13 11 -2 26 -16 16 -17 15
-24 -11 -6 -23 -2 -33 20 -52 36 -30 122 -33 157 -4 32 26 33 90 1 124 -20 21
-21 25 -7 37 16 14 20 76 6 99 -6 9 -32 16 -68 19 -52 4 -63 1 -88 -20z"/>
<path d="M5601 8253 c-6 -32 -14 -69 -18 -83 l-6 -25 26 23 c14 13 43 26 65
29 55 7 92 -27 92 -87 0 -66 -59 -105 -120 -80 -31 13 -38 28 -20 46 8 8 7 14
-3 23 -23 18 -40 -9 -27 -43 11 -31 45 -46 100 -46 56 0 91 33 97 91 4 38 1
50 -22 77 -30 36 -76 49 -119 32 -36 -13 -39 -10 -31 33 l7 35 69 6 c38 4 69
11 69 17 0 5 -33 9 -74 9 l-73 0 -12 -57z"/>
<path d="M2880 8110 c0 -6 65 -10 175 -10 110 0 175 4 175 10 0 6 -65 10 -175
10 -110 0 -175 -4 -175 -10z"/>
<path d="M3350 8110 c0 -5 14 -10 30 -10 17 0 30 5 30 10 0 6 -13 10 -30 10
-16 0 -30 -4 -30 -10z"/>
<path d="M3530 8110 c0 -5 14 -10 30 -10 17 0 30 5 30 10 0 6 -13 10 -30 10
-16 0 -30 -4 -30 -10z"/>
<path d="M3710 8110 c0 -5 14 -10 31 -10 17 0 28 4 24 10 -3 6 -17 10 -31 10
-13 0 -24 -4 -24 -10z"/>
<path d="M3885 8110 c-4 -6 15 -10 49 -10 31 0 56 5 56 10 0 6 -22 10 -49 10
-28 0 -53 -4 -56 -10z"/>
<path d="M5190 8035 c-10 -12 -9 -16 5 -21 23 -9 40 10 22 25 -11 9 -17 8 -27
-4z"/>
<path d="M10150 7990 c0 -6 47 -10 120 -10 73 0 120 4 120 10 0 6 -47 10 -120
10 -73 0 -120 -4 -120 -10z"/>
<path d="M9738 7983 c34 -2 90 -2 125 0 34 2 6 3 -63 3 -69 0 -97 -1 -62 -3z"/>
<path d="M10622 7969 c2 -7 46 -41 97 -77 52 -36 92 -60 90 -53 -3 7 -47 42
-98 78 -51 36 -91 59 -89 52z"/>
<path d="M9420 7832 c-31 -26 -71 -60 -89 -75 -19 -15 -31 -30 -28 -34 6 -5
187 143 187 153 0 12 -20 -1 -70 -44z"/>
<path d="M11006 7703 c-3 -3 34 -34 82 -67 109 -77 112 -79 112 -68 0 12 -187
142 -194 135z"/>
<path d="M17315 7680 c-18 -8 -17 -9 8 -9 15 -1 27 4 27 9 0 12 -8 12 -35 0z"/>
<path d="M17465 7680 c3 -5 15 -10 25 -10 10 0 22 5 25 10 4 6 -7 10 -25 10
-18 0 -29 -4 -25 -10z"/>
<path d="M17630 7680 c0 -5 11 -10 25 -10 14 0 25 5 25 10 0 6 -11 10 -25 10
-14 0 -25 -4 -25 -10z"/>
<path d="M17794 7679 c-3 -5 9 -9 25 -9 17 0 31 2 31 4 0 8 -51 13 -56 5z"/>
<path d="M17135 7670 c-4 -6 5 -10 19 -10 14 0 26 5 26 10 0 6 -9 10 -19 10
-11 0 -23 -4 -26 -10z"/>
<path d="M17970 7670 c20 -13 40 -13 40 0 0 6 -12 10 -27 10 -22 0 -25 -2 -13
-10z"/>
<path d="M18130 7670 c0 -5 9 -10 20 -10 11 0 20 5 20 10 0 6 -9 10 -20 10
-11 0 -20 -4 -20 -10z"/>
<path d="M18295 7670 c-4 -6 5 -10 20 -10 15 0 24 4 20 10 -3 6 -12 10 -20 10
-8 0 -17 -4 -20 -10z"/>
<path d="M16970 7660 c0 -5 11 -10 25 -10 14 0 25 5 25 10 0 6 -11 10 -25 10
-14 0 -25 -4 -25 -10z"/>
<path d="M16810 7650 c0 -5 9 -10 20 -10 11 0 20 5 20 10 0 6 -9 10 -20 10
-11 0 -20 -4 -20 -10z"/>
<path d="M13513 7643 c9 -2 23 -2 30 0 6 3 -1 5 -18 5 -16 0 -22 -2 -12 -5z"/>
<path d="M13670 7640 c0 -5 12 -10 28 -10 21 0 24 2 12 10 -20 13 -40 13 -40
0z"/>
<path d="M16640 7640 c0 -12 8 -12 35 0 18 8 17 9 -7 9 -16 1 -28 -3 -28 -9z"/>
<path d="M13334 7631 c5 -8 56 -3 56 5 0 2 -14 4 -31 4 -16 0 -28 -4 -25 -9z"/>
<path d="M13830 7630 c0 -5 12 -10 26 -10 14 0 23 4 19 10 -3 6 -15 10 -26 10
-10 0 -19 -4 -19 -10z"/>
<path d="M15650 7630 c0 -5 12 -10 26 -10 14 0 23 4 19 10 -3 6 -15 10 -26 10
-10 0 -19 -4 -19 -10z"/>
<path d="M15815 7630 c-4 -6 5 -10 19 -10 14 0 26 5 26 10 0 6 -9 10 -19 10
-11 0 -23 -4 -26 -10z"/>
<path d="M15980 7630 c0 -5 11 -10 25 -10 14 0 25 5 25 10 0 6 -11 10 -25 10
-14 0 -25 -4 -25 -10z"/>
<path d="M16145 7630 c3 -5 15 -10 26 -10 10 0 19 5 19 10 0 6 -12 10 -26 10
-14 0 -23 -4 -19 -10z"/>
<path d="M16310 7630 c0 -5 9 -10 19 -10 11 0 23 5 26 10 4 6 -5 10 -19 10
-14 0 -26 -4 -26 -10z"/>
<path d="M16483 7633 c9 -2 23 -2 30 0 6 3 -1 5 -18 5 -16 0 -22 -2 -12 -5z"/>
<path d="M13170 7620 c0 -5 11 -10 25 -10 14 0 25 5 25 10 0 6 -11 10 -25 10
-14 0 -25 -4 -25 -10z"/>
<path d="M14000 7620 c0 -5 12 -10 26 -10 14 0 23 4 19 10 -3 6 -15 10 -26 10
-10 0 -19 -4 -19 -10z"/>
<path d="M15320 7620 c0 -5 12 -10 26 -10 14 0 23 4 19 10 -3 6 -15 10 -26 10
-10 0 -19 -4 -19 -10z"/>
<path d="M15493 7623 c9 -2 23 -2 30 0 6 3 -1 5 -18 5 -16 0 -22 -2 -12 -5z"/>
<path d="M13005 7610 c-4 -6 5 -10 19 -10 14 0 26 5 26 10 0 6 -9 10 -19 10
-11 0 -23 -4 -26 -10z"/>
<path d="M14160 7610 c0 -5 11 -10 25 -10 14 0 25 5 25 10 0 6 -11 10 -25 10
-14 0 -25 -4 -25 -10z"/>
<path d="M14985 7610 c-4 -6 7 -10 25 -10 18 0 29 4 25 10 -3 6 -15 10 -25 10
-10 0 -22 -4 -25 -10z"/>
<path d="M15154 7611 c3 -5 15 -7 26 -4 28 7 25 13 -6 13 -14 0 -23 -4 -20 -9z"/>
<path d="M10030 7600 c0 -5 11 -10 25 -10 14 0 25 5 25 10 0 6 -11 10 -25 10
-14 0 -25 -4 -25 -10z"/>
<path d="M10195 7600 c-4 -6 5 -10 19 -10 14 0 26 5 26 10 0 6 -9 10 -19 10
-11 0 -23 -4 -26 -10z"/>
<path d="M10360 7600 c0 -5 11 -10 25 -10 14 0 25 5 25 10 0 6 -11 10 -25 10
-14 0 -25 -4 -25 -10z"/>
<path d="M10530 7600 c0 -5 11 -10 25 -10 14 0 25 5 25 10 0 6 -11 10 -25 10
-14 0 -25 -4 -25 -10z"/>
<path d="M10695 7600 c3 -5 15 -10 26 -10 10 0 19 5 19 10 0 6 -12 10 -26 10
-14 0 -23 -4 -19 -10z"/>
<path d="M10860 7600 c0 -5 9 -10 19 -10 11 0 23 5 26 10 4 6 -5 10 -19 10
-14 0 -26 -4 -26 -10z"/>
<path d="M11025 7600 c3 -5 15 -10 26 -10 10 0 19 5 19 10 0 6 -12 10 -26 10
-14 0 -23 -4 -19 -10z"/>
<path d="M11203 7603 c9 -2 23 -2 30 0 6 3 -1 5 -18 5 -16 0 -22 -2 -12 -5z"/>
<path d="M11363 7603 c9 -2 23 -2 30 0 6 3 -1 5 -18 5 -16 0 -22 -2 -12 -5z"/>
<path d="M11533 7603 c9 -2 23 -2 30 0 6 3 -1 5 -18 5 -16 0 -22 -2 -12 -5z"/>
<path d="M11685 7600 c3 -5 15 -10 26 -10 10 0 19 5 19 10 0 6 -12 10 -26 10
-14 0 -23 -4 -19 -10z"/>
<path d="M12850 7600 c-12 -8 -9 -10 13 -10 15 0 27 5 27 10 0 13 -20 13 -40
0z"/>
<path d="M14330 7600 c0 -5 12 -10 26 -10 14 0 23 4 19 10 -3 6 -15 10 -26 10
-10 0 -19 -4 -19 -10z"/>
<path d="M14820 7600 c0 -5 11 -10 25 -10 14 0 25 5 25 10 0 6 -11 10 -25 10
-14 0 -25 -4 -25 -10z"/>
<path d="M9370 7590 c0 -5 11 -10 25 -10 14 0 25 5 25 10 0 6 -11 10 -25 10
-14 0 -25 -4 -25 -10z"/>
<path d="M9538 7588 c8 -8 17 -8 34 0 22 10 21 11 -11 11 -27 1 -32 -2 -23
-11z"/>
<path d="M9713 7593 c9 -2 23 -2 30 0 6 3 -1 5 -18 5 -16 0 -22 -2 -12 -5z"/>
<path d="M9873 7593 c9 -2 25 -2 35 0 9 3 1 5 -18 5 -19 0 -27 -2 -17 -5z"/>
<path d="M11863 7593 c9 -2 23 -2 30 0 6 3 -1 5 -18 5 -16 0 -22 -2 -12 -5z"/>
<path d="M12020 7590 c0 -5 9 -10 20 -10 11 0 20 5 20 10 0 6 -9 10 -20 10
-11 0 -20 -4 -20 -10z"/>
<path d="M14490 7590 c0 -5 11 -10 25 -10 14 0 25 5 25 10 0 6 -11 10 -25 10
-14 0 -25 -4 -25 -10z"/>
<path d="M14663 7593 c9 -2 25 -2 35 0 9 3 1 5 -18 5 -19 0 -27 -2 -17 -5z"/>
<path d="M9045 7580 c-4 -6 5 -10 20 -10 15 0 24 4 20 10 -3 6 -12 10 -20 10
-8 0 -17 -4 -20 -10z"/>
<path d="M9205 7580 c3 -5 15 -10 25 -10 10 0 22 5 25 10 4 6 -7 10 -25 10
-18 0 -29 -4 -25 -10z"/>
<path d="M12193 7583 c9 -2 23 -2 30 0 6 3 -1 5 -18 5 -16 0 -22 -2 -12 -5z"/>
<path d="M12350 7580 c0 -5 9 -10 20 -10 11 0 20 5 20 10 0 6 -9 10 -20 10
-11 0 -20 -4 -20 -10z"/>
<path d="M12683 7583 c9 -2 25 -2 35 0 9 3 1 5 -18 5 -19 0 -27 -2 -17 -5z"/>
<path d="M8875 7570 c3 -5 15 -10 26 -10 10 0 19 5 19 10 0 6 -12 10 -26 10
-14 0 -23 -4 -19 -10z"/>
<path d="M9028 7503 c-49 -41 -88 -79 -88 -85 0 -10 49 29 140 110 81 72 37
52 -52 -25z"/>
<path d="M12523 7573 c9 -2 23 -2 30 0 6 3 -1 5 -18 5 -16 0 -22 -2 -12 -5z"/>
<path d="M7385 7560 c-4 -6 7 -10 25 -10 18 0 29 4 25 10 -3 6 -15 10 -25 10
-10 0 -22 -4 -25 -10z"/>
<path d="M7550 7560 c0 -5 11 -10 25 -10 14 0 25 5 25 10 0 6 -11 10 -25 10
-14 0 -25 -4 -25 -10z"/>
<path d="M7720 7560 c0 -5 9 -10 19 -10 11 0 23 5 26 10 4 6 -5 10 -19 10 -14
0 -26 -4 -26 -10z"/>
<path d="M7885 7560 c3 -5 15 -10 26 -10 10 0 19 5 19 10 0 6 -12 10 -26 10
-14 0 -23 -4 -19 -10z"/>
<path d="M8050 7560 c0 -5 9 -10 19 -10 11 0 23 5 26 10 4 6 -5 10 -19 10 -14
0 -26 -4 -26 -10z"/>
<path d="M8215 7560 c3 -5 15 -10 26 -10 10 0 19 5 19 10 0 6 -12 10 -26 10
-14 0 -23 -4 -19 -10z"/>
<path d="M8380 7560 c0 -5 9 -10 19 -10 11 0 23 5 26 10 4 6 -5 10 -19 10 -14
0 -26 -4 -26 -10z"/>
<path d="M8545 7560 c3 -5 15 -10 26 -10 10 0 19 5 19 10 0 6 -12 10 -26 10
-14 0 -23 -4 -19 -10z"/>
<path d="M8723 7563 c9 -2 23 -2 30 0 6 3 -1 5 -18 5 -16 0 -22 -2 -12 -5z"/>
<path d="M17755 7560 c-17 -7 -15 -9 13 -9 17 -1 32 4 32 9 0 12 -17 12 -45 0z"/>
<path d="M5570 7550 c0 -5 12 -10 26 -10 14 0 23 4 19 10 -3 6 -15 10 -26 10
-10 0 -19 -4 -19 -10z"/>
<path d="M5730 7550 c0 -5 11 -10 25 -10 14 0 25 5 25 10 0 6 -11 10 -25 10
-14 0 -25 -4 -25 -10z"/>
<path d="M5900 7550 c0 -5 11 -10 25 -10 14 0 25 5 25 10 0 6 -11 10 -25 10
-14 0 -25 -4 -25 -10z"/>
<path d="M6065 7550 c-4 -6 5 -10 19 -10 14 0 26 5 26 10 0 6 -9 10 -19 10
-11 0 -23 -4 -26 -10z"/>
<path d="M6230 7550 c0 -5 12 -10 26 -10 14 0 23 4 19 10 -3 6 -15 10 -26 10
-10 0 -19 -4 -19 -10z"/>
<path d="M6395 7550 c-4 -6 5 -10 19 -10 14 0 26 5 26 10 0 6 -9 10 -19 10
-11 0 -23 -4 -26 -10z"/>
<path d="M6740 7550 c-24 -8 -23 -8 8 -9 20 -1 31 3 27 9 -3 6 -7 10 -8 9 -1
-1 -13 -5 -27 -9z"/>
<path d="M6890 7550 c0 -5 11 -10 25 -10 14 0 25 5 25 10 0 6 -11 10 -25 10
-14 0 -25 -4 -25 -10z"/>
<path d="M7055 7550 c3 -5 15 -10 25 -10 10 0 22 5 25 10 4 6 -7 10 -25 10
-18 0 -29 -4 -25 -10z"/>
<path d="M7233 7553 c9 -2 23 -2 30 0 6 3 -1 5 -18 5 -16 0 -22 -2 -12 -5z"/>
<path d="M5400 7540 c0 -5 11 -10 25 -10 14 0 25 5 25 10 0 6 -11 10 -25 10
-14 0 -25 -4 -25 -10z"/>
<path d="M6573 7543 c9 -2 23 -2 30 0 6 3 -1 5 -18 5 -16 0 -22 -2 -12 -5z"/>
<path d="M5075 7530 c-4 -6 5 -10 19 -10 14 0 26 5 26 10 0 6 -9 10 -19 10
-11 0 -23 -4 -26 -10z"/>
<path d="M5253 7533 c9 -2 23 -2 30 0 6 3 -1 5 -18 5 -16 0 -22 -2 -12 -5z"/>
<path d="M17575 7530 c-3 -6 5 -10 19 -10 14 0 28 5 31 10 3 6 -5 10 -19 10
-14 0 -28 -4 -31 -10z"/>
<path d="M4755 7520 c-18 -8 -17 -9 8 -9 15 -1 27 4 27 9 0 12 -8 12 -35 0z"/>
<path d="M4905 7520 c3 -5 15 -10 25 -10 10 0 22 5 25 10 4 6 -7 10 -25 10
-18 0 -29 -4 -25 -10z"/>
<path d="M4580 7510 c0 -5 9 -10 20 -10 11 0 20 5 20 10 0 6 -9 10 -20 10 -11
0 -20 -4 -20 -10z"/>
<path d="M4410 7500 c0 -13 20 -13 40 0 12 8 9 10 -12 10 -16 0 -28 -4 -28
-10z"/>
<path d="M17418 7503 c-10 -2 -18 -9 -18 -15 0 -5 7 -7 16 -4 9 3 20 6 25 6 5
0 9 5 9 10 0 10 -3 11 -32 3z"/>
<path d="M4080 7490 c0 -5 11 -10 25 -10 14 0 25 5 25 10 0 6 -11 10 -25 10
-14 0 -25 -4 -25 -10z"/>
<path d="M4253 7493 c9 -2 25 -2 35 0 9 3 1 5 -18 5 -19 0 -27 -2 -17 -5z"/>
<path d="M4250 7450 c0 -5 14 -10 31 -10 17 0 28 4 24 10 -3 6 -17 10 -31 10
-13 0 -24 -4 -24 -10z"/>
<path d="M4425 7440 c3 -5 17 -10 31 -10 13 0 24 5 24 10 0 6 -14 10 -31 10
-17 0 -28 -4 -24 -10z"/>
<path d="M17130 7384 c-85 -35 -159 -65 -165 -67 -5 -2 -7 -7 -4 -10 5 -6 316
116 328 128 16 17 -22 4 -159 -51z"/>
<path d="M4600 7430 c0 -5 14 -10 30 -10 17 0 30 5 30 10 0 6 -13 10 -30 10
-16 0 -30 -4 -30 -10z"/>
<path d="M11390 7433 c0 -4 32 -30 72 -58 111 -77 128 -88 128 -78 0 5 -39 36
-87 69 -108 74 -113 77 -113 67z"/>
<path d="M4774 7403 c12 -13 336 -122 336 -114 0 8 -314 121 -334 121 -5 0 -6
-3 -2 -7z"/>
<path d="M8688 7216 c-58 -49 -98 -94 -98 -112 0 -3 21 16 48 43 26 27 65 64
86 81 22 17 37 34 34 37 -3 3 -35 -19 -70 -49z"/>
<path d="M16810 7255 c-18 -10 -20 -14 -8 -15 23 0 48 11 48 21 0 12 -11 11
-40 -6z"/>
<path d="M5220 7251 c0 -8 34 -21 55 -21 11 1 -35 29 -47 30 -5 0 -8 -4 -8 -9z"/>
<path d="M5390 7191 c0 -10 50 -25 58 -17 2 3 -7 10 -22 16 -33 12 -36 12 -36
1z"/>
<path d="M16644 7184 c-18 -14 -18 -15 6 -8 31 8 50 24 29 24 -8 0 -24 -7 -35
-16z"/>
<path d="M11770 7142 c0 -13 172 -154 179 -146 3 3 -10 19 -29 35 -93 77 -150
119 -150 111z"/>
<path d="M5575 7126 c17 -8 32 -12 34 -10 7 7 -3 12 -34 18 l-30 6 30 -14z"/>
<path d="M16493 7128 c-31 -15 -29 -30 2 -16 14 6 25 15 25 20 0 9 1 10 -27
-4z"/>
<path d="M5720 7073 c0 -8 89 -61 266 -160 24 -14 44 -21 44 -16 0 8 -89 61
-266 160 -24 14 -44 21 -44 16z"/>
<path d="M16190 7008 c-164 -64 -166 -65 -159 -73 6 -6 310 112 324 126 17 17
-8 9 -165 -53z"/>
<path d="M8405 6839 c-84 -124 -87 -129 -78 -129 12 0 135 180 131 192 -2 6
-26 -23 -53 -63z"/>
<path d="M15883 6888 c-34 -16 -28 -29 7 -17 17 6 30 15 30 20 0 11 -9 11 -37
-3z"/>
<path d="M12130 6842 c0 -5 32 -36 72 -68 93 -76 108 -87 114 -82 2 3 -31 34
-73 69 -110 90 -113 93 -113 81z"/>
<path d="M6144 6825 c11 -8 27 -15 35 -15 10 1 7 6 -9 15 -33 19 -50 18 -26 0z"/>
<path d="M15718 6823 c-10 -2 -18 -9 -18 -14 0 -13 13 -11 36 6 19 14 14 17
-18 8z"/>
<path d="M15553 6758 c-34 -16 -28 -29 7 -17 17 6 30 15 30 20 0 11 -9 11 -37
-3z"/>
<path d="M6286 6751 c-5 -8 43 -35 51 -28 2 2 -8 12 -21 21 -14 8 -27 12 -30
7z"/>
<path d="M15259 6646 c-75 -29 -144 -56 -154 -60 -10 -3 -15 -9 -12 -12 5 -6
337 115 337 122 0 11 -49 -3 -171 -50z"/>
<path d="M6440 6663 c0 -7 32 -32 43 -33 17 0 5 18 -18 28 -14 6 -25 9 -25 5z"/>
<path d="M6594 6572 c3 -5 56 -38 118 -74 62 -36 130 -76 151 -88 20 -12 37
-18 37 -12 0 9 -289 182 -304 182 -4 0 -5 -4 -2 -8z"/>
<path d="M12500 6527 c135 -122 194 -168 175 -137 -13 20 -166 150 -177 150
-8 0 -8 -4 2 -13z"/>
<path d="M14945 6525 c-23 -10 -25 -14 -10 -14 21 -1 52 15 45 23 -3 2 -18 -2
-35 -9z"/>
<path d="M8125 6425 c-37 -53 -64 -99 -61 -102 7 -8 1 -16 75 95 35 52 60 96
58 99 -3 2 -35 -39 -72 -92z"/>
<path d="M14770 6460 c-24 -15 -7 -19 25 -5 23 10 25 14 10 14 -11 0 -27 -3
-35 -9z"/>
<path d="M14604 6394 c-18 -14 -18 -15 6 -8 31 8 50 24 29 24 -8 0 -24 -7 -35
-16z"/>
<path d="M14300 6303 c-157 -46 -167 -50 -159 -57 6 -6 322 84 334 95 16 15
-13 9 -175 -38z"/>
<path d="M7019 6319 c13 -11 27 -17 30 -13 7 7 -28 34 -43 34 -6 -1 0 -10 13
-21z"/>
<path d="M7170 6231 c13 -11 28 -17 33 -14 11 6 -23 32 -43 32 -10 1 -7 -6 10
-18z"/>
<path d="M12851 6222 c6 -16 162 -152 174 -152 5 0 -24 32 -65 70 -76 71 -115
101 -109 82z"/>
<path d="M13988 6213 c-10 -2 -18 -8 -18 -12 0 -11 49 -1 56 10 5 9 -8 10 -38
2z"/>
<path d="M13810 6160 c-24 -15 -7 -19 25 -5 23 10 25 14 10 14 -11 0 -27 -3
-35 -9z"/>
<path d="M7300 6155 c0 -2 14 -11 30 -20 17 -9 30 -11 30 -6 0 6 -9 15 -19 21
-21 11 -41 13 -41 5z"/>
<path d="M7857 6029 c-38 -54 -64 -99 -58 -99 13 0 134 178 129 190 -2 5 -34
-36 -71 -91z"/>
<path d="M13640 6110 c-24 -15 -7 -19 25 -5 23 10 25 14 10 14 -11 0 -27 -3
-35 -9z"/>
<path d="M7464 6061 c6 -9 258 -155 289 -166 34 -13 16 12 -20 29 -21 10 -88
46 -149 82 -110 63 -131 73 -120 55z"/>
<path d="M13343 6008 c-84 -33 -153 -64 -153 -68 0 -5 46 10 103 32 56 22 127
49 157 60 58 21 85 38 60 37 -8 0 -84 -27 -167 -61z"/>
<path d="M13200 5912 c0 -13 172 -163 179 -156 3 3 -14 23 -39 45 -112 98
-140 120 -140 111z"/>
<path d="M13034 5884 c-18 -14 -18 -15 6 -8 31 8 50 24 29 24 -8 0 -24 -7 -35
-16z"/>
<path d="M7870 5842 c0 -10 50 -35 57 -28 3 2 -9 12 -26 21 -17 8 -31 12 -31
7z"/>
<path d="M12875 5825 c-23 -10 -25 -14 -10 -14 21 -1 52 15 45 23 -3 2 -18 -2
-35 -9z"/>
<path d="M8030 5761 c0 -13 38 -33 53 -28 7 2 -3 11 -20 21 -18 9 -33 12 -33
7z"/>
<path d="M12708 5763 c-10 -2 -18 -9 -18 -14 0 -12 10 -11 40 6 24 14 14 18
-22 8z"/>
<path d="M7647 5718 c-11 -18 -81 -139 -104 -180 -2 -5 0 -8 4 -8 12 0 127
199 120 206 -3 3 -12 -5 -20 -18z"/>
<path d="M12407 5665 c-148 -40 -190 -55 -157 -55 29 0 330 83 330 91 0 11 11
14 -173 -36z"/>
<path d="M8204 5665 c11 -8 25 -15 30 -15 6 0 2 7 -8 15 -11 8 -25 15 -30 15
-6 0 -2 -7 8 -15z"/>
<path d="M8340 5596 c0 -9 294 -156 311 -156 10 0 -52 36 -137 80 -144 74
-174 87 -174 76z"/>
<path d="M13550 5592 c0 -4 38 -43 85 -86 47 -42 85 -74 85 -69 0 10 -152 163
-163 163 -4 0 -7 -4 -7 -8z"/>
<path d="M12088 5583 c-10 -2 -18 -9 -18 -14 0 -11 39 -2 55 12 9 9 -6 10 -37
2z"/>
<path d="M11900 5530 c-12 -8 -12 -10 5 -9 11 0 29 4 40 9 18 8 18 9 -5 9 -14
0 -32 -4 -40 -9z"/>
<path d="M11737 5493 c-9 -2 -15 -8 -12 -12 6 -11 55 -1 55 10 0 9 -13 10 -43
2z"/>
<path d="M11450 5418 c-176 -44 -185 -47 -178 -54 5 -5 329 73 337 82 13 13
-19 7 -159 -28z"/>
<path d="M8780 5411 c0 -10 50 -25 58 -17 2 3 -7 10 -22 16 -33 12 -36 12 -36
1z"/>
<path d="M8955 5360 c3 -5 18 -10 33 -10 21 0 24 2 12 10 -20 13 -53 13 -45 0z"/>
<path d="M11105 5330 c-18 -8 -17 -9 7 -9 15 -1 30 4 33 9 7 12 -12 12 -40 0z"/>
<path d="M9120 5321 c0 -9 52 -22 59 -15 6 6 -1 11 -31 18 -16 3 -28 2 -28 -3z"/>
<path d="M10943 5293 c-13 -2 -23 -9 -23 -15 0 -5 7 -7 16 -4 9 3 22 6 30 6 8
0 14 5 14 10 0 6 -3 9 -7 9 -5 -1 -18 -4 -30 -6z"/>
<path d="M9300 5271 c23 -13 294 -81 321 -80 25 0 -294 89 -321 89 -13 -1 -13
-2 0 -9z"/>
<path d="M10785 5252 c-11 -2 -24 -9 -30 -14 -7 -7 -1 -8 20 -3 44 10 53 26
10 17z"/>
<path d="M10440 5200 l-165 -6 170 -2 c96 -1 176 2 185 8 12 8 11 9 -5 8 -11
-1 -94 -5 -185 -8z"/>
<path d="M9763 5193 c9 -2 25 -2 35 0 9 3 1 5 -18 5 -19 0 -27 -2 -17 -5z"/>
<path d="M9943 5193 c9 -2 25 -2 35 0 9 3 1 5 -18 5 -19 0 -27 -2 -17 -5z"/>
<path d="M10118 5193 c12 -2 30 -2 40 0 9 3 -1 5 -23 4 -22 0 -30 -2 -17 -4z"/>
<path d="M18038 7479 c-28 -16 -21 -30 7 -17 14 6 25 15 25 20 0 11 -11 10
-32 -3z"/>
<path d="M17796 7359 c-54 -28 -95 -53 -92 -57 8 -7 206 89 206 100 0 13 -11
9 -114 -43z"/>
<path d="M4245 7360 c28 -12 57 -12 50 0 -3 6 -21 10 -38 9 -27 0 -29 -2 -12
-9z"/>
<path d="M4410 7332 c0 -8 187 -52 219 -52 33 0 -3 13 -86 31 -48 11 -98 21
-110 24 -13 3 -23 2 -23 -3z"/>
<path d="M17554 7235 c-24 -18 -7 -19 26 0 16 9 19 14 9 15 -8 0 -24 -7 -35
-15z"/>
<path d="M4740 7233 c0 -12 38 -48 45 -41 3 2 -6 15 -20 28 -14 13 -25 19 -25
13z"/>
<path d="M17350 7080 c-87 -95 -99 -127 -14 -37 86 90 108 117 102 122 -3 3
-42 -35 -88 -85z"/>
<path d="M4860 7102 c0 -4 39 -46 86 -92 107 -106 107 -90 0 19 -78 81 -86 88
-86 73z"/>
<path d="M17167 6885 c-10 -14 -14 -25 -9 -25 10 0 42 33 42 43 0 14 -16 5
-33 -18z"/>
<path d="M5120 6825 c13 -14 26 -23 28 -20 7 7 -29 45 -41 45 -6 0 0 -11 13
-25z"/>
<path d="M16988 6696 c-43 -47 -78 -88 -78 -92 0 -11 125 113 151 149 40 54 2
25 -73 -57z"/>
<path d="M5230 6713 c0 -11 153 -163 164 -163 9 0 -141 163 -155 168 -5 2 -9
0 -9 -5z"/>
<path d="M16805 6500 c-27 -30 -12 -34 15 -5 13 14 19 25 13 25 -5 0 -18 -9
-28 -20z"/>
<path d="M5470 6463 c0 -12 38 -48 45 -41 3 2 -6 15 -20 28 -14 13 -25 19 -25
13z"/>
<path d="M16618 6306 c-43 -46 -75 -85 -73 -88 6 -6 165 154 165 165 0 17 -20
0 -92 -77z"/>
<path d="M5629 6293 c23 -27 56 -69 74 -95 39 -58 58 -64 26 -8 -31 50 -117
150 -131 150 -5 0 9 -21 31 -47z"/>
<path d="M16440 6115 c-13 -14 -19 -25 -13 -25 12 0 48 38 41 45 -2 3 -15 -6
-28 -20z"/>
<path d="M5812 6025 c6 -14 15 -25 20 -25 11 0 10 7 -2 31 -16 28 -32 23 -18
-6z"/>
<path d="M16265 5920 c-38 -43 -71 -85 -73 -92 -4 -15 133 127 148 155 24 39
-9 12 -75 -63z"/>
<path d="M5951 5800 c34 -55 66 -100 71 -100 6 0 4 10 -4 23 -8 12 -36 57 -62
100 -27 42 -52 77 -57 77 -5 0 19 -45 52 -100z"/>
<path d="M16085 5720 c-27 -30 -12 -34 15 -5 13 14 19 25 13 25 -5 0 -18 -9
-28 -20z"/>
<path d="M15907 5523 c-43 -47 -75 -89 -72 -92 3 -3 34 26 68 64 80 89 101
115 90 115 -5 0 -44 -39 -86 -87z"/>
<path d="M6080 5593 c1 -14 30 -47 36 -41 6 7 -17 48 -28 48 -5 0 -8 -3 -8 -7z"/>
<path d="M6182 5428 c8 -13 36 -58 62 -100 27 -43 53 -78 58 -78 6 0 3 10 -5
23 -8 13 -37 58 -63 100 -26 42 -51 77 -57 77 -5 0 -3 -10 5 -22z"/>
<path d="M15730 5325 c-13 -14 -19 -25 -13 -25 12 0 48 38 41 45 -2 3 -15 -6
-28 -20z"/>
<path d="M7362 5226 c-34 -59 -57 -106 -51 -104 15 5 121 188 116 201 -2 6
-31 -38 -65 -97z"/>
<path d="M15548 5126 c-43 -46 -74 -86 -71 -90 3 -3 30 20 58 52 82 90 107
122 98 122 -5 0 -43 -38 -85 -84z"/>
<path d="M6360 5143 c1 -10 39 -60 40 -51 0 14 -23 58 -32 58 -4 0 -8 -3 -8
-7z"/>
<path d="M6476 4953 c59 -101 101 -163 106 -157 8 7 -114 204 -125 204 -5 0 4
-21 19 -47z"/>
<path d="M15365 4930 c-10 -11 -14 -20 -8 -20 5 0 18 9 28 20 10 11 14 20 8
20 -5 0 -18 -9 -28 -20z"/>
<path d="M14220 4935 c0 -6 38 -48 85 -95 47 -47 85 -80 85 -75 0 6 -38 48
-85 95 -47 47 -85 80 -85 75z"/>
<path d="M7126 4819 c-31 -55 -55 -103 -52 -107 8 -7 5 -11 58 83 64 114 70
125 60 125 -4 0 -34 -45 -66 -101z"/>
<path d="M15180 4745 c-47 -47 -80 -85 -75 -85 14 0 170 158 164 164 -3 3 -43
-33 -89 -79z"/>
<path d="M6640 4694 c0 -7 9 -22 20 -35 10 -13 19 -19 20 -13 0 7 -9 22 -20
35 -10 13 -19 19 -20 13z"/>
<path d="M14560 4592 c0 -5 38 -44 85 -86 47 -43 85 -73 85 -68 0 9 -154 162
-164 162 -3 0 -6 -4 -6 -8z"/>
<path d="M14990 4555 c-13 -14 -19 -25 -13 -25 12 0 48 38 41 45 -2 3 -15 -6
-28 -20z"/>
<path d="M6730 4542 c0 -4 26 -53 59 -108 43 -75 56 -105 49 -118 -5 -9 -5
-16 -1 -16 11 0 126 200 119 207 -5 5 -34 -39 -76 -114 l-24 -43 -58 100 c-54
93 -68 112 -68 92z"/>
<path d="M14800 4365 c-47 -47 -80 -85 -75 -85 6 0 48 38 95 85 47 47 80 85
75 85 -6 0 -48 -38 -95 -85z"/>
<path d="M14975 4186 c50 -46 92 -82 94 -80 8 8 -153 164 -169 164 -8 0 26
-38 75 -84z"/>
<path d="M6910 4234 c0 -7 9 -22 20 -35 10 -13 19 -19 20 -13 0 7 -9 22 -20
35 -10 13 -19 19 -20 13z"/>
<path d="M14615 4180 c-27 -30 -12 -34 15 -5 13 14 19 25 13 25 -5 0 -18 -9
-28 -20z"/>
<path d="M6652 4000 c-35 -57 -60 -105 -57 -108 6 -7 2 -13 69 96 31 52 56 98
54 104 -2 5 -32 -36 -66 -92z"/>
<path d="M7000 4081 c0 -16 112 -201 122 -201 5 0 1 15 -10 33 -11 17 -38 65
-62 105 -41 70 -50 81 -50 63z"/>
<path d="M14425 3994 c-49 -46 -84 -84 -77 -84 15 0 179 156 172 163 -3 3 -45
-33 -95 -79z"/>
<path d="M15237 3943 c-3 -5 34 -46 84 -92 49 -45 89 -79 89 -74 0 15 -167
175 -173 166z"/>
<path d="M14225 3810 c-15 -16 -15 -20 -3 -20 8 0 23 9 33 20 15 16 15 20 3
20 -8 0 -23 -9 -33 -20z"/>
<path d="M7181 3775 c0 -18 26 -58 32 -49 3 5 -3 21 -14 34 -10 14 -18 21 -18
15z"/>
<path d="M14037 3631 c-45 -44 -80 -81 -77 -84 3 -3 45 33 94 79 50 46 84 84
78 84 -7 0 -50 -36 -95 -79z"/>
<path d="M6415 3618 c-69 -114 -77 -128 -67 -128 4 0 35 44 67 97 69 111 70
113 58 113 -4 0 -31 -37 -58 -82z"/>
<path d="M7270 3619 c0 -16 111 -201 117 -195 5 5 -105 206 -113 206 -2 0 -4
-5 -4 -11z"/>
<path d="M15571 3605 c0 -13 158 -183 159 -170 0 6 -36 49 -80 95 -43 47 -79
81 -79 75z"/>
<path d="M13845 3450 c-27 -30 -12 -34 15 -5 13 14 19 25 13 25 -5 0 -18 -9
-28 -20z"/>
<path d="M13650 3271 c-47 -43 -83 -81 -80 -85 3 -3 46 33 95 79 50 46 86 84
80 84 -5 0 -48 -35 -95 -78z"/>
<path d="M7457 3290 c10 -17 19 -26 21 -21 5 14 -17 51 -29 51 -6 0 -2 -14 8
-30z"/>
<path d="M6164 3213 c-26 -43 -54 -88 -62 -100 -8 -13 -10 -23 -5 -23 6 0 31
35 57 77 26 42 55 87 63 100 8 13 11 23 5 23 -5 0 -31 -35 -58 -77z"/>
<path d="M15938 3193 c70 -79 112 -120 112 -109 0 12 -151 176 -162 176 -6 0
17 -30 50 -67z"/>
<path d="M7540 3161 c0 -15 98 -189 111 -197 17 -10 8 10 -38 90 -61 106 -73
123 -73 107z"/>
<path d="M13455 3090 c-10 -11 -15 -23 -12 -27 8 -7 47 25 47 39 0 14 -16 9
-35 -12z"/>
<path d="M13270 2905 c-46 -46 -82 -87 -79 -89 3 -3 43 33 89 79 46 46 82 87
79 89 -3 3 -43 -33 -89 -79z"/>
<path d="M16225 2878 c62 -74 136 -150 142 -145 6 7 -147 177 -160 177 -5 0 3
-15 18 -32z"/>
<path d="M5905 2795 c-32 -53 -55 -98 -52 -101 4 -4 60 81 121 184 4 6 3 12
-2 12 -5 0 -35 -43 -67 -95z"/>
<path d="M7720 2864 c0 -7 9 -22 20 -35 10 -13 19 -19 20 -13 0 7 -9 22 -20
35 -10 13 -19 19 -20 13z"/>
<path d="M13075 2720 c-27 -30 -12 -34 15 -5 13 14 19 25 13 25 -5 0 -18 -9
-28 -20z"/>
<path d="M7820 2715 c0 -5 114 -179 126 -194 2 -2 7 -2 10 1 6 7 -117 197
-128 198 -5 0 -8 -2 -8 -5z"/>
<path d="M12885 2534 c-49 -46 -84 -84 -76 -84 15 0 179 156 171 163 -3 3 -45
-33 -95 -79z"/>
<path d="M16600 2475 c47 -47 89 -85 95 -85 5 0 -28 38 -75 85 -47 47 -89 85
-95 85 -5 0 28 -38 75 -85z"/>
<path d="M5710 2481 c0 -5 -32 -45 -70 -90 -39 -44 -66 -81 -62 -81 17 0 152
155 152 173 0 4 -4 7 -10 7 -5 0 -10 -4 -10 -9z"/>
<path d="M8020 2424 c0 -7 9 -22 20 -35 10 -13 19 -19 20 -13 0 7 -9 22 -20
35 -10 13 -19 19 -20 13z"/>
<path d="M12695 2350 c-10 -11 -16 -22 -13 -25 3 -3 13 4 23 15 10 11 16 22
13 25 -3 3 -13 -4 -23 -15z"/>
<path d="M8120 2272 c0 -5 28 -49 62 -98 74 -107 67 -98 73 -93 5 5 -122 199
-130 199 -3 0 -5 -4 -5 -8z"/>
<path d="M12497 2169 c-93 -76 -114 -110 -25 -41 78 60 134 111 123 112 -5 0
-49 -32 -98 -71z"/>
<path d="M16860 2225 c0 -6 38 -48 85 -95 47 -47 85 -80 85 -75 0 6 -38 48
-85 95 -47 47 -85 80 -85 75z"/>
<path d="M5359 2082 c-90 -94 -113 -122 -102 -122 12 0 167 169 161 175 -2 3
-29 -21 -59 -53z"/>
<path d="M12289 2001 c-13 -11 -19 -20 -13 -21 15 0 50 27 43 34 -3 4 -17 -2
-30 -13z"/>
<path d="M8321 1980 c0 -16 22 -50 33 -50 11 0 6 14 -14 40 -13 16 -20 20 -19
10z"/>
<path d="M12083 1836 c-51 -40 -90 -76 -87 -79 6 -5 194 140 194 149 0 12 -24
-4 -107 -70z"/>
<path d="M17266 1805 c71 -79 94 -97 94 -77 0 10 -153 162 -163 162 -5 0 26
-38 69 -85z"/>
<path d="M8420 1835 c0 -15 122 -195 132 -195 11 0 8 6 -60 105 -61 90 -72
103 -72 90z"/>
<path d="M5007 1703 c-43 -47 -75 -88 -72 -91 6 -6 164 158 165 171 1 18 -20
0 -93 -80z"/>
<path d="M11877 1672 c-10 -10 -17 -22 -17 -26 0 -9 49 27 50 37 0 13 -17 7
-33 -11z"/>
<path d="M11674 1509 c-49 -39 -91 -75 -93 -81 -5 -15 13 -3 99 65 97 78 95
76 88 82 -3 3 -45 -27 -94 -66z"/>
<path d="M17540 1575 c0 -9 201 -106 212 -103 5 2 -35 27 -90 56 -92 48 -122
60 -122 47z"/>
<path d="M8616 1541 c-7 -10 32 -47 40 -38 3 3 -4 15 -15 26 -11 11 -23 17
-25 12z"/>
<path d="M4736 1407 c-21 -27 -38 -36 -83 -47 -66 -14 -101 -29 -68 -30 31 0
124 27 141 41 24 20 56 69 45 69 -5 0 -21 -15 -35 -33z"/>
<path d="M8751 1423 c0 -11 154 -132 176 -140 16 -5 16 -4 3 9 -25 25 -168
138 -174 138 -3 0 -6 -3 -5 -7z"/>
<path d="M17960 1362 c0 -7 204 -112 218 -112 15 1 -36 33 -120 76 -92 46 -98
49 -98 36z"/>
<path d="M11454 1346 c-10 -8 -16 -17 -13 -20 3 -4 17 2 30 13 27 23 13 28
-17 7z"/>
<path d="M4218 1253 c-54 -14 -98 -30 -98 -35 0 -5 8 -7 18 -4 9 3 58 15 107
27 50 12 94 26 100 30 15 14 -23 9 -127 -18z"/>
<path d="M9040 1185 c12 -13 27 -22 32 -19 5 3 -2 14 -16 25 -34 27 -44 24
-16 -6z"/>
<path d="M10654 10955 c-7 -40 -10 -42 -37 -17 -14 13 -36 17 -89 17 -64 0
-72 -2 -94 -28 -31 -36 -30 -58 1 -96 18 -21 49 -37 104 -56 91 -30 111 -48
111 -97 0 -52 -28 -73 -100 -73 -48 0 -63 4 -84 24 -14 14 -26 29 -26 35 -1 6
-7 25 -15 41 -12 28 -13 24 -13 -60 l-1 -90 17 38 c16 36 18 37 34 20 12 -11
38 -18 81 -21 57 -4 66 -1 95 23 27 22 32 34 32 70 0 63 -26 89 -119 120 -121
40 -153 91 -81 128 46 24 112 18 145 -13 13 -13 31 -41 39 -64 l14 -41 1 88
c1 92 -4 110 -15 52z"/>
<path d="M12832 10957 c-14 -38 -14 -38 -34 -20 -15 13 -36 18 -83 18 -53 0
-68 -4 -89 -24 -53 -50 -72 -173 -37 -253 29 -68 52 -83 128 -83 60 0 67 2 94
33 16 18 29 37 29 44 0 6 -15 -6 -33 -27 -29 -33 -39 -38 -79 -39 -56 -1 -88
24 -113 91 -33 85 -2 199 64 237 31 18 37 18 75 5 40 -14 52 -29 78 -94 l13
-30 3 48 c2 26 2 67 0 90 l-3 42 -13 -38z"/>
<path d="M13180 10981 c0 -5 -5 -22 -10 -37 -10 -26 -11 -26 -31 -8 -16 15
-37 19 -89 19 -59 0 -72 -3 -94 -24 -57 -54 -16 -116 103 -156 91 -30 111 -48
111 -97 0 -52 -28 -73 -100 -73 -69 0 -100 23 -124 89 l-14 41 -1 -90 0 -90
15 37 16 37 28 -21 c23 -17 39 -20 89 -16 78 5 111 33 111 91 0 62 -28 91
-118 121 -95 32 -122 50 -122 81 0 36 43 60 107 59 62 0 94 -24 117 -88 l14
-41 1 88 c1 48 -1 87 -4 87 -3 0 -5 -4 -5 -9z"/>
<path d="M8427 10924 c-46 -42 -54 -61 -11 -29 10 8 22 15 27 15 4 0 7 -69 7
-154 l0 -155 -37 -4 c-21 -2 0 -4 47 -4 47 0 70 2 53 4 l-33 4 -2 184 -3 183
-48 -44z"/>
<path d="M7263 10953 l27 -4 0 -174 0 -174 -27 -4 c-16 -2 4 -4 42 -4 39 0 58
2 43 4 -28 4 -28 4 -28 89 l0 84 49 0 c59 0 67 -8 95 -102 21 -69 24 -73 54
-76 23 -2 33 2 42 18 15 27 2 47 -15 23 -18 -23 -26 -15 -63 70 l-31 67 33 14
c66 28 85 93 42 143 -24 28 -25 28 -158 29 -73 1 -121 0 -105 -3z m228 -32
c28 -35 25 -85 -7 -110 -21 -17 -41 -21 -95 -21 l-69 0 0 81 0 81 76 -4 c65
-3 79 -7 95 -27z m19 -306 c7 -9 8 -15 2 -15 -5 0 -12 7 -16 15 -3 8 -4 15 -2
15 2 0 9 -7 16 -15z"/>
<path d="M7708 10953 c-72 -19 -93 -250 -30 -331 20 -26 74 -38 126 -28 26 5
41 16 58 44 20 32 23 50 23 137 0 86 -3 105 -23 136 -12 20 -32 39 -45 43 -24
6 -83 6 -109 -1z m91 -18 c40 -20 56 -66 56 -165 0 -98 -21 -147 -69 -163 -71
-24 -110 36 -110 168 0 99 17 149 57 165 31 12 34 12 66 -5z"/>
<path d="M8017 10943 c-11 -11 -17 -13 -17 -5 0 7 -4 12 -10 12 -5 0 -10 -22
-10 -50 0 -27 5 -50 10 -50 6 0 10 11 10 23 0 28 29 57 56 57 10 0 43 -10 72
-22 44 -18 57 -20 73 -10 39 24 20 -17 -35 -77 -34 -37 -59 -76 -70 -109 -21
-63 -18 -115 7 -120 14 -3 17 4 17 48 0 61 18 107 64 163 40 49 56 86 56 128
0 36 -13 38 -28 4 -15 -31 -36 -32 -87 0 -47 29 -84 32 -108 8z"/>
<path d="M9683 10953 l27 -4 0 -174 0 -174 -27 -4 c-16 -2 38 -5 120 -6 l147
-1 0 48 c0 66 -13 74 -26 15 l-10 -48 -87 -3 -87 -3 0 86 0 85 44 0 c43 0 45
-1 49 -32 2 -18 4 1 4 42 0 41 -2 60 -4 43 -4 -32 -6 -33 -49 -33 l-44 0 0 80
0 80 85 0 c92 0 89 2 100 -62 9 -57 25 -46 25 17 l0 55 -147 -1 c-82 -1 -136
-4 -120 -6z"/>
<path d="M11043 10953 l27 -4 0 -174 0 -174 -27 -4 c-16 -2 38 -5 120 -6 l147
-1 0 55 c0 69 -16 72 -25 5 l-7 -50 -89 0 -89 0 0 85 0 85 45 0 c44 0 45 -1
45 -31 0 -17 4 -28 10 -24 6 3 10 35 10 71 0 36 -4 64 -10 64 -5 0 -10 -13
-10 -30 0 -29 -2 -30 -45 -30 l-45 0 0 80 0 80 89 0 89 0 7 -50 c9 -67 25 -64
25 5 l0 55 -147 -1 c-82 -1 -136 -4 -120 -6z"/>
<path d="M11408 10953 c21 -4 22 -7 22 -136 0 -186 24 -227 131 -227 33 0 55
6 74 22 45 35 55 74 55 212 l0 125 28 4 c15 2 0 4 -33 4 -33 0 -50 -2 -37 -4
22 -4 22 -7 22 -143 0 -134 -1 -139 -26 -169 -32 -39 -80 -49 -124 -26 -48 25
-60 65 -60 209 l0 125 28 4 c15 2 -2 4 -38 4 -36 0 -55 -2 -42 -4z"/>
<path d="M11818 10953 c22 -4 22 -6 22 -178 0 -172 0 -174 -22 -178 -13 -2 6
-4 42 -4 36 0 55 2 43 4 -22 4 -23 9 -23 89 l0 84 44 0 c25 0 51 -6 58 -14 8
-7 23 -42 33 -77 10 -35 23 -70 28 -76 14 -20 55 -15 67 6 15 29 12 50 -4 29
-7 -10 -17 -18 -22 -18 -6 0 -25 34 -45 75 l-35 75 38 15 c64 25 78 97 29 146
l-29 29 -124 -1 c-68 -1 -113 -4 -100 -6z m206 -14 c35 -16 52 -61 37 -98 -16
-37 -49 -51 -121 -51 l-60 0 0 80 0 80 60 0 c32 0 70 -5 84 -11z"/>
<path d="M12271 10948 c-88 -47 -107 -236 -32 -321 24 -26 36 -31 89 -35 59
-4 63 -3 96 30 72 72 76 223 7 300 -23 26 -36 32 -82 35 -32 2 -64 -1 -78 -9z
m131 -38 c66 -71 62 -208 -7 -277 -40 -40 -73 -42 -114 -7 -81 68 -74 251 11
304 41 25 74 19 110 -20z"/>
<path d="M8970 10750 c0 -6 60 -10 161 -10 104 0 158 3 154 10 -4 6 -68 10
-161 10 -96 0 -154 -4 -154 -10z"/>
<path d="M926 10381 c-10 -11 -27 -23 -37 -26 -11 -4 -17 -11 -14 -16 4 -5 14
-5 26 1 18 10 19 6 19 -109 l0 -120 -27 -4 c-16 -2 4 -4 42 -4 39 0 58 2 43 4
l-27 4 -3 146 c-3 143 -3 145 -22 124z"/>
<path d="M1157 10389 c-69 -40 -67 -241 2 -279 36 -19 90 -12 115 15 50 53 50
197 0 250 -25 27 -83 34 -117 14z m88 -22 c53 -45 44 -220 -11 -246 -59 -27
-98 24 -98 129 0 117 49 169 109 117z"/>
<path d="M1439 10393 c-42 -11 -71 -132 -50 -208 16 -56 33 -75 74 -82 86 -14
121 29 121 147 0 124 -46 170 -145 143z m85 -26 c62 -62 33 -257 -39 -257 -29
0 -63 45 -70 94 -10 67 2 134 30 162 30 30 50 30 79 1z"/>
<path d="M1160 8699 c-13 -6 -28 -15 -32 -22 -13 -21 -9 -75 8 -91 8 -9 11
-16 5 -16 -15 0 -41 -54 -41 -85 0 -16 12 -39 30 -57 29 -28 35 -30 87 -26 43
4 61 10 75 28 25 31 24 101 -2 125 -17 15 -17 19 -5 32 16 15 20 70 7 89 -21
32 -83 42 -132 23z m94 -25 c20 -20 20 -58 0 -78 -18 -19 -75 -21 -92 -4 -16
16 -16 70 0 86 17 17 74 15 92 -4z m10 -130 c21 -20 21 -88 0 -108 -9 -10 -33
-16 -59 -16 -49 0 -75 24 -75 70 0 46 26 70 75 70 26 0 50 -6 59 -16z"/>
<path d="M1444 8696 c-47 -21 -70 -93 -59 -183 19 -151 179 -153 200 -3 12 84
-12 163 -56 185 -34 18 -45 18 -85 1z m80 -29 c46 -46 42 -212 -4 -237 -32
-17 -69 -12 -84 13 -34 54 -31 175 5 221 25 32 53 33 83 3z"/>
<path d="M207 7986 c-51 -14 -127 -62 -135 -84 -2 -8 12 -3 34 12 22 14 68 33
104 42 56 15 75 15 140 4 75 -12 120 -29 153 -58 9 -8 19 -13 22 -10 13 13
-70 69 -131 88 -75 23 -118 24 -187 6z"/>
<path d="M36 7824 c-25 -24 -21 -90 6 -108 13 -10 26 -12 31 -7 13 13 -1 31
-17 25 -17 -7 -30 28 -21 56 12 37 51 25 77 -22 24 -43 69 -75 89 -62 8 4 7 9
-2 15 -11 7 -12 12 -1 29 17 28 15 77 -4 84 -29 11 -37 6 -21 -12 20 -22 21
-33 5 -67 -16 -34 -26 -32 -45 13 -28 69 -64 90 -97 56z"/>
<path d="M120 7575 c0 -43 4 -75 10 -75 6 0 10 32 10 75 0 43 -4 75 -10 75 -6
0 -10 -32 -10 -75z"/>
<path d="M410 7415 c0 -12 -15 -15 -78 -15 -62 0 -82 -4 -95 -17 -28 -32 -31
-70 -9 -107 18 -31 19 -35 4 -49 -14 -15 -17 -39 -13 -107 1 -14 -1 -40 -5
-57 -4 -22 -2 -33 5 -33 6 0 11 7 11 15 0 12 17 15 89 15 77 0 90 -2 94 -17 3
-10 5 7 5 37 0 30 -2 47 -5 38 -4 -15 -16 -18 -78 -18 -65 0 -76 3 -89 22 -20
29 -20 62 0 82 11 12 35 16 89 16 68 0 74 -2 78 -22 2 -13 4 2 4 32 1 30 -1
47 -4 38 -4 -15 -16 -18 -78 -18 -65 0 -76 3 -89 22 -20 29 -20 62 0 82 11 12
35 16 89 16 68 0 74 -2 78 -22 2 -13 5 1 6 30 0 28 -1 52 -4 52 -3 0 -5 -7 -5
-15z"/>
<path d="M122 6945 c0 -27 3 -40 5 -27 3 16 10 21 21 18 9 -2 50 -10 90 -17
39 -7 72 -15 72 -19 0 -4 -33 -12 -72 -19 -108 -19 -118 -22 -118 -36 0 -13
47 -26 143 -40 26 -4 47 -11 47 -15 0 -4 -35 -13 -77 -20 -42 -6 -82 -14 -89
-17 -7 -2 -14 5 -17 19 -2 13 -4 -4 -4 -37 0 -33 2 -50 4 -38 5 26 4 25 153
53 63 11 122 23 130 26 26 9 -6 19 -122 40 -59 10 -102 21 -95 25 6 3 60 14
120 25 150 26 148 28 -52 65 -102 19 -125 27 -131 44 -6 14 -9 5 -8 -30z"/>
<path d="M1162 6825 c-39 -28 -56 -74 -56 -153 -1 -71 0 -75 32 -103 46 -41
102 -41 144 1 27 27 30 36 25 72 -8 57 -36 83 -91 83 -30 0 -51 -6 -66 -20
l-22 -20 7 35 c8 43 34 80 68 100 20 11 30 12 52 2 23 -11 25 -15 14 -28 -17
-20 4 -45 23 -26 10 10 10 18 -2 40 -13 22 -24 28 -60 30 -29 2 -53 -3 -68
-13z m95 -137 c47 -44 18 -131 -45 -131 -55 0 -90 49 -71 101 20 55 75 69 116
30z"/>
<path d="M1439 6833 c-43 -11 -71 -131 -50 -211 17 -61 41 -82 95 -82 73 0
100 41 100 150 1 124 -46 170 -145 143z m85 -26 c62 -62 33 -257 -39 -257 -29
0 -63 45 -70 94 -10 67 2 134 30 162 30 30 50 30 79 1z"/>
<path d="M70 6633 c1 -17 27 -41 75 -69 46 -27 58 -29 145 -29 106 0 177 23
222 72 12 14 19 24 13 21 -5 -2 -36 -16 -68 -32 -109 -52 -263 -46 -347 15
-22 16 -40 26 -40 22z"/>
<path d="M260 6217 c-27 -14 -50 -51 -50 -82 0 -31 37 -84 68 -96 41 -16 93
-4 121 27 19 23 22 36 18 77 -2 26 -11 56 -20 65 -26 25 -32 6 -8 -24 11 -15
21 -35 21 -46 0 -26 -53 -78 -79 -78 -20 0 -21 6 -21 85 0 91 -3 96 -50 72z
m40 -86 c0 -65 -1 -69 -20 -64 -22 6 -50 50 -50 79 0 24 29 54 52 54 16 0 18
-9 18 -69z"/>
<path d="M230 5928 c-25 -41 -25 -64 0 -105 26 -43 54 -56 104 -50 53 7 86 44
86 96 0 36 -35 99 -48 87 -3 -3 2 -14 11 -23 30 -34 31 -67 2 -101 -35 -42
-93 -45 -130 -7 -41 40 -31 108 16 103 31 -4 33 26 2 30 -16 2 -28 -6 -43 -30z"/>
<path d="M410 5690 c0 -18 -7 -20 -85 -20 l-85 0 -17 -35 c-15 -31 -15 -38 -1
-74 13 -33 14 -41 2 -45 -16 -6 -19 -56 -4 -56 6 0 10 7 10 15 0 12 17 15 89
15 77 0 90 -2 94 -17 3 -10 5 7 4 37 0 30 -2 45 -4 33 -4 -21 -10 -23 -77 -23
-81 0 -92 6 -102 58 -10 51 7 62 96 62 66 0 79 -3 83 -17 3 -10 5 6 6 35 0 28
-1 52 -4 52 -3 0 -5 -9 -5 -20z"/>
<path d="M239 5371 c-78 -78 19 -201 125 -157 38 16 56 46 56 94 0 32 -20 74
-38 80 -8 2 -5 -9 8 -30 11 -18 20 -41 20 -50 0 -25 -41 -66 -72 -74 l-28 -6
0 86 c0 80 -1 86 -21 86 -11 0 -34 -13 -50 -29z m61 -66 c0 -73 -14 -84 -49
-39 -36 45 -19 104 30 104 17 0 19 -7 19 -65z"/>
<path d="M217 5133 c-4 -3 -1 -16 7 -28 12 -18 12 -24 0 -40 -21 -29 -17 -54
16 -87 25 -25 36 -29 60 -24 17 3 41 0 55 -6 18 -8 31 -8 49 0 19 9 27 8 36
-4 14 -16 48 -18 69 -5 16 11 27 114 17 156 -12 47 -69 50 -103 6 -7 -9 -13
-37 -13 -62 0 -53 -19 -85 -45 -76 -12 5 -15 13 -10 25 19 45 17 62 -14 93
-27 27 -36 30 -66 25 -31 -6 -35 -4 -35 14 0 20 -11 26 -23 13z m282 -22 c9
-6 16 -32 19 -68 3 -47 0 -63 -15 -82 -16 -20 -23 -22 -40 -12 -19 10 -21 17
-16 68 6 63 18 103 30 103 5 0 14 -4 22 -9z m-69 -76 c-7 -45 -7 -46 -9 -13
-1 32 8 74 14 66 1 -2 -1 -25 -5 -53z m-99 35 c23 -13 25 -53 3 -74 -33 -34
-104 -10 -104 34 0 42 56 64 101 40z"/>
<path d="M1167 4872 l-77 -107 70 -3 70 -3 0 -34 c0 -24 -5 -35 -15 -35 -8 0
-15 -4 -15 -10 0 -5 20 -10 45 -10 25 0 45 5 45 10 0 6 -7 10 -15 10 -10 0
-15 10 -15 34 0 32 3 35 33 39 l32 4 -32 1 -33 2 0 99 c0 55 -3 102 -7 104 -5
3 -43 -43 -86 -101z m63 -27 l0 -75 -55 0 c-30 0 -55 2 -55 5 0 7 101 145 106
145 2 0 4 -34 4 -75z"/>
<path d="M1443 4970 c-42 -18 -58 -57 -58 -145 1 -94 17 -128 71 -145 87 -29
146 55 130 184 -9 66 -39 105 -86 111 -19 3 -45 0 -57 -5z m81 -25 c24 -25 38
-93 31 -151 -10 -84 -53 -122 -105 -94 -44 23 -51 199 -9 241 23 23 62 25 83
4z"/>
<path d="M222 4878 c-18 -18 -15 -52 8 -81 11 -14 20 -27 20 -30 0 -3 -9 -7
-20 -10 -14 -3 -20 -14 -20 -31 0 -14 5 -26 10 -26 6 0 10 7 10 15 0 12 17 15
89 15 77 0 90 -2 94 -17 3 -10 5 7 4 37 0 30 -2 44 -4 31 -4 -22 -8 -23 -70
-19 -57 4 -69 8 -89 32 -21 23 -36 71 -17 53 3 -4 12 -2 20 4 10 9 10 15 2 25
-14 17 -22 17 -37 2z"/>
<path d="M239 4611 c-33 -33 -37 -67 -13 -112 19 -37 74 -63 115 -54 41 9 79
58 79 104 0 37 -23 81 -42 81 -6 0 -4 -8 5 -18 9 -10 19 -32 23 -49 7 -36 -26
-79 -68 -89 l-28 -6 0 86 c0 80 -1 86 -21 86 -11 0 -34 -13 -50 -29z m61 -66
c0 -73 -14 -84 -49 -39 -36 45 -19 104 30 104 17 0 19 -7 19 -65z"/>
<path d="M218 4394 c-12 -11 -10 -72 2 -79 6 -3 10 3 10 14 0 12 3 21 8 21 13
0 132 -53 132 -59 0 -3 -28 -17 -62 -31 -35 -14 -66 -26 -70 -28 -5 -2 -8 3
-8 12 0 9 -4 16 -10 16 -13 0 -13 -77 0 -85 6 -3 10 0 10 8 0 9 37 30 91 54
50 21 91 43 91 48 0 6 -41 28 -90 49 -50 21 -92 45 -94 53 -2 8 -6 11 -10 7z"/>
<path d="M410 4120 c0 -18 -8 -20 -97 -22 -94 -3 -98 -4 -101 -27 -2 -13 1
-28 7 -34 8 -8 11 -5 11 11 0 21 4 22 89 22 85 0 90 -1 94 -22 2 -13 5 3 6 35
0 31 -1 57 -4 57 -3 0 -5 -9 -5 -20z"/>
<path d="M124 4089 c-10 -17 13 -36 27 -22 12 12 4 33 -11 33 -5 0 -12 -5 -16
-11z"/>
<path d="M194 3961 c-63 -29 -74 -51 -73 -151 1 -47 4 -75 6 -62 4 22 7 22
143 22 136 0 139 0 143 -22 2 -13 5 15 6 62 1 65 -3 91 -15 109 -21 30 -89 61
-134 61 -19 0 -54 -9 -76 -19z m140 -25 c44 -18 76 -61 76 -102 l0 -34 -140 0
-140 0 0 34 c0 85 111 141 204 102z"/>
<path d="M1151 3102 c-36 -18 -55 -50 -41 -72 4 -7 15 -10 24 -7 14 6 14 10 4
27 -17 26 -2 40 51 47 53 7 91 -16 91 -56 0 -33 -17 -50 -87 -85 -29 -14 -59
-36 -68 -49 -20 -32 -30 -83 -16 -91 7 -4 11 1 11 13 0 27 26 27 65 1 40 -26
101 -27 115 -1 5 11 10 30 9 43 l0 23 -9 -22 c-5 -12 -21 -25 -36 -29 -32 -8
-134 23 -134 41 0 18 30 40 83 61 83 32 112 74 91 129 -8 21 -56 45 -91 45
-15 0 -43 -8 -62 -18z"/>
<path d="M1444 3106 c-47 -21 -70 -93 -59 -183 19 -151 179 -153 200 -3 12 84
-12 163 -56 185 -34 18 -45 18 -85 1z m80 -29 c46 -46 42 -212 -4 -237 -32
-17 -69 -12 -84 13 -34 54 -31 175 5 221 25 32 53 33 83 3z"/>
<path d="M1444 1411 c-41 -18 -58 -60 -59 -146 0 -67 4 -85 22 -111 40 -56
127 -54 156 3 36 69 33 178 -6 226 -24 30 -77 43 -113 28z m80 -26 c37 -37 44
-155 14 -221 -13 -29 -50 -41 -83 -26 -48 22 -59 198 -14 243 23 23 62 25 83
4z"/>
<path d="M1713 870 c-42 -17 -58 -57 -58 -145 0 -67 4 -85 23 -112 43 -61 134
-51 163 19 19 46 17 155 -5 196 -24 46 -72 62 -123 42z m73 -18 c25 -16 38
-60 38 -129 0 -58 -4 -78 -20 -100 -38 -51 -96 -39 -114 25 -20 75 -6 182 28
201 20 12 53 14 68 3z"/>
<path d="M6582 863 c-5 -10 -13 -36 -16 -58 -4 -22 -10 -51 -13 -64 l-6 -24
29 22 c16 11 43 24 61 27 45 9 93 -38 93 -91 0 -70 -80 -110 -138 -69 -19 13
-21 19 -11 30 17 21 -5 44 -23 26 -17 -17 7 -61 42 -80 37 -19 98 -8 129 22
35 35 37 114 5 146 -25 26 -91 36 -132 22 l-29 -10 8 36 c5 21 9 40 9 45 0 4
17 7 39 7 51 0 101 10 101 21 0 5 -31 9 -70 9 -56 0 -71 -3 -78 -17z"/>
<path d="M11396 844 c-39 -34 -41 -43 -5 -24 18 10 19 6 19 -110 0 -113 -1
-120 -20 -120 -11 0 -20 -4 -20 -10 0 -6 27 -10 60 -10 33 0 60 4 60 10 0 6
-11 10 -25 10 l-24 0 -3 144 -3 144 -39 -34z"/>
<path d="M11653 870 c-56 -23 -79 -178 -38 -248 36 -61 123 -65 160 -8 37 55
28 202 -14 240 -23 21 -78 29 -108 16z m77 -20 c53 -28 52 -222 -1 -251 -30
-16 -60 -7 -83 24 -16 22 -20 42 -20 100 0 114 39 162 104 127z"/>
<path d="M16302 849 c-19 -17 -31 -33 -28 -37 4 -3 12 0 18 6 7 7 16 12 20 12
4 0 8 -54 8 -120 l0 -120 -25 0 c-14 0 -25 -4 -25 -10 0 -6 27 -10 60 -10 33
0 60 4 60 10 0 6 -9 10 -20 10 -19 0 -20 7 -20 145 0 80 -3 145 -7 145 -5 0
-23 -14 -41 -31z"/>
<path d="M16525 868 c-12 -33 -32 -148 -25 -148 4 0 15 9 24 19 26 28 69 35
104 17 34 -18 42 -33 42 -86 0 -30 -6 -43 -26 -59 -31 -24 -82 -27 -109 -7
-17 12 -17 16 -6 30 18 21 -1 48 -20 29 -21 -21 -1 -63 36 -79 44 -18 69 -18
106 2 95 48 55 194 -53 194 -22 0 -49 -5 -60 -11 -20 -11 -21 -9 -14 21 3 18
6 39 6 46 0 10 13 14 39 14 51 0 101 10 101 21 0 15 -140 11 -145 -3z"/>
<path d="M8530 288 c0 -56 8 -58 19 -6 6 28 11 33 39 36 l32 3 0 -135 c0 -114
-2 -136 -15 -136 -8 0 -15 -4 -15 -10 0 -5 23 -10 50 -10 28 0 50 5 50 10 0 6
-9 10 -20 10 -19 0 -20 7 -20 136 l0 135 38 -3 c33 -3 37 -6 40 -33 6 -54 22
-52 22 3 l0 52 -110 0 -110 0 0 -52z"/>
<path d="M10560 331 c0 -6 9 -11 20 -11 19 0 20 -7 20 -135 0 -128 -1 -135
-20 -135 -11 0 -20 -4 -20 -10 0 -5 23 -10 50 -10 28 0 50 5 50 10 0 6 -7 10
-15 10 -12 0 -15 15 -15 75 0 82 9 95 67 95 44 0 53 -16 53 -97 0 -58 -3 -73
-15 -73 -8 0 -15 -4 -15 -10 0 -5 20 -10 45 -10 25 0 45 5 45 10 0 6 -7 10
-15 10 -12 0 -15 15 -15 75 0 62 -4 79 -20 95 -22 22 -64 26 -104 10 -25 -9
-25 -9 -28 48 -3 56 -3 57 -35 60 -19 2 -33 -1 -33 -7z"/>
<path d="M8824 314 c3 -9 6 -18 6 -21 0 -3 7 0 15 7 17 14 11 30 -12 30 -10 0
-13 -6 -9 -16z"/>
<path d="M9913 318 c2 -7 10 -13 17 -13 7 0 15 6 18 13 2 7 -5 12 -18 12 -13
0 -20 -5 -17 -12z"/>
<path d="M11840 235 c-9 -11 -16 -13 -24 -5 -15 15 -88 12 -109 -5 -37 -27
-18 -57 61 -94 39 -19 72 -40 72 -46 0 -21 -24 -35 -62 -35 -36 0 -44 5 -73
45 -13 18 -14 16 -14 -30 0 -39 2 -46 10 -32 8 13 14 15 29 7 32 -17 88 -12
110 10 42 42 20 75 -73 111 -72 28 -75 52 -7 57 40 3 48 0 73 -29 l27 -33 0
47 c0 52 -2 54 -20 32z"/>
<path d="M8800 230 c0 -5 7 -10 15 -10 12 0 15 -16 15 -85 0 -69 -3 -85 -15
-85 -8 0 -15 -4 -15 -10 0 -5 20 -10 45 -10 25 0 45 5 45 10 0 6 -7 10 -15 10
-12 0 -15 17 -15 95 l0 95 -30 0 c-16 0 -30 -4 -30 -10z"/>
<path d="M8950 230 c0 -5 7 -10 15 -10 12 0 15 -16 15 -85 0 -69 -3 -85 -15
-85 -8 0 -15 -4 -15 -10 0 -5 23 -10 50 -10 28 0 50 5 50 10 0 6 -9 10 -20 10
-18 0 -20 7 -20 68 0 81 15 102 73 102 47 0 57 -19 57 -104 0 -59 -2 -66 -20
-66 -11 0 -20 -4 -20 -10 0 -5 23 -10 50 -10 28 0 50 5 50 10 0 6 -7 10 -15
10 -12 0 -15 15 -15 75 0 82 9 95 69 95 40 0 51 -23 51 -104 0 -59 -2 -66 -20
-66 -11 0 -20 -4 -20 -10 0 -5 23 -10 50 -10 28 0 50 5 50 10 0 6 -7 10 -15
10 -12 0 -15 15 -15 73 0 43 -5 80 -13 90 -18 26 -79 32 -118 13 -22 -11 -35
-13 -39 -6 -12 19 -76 23 -109 7 -26 -13 -31 -13 -31 -1 0 9 -11 14 -30 14
-16 0 -30 -4 -30 -10z"/>
<path d="M9448 211 c-28 -25 -33 -36 -33 -75 0 -63 37 -101 99 -101 29 0 51 6
65 19 27 25 19 33 -11 12 -47 -33 -110 -10 -124 47 l-6 27 81 0 c92 0 103 8
77 58 -27 53 -97 59 -148 13z m122 -10 c19 -36 12 -41 -55 -41 -69 0 -79 8
-48 42 23 25 89 25 103 -1z"/>
<path d="M9890 230 c0 -5 7 -10 15 -10 12 0 15 -16 15 -85 0 -69 -3 -85 -15
-85 -8 0 -15 -4 -15 -10 0 -5 20 -10 45 -10 25 0 45 5 45 10 0 6 -7 10 -15 10
-12 0 -15 17 -15 95 l0 95 -30 0 c-16 0 -30 -4 -30 -10z"/>
<path d="M10040 230 c0 -5 7 -10 15 -10 12 0 15 -16 15 -85 0 -69 -3 -85 -15
-85 -8 0 -15 -4 -15 -10 0 -5 23 -10 50 -10 28 0 50 5 50 10 0 6 -9 10 -20 10
-18 0 -20 7 -20 68 0 81 15 102 73 102 47 0 57 -19 57 -104 0 -59 -2 -66 -20
-66 -11 0 -20 -4 -20 -10 0 -5 23 -10 50 -10 28 0 50 5 50 10 0 6 -7 10 -15
10 -12 0 -15 14 -15 65 0 35 -5 75 -11 89 -17 37 -73 47 -121 22 -24 -13 -28
-13 -28 0 0 9 -11 14 -30 14 -16 0 -30 -4 -30 -10z"/>
<path d="M10930 228 c-14 -7 -33 -30 -43 -51 -24 -48 -9 -100 37 -128 39 -24
73 -24 113 0 50 31 58 126 14 165 -25 23 -89 30 -121 14z m97 -30 c49 -46 14
-148 -50 -148 -52 0 -90 76 -63 128 25 47 74 56 113 20z"/>
<path d="M11145 231 c3 -6 13 -11 21 -11 11 0 14 -17 14 -79 0 -54 4 -82 13
-90 25 -20 74 -24 106 -8 26 13 31 13 31 1 0 -9 11 -14 30 -14 17 0 30 5 30
10 0 6 -7 10 -15 10 -12 0 -15 17 -15 95 l0 95 -36 0 c-21 0 -33 -4 -29 -10 3
-5 13 -10 21 -10 11 0 14 -16 14 -69 0 -61 -3 -72 -22 -85 -27 -19 -72 -21
-86 -3 -6 7 -12 49 -14 92 l-3 80 -34 3 c-21 2 -31 0 -26 -7z"/>
<path d="M11450 230 c0 -5 7 -10 15 -10 12 0 15 -16 15 -85 0 -69 -3 -85 -15
-85 -8 0 -15 -4 -15 -10 0 -5 20 -10 45 -10 25 0 45 5 45 10 0 6 -7 10 -16 10
-24 0 -15 121 10 149 18 20 73 31 62 12 -3 -5 1 -14 8 -21 12 -9 17 -7 25 8
22 42 -46 58 -93 21 l-26 -20 0 20 c0 17 -6 21 -30 21 -16 0 -30 -4 -30 -10z"/>
</g>
</svg>
