<?xml version="1.0" standalone="no"?>
<!DOCTYPE svg PUBLIC "-//W3C//DTD SVG 20010904//EN"
 "http://www.w3.org/TR/2001/REC-SVG-20010904/DTD/svg10.dtd">
<svg version="1.0" xmlns="http://www.w3.org/2000/svg"
 width="1848.000000pt" height="1098.000000pt" viewBox="0 0 1848.000000 1098.000000"
 preserveAspectRatio="xMidYMid meet">
<metadata>
Created by potrace 1.16, written by Peter Selinger 2001-2019
</metadata>
<g transform="translate(0.000000,1098.000000) scale(0.100000,-0.100000)"
fill="#000000" stroke="none">
<path d="M12145 10949 c-7 -30 -7 -30 -27 -12 -15 13 -36 18 -83 18 -73 0 -96
-15 -126 -80 -37 -81 -17 -209 41 -260 17 -16 36 -20 87 -20 60 0 67 2 94 33
29 32 37 52 21 52 -5 0 -14 -11 -20 -26 -12 -25 -65 -54 -100 -54 -30 0 -73
39 -93 84 -34 76 -16 191 38 238 54 48 137 22 165 -52 l17 -45 0 78 c1 82 -3
96 -14 46z"/>
<path d="M12492 10951 c-12 -34 -12 -34 -33 -15 -16 15 -36 19 -89 19 -59 0
-72 -3 -94 -24 -50 -47 -23 -111 56 -138 29 -10 75 -29 103 -43 46 -23 50 -28
53 -66 4 -58 -22 -79 -98 -79 -69 0 -100 23 -124 89 l-14 41 0 -90 c0 -76 1
-85 10 -60 6 17 12 31 13 33 1 1 16 -5 34 -14 23 -11 50 -15 92 -12 77 6 109
33 109 92 0 59 -30 89 -120 121 -97 34 -120 49 -120 80 0 35 43 60 101 60 61
0 98 -27 118 -86 l16 -44 3 43 c2 23 2 61 0 85 l-3 42 -13 -34z"/>
<path d="M7948 10953 c22 -4 22 -6 22 -178 0 -172 0 -174 -22 -178 -13 -2 6
-4 42 -4 36 0 55 2 43 4 -22 4 -23 9 -23 89 l0 84 45 0 c53 0 67 -16 94 -112
16 -59 20 -63 49 -66 23 -2 33 2 42 18 6 12 8 25 4 28 -4 4 -9 1 -11 -5 -10
-27 -35 -11 -54 35 -11 26 -26 59 -34 75 -13 26 -12 28 19 41 66 28 85 93 42
143 -24 28 -25 28 -153 30 -70 0 -118 -1 -105 -4z m223 -32 c16 -16 29 -39 29
-51 0 -12 -13 -35 -29 -51 -27 -26 -36 -29 -95 -29 l-66 0 0 80 0 80 66 0 c59
0 68 -3 95 -29z m19 -306 c14 -19 14 -19 -2 -6 -10 7 -18 18 -18 24 0 6 1 8 3
6 1 -2 9 -13 17 -24z"/>
<path d="M8390 10954 c-8 -3 -26 -21 -40 -42 -22 -33 -25 -47 -25 -137 0 -87
3 -105 23 -136 24 -40 44 -49 110 -49 34 0 48 6 67 26 61 66 64 238 6 313 -15
19 -29 25 -72 27 -30 1 -61 1 -69 -2z m84 -14 c44 -16 60 -63 61 -172 0 -107
-15 -143 -68 -162 -67 -24 -110 38 -111 159 -1 96 16 150 52 170 33 17 34 17
66 5z"/>
<path d="M8720 10954 c-43 -17 -56 -98 -20 -134 19 -19 19 -19 -10 -49 -40
-39 -42 -106 -6 -148 21 -25 31 -28 100 -31 73 -4 76 -3 106 26 24 24 30 39
30 72 0 49 -24 100 -47 100 -14 0 -13 3 5 20 16 15 22 32 22 63 0 67 -16 81
-96 84 -38 1 -76 0 -84 -3z m130 -24 c24 -24 27 -82 4 -104 -10 -10 -33 -16
-64 -16 -42 0 -52 4 -66 25 -20 30 -12 89 14 104 30 18 90 13 112 -9z m-5
-146 c22 -9 45 -57 45 -94 0 -77 -110 -121 -165 -65 -20 19 -25 35 -25 71 0
64 27 94 86 94 23 0 50 -3 59 -6z"/>
<path d="M9080 10954 c-8 -3 -26 -21 -40 -42 -22 -33 -25 -47 -25 -137 0 -87
3 -105 23 -137 17 -28 32 -39 58 -44 52 -10 106 2 126 28 55 70 54 236 -1 307
-15 19 -29 25 -72 27 -30 1 -61 1 -69 -2z m84 -14 c44 -16 61 -63 61 -170 0
-84 -3 -100 -23 -128 -43 -60 -110 -52 -139 16 -20 46 -23 172 -5 225 8 21 25
43 40 52 33 17 34 17 66 5z"/>
<path d="M10363 10953 l27 -4 0 -174 0 -174 -27 -4 c-16 -2 38 -5 120 -6 l147
-1 0 55 c0 69 -17 72 -26 5 l-7 -50 -88 0 -89 0 0 85 0 85 44 0 c43 0 45 -1
49 -32 2 -18 4 1 4 42 0 41 -2 60 -4 43 -4 -32 -6 -33 -49 -33 l-44 0 0 80 0
80 89 0 88 0 7 -50 c9 -67 26 -64 26 5 l0 55 -147 -1 c-82 -1 -136 -4 -120 -6z"/>
<path d="M10723 10953 l27 -4 0 -132 c0 -190 26 -232 137 -224 99 7 123 52
123 231 0 121 1 125 23 129 12 2 -5 4 -38 4 -33 0 -47 -2 -32 -4 l28 -4 -3
-144 c-3 -136 -4 -145 -27 -169 -32 -34 -80 -42 -121 -21 -48 25 -60 65 -60
209 l0 125 28 4 c15 2 -4 4 -43 4 -38 0 -58 -2 -42 -4z"/>
<path d="M11138 10953 c22 -4 22 -6 22 -178 0 -172 0 -174 -22 -178 -13 -2 6
-4 42 -4 36 0 55 2 43 4 -22 4 -23 9 -23 89 l0 84 43 0 c54 0 70 -16 92 -95
21 -72 30 -85 61 -85 24 0 52 36 38 48 -4 4 -9 1 -11 -5 -9 -26 -34 -12 -49
27 -9 22 -24 56 -34 74 l-17 35 29 12 c66 27 87 96 44 146 -24 28 -25 28 -153
30 -70 0 -118 -1 -105 -4z m223 -32 c32 -32 35 -47 18 -84 -15 -34 -49 -47
-119 -47 l-60 0 0 80 0 80 66 0 c59 0 68 -3 95 -29z"/>
<path d="M11595 10951 c-93 -41 -114 -235 -35 -324 26 -30 33 -32 93 -32 56 0
69 4 91 24 28 26 56 104 56 156 0 51 -28 129 -55 155 -27 25 -112 38 -150 21z
m126 -40 c83 -90 45 -287 -58 -307 -28 -6 -38 -1 -67 28 -71 71 -71 215 1 287
28 28 38 33 66 27 17 -3 44 -19 58 -35z"/>
<path d="M9655 10750 c-4 -7 50 -10 155 -10 105 0 159 3 155 10 -4 6 -67 10
-155 10 -88 0 -151 -4 -155 -10z"/>
<path d="M1765 10438 c-3 -7 -4 -2108 -3 -4668 l3 -4655 8340 0 8340 0 0 4665
0 4665 -8338 3 c-6665 2 -8339 0 -8342 -10z m1185 -54 c0 -27 4 -43 10 -39 6
3 10 24 10 46 l0 39 585 0 585 0 0 -46 c0 -27 4 -43 10 -39 6 3 10 24 10 46
l0 39 585 0 585 0 0 -45 c0 -25 5 -45 10 -45 6 0 10 20 10 45 l0 45 585 0 585
0 0 -45 c0 -25 5 -45 10 -45 6 0 10 20 10 45 l0 45 585 0 585 0 0 -90 c0 -53
4 -90 10 -90 6 0 10 37 10 90 l0 90 585 0 585 0 0 -39 c0 -22 5 -43 10 -46 6
-4 10 12 10 39 l0 46 585 0 585 0 0 -39 c0 -22 5 -43 10 -46 6 -4 10 12 10 39
l0 46 585 0 585 0 0 -39 c0 -22 5 -43 10 -46 6 -4 10 12 10 39 l0 46 590 0
590 0 2 -47 2 -48 3 48 4 47 590 0 589 0 2 -92 2 -93 3 93 4 92 589 0 590 0 2
-47 2 -48 3 48 4 47 590 0 589 0 2 -47 2 -48 3 48 4 47 590 0 589 0 2 -47 2
-48 3 48 4 47 590 0 589 0 0 -225 0 -225 -80 0 c-47 0 -80 -4 -80 -10 0 -6 33
-10 80 -10 l80 0 0 -225 0 -225 -82 -2 -83 -2 83 -3 82 -4 0 -224 0 -225 -80
0 c-47 0 -80 -4 -80 -10 0 -6 33 -10 80 -10 l80 0 0 -225 0 -225 -167 -2 -168
-2 168 -3 167 -3 0 -225 0 -225 -80 0 c-47 0 -80 -4 -80 -10 0 -6 33 -10 80
-10 l80 0 0 -225 0 -225 -80 0 c-47 0 -80 -4 -80 -10 0 -6 33 -10 80 -10 l80
0 0 -220 0 -220 -80 0 c-47 0 -80 -4 -80 -10 0 -6 33 -10 80 -10 57 0 80 -4
80 -12 0 -8 -60 -35 -138 -62 -128 -46 -172 -66 -145 -66 7 0 24 5 40 11 15 6
76 28 136 49 l107 39 0 -150 0 -149 -110 -55 c-93 -47 -118 -55 -165 -55 -57
0 -77 -16 -26 -22 24 -2 -70 -51 -437 -231 -429 -209 -514 -247 -1052 -462
l-586 -233 -374 -101 c-206 -56 -381 -103 -387 -106 -7 -2 -33 14 -58 35 -26
22 -52 40 -58 40 -7 0 8 -18 33 -39 25 -22 43 -42 40 -44 -3 -3 -91 -28 -195
-56 -165 -44 -272 -63 -784 -141 l-594 -91 -596 -12 -596 -12 -605 46 -605 47
-587 121 -587 121 -593 181 -593 181 -600 109 -600 109 -465 139 c-256 77
-505 157 -555 179 -49 22 -92 38 -95 35 -2 -2 2 -8 10 -13 21 -13 0 -12 -41 1
-19 7 -306 115 -639 241 -333 127 -873 328 -1200 447 l-595 218 -415 78 c-289
54 -418 82 -424 92 -6 11 -19 13 -50 9 -58 -8 -112 6 -108 27 2 12 -4 17 -22
17 -13 0 -26 -4 -28 -9 -2 -5 -26 -5 -58 1 -52 9 -376 6 -1002 -8 -174 -4
-248 -2 -248 5 0 7 28 11 74 11 41 0 78 5 81 10 4 6 -23 10 -74 10 l-81 0 0
225 0 225 75 0 c43 0 75 4 75 10 0 6 -32 10 -75 10 l-75 0 0 225 0 225 163 2
162 2 -162 3 -163 3 0 225 0 225 75 0 c43 0 75 4 75 10 0 6 -32 10 -75 10
l-75 0 0 225 0 225 83 2 82 2 -82 3 -83 4 0 224 0 225 75 0 c43 0 75 4 75 10
0 6 -32 10 -75 10 l-75 0 0 225 0 225 585 0 585 0 0 -46z m56 -2789 c21 -8 45
-13 54 -10 9 3 257 -40 551 -96 l534 -101 595 -218 c327 -120 867 -322 1200
-448 333 -126 661 -246 729 -266 69 -21 153 -50 187 -66 35 -15 64 -24 66 -19
2 5 183 -44 403 -110 l400 -120 590 -106 590 -106 605 -184 605 -184 589 -121
589 -121 586 -45 586 -46 595 12 595 11 600 90 c539 81 620 96 800 145 110 30
206 54 214 54 7 0 29 -14 48 -31 19 -16 38 -27 41 -24 4 4 -9 19 -28 35 -26
21 -31 30 -20 34 8 3 177 49 375 102 l360 97 610 242 c581 232 632 254 1079
474 l469 231 113 0 114 0 0 -213 c0 -152 -3 -216 -12 -225 -7 -7 -44 -13 -83
-14 l-70 -2 60 -3 c33 -2 63 -9 66 -15 6 -9 12 -8 23 1 15 12 16 -8 16 -213
l0 -226 -80 0 c-47 0 -80 -4 -80 -10 0 -6 33 -10 80 -10 l80 0 0 -225 0 -225
-80 0 c-47 0 -80 -4 -80 -10 0 -6 33 -10 80 -10 l80 0 0 -220 0 -220 -159 0
c-96 0 -162 -4 -166 -10 -4 -7 52 -10 159 -10 l166 0 0 -225 0 -225 -80 0
c-47 0 -80 -4 -80 -10 0 -6 33 -10 80 -10 l80 0 0 -225 0 -225 -82 -2 -83 -2
83 -3 82 -4 0 -224 0 -225 -80 0 c-47 0 -80 -4 -80 -10 0 -6 33 -10 80 -10
l80 0 0 -225 0 -225 -167 -2 -168 -2 168 -3 167 -3 0 -225 0 -225 -23 0 c-15
0 -48 25 -97 75 -41 41 -79 75 -84 75 -6 0 23 -34 64 -75 l74 -75 -47 0 c-26
0 -47 -4 -47 -10 0 -6 33 -10 80 -10 l80 0 0 -225 0 -225 -80 0 c-47 0 -80 -4
-80 -10 0 -6 33 -10 80 -10 l80 0 0 -220 0 -220 -80 0 c-47 0 -80 -4 -80 -10
0 -6 33 -10 80 -10 l80 0 0 -225 0 -225 -590 0 -590 0 -2 48 -2 47 -3 -47 -4
-48 -590 0 -589 0 -2 48 -2 47 -3 -47 -4 -48 -590 0 -589 0 -2 48 -2 47 -3
-48 -4 -47 -590 0 -589 0 -2 93 -2 92 -3 -92 -4 -93 -554 0 c-305 0 -555 2
-555 4 0 2 36 27 80 56 44 29 80 57 80 62 0 12 -19 1 -115 -66 -100 -71 -114
-72 -117 -8 l-2 47 -3 -47 -4 -48 -590 0 -589 0 0 46 c0 27 -4 43 -10 39 -5
-3 -10 -24 -10 -46 l0 -39 -585 0 -585 0 0 46 c0 27 -4 43 -10 39 -5 -3 -10
-24 -10 -46 l0 -39 -192 0 c-176 0 -195 2 -218 20 -33 26 -48 26 -25 0 18 -20
17 -20 -358 -20 l-377 0 0 40 c0 22 -4 40 -10 40 -5 0 -10 -18 -10 -40 l0 -40
-585 0 -585 0 0 90 c0 53 -4 90 -10 90 -6 0 -10 -37 -10 -90 l0 -90 -585 0
-585 0 0 40 c0 22 -4 40 -10 40 -5 0 -10 -18 -10 -40 l0 -40 -585 0 -585 0 0
40 c0 22 -4 40 -10 40 -5 0 -10 -18 -10 -40 l0 -40 -585 0 -585 0 0 40 c0 22
-4 40 -10 40 -5 0 -10 -18 -10 -40 l0 -40 -585 0 -585 0 0 39 c0 22 -4 43 -10
46 -6 4 -10 -12 -10 -39 l0 -46 -585 0 -585 0 0 225 0 225 81 0 c51 0 78 4 74
10 -3 6 -40 10 -81 10 l-74 0 0 220 0 220 74 0 c41 0 78 5 81 10 4 6 -23 10
-74 10 l-81 0 0 225 0 225 75 0 c43 0 75 4 75 10 0 6 -32 10 -75 10 l-75 0 0
225 0 225 163 2 162 2 -162 3 -163 3 0 225 0 225 75 0 c43 0 75 4 75 10 0 6
-32 10 -75 10 l-75 0 0 225 0 225 83 2 82 2 -82 3 -83 4 0 224 0 225 75 0 c43
0 75 4 75 10 0 6 -32 10 -75 10 l-75 0 0 225 0 225 160 0 c100 0 160 4 160 10
0 6 -60 10 -160 10 l-160 0 0 220 0 220 74 0 c41 0 78 5 81 10 4 6 -23 10 -74
10 l-81 0 0 225 0 225 75 0 c43 0 75 4 75 10 0 6 -32 10 -75 10 l-75 0 0 225
0 225 83 2 82 2 -82 3 -83 4 0 224 0 225 160 0 c100 0 160 4 160 10 0 6 -60
10 -160 10 l-160 0 0 225 0 225 81 0 c51 0 78 4 74 10 -3 6 -40 10 -81 10
l-74 0 0 200 0 200 83 1 c45 1 215 5 377 8 643 13 726 13 766 -4z m15424 -830
l0 -45 -87 1 -88 0 85 44 c47 24 86 44 88 44 1 1 2 -19 2 -44z"/>
<path d="M4115 10170 c-3 -5 3 -10 14 -10 20 0 21 -5 21 -134 0 -130 -1 -134
-22 -141 -22 -8 -22 -8 5 -12 15 -2 37 -2 50 0 l22 4 -22 8 c-22 7 -23 12 -23
128 0 70 4 117 9 112 5 -6 45 -68 90 -140 l81 -129 0 152 c0 147 1 152 21 152
11 0 17 5 14 10 -3 6 -21 10 -40 10 -19 0 -37 -4 -40 -10 -3 -5 3 -10 14 -10
20 0 21 -5 20 -112 0 -91 -3 -110 -12 -95 -7 10 -42 65 -79 122 -56 87 -72
105 -92 105 -14 0 -28 -4 -31 -10z"/>
<path d="M4430 10170 c0 -5 9 -10 20 -10 19 0 20 -7 20 -135 0 -128 -1 -135
-20 -135 -11 0 -20 -4 -20 -10 0 -6 45 -10 115 -10 l115 0 0 45 c0 52 -17 61
-22 13 l-3 -33 -67 -3 -68 -3 0 66 0 65 30 0 c25 0 30 -4 30 -25 0 -14 5 -25
10 -25 6 0 10 27 10 60 0 33 -4 60 -10 60 -5 0 -10 -11 -10 -25 0 -21 -5 -25
-30 -25 l-30 0 0 60 0 61 68 -3 c66 -3 67 -3 70 -33 6 -54 22 -52 22 3 l0 52
-115 0 c-70 0 -115 -4 -115 -10z"/>
<path d="M4717 10174 c-10 -11 -9 -82 2 -88 5 -4 12 12 16 34 6 38 9 40 41 40
l34 0 0 -134 c0 -130 -1 -134 -22 -141 -21 -7 -20 -8 10 -12 18 -2 45 -2 60 0
26 4 26 4 5 12 -22 7 -23 11 -23 141 l0 134 34 0 c32 0 35 -2 41 -41 9 -52 28
-38 23 17 l-3 39 -106 3 c-58 1 -108 -1 -112 -4z"/>
<path d="M2880 9970 c0 -7 192 -10 555 -10 363 0 555 3 555 10 0 7 -192 10
-555 10 -363 0 -555 -3 -555 -10z"/>
<path d="M4115 9700 c3 -5 13 -10 21 -10 11 0 14 -24 14 -135 0 -132 0 -135
-22 -135 -15 0 -19 -3 -12 -10 7 -7 51 -10 110 -8 l99 3 3 48 c2 28 -1 47 -7
47 -6 0 -11 -11 -11 -24 0 -49 -8 -56 -71 -56 l-59 0 0 135 c0 113 2 135 15
135 8 0 15 5 15 10 0 6 -23 10 -51 10 -31 0 -48 -4 -44 -10z"/>
<path d="M4350 9700 c0 -5 8 -10 18 -10 16 0 22 -19 41 -122 36 -198 39 -201
65 -50 10 59 22 110 26 115 3 4 15 -39 24 -95 20 -110 24 -128 35 -128 3 0 18
61 31 136 22 121 28 137 47 145 35 13 28 19 -22 19 -25 0 -45 -4 -45 -10 0 -5
7 -10 16 -10 12 0 15 -6 11 -22 -3 -13 -11 -56 -18 -97 -14 -83 -20 -77 -39
39 -22 133 -41 130 -66 -10 -10 -55 -19 -98 -21 -97 -2 2 -10 43 -19 91 -16
84 -16 88 2 101 17 13 14 14 -33 15 -29 0 -53 -4 -53 -10z"/>
<path d="M2893 9503 c9 -2 23 -2 30 0 6 3 -1 5 -18 5 -16 0 -22 -2 -12 -5z"/>
<path d="M3053 9503 c9 -2 23 -2 30 0 6 3 -1 5 -18 5 -16 0 -22 -2 -12 -5z"/>
<path d="M3223 9503 c9 -2 23 -2 30 0 6 3 -1 5 -18 5 -16 0 -22 -2 -12 -5z"/>
<path d="M3383 9503 c9 -2 23 -2 30 0 6 3 -1 5 -18 5 -16 0 -22 -2 -12 -5z"/>
<path d="M3553 9503 c9 -2 23 -2 30 0 6 3 -1 5 -18 5 -16 0 -22 -2 -12 -5z"/>
<path d="M3713 9503 c9 -2 25 -2 35 0 9 3 1 5 -18 5 -19 0 -27 -2 -17 -5z"/>
<path d="M3883 9503 c9 -2 23 -2 30 0 6 3 -1 5 -18 5 -16 0 -22 -2 -12 -5z"/>
<path d="M4676 9244 c-5 -20 -11 -24 -24 -18 -9 4 -40 9 -67 12 -40 3 -56 -1
-78 -18 -54 -43 -28 -95 64 -125 83 -27 99 -40 99 -81 0 -31 -4 -37 -36 -50
-63 -26 -118 1 -142 71 -9 26 -10 18 -10 -50 0 -68 2 -75 10 -49 10 31 11 31
40 17 37 -19 111 -12 138 12 27 25 26 77 -2 109 -13 14 -52 36 -87 48 -35 13
-69 31 -75 41 -16 25 3 50 48 61 55 14 100 -10 119 -66 l15 -43 1 78 c1 81 -2
94 -13 51z"/>
<path d="M4747 9233 c26 -5 25 -2 55 -165 13 -71 26 -128 30 -128 7 0 22 63
40 171 6 39 14 65 18 57 4 -7 15 -61 26 -120 10 -60 22 -108 25 -108 8 0 19
48 45 192 15 83 20 98 38 101 12 2 -1 4 -29 4 -27 0 -40 -2 -27 -4 14 -3 22
-10 19 -17 -3 -7 -11 -47 -18 -89 -7 -43 -16 -77 -19 -77 -4 0 -12 33 -19 73
-19 107 -22 117 -36 117 -13 0 -26 -47 -40 -142 -4 -27 -11 -48 -15 -48 -4 0
-12 33 -19 73 -7 39 -15 80 -17 89 -3 11 2 18 18 21 13 2 -4 4 -37 4 -33 0
-50 -2 -38 -4z"/>
<path d="M4145 9070 c4 -6 57 -10 126 -10 73 0 119 4 119 10 0 6 -49 10 -126
10 -81 0 -123 -4 -119 -10z"/>
<path d="M2880 9040 c0 -6 47 -10 120 -10 73 0 120 4 120 10 0 6 -47 10 -120
10 -73 0 -120 -4 -120 -10z"/>
<path d="M3350 9040 c0 -6 47 -10 120 -10 73 0 120 4 120 10 0 6 -47 10 -120
10 -73 0 -120 -4 -120 -10z"/>
<path d="M3820 9040 c0 -6 35 -10 85 -10 50 0 85 4 85 10 0 6 -35 10 -85 10
-50 0 -85 -4 -85 -10z"/>
<path d="M6164 8775 c-7 -30 -3 -29 -43 -9 -57 29 -151 -2 -151 -49 0 -38 27
-65 88 -87 83 -31 102 -46 102 -80 0 -36 -31 -60 -78 -60 -48 0 -71 16 -92 63
l-19 42 0 -75 c0 -59 2 -70 10 -50 14 34 13 33 50 15 64 -34 149 6 149 70 0
47 -24 71 -91 94 -92 31 -118 61 -83 95 18 18 85 21 115 5 11 -6 29 -29 39
-52 l19 -42 0 73 c1 74 -4 90 -15 47z"/>
<path d="M4191 8767 c-38 -19 -63 -71 -68 -140 -6 -76 7 -111 49 -137 67 -42
153 2 153 79 0 77 -67 117 -137 82 l-40 -19 6 21 c3 12 6 27 6 34 0 6 12 25
26 42 19 23 34 31 59 31 38 0 52 -14 36 -34 -8 -10 -8 -16 3 -25 10 -9 16 -8
25 3 13 16 0 53 -23 68 -17 12 -68 9 -95 -5z m80 -136 c18 -14 24 -29 24 -61
0 -32 -6 -47 -24 -61 -52 -42 -116 -9 -116 61 0 47 29 80 70 80 13 0 33 -9 46
-19z"/>
<path d="M5030 8770 c0 -5 7 -10 15 -10 13 0 15 -22 15 -135 0 -113 -2 -135
-15 -135 -8 0 -15 -4 -15 -10 0 -6 42 -10 105 -10 l105 0 0 52 c0 55 -16 57
-22 3 -3 -29 -4 -30 -65 -33 l-63 -3 0 136 c0 113 2 135 15 135 8 0 15 5 15
10 0 6 -20 10 -45 10 -25 0 -45 -4 -45 -10z"/>
<path d="M5260 8770 c0 -5 8 -10 18 -10 16 0 22 -19 41 -122 36 -198 40 -202
66 -55 9 56 21 108 25 115 3 8 15 -33 25 -90 29 -169 34 -169 65 0 26 148 28
152 46 152 8 0 14 5 14 10 0 6 -18 10 -40 10 -22 0 -40 -4 -40 -10 0 -5 7 -10
15 -10 19 0 18 -5 -4 -110 -18 -84 -18 -85 -26 -45 -28 148 -32 160 -46 163
-12 2 -19 -19 -34 -98 -10 -55 -20 -99 -21 -97 -4 4 -34 158 -34 175 0 6 7 12
15 12 8 0 15 5 15 10 0 6 -22 10 -50 10 -27 0 -50 -4 -50 -10z"/>
<path d="M6230 8770 c0 -5 6 -10 14 -10 18 0 20 -4 47 -152 30 -169 35 -169
64 0 10 58 22 98 26 90 4 -7 15 -59 25 -115 25 -146 30 -143 64 50 20 108 26
127 42 127 10 0 18 5 18 10 0 6 -18 10 -40 10 -22 0 -40 -4 -40 -10 0 -5 7
-10 16 -10 9 0 14 -6 11 -13 -3 -8 -11 -48 -18 -90 -7 -43 -16 -77 -20 -77 -3
0 -9 19 -12 43 -13 90 -29 147 -42 147 -16 0 -19 -10 -36 -108 -7 -40 -15 -75
-19 -77 -3 -2 -12 30 -19 72 -7 42 -15 82 -18 90 -3 7 2 13 11 13 9 0 16 5 16
10 0 6 -20 10 -45 10 -25 0 -45 -4 -45 -10z"/>
<path d="M4450 8638 c-23 -73 -48 -138 -56 -144 -23 -18 -16 -24 26 -24 22 0
40 5 40 10 0 6 -10 10 -21 10 -17 0 -20 4 -15 23 3 12 6 25 6 30 0 4 27 7 60
7 56 0 61 -2 70 -26 13 -33 13 -34 -5 -34 -8 0 -15 -4 -15 -10 0 -5 20 -10 45
-10 25 0 45 5 45 10 0 6 -6 10 -14 10 -10 0 -30 48 -61 140 -26 77 -51 140
-55 140 -5 0 -28 -60 -50 -132z m90 -60 c0 -4 -22 -8 -49 -8 l-50 0 26 77 26
77 24 -69 c12 -38 23 -73 23 -77z"/>
<path d="M5750 8670 l0 -59 -62 -4 -63 -3 63 -2 62 -2 0 -60 c0 -33 4 -60 10
-60 6 0 10 27 10 60 l0 59 58 4 57 3 -57 2 -58 2 0 60 c0 33 -4 60 -10 60 -6
0 -10 -27 -10 -60z"/>
<path d="M4753 8643 c37 -2 97 -2 135 0 37 2 6 3 -68 3 -74 0 -105 -1 -67 -3z"/>
<path d="M2938 8573 c34 -2 90 -2 125 0 34 2 6 3 -63 3 -69 0 -97 -1 -62 -3z"/>
<path d="M3248 8573 c12 -2 30 -2 40 0 9 3 -1 5 -23 4 -22 0 -30 -2 -17 -4z"/>
<path d="M3468 8573 c34 -2 90 -2 125 0 34 2 6 3 -63 3 -69 0 -97 -1 -62 -3z"/>
<path d="M3778 8573 c12 -2 30 -2 40 0 9 3 -1 5 -23 4 -22 0 -30 -2 -17 -4z"/>
<path d="M3953 8573 c9 -2 23 -2 30 0 6 3 -1 5 -18 5 -16 0 -22 -2 -12 -5z"/>
<path d="M4695 8560 c4 -6 57 -10 125 -10 68 0 121 4 125 10 4 6 -40 10 -125
10 -85 0 -129 -4 -125 -10z"/>
<path d="M4780 8330 c-64 -90 -81 -197 -46 -302 17 -52 72 -135 83 -124 2 2
-7 21 -21 43 -14 21 -32 72 -41 116 -20 93 -9 163 36 245 31 56 24 71 -11 22z"/>
<path d="M5890 8316 c67 -98 64 -278 -5 -380 -30 -45 -15 -48 19 -3 44 58 61
115 61 207 0 89 -19 144 -68 198 -34 37 -38 25 -7 -22z"/>
<path d="M4171 8284 c-66 -56 -68 -228 -3 -263 37 -20 98 -13 129 13 24 20 28
32 27 71 -1 56 -24 83 -78 92 -29 4 -44 1 -67 -16 -32 -24 -35 -18 -18 42 15
56 80 92 119 67 12 -8 13 -13 3 -29 -15 -24 1 -39 22 -21 20 16 19 26 -5 50
-29 29 -90 27 -129 -6z m100 -123 c17 -18 29 -40 29 -56 0 -30 -49 -85 -75
-85 -9 0 -30 14 -47 30 -25 26 -29 36 -24 62 7 36 22 57 51 68 31 13 34 12 66
-19z"/>
<path d="M4403 8303 c15 -4 17 -19 17 -143 0 -123 -2 -139 -17 -144 -10 -2 31
-4 90 -3 95 2 110 4 123 21 21 29 18 92 -5 115 -19 19 -19 20 0 37 29 26 25
78 -7 103 -23 18 -40 21 -123 20 -53 -1 -88 -3 -78 -6z m160 -12 c47 -18 48
-88 2 -109 -14 -7 -46 -12 -70 -12 l-45 0 0 65 0 65 44 0 c25 0 56 -4 69 -9z
m15 -147 c16 -11 22 -25 22 -53 0 -50 -18 -64 -91 -69 l-59 -4 0 71 0 71 53 0
c31 0 61 -6 75 -16z"/>
<path d="M4947 8299 c-69 -41 -68 -241 2 -279 11 -5 36 -10 56 -10 61 0 95 53
95 150 0 98 -34 150 -97 150 -21 0 -46 -5 -56 -11z m88 -22 c53 -45 44 -220
-11 -246 -59 -27 -98 24 -98 129 0 117 49 169 109 117z"/>
<path d="M5335 8288 c-23 -20 -27 -30 -21 -52 6 -23 9 -26 22 -16 11 10 12 16
3 26 -27 32 57 68 107 45 18 -8 24 -18 24 -44 0 -39 -15 -57 -47 -57 -13 0
-23 -4 -23 -10 0 -5 10 -10 23 -10 28 0 41 -9 56 -37 18 -34 13 -62 -15 -90
-22 -21 -32 -25 -66 -20 -50 7 -81 33 -58 47 13 8 13 11 -2 26 -16 16 -17 15
-24 -11 -6 -23 -2 -33 20 -52 36 -30 122 -33 157 -4 32 26 33 90 1 124 -20 21
-21 25 -7 37 16 14 20 76 6 99 -6 9 -32 16 -68 19 -52 4 -63 1 -88 -20z"/>
<path d="M5601 8253 c-6 -32 -14 -69 -18 -83 l-6 -25 26 23 c14 13 43 26 65
29 55 7 92 -27 92 -87 0 -66 -59 -105 -120 -80 -31 13 -38 28 -20 46 8 8 7 14
-3 23 -23 18 -40 -9 -27 -43 11 -31 45 -46 100 -46 56 0 91 33 97 91 4 38 1
50 -22 77 -30 36 -76 49 -119 32 -36 -13 -39 -10 -31 33 l7 35 69 6 c38 4 69
11 69 17 0 5 -33 9 -74 9 l-73 0 -12 -57z"/>
<path d="M2880 8110 c0 -6 65 -10 175 -10 110 0 175 4 175 10 0 6 -65 10 -175
10 -110 0 -175 -4 -175 -10z"/>
<path d="M3350 8110 c0 -5 14 -10 30 -10 17 0 30 5 30 10 0 6 -13 10 -30 10
-16 0 -30 -4 -30 -10z"/>
<path d="M3530 8110 c0 -5 14 -10 30 -10 17 0 30 5 30 10 0 6 -13 10 -30 10
-16 0 -30 -4 -30 -10z"/>
<path d="M3710 8110 c0 -5 14 -10 31 -10 17 0 28 4 24 10 -3 6 -17 10 -31 10
-13 0 -24 -4 -24 -10z"/>
<path d="M3885 8110 c-4 -6 15 -10 49 -10 31 0 56 5 56 10 0 6 -22 10 -49 10
-28 0 -53 -4 -56 -10z"/>
<path d="M11243 8071 c-64 -11 -66 -24 -2 -17 44 6 67 3 108 -13 54 -22 82
-27 66 -13 -9 8 -125 54 -128 51 -1 -1 -21 -5 -44 -8z"/>
<path d="M5190 8035 c-10 -12 -9 -16 5 -21 23 -9 40 10 22 25 -11 9 -17 8 -27
-4z"/>
<path d="M10811 8004 c-89 -15 -114 -24 -65 -24 37 0 205 28 212 35 9 9 -59 4
-147 -11z"/>
<path d="M10350 7933 c-81 -13 -98 -18 -89 -27 6 -5 218 29 226 37 9 10 -40 7
-137 -10z"/>
<path d="M11640 7940 c0 -5 33 -21 73 -36 39 -14 87 -33 106 -41 29 -11 54
-11 40 1 -13 11 -219 83 -219 76z"/>
<path d="M9937 7780 c-80 -56 -107 -80 -91 -80 7 0 194 131 194 137 0 11 -26
-4 -103 -57z"/>
<path d="M12080 7772 c0 -10 209 -87 216 -79 4 4 -196 87 -211 87 -3 0 -5 -4
-5 -8z"/>
<path d="M7555 7630 c-4 -6 5 -10 19 -10 14 0 26 5 26 10 0 6 -9 10 -19 10
-11 0 -23 -4 -26 -10z"/>
<path d="M7720 7630 c0 -5 11 -10 25 -10 14 0 25 5 25 10 0 6 -11 10 -25 10
-14 0 -25 -4 -25 -10z"/>
<path d="M7884 7629 c-3 -5 9 -9 25 -9 17 0 31 2 31 4 0 8 -51 13 -56 5z"/>
<path d="M3255 7620 c3 -5 15 -10 25 -10 10 0 22 5 25 10 4 6 -7 10 -25 10
-18 0 -29 -4 -25 -10z"/>
<path d="M3420 7620 c0 -5 11 -10 25 -10 14 0 25 5 25 10 0 6 -11 10 -25 10
-14 0 -25 -4 -25 -10z"/>
<path d="M3585 7620 c3 -5 15 -10 25 -10 10 0 22 5 25 10 4 6 -7 10 -25 10
-18 0 -29 -4 -25 -10z"/>
<path d="M3750 7620 c0 -5 11 -10 25 -10 14 0 25 5 25 10 0 6 -11 10 -25 10
-14 0 -25 -4 -25 -10z"/>
<path d="M3915 7620 c3 -5 15 -10 25 -10 10 0 22 5 25 10 4 6 -7 10 -25 10
-18 0 -29 -4 -25 -10z"/>
<path d="M4085 7620 c3 -5 15 -10 26 -10 10 0 19 5 19 10 0 6 -12 10 -26 10
-14 0 -23 -4 -19 -10z"/>
<path d="M4250 7620 c0 -5 9 -10 19 -10 11 0 23 5 26 10 4 6 -5 10 -19 10 -14
0 -26 -4 -26 -10z"/>
<path d="M4415 7620 c3 -5 15 -10 26 -10 10 0 19 5 19 10 0 6 -12 10 -26 10
-14 0 -23 -4 -19 -10z"/>
<path d="M4580 7620 c0 -5 9 -10 19 -10 11 0 23 5 26 10 4 6 -5 10 -19 10 -14
0 -26 -4 -26 -10z"/>
<path d="M4745 7620 c3 -5 15 -10 26 -10 10 0 19 5 19 10 0 6 -12 10 -26 10
-14 0 -23 -4 -19 -10z"/>
<path d="M4910 7620 c0 -5 9 -10 19 -10 11 0 23 5 26 10 4 6 -5 10 -19 10 -14
0 -26 -4 -26 -10z"/>
<path d="M5075 7620 c3 -5 15 -10 26 -10 10 0 19 5 19 10 0 6 -12 10 -26 10
-14 0 -23 -4 -19 -10z"/>
<path d="M5240 7620 c0 -5 9 -10 19 -10 11 0 23 5 26 10 4 6 -5 10 -19 10 -14
0 -26 -4 -26 -10z"/>
<path d="M5405 7620 c3 -5 15 -10 25 -10 10 0 22 5 25 10 4 6 -7 10 -25 10
-18 0 -29 -4 -25 -10z"/>
<path d="M5570 7620 c0 -5 11 -10 25 -10 14 0 25 5 25 10 0 6 -11 10 -25 10
-14 0 -25 -4 -25 -10z"/>
<path d="M5740 7620 c0 -5 9 -10 20 -10 11 0 20 5 20 10 0 6 -9 10 -20 10 -11
0 -20 -4 -20 -10z"/>
<path d="M5900 7620 c0 -5 11 -10 25 -10 14 0 25 5 25 10 0 6 -11 10 -25 10
-14 0 -25 -4 -25 -10z"/>
<path d="M6070 7620 c0 -5 9 -10 20 -10 11 0 20 5 20 10 0 6 -9 10 -20 10 -11
0 -20 -4 -20 -10z"/>
<path d="M6230 7620 c0 -5 11 -10 25 -10 14 0 25 5 25 10 0 6 -11 10 -25 10
-14 0 -25 -4 -25 -10z"/>
<path d="M6400 7620 c0 -5 9 -10 20 -10 11 0 20 5 20 10 0 6 -9 10 -20 10 -11
0 -20 -4 -20 -10z"/>
<path d="M6565 7620 c-4 -6 5 -10 19 -10 14 0 26 5 26 10 0 6 -9 10 -19 10
-11 0 -23 -4 -26 -10z"/>
<path d="M6730 7620 c0 -5 11 -10 25 -10 14 0 25 5 25 10 0 6 -11 10 -25 10
-14 0 -25 -4 -25 -10z"/>
<path d="M6895 7620 c3 -5 15 -10 26 -10 10 0 19 5 19 10 0 6 -12 10 -26 10
-14 0 -23 -4 -19 -10z"/>
<path d="M7060 7620 c0 -13 20 -13 40 0 12 8 9 10 -12 10 -16 0 -28 -4 -28
-10z"/>
<path d="M7233 7623 c9 -2 23 -2 30 0 6 3 -1 5 -18 5 -16 0 -22 -2 -12 -5z"/>
<path d="M7403 7623 c9 -2 23 -2 30 0 6 3 -1 5 -18 5 -16 0 -22 -2 -12 -5z"/>
<path d="M8063 7623 c9 -2 23 -2 30 0 6 3 -1 5 -18 5 -16 0 -22 -2 -12 -5z"/>
<path d="M8215 7620 c3 -5 15 -10 26 -10 10 0 19 5 19 10 0 6 -12 10 -26 10
-14 0 -23 -4 -19 -10z"/>
<path d="M8380 7620 c0 -5 11 -10 25 -10 14 0 25 5 25 10 0 6 -11 10 -25 10
-14 0 -25 -4 -25 -10z"/>
<path d="M8545 7620 c-4 -6 7 -10 25 -10 18 0 29 4 25 10 -3 6 -15 10 -25 10
-10 0 -22 -4 -25 -10z"/>
<path d="M8723 7613 c9 -2 23 -2 30 0 6 3 -1 5 -18 5 -16 0 -22 -2 -12 -5z"/>
<path d="M8880 7610 c0 -5 9 -10 19 -10 11 0 23 5 26 10 4 6 -5 10 -19 10 -14
0 -26 -4 -26 -10z"/>
<path d="M9045 7610 c3 -5 15 -10 26 -10 10 0 19 5 19 10 0 6 -12 10 -26 10
-14 0 -23 -4 -19 -10z"/>
<path d="M9210 7610 c0 -5 11 -10 25 -10 14 0 25 5 25 10 0 6 -11 10 -25 10
-14 0 -25 -4 -25 -10z"/>
<path d="M9370 7610 c0 -5 11 -10 25 -10 14 0 25 5 25 10 0 6 -11 10 -25 10
-14 0 -25 -4 -25 -10z"/>
<path d="M9540 7610 c0 -5 11 -10 25 -10 14 0 25 5 25 10 0 6 -11 10 -25 10
-14 0 -25 -4 -25 -10z"/>
<path d="M9705 7610 c-4 -6 5 -10 19 -10 14 0 26 5 26 10 0 6 -9 10 -19 10
-11 0 -23 -4 -26 -10z"/>
<path d="M9870 7610 c0 -5 12 -10 26 -10 14 0 23 4 19 10 -3 6 -15 10 -26 10
-10 0 -19 -4 -19 -10z"/>
<path d="M10035 7610 c-4 -6 5 -10 19 -10 14 0 26 5 26 10 0 6 -9 10 -19 10
-11 0 -23 -4 -26 -10z"/>
<path d="M10200 7610 c0 -5 11 -10 25 -10 14 0 25 5 25 10 0 6 -11 10 -25 10
-14 0 -25 -4 -25 -10z"/>
<path d="M10365 7610 c-4 -6 5 -10 19 -10 14 0 26 5 26 10 0 6 -9 10 -19 10
-11 0 -23 -4 -26 -10z"/>
<path d="M10530 7610 c0 -5 11 -10 25 -10 14 0 25 5 25 10 0 6 -11 10 -25 10
-14 0 -25 -4 -25 -10z"/>
<path d="M10700 7610 c0 -5 9 -10 20 -10 11 0 20 5 20 10 0 6 -9 10 -20 10
-11 0 -20 -4 -20 -10z"/>
<path d="M10860 7610 c0 -5 11 -10 25 -10 14 0 25 5 25 10 0 6 -11 10 -25 10
-14 0 -25 -4 -25 -10z"/>
<path d="M11025 7610 c3 -5 15 -10 25 -10 10 0 22 5 25 10 4 6 -7 10 -25 10
-18 0 -29 -4 -25 -10z"/>
<path d="M11190 7610 c0 -5 11 -10 25 -10 14 0 25 5 25 10 0 6 -11 10 -25 10
-14 0 -25 -4 -25 -10z"/>
<path d="M11360 7610 c0 -5 9 -10 19 -10 11 0 23 5 26 10 4 6 -5 10 -19 10
-14 0 -26 -4 -26 -10z"/>
<path d="M11520 7610 c0 -5 11 -10 25 -10 14 0 25 5 25 10 0 6 -11 10 -25 10
-14 0 -25 -4 -25 -10z"/>
<path d="M11690 7610 c0 -5 12 -10 26 -10 14 0 23 4 19 10 -3 6 -15 10 -26 10
-10 0 -19 -4 -19 -10z"/>
<path d="M17145 7610 c-4 -6 5 -10 19 -10 14 0 26 5 26 10 0 6 -9 10 -19 10
-11 0 -23 -4 -26 -10z"/>
<path d="M17310 7610 c0 -5 12 -10 26 -10 14 0 23 4 19 10 -3 6 -15 10 -26 10
-10 0 -19 -4 -19 -10z"/>
<path d="M17480 7610 c0 -5 9 -10 20 -10 11 0 20 5 20 10 0 6 -9 10 -20 10
-11 0 -20 -4 -20 -10z"/>
<path d="M17640 7610 c0 -5 11 -10 25 -10 14 0 25 5 25 10 0 6 -11 10 -25 10
-14 0 -25 -4 -25 -10z"/>
<path d="M17810 7610 c0 -5 9 -10 20 -10 11 0 20 5 20 10 0 6 -9 10 -20 10
-11 0 -20 -4 -20 -10z"/>
<path d="M17970 7610 c0 -5 11 -10 25 -10 14 0 25 5 25 10 0 6 -11 10 -25 10
-14 0 -25 -4 -25 -10z"/>
<path d="M18140 7610 c0 -5 9 -10 20 -10 11 0 20 5 20 10 0 6 -9 10 -20 10
-11 0 -20 -4 -20 -10z"/>
<path d="M18300 7610 c0 -5 11 -10 25 -10 14 0 25 5 25 10 0 6 -11 10 -25 10
-14 0 -25 -4 -25 -10z"/>
<path d="M11863 7603 c9 -2 23 -2 30 0 6 3 -1 5 -18 5 -16 0 -22 -2 -12 -5z"/>
<path d="M12020 7600 c0 -5 9 -10 19 -10 11 0 23 5 26 10 4 6 -5 10 -19 10
-14 0 -26 -4 -26 -10z"/>
<path d="M12180 7600 c0 -5 11 -10 25 -10 14 0 25 5 25 10 0 6 -11 10 -25 10
-14 0 -25 -4 -25 -10z"/>
<path d="M12350 7600 c0 -5 12 -10 28 -9 24 0 25 1 7 9 -27 12 -35 12 -35 0z"/>
<path d="M14665 7600 c-4 -6 5 -10 19 -10 14 0 26 5 26 10 0 6 -9 10 -19 10
-11 0 -23 -4 -26 -10z"/>
<path d="M14830 7600 c0 -5 9 -10 19 -10 11 0 23 5 26 10 4 6 -5 10 -19 10
-14 0 -26 -4 -26 -10z"/>
<path d="M14995 7600 c3 -5 15 -10 26 -10 10 0 19 5 19 10 0 6 -12 10 -26 10
-14 0 -23 -4 -19 -10z"/>
<path d="M15160 7600 c0 -5 11 -10 25 -10 14 0 25 5 25 10 0 6 -11 10 -25 10
-14 0 -25 -4 -25 -10z"/>
<path d="M15330 7600 c0 -5 9 -10 20 -10 11 0 20 5 20 10 0 6 -9 10 -20 10
-11 0 -20 -4 -20 -10z"/>
<path d="M15490 7600 c0 -5 11 -10 25 -10 14 0 25 5 25 10 0 6 -11 10 -25 10
-14 0 -25 -4 -25 -10z"/>
<path d="M15655 7600 c-4 -6 7 -10 27 -9 27 0 30 2 13 9 -27 12 -33 12 -40 0z"/>
<path d="M16320 7600 c0 -5 12 -10 26 -10 14 0 23 4 19 10 -3 6 -15 10 -26 10
-10 0 -19 -4 -19 -10z"/>
<path d="M16480 7600 c0 -5 11 -10 25 -10 14 0 25 5 25 10 0 6 -11 10 -25 10
-14 0 -25 -4 -25 -10z"/>
<path d="M16650 7600 c0 -5 9 -10 19 -10 11 0 23 5 26 10 4 6 -5 10 -19 10
-14 0 -26 -4 -26 -10z"/>
<path d="M16823 7603 c9 -2 23 -2 30 0 6 3 -1 5 -18 5 -16 0 -22 -2 -12 -5z"/>
<path d="M16993 7603 c9 -2 23 -2 30 0 6 3 -1 5 -18 5 -16 0 -22 -2 -12 -5z"/>
<path d="M12516 7591 c10 -9 162 -114 182 -125 6 -4 12 -4 12 1 0 4 -36 33
-79 63 -44 30 -77 58 -75 62 3 5 -7 8 -22 8 -17 0 -24 -4 -18 -9z"/>
<path d="M12680 7590 c0 -5 11 -10 25 -10 14 0 25 5 25 10 0 6 -11 10 -25 10
-14 0 -25 -4 -25 -10z"/>
<path d="M12850 7590 c0 -5 9 -10 20 -10 11 0 20 5 20 10 0 6 -9 10 -20 10
-11 0 -20 -4 -20 -10z"/>
<path d="M13010 7590 c0 -5 12 -10 28 -10 21 0 24 2 12 10 -20 13 -40 13 -40
0z"/>
<path d="M14170 7590 c0 -5 12 -10 26 -10 14 0 23 4 19 10 -3 6 -15 10 -26 10
-10 0 -19 -4 -19 -10z"/>
<path d="M14335 7590 c3 -5 15 -10 26 -10 10 0 19 5 19 10 0 6 -12 10 -26 10
-14 0 -23 -4 -19 -10z"/>
<path d="M14513 7593 c9 -2 23 -2 30 0 6 3 -1 5 -18 5 -16 0 -22 -2 -12 -5z"/>
<path d="M15833 7593 c9 -2 23 -2 30 0 6 3 -1 5 -18 5 -16 0 -22 -2 -12 -5z"/>
<path d="M15993 7593 c9 -2 25 -2 35 0 9 3 1 5 -18 5 -19 0 -27 -2 -17 -5z"/>
<path d="M16163 7593 c9 -2 23 -2 30 0 6 3 -1 5 -18 5 -16 0 -22 -2 -12 -5z"/>
<path d="M13183 7583 c9 -2 25 -2 35 0 9 3 1 5 -18 5 -19 0 -27 -2 -17 -5z"/>
<path d="M13340 7580 c0 -5 11 -10 25 -10 14 0 25 5 25 10 0 6 -11 10 -25 10
-14 0 -25 -4 -25 -10z"/>
<path d="M13510 7580 c0 -5 9 -10 20 -10 11 0 20 5 20 10 0 6 -9 10 -20 10
-11 0 -20 -4 -20 -10z"/>
<path d="M13675 7580 c-4 -6 5 -10 19 -10 14 0 26 5 26 10 0 6 -9 10 -19 10
-11 0 -23 -4 -26 -10z"/>
<path d="M13840 7580 c0 -5 9 -10 19 -10 11 0 23 5 26 10 4 6 -5 10 -19 10
-14 0 -26 -4 -26 -10z"/>
<path d="M14013 7583 c9 -2 23 -2 30 0 6 3 -1 5 -18 5 -16 0 -22 -2 -12 -5z"/>
<path d="M3420 7560 c0 -5 14 -10 32 -10 36 0 35 4 -4 14 -17 4 -28 2 -28 -4z"/>
<path d="M9542 7502 c-52 -36 -89 -68 -84 -70 11 -3 191 119 192 131 0 14 -16
5 -108 -61z"/>
<path d="M3600 7530 c20 -13 50 -13 50 0 0 6 -15 10 -32 10 -25 0 -29 -3 -18
-10z"/>
<path d="M3770 7513 c0 -11 337 -59 347 -50 7 8 -22 14 -162 32 -66 9 -135 18
-152 21 -18 4 -33 2 -33 -3z"/>
<path d="M4230 7431 c0 -10 50 -25 58 -17 2 3 -7 10 -22 16 -33 12 -36 12 -36
1z"/>
<path d="M4405 7372 c6 -5 21 -13 35 -17 17 -5 22 -4 15 3 -5 5 -21 13 -35 17
-17 5 -22 4 -15 -3z"/>
<path d="M12906 7321 c31 -29 186 -132 191 -127 4 3 4 8 2 9 -33 27 -185 127
-193 127 -6 0 -6 -3 0 -9z"/>
<path d="M4570 7315 c0 -9 44 -23 54 -17 5 3 1 9 -10 13 -23 9 -44 11 -44 4z"/>
<path d="M9163 7234 c-51 -36 -93 -70 -93 -75 0 -10 113 65 175 116 59 48 8
23 -82 -41z"/>
<path d="M4736 7261 c-3 -4 72 -32 165 -63 93 -31 169 -53 169 -49 0 11 -329
121 -334 112z"/>
<path d="M5180 7112 c0 -4 14 -13 30 -19 17 -6 30 -8 30 -3 0 4 -13 13 -30 19
-16 5 -30 7 -30 3z"/>
<path d="M5350 7051 c0 -12 49 -31 55 -22 3 5 -9 14 -25 20 -17 5 -30 6 -30 2z"/>
<path d="M13290 7057 c0 -7 185 -137 195 -137 15 0 -11 23 -88 76 -83 57 -107
71 -107 61z"/>
<path d="M8798 6933 c-89 -101 -95 -129 -7 -33 70 77 103 120 92 120 -4 0 -43
-39 -85 -87z"/>
<path d="M17990 6984 l-25 -15 25 5 c14 3 28 6 33 6 4 0 7 5 7 10 0 14 -10 12
-40 -6z"/>
<path d="M5510 6981 c0 -5 14 -14 30 -20 36 -12 40 1 5 17 -31 14 -35 15 -35
3z"/>
<path d="M17825 6925 c-23 -10 -25 -14 -10 -14 21 -1 52 15 45 23 -3 2 -18 -2
-35 -9z"/>
<path d="M5676 6912 c-6 -9 313 -146 321 -139 3 4 -9 13 -28 21 -19 8 -91 39
-161 69 -71 31 -130 52 -132 49z"/>
<path d="M17661 6869 c-13 -5 -22 -12 -19 -15 8 -8 58 7 58 17 0 11 -8 11 -39
-2z"/>
<path d="M17356 6757 c-93 -33 -164 -63 -158 -65 16 -5 332 109 332 119 0 5
-1 9 -2 8 -2 0 -79 -28 -172 -62z"/>
<path d="M13680 6785 c0 -2 37 -32 83 -66 45 -34 88 -67 95 -72 8 -6 12 -6 12
0 0 9 -174 143 -185 143 -3 0 -5 -2 -5 -5z"/>
<path d="M6110 6721 c0 -10 25 -21 48 -21 12 1 10 5 -8 15 -29 17 -40 18 -40
6z"/>
<path d="M8486 6586 c-72 -79 -101 -122 -55 -80 40 36 142 155 137 160 -3 2
-40 -33 -82 -80z"/>
<path d="M6270 6651 c0 -8 34 -21 55 -21 11 1 -35 29 -47 30 -5 0 -8 -4 -8 -9z"/>
<path d="M17040 6640 c-24 -15 -7 -19 25 -5 23 10 25 14 10 14 -11 0 -27 -3
-35 -9z"/>
<path d="M16888 6587 c-24 -9 -39 -27 -23 -27 12 0 55 24 55 32 0 4 -1 8 -2 7
-2 -1 -15 -6 -30 -12z"/>
<path d="M6430 6585 c0 -2 14 -11 30 -20 17 -9 30 -12 30 -7 0 5 -11 14 -25
20 -28 13 -35 14 -35 7z"/>
<path d="M16710 6520 c-24 -15 -7 -19 25 -5 23 10 25 14 10 14 -11 0 -27 -3
-35 -9z"/>
<path d="M14060 6503 c0 -12 181 -146 188 -139 3 3 3 7 1 9 -24 19 -167 125
-176 131 -7 4 -13 3 -13 -1z"/>
<path d="M16423 6416 c-78 -30 -150 -56 -159 -60 -9 -4 -14 -9 -11 -12 6 -6
316 104 332 118 20 18 -26 5 -162 -46z"/>
<path d="M8168 6232 c-89 -101 -95 -128 -7 -32 66 72 94 108 88 115 -3 2 -39
-35 -81 -83z"/>
<path d="M16104 6294 c-17 -14 -17 -15 -1 -10 10 3 23 6 28 6 5 0 9 5 9 10 0
14 -13 12 -36 -6z"/>
<path d="M15925 6240 c-7 -12 12 -12 40 0 18 8 17 9 -7 9 -15 1 -30 -3 -33 -9z"/>
<path d="M14436 6223 c-3 -3 36 -37 86 -74 82 -62 108 -77 108 -65 0 9 -188
144 -194 139z"/>
<path d="M15755 6190 c-7 -12 12 -12 40 0 18 8 17 9 -7 9 -15 1 -30 -3 -33 -9z"/>
<path d="M15525 6128 c-210 -61 -240 -71 -229 -75 10 -3 332 84 342 92 2 2 0
5 -5 7 -4 3 -53 -8 -108 -24z"/>
<path d="M15155 6022 c-11 -2 -24 -9 -30 -14 -7 -7 -1 -8 20 -3 44 10 53 26
10 17z"/>
<path d="M14985 5972 c-11 -2 -24 -9 -30 -14 -7 -7 -1 -8 20 -3 44 10 53 26
10 17z"/>
<path d="M14815 5930 c3 -5 -1 -10 -9 -10 -8 0 -18 -5 -21 -11 -5 -7 4 -8 27
-4 30 5 40 0 103 -55 74 -63 118 -84 50 -23 -96 86 -171 138 -150 103z"/>
<path d="M14488 5832 c-87 -25 -158 -50 -158 -55 0 -5 6 -7 13 -4 6 2 83 24
170 48 86 24 157 47 157 51 0 12 -14 9 -182 -40z"/>
<path d="M14178 5743 c-10 -2 -18 -8 -18 -12 0 -11 49 -1 56 10 5 9 -8 10 -38
2z"/>
<path d="M14000 5690 c-24 -15 -7 -19 25 -5 23 10 25 14 10 14 -11 0 -27 -3
-35 -9z"/>
<path d="M13820 5640 c-12 -8 -12 -10 5 -9 11 0 29 4 40 9 18 8 18 9 -5 9 -14
0 -32 -4 -40 -9z"/>
<path d="M13530 5567 c-160 -38 -178 -43 -169 -51 5 -5 328 69 336 78 15 14
-10 10 -167 -27z"/>
<path d="M13202 5493 c-12 -2 -20 -8 -17 -12 6 -11 55 -1 55 10 0 5 -3 8 -7 8
-5 -1 -18 -4 -31 -6z"/>
<path d="M13028 5453 c-10 -2 -18 -9 -18 -15 0 -5 7 -7 16 -4 9 3 22 6 30 6 8
0 14 5 14 10 0 10 -12 11 -42 3z"/>
<path d="M12858 5413 c-10 -2 -18 -8 -18 -12 0 -11 49 -1 56 10 5 9 -8 10 -38
2z"/>
<path d="M12580 5350 c-63 -16 -134 -29 -157 -29 -24 -1 -43 -6 -43 -12 0 -7
17 -9 53 -4 77 10 281 56 292 66 15 14 -21 9 -145 -21z"/>
<path d="M12205 5290 c-4 -6 7 -10 24 -10 17 0 31 5 31 10 0 6 -11 10 -24 10
-14 0 -28 -4 -31 -10z"/>
<path d="M3170 7541 c0 -11 49 -31 54 -23 3 5 -8 13 -25 19 -16 6 -29 8 -29 4z"/>
<path d="M3336 7471 c15 -14 203 -83 215 -79 6 2 -38 23 -98 46 -111 42 -135
49 -117 33z"/>
<path d="M3683 7335 c16 -9 31 -14 35 -11 8 9 0 14 -33 21 l-30 6 28 -16z"/>
<path d="M3830 7283 c0 -5 19 -16 43 -25 23 -9 72 -28 110 -42 37 -14 67 -22
67 -18 0 5 -46 26 -102 48 -56 21 -105 41 -110 42 -4 2 -8 0 -8 -5z"/>
<path d="M4168 7128 c12 -12 25 -19 28 -15 4 4 -1 14 -12 22 -29 22 -41 18
-16 -7z"/>
<path d="M4360 6945 c47 -47 89 -85 95 -85 5 0 -28 38 -75 85 -47 47 -89 85
-95 85 -5 0 28 -38 75 -85z"/>
<path d="M4540 6783 c0 -12 38 -48 45 -41 3 2 -6 15 -20 28 -14 13 -25 19 -25
13z"/>
<path d="M4742 6574 c48 -48 90 -85 94 -81 7 7 -149 159 -170 166 -6 2 28 -36
76 -85z"/>
<path d="M4920 6413 c0 -12 38 -48 45 -41 3 2 -6 15 -20 28 -14 13 -25 19 -25
13z"/>
<path d="M7030 6321 c0 -12 49 -31 55 -22 3 5 -9 14 -25 20 -17 5 -30 6 -30 2z"/>
<path d="M5125 6205 c49 -46 92 -82 95 -78 6 7 -161 163 -175 163 -5 -1 30
-39 80 -85z"/>
<path d="M7190 6251 c0 -7 44 -31 55 -31 17 0 0 17 -25 27 -16 6 -30 8 -30 4z"/>
<path d="M7373 6165 c16 -9 31 -14 35 -11 8 9 0 14 -33 21 l-30 6 28 -16z"/>
<path d="M18220 6055 c-46 -46 -81 -88 -77 -91 4 -4 8 -5 10 -3 1 3 38 41 81
86 44 46 78 85 75 87 -3 3 -43 -33 -89 -79z"/>
<path d="M7575 6075 c119 -56 265 -114 265 -106 0 5 -19 16 -42 26 -24 9 -93
39 -154 66 -125 55 -178 66 -69 14z"/>
<path d="M5300 6043 c0 -12 38 -48 45 -41 3 2 -6 15 -20 28 -14 13 -25 19 -25
13z"/>
<path d="M7852 5881 c-45 -48 -79 -91 -76 -94 3 -2 28 21 57 52 28 31 65 71
81 88 16 18 27 35 24 38 -3 3 -41 -35 -86 -84z"/>
<path d="M7964 5916 c11 -9 27 -16 35 -16 21 0 2 16 -29 24 -24 7 -24 6 -6 -8z"/>
<path d="M5420 5906 c0 -12 142 -188 148 -182 5 6 -53 84 -112 151 -19 22 -35
36 -36 31z"/>
<path d="M18035 5860 c-27 -30 -12 -34 15 -5 13 14 19 25 13 25 -5 0 -18 -9
-28 -20z"/>
<path d="M8133 5844 c16 -9 32 -13 35 -9 9 9 -19 25 -43 24 -16 0 -15 -2 8
-15z"/>
<path d="M8280 5791 c0 -10 25 -21 48 -21 12 1 10 5 -8 15 -29 17 -40 18 -40
6z"/>
<path d="M17874 5697 c-87 -91 -109 -117 -97 -117 13 0 168 168 161 175 -2 2
-31 -24 -64 -58z"/>
<path d="M8446 5721 c16 -15 325 -134 331 -128 3 4 -5 11 -18 16 -13 5 -87 34
-164 65 -136 55 -169 65 -149 47z"/>
<path d="M5640 5634 c1 -17 37 -57 43 -47 4 6 -5 21 -18 33 -14 13 -25 19 -25
14z"/>
<path d="M7558 5528 c-74 -95 -82 -108 -71 -108 11 0 147 179 141 186 -3 3
-35 -32 -70 -78z"/>
<path d="M8880 5550 c0 -4 14 -13 30 -19 17 -5 30 -6 30 -1 0 4 -13 13 -30 19
-16 5 -30 6 -30 1z"/>
<path d="M9050 5502 c0 -10 51 -24 59 -16 7 6 -2 12 -32 19 -16 4 -27 3 -27
-3z"/>
<path d="M5750 5495 c0 -9 142 -180 152 -184 16 -5 0 18 -72 107 -58 72 -80
93 -80 77z"/>
<path d="M17665 5480 c-27 -30 -12 -34 15 -5 13 14 19 25 13 25 -5 0 -18 -9
-28 -20z"/>
<path d="M9235 5450 c28 -12 47 -12 40 0 -3 6 -18 10 -33 9 -24 0 -25 -1 -7
-9z"/>
<path d="M9393 5414 c10 -10 347 -92 347 -84 0 4 -74 26 -165 49 -163 41 -194
47 -182 35z"/>
<path d="M17477 5285 c-43 -47 -75 -85 -70 -85 10 0 163 152 163 163 0 18 -20
1 -93 -78z"/>
<path d="M15540 5332 c0 -13 168 -157 176 -150 2 3 -26 31 -63 63 -38 32 -78
68 -90 79 -13 11 -23 14 -23 8z"/>
<path d="M9854 5299 c-3 -5 1 -9 10 -9 8 0 21 -3 30 -6 9 -3 16 -2 16 4 0 13
-49 22 -56 11z"/>
<path d="M10035 5250 c11 -5 29 -9 40 -9 17 -1 17 1 5 9 -8 5 -26 9 -40 9 -23
0 -23 -1 -5 -9z"/>
<path d="M11855 5250 c-4 -6 7 -10 24 -10 17 0 31 5 31 10 0 6 -11 10 -24 10
-14 0 -28 -4 -31 -10z"/>
<path d="M7260 5145 c-40 -53 -71 -98 -68 -101 6 -6 148 174 148 187 0 17 -8
9 -80 -86z"/>
<path d="M10205 5230 c3 -5 17 -10 31 -10 13 0 24 5 24 10 0 6 -14 10 -31 10
-17 0 -28 -4 -24 -10z"/>
<path d="M11590 5224 c-58 -7 -129 -16 -157 -19 -29 -4 -53 -11 -53 -16 0 -5
10 -7 23 -5 12 3 91 13 175 22 83 9 152 21 152 26 0 10 -4 9 -140 -8z"/>
<path d="M5976 5222 c-3 -5 6 -20 19 -32 30 -28 33 -18 6 16 -11 14 -22 21
-25 16z"/>
<path d="M10400 5222 c40 -14 330 -24 330 -12 0 5 -21 10 -47 10 -27 0 -106 2
-178 5 -76 3 -120 2 -105 -3z"/>
<path d="M10850 5200 c0 -5 14 -10 30 -10 17 0 30 5 30 10 0 6 -13 10 -30 10
-16 0 -30 -4 -30 -10z"/>
<path d="M11025 5190 c3 -5 19 -10 36 -10 16 0 29 5 29 10 0 6 -16 10 -36 10
-21 0 -33 -4 -29 -10z"/>
<path d="M11225 5179 c18 -5 33 -5 39 1 7 7 -4 10 -29 9 -40 -1 -40 -1 -10
-10z"/>
<path d="M17295 5100 c-27 -30 -12 -34 15 -5 13 14 19 25 13 25 -5 0 -18 -9
-28 -20z"/>
<path d="M6090 5081 c0 -14 141 -183 147 -177 5 5 -135 186 -144 186 -1 0 -3
-4 -3 -9z"/>
<path d="M15901 5023 c2 -5 36 -36 74 -69 97 -82 105 -88 105 -77 0 5 -35 39
-77 74 -86 71 -108 87 -102 72z"/>
<path d="M17110 4905 c-47 -47 -80 -85 -75 -85 14 0 170 158 164 164 -3 3 -43
-33 -89 -79z"/>
<path d="M6966 4769 c-37 -50 -66 -93 -63 -96 5 -4 138 158 145 178 11 30 -22
-4 -82 -82z"/>
<path d="M6322 4788 c8 -12 20 -24 27 -26 9 -3 7 5 -4 22 -10 14 -22 26 -27
26 -6 0 -4 -10 4 -22z"/>
<path d="M16925 4720 c-10 -11 -16 -22 -13 -25 3 -3 13 4 23 15 10 11 16 22
13 25 -3 3 -13 -4 -23 -15z"/>
<path d="M16240 4702 c0 -4 38 -45 85 -92 47 -47 85 -81 85 -76 0 11 -151 176
-162 176 -4 0 -8 -3 -8 -8z"/>
<path d="M6464 4613 c75 -96 104 -128 109 -123 7 7 -132 180 -145 180 -5 0 11
-26 36 -57z"/>
<path d="M16738 4526 c-43 -46 -78 -88 -78 -92 0 -5 38 29 85 76 79 79 96 101
78 99 -5 0 -43 -38 -85 -83z"/>
<path d="M6713 4442 c-28 -37 -43 -49 -56 -45 -15 4 -18 1 -13 -14 4 -13 -2
-30 -15 -47 -12 -15 -19 -30 -15 -33 3 -3 15 6 27 20 11 15 27 27 35 27 8 0
12 5 9 10 -4 6 12 36 35 66 23 31 40 58 37 61 -3 2 -23 -18 -44 -45z"/>
<path d="M16552 4339 c-26 -33 -15 -40 13 -9 19 21 19 20 95 -55 41 -41 80
-75 85 -75 5 0 -28 38 -75 85 -47 47 -87 85 -90 84 -3 0 -15 -13 -28 -30z"/>
<path d="M6750 4255 c0 -12 142 -185 151 -185 9 0 -13 30 -117 163 -20 25 -34
34 -34 22z"/>
<path d="M16368 4149 c-40 -44 -75 -85 -77 -92 -4 -15 124 109 150 146 41 56
-2 24 -73 -54z"/>
<path d="M6386 4029 c-42 -50 -74 -94 -71 -97 6 -7 3 -10 90 96 37 46 65 85
62 88 -3 3 -39 -36 -81 -87z"/>
<path d="M16910 4035 c0 -6 38 -48 85 -95 47 -47 85 -80 85 -75 0 6 -38 48
-85 95 -47 47 -85 80 -85 75z"/>
<path d="M6970 3972 c0 -10 33 -42 44 -42 9 0 -27 49 -36 50 -5 0 -8 -4 -8 -8z"/>
<path d="M16180 3955 c-13 -14 -19 -25 -13 -25 12 0 48 38 41 45 -2 3 -15 -6
-28 -20z"/>
<path d="M15987 3773 c-48 -42 -85 -78 -82 -81 5 -5 127 92 164 132 47 50 5
24 -82 -51z"/>
<path d="M7080 3834 c0 -12 142 -185 148 -180 3 3 -12 27 -33 53 -20 27 -51
67 -69 90 -28 39 -46 53 -46 37z"/>
<path d="M6083 3660 c-39 -48 -69 -90 -66 -93 5 -6 153 166 153 178 0 16 -23
-6 -87 -85z"/>
<path d="M17240 3692 c0 -4 38 -45 85 -92 47 -47 85 -81 85 -77 0 11 -153 177
-162 177 -5 0 -8 -3 -8 -8z"/>
<path d="M15785 3600 c-10 -11 -14 -20 -8 -20 5 0 18 9 28 20 10 11 14 20 8
20 -5 0 -18 -9 -28 -20z"/>
<path d="M7300 3552 c0 -5 9 -17 20 -27 22 -20 26 -9 6 18 -14 18 -26 22 -26
9z"/>
<path d="M15590 3439 c-76 -64 -116 -106 -79 -83 30 18 169 138 169 146 0 12
2 13 -90 -63z"/>
<path d="M7411 3412 c8 -21 141 -184 146 -178 3 3 -24 43 -61 90 -62 80 -94
112 -85 88z"/>
<path d="M5786 3295 c-42 -52 -73 -95 -67 -95 11 0 151 168 151 181 0 5 -1 9
-3 9 -2 0 -38 -43 -81 -95z"/>
<path d="M17570 3355 c0 -14 158 -170 164 -164 3 3 -33 43 -79 89 -47 47 -85
80 -85 75z"/>
<path d="M15377 3262 c-10 -10 -17 -22 -17 -26 0 -9 49 27 50 37 0 13 -17 7
-33 -11z"/>
<path d="M15177 3094 c-48 -42 -86 -79 -83 -82 7 -6 176 136 176 149 0 5 -1 9
-2 9 -2 0 -43 -35 -91 -76z"/>
<path d="M7630 3133 c0 -5 9 -18 20 -28 11 -10 20 -14 20 -8 0 5 -9 18 -20 28
-11 10 -20 14 -20 8z"/>
<path d="M5500 2943 c-83 -102 -84 -103 -78 -109 3 -2 32 28 64 68 76 93 87
108 82 114 -3 2 -34 -31 -68 -73z"/>
<path d="M17970 2935 c47 -47 89 -85 95 -85 5 0 -28 38 -75 85 -47 47 -89 85
-95 85 -5 0 28 -38 75 -85z"/>
<path d="M7740 3003 c0 -15 151 -186 158 -179 4 5 -22 37 -125 155 -18 20 -32
31 -33 24z"/>
<path d="M14970 2920 c-19 -15 -21 -20 -9 -20 16 0 46 27 38 35 -2 2 -15 -5
-29 -15z"/>
<path d="M14758 2751 c-48 -38 -85 -71 -81 -74 3 -4 44 24 92 60 110 85 108
83 91 83 -8 -1 -54 -32 -102 -69z"/>
<path d="M7986 2715 c16 -25 34 -33 34 -17 0 10 -33 42 -44 42 -3 0 1 -11 10
-25z"/>
<path d="M5169 2581 c-46 -43 -82 -81 -79 -84 3 -3 46 32 95 78 50 46 85 84
79 85 -6 0 -49 -36 -95 -79z"/>
<path d="M8090 2606 c0 -13 159 -186 164 -178 2 4 -33 48 -80 97 -46 50 -83
86 -84 81z"/>
<path d="M14550 2590 c-18 -14 -21 -20 -9 -20 9 0 24 9 34 20 23 26 8 26 -25
0z"/>
<path d="M14341 2429 c-51 -39 -90 -74 -87 -77 5 -4 196 136 196 144 0 12 -26
-4 -109 -67z"/>
<path d="M8330 2333 c0 -5 9 -18 20 -28 11 -10 20 -14 20 -8 0 5 -9 18 -20 28
-11 10 -20 14 -20 8z"/>
<path d="M4825 2250 c-43 -44 -77 -81 -74 -84 2 -2 45 34 94 80 50 46 83 84
75 84 -9 0 -51 -36 -95 -80z"/>
<path d="M14130 2265 c-28 -30 -18 -33 16 -6 14 11 21 22 16 25 -5 3 -20 -6
-32 -19z"/>
<path d="M8479 2163 c98 -115 120 -138 125 -132 7 7 -143 179 -156 179 -6 0 8
-21 31 -47z"/>
<path d="M13922 2107 c-51 -39 -88 -73 -83 -75 11 -4 181 126 181 139 0 12 5
16 -98 -64z"/>
<path d="M4490 1925 c-46 -47 -82 -86 -79 -89 2 -2 43 34 91 79 48 46 84 86
80 89 -5 3 -46 -33 -92 -79z"/>
<path d="M13709 1940 c-13 -10 -19 -19 -13 -20 7 0 22 9 35 20 13 10 19 19 13
20 -7 0 -22 -9 -35 -20z"/>
<path d="M8680 1943 c0 -12 38 -48 45 -41 3 2 -6 15 -20 28 -14 13 -25 19 -25
13z"/>
<path d="M13497 1794 c-54 -37 -96 -69 -93 -72 7 -7 196 118 196 129 0 13 1
14 -103 -57z"/>
<path d="M8800 1804 c0 -3 25 -34 56 -67 56 -63 114 -107 114 -89 0 6 -12 18
-27 28 -16 9 -50 43 -78 75 -46 53 -65 69 -65 53z"/>
<path d="M4194 1639 c-21 -23 -63 -52 -93 -66 -64 -29 -63 -40 2 -16 44 16
147 106 136 118 -3 2 -23 -14 -45 -36z"/>
<path d="M13270 1640 c-16 -13 -20 -20 -10 -19 16 0 50 22 50 33 0 11 -14 6
-40 -14z"/>
<path d="M9079 1560 c13 -11 28 -20 35 -20 6 1 0 10 -13 20 -13 11 -28 20 -35
20 -6 -1 0 -10 13 -20z"/>
<path d="M13057 1494 c-54 -37 -96 -69 -93 -72 7 -7 196 118 196 129 0 13 1
14 -103 -57z"/>
<path d="M9210 1472 c0 -5 17 -21 38 -35 20 -13 63 -44 95 -66 31 -23 57 -38
57 -32 0 5 -37 36 -82 69 -100 71 -108 76 -108 64z"/>
<path d="M3740 1434 c-120 -48 -133 -54 -127 -60 8 -8 217 76 217 87 0 5 -1 9
-2 8 -2 -1 -41 -16 -88 -35z"/>
<path d="M12830 1340 c-16 -13 -20 -20 -10 -19 16 0 50 22 50 33 0 11 -14 6
-40 -14z"/>
<path d="M3290 1259 c-113 -45 -123 -49 -117 -56 6 -5 195 64 212 79 18 16
-21 7 -95 -23z"/>
<path d="M9518 1248 c12 -12 25 -19 28 -15 4 4 -1 14 -12 22 -29 22 -41 18
-16 -7z"/>
<path d="M926 10381 c-10 -11 -27 -23 -37 -26 -11 -4 -17 -11 -14 -16 4 -5 14
-5 26 1 18 10 19 6 19 -109 l0 -120 -27 -4 c-16 -2 4 -4 42 -4 39 0 58 2 43 4
l-27 4 -3 146 c-3 143 -3 145 -22 124z"/>
<path d="M1157 10389 c-69 -40 -67 -241 2 -279 36 -19 90 -12 115 15 50 53 50
197 0 250 -25 27 -83 34 -117 14z m88 -22 c53 -45 44 -220 -11 -246 -59 -27
-98 24 -98 129 0 117 49 169 109 117z"/>
<path d="M1439 10393 c-42 -11 -71 -132 -50 -208 16 -56 33 -75 74 -82 86 -14
121 29 121 147 0 124 -46 170 -145 143z m85 -26 c62 -62 33 -257 -39 -257 -29
0 -63 45 -70 94 -10 67 2 134 30 162 30 30 50 30 79 1z"/>
<path d="M1160 8699 c-13 -6 -28 -15 -32 -22 -13 -21 -9 -75 8 -91 8 -9 11
-16 5 -16 -15 0 -41 -54 -41 -85 0 -16 12 -39 30 -57 29 -28 35 -30 87 -26 43
4 61 10 75 28 25 31 24 101 -2 125 -17 15 -17 19 -5 32 16 15 20 70 7 89 -21
32 -83 42 -132 23z m94 -25 c20 -20 20 -58 0 -78 -18 -19 -75 -21 -92 -4 -16
16 -16 70 0 86 17 17 74 15 92 -4z m10 -130 c21 -20 21 -88 0 -108 -9 -10 -33
-16 -59 -16 -49 0 -75 24 -75 70 0 46 26 70 75 70 26 0 50 -6 59 -16z"/>
<path d="M1444 8696 c-47 -21 -70 -93 -59 -183 19 -151 179 -153 200 -3 12 84
-12 163 -56 185 -34 18 -45 18 -85 1z m80 -29 c46 -46 42 -212 -4 -237 -32
-17 -69 -12 -84 13 -34 54 -31 175 5 221 25 32 53 33 83 3z"/>
<path d="M207 7986 c-51 -14 -127 -62 -135 -84 -2 -8 12 -3 34 12 22 14 68 33
104 42 56 15 75 15 140 4 75 -12 120 -29 153 -58 9 -8 19 -13 22 -10 13 13
-70 69 -131 88 -75 23 -118 24 -187 6z"/>
<path d="M36 7824 c-25 -24 -21 -90 6 -108 13 -10 26 -12 31 -7 13 13 -1 31
-17 25 -17 -7 -30 28 -21 56 12 37 51 25 77 -22 24 -43 69 -75 89 -62 8 4 7 9
-2 15 -11 7 -12 12 -1 29 17 28 15 77 -4 84 -29 11 -37 6 -21 -12 20 -22 21
-33 5 -67 -16 -34 -26 -32 -45 13 -28 69 -64 90 -97 56z"/>
<path d="M120 7575 c0 -43 4 -75 10 -75 6 0 10 32 10 75 0 43 -4 75 -10 75 -6
0 -10 -32 -10 -75z"/>
<path d="M410 7415 c0 -12 -15 -15 -78 -15 -62 0 -82 -4 -95 -17 -28 -32 -31
-70 -9 -107 18 -31 19 -35 4 -49 -14 -15 -17 -39 -13 -107 1 -14 -1 -40 -5
-57 -4 -22 -2 -33 5 -33 6 0 11 7 11 15 0 12 17 15 89 15 77 0 90 -2 94 -17 3
-10 5 7 5 37 0 30 -2 47 -5 38 -4 -15 -16 -18 -78 -18 -65 0 -76 3 -89 22 -20
29 -20 62 0 82 11 12 35 16 89 16 68 0 74 -2 78 -22 2 -13 4 2 4 32 1 30 -1
47 -4 38 -4 -15 -16 -18 -78 -18 -65 0 -76 3 -89 22 -20 29 -20 62 0 82 11 12
35 16 89 16 68 0 74 -2 78 -22 2 -13 5 1 6 30 0 28 -1 52 -4 52 -3 0 -5 -7 -5
-15z"/>
<path d="M122 6945 c0 -27 3 -40 5 -27 3 16 10 21 21 18 9 -2 50 -10 90 -17
39 -7 72 -15 72 -19 0 -4 -33 -12 -72 -19 -108 -19 -118 -22 -118 -36 0 -13
47 -26 143 -40 26 -4 47 -11 47 -15 0 -4 -35 -13 -77 -20 -42 -6 -82 -14 -89
-17 -7 -2 -14 5 -17 19 -2 13 -4 -4 -4 -37 0 -33 2 -50 4 -38 5 26 4 25 153
53 63 11 122 23 130 26 26 9 -6 19 -122 40 -59 10 -102 21 -95 25 6 3 60 14
120 25 150 26 148 28 -52 65 -102 19 -125 27 -131 44 -6 14 -9 5 -8 -30z"/>
<path d="M1162 6825 c-39 -28 -56 -74 -56 -153 -1 -71 0 -75 32 -103 46 -41
102 -41 144 1 27 27 30 36 25 72 -8 57 -36 83 -91 83 -30 0 -51 -6 -66 -20
l-22 -20 7 35 c8 43 34 80 68 100 20 11 30 12 52 2 23 -11 25 -15 14 -28 -17
-20 4 -45 23 -26 10 10 10 18 -2 40 -13 22 -24 28 -60 30 -29 2 -53 -3 -68
-13z m95 -137 c47 -44 18 -131 -45 -131 -55 0 -90 49 -71 101 20 55 75 69 116
30z"/>
<path d="M1439 6833 c-43 -11 -71 -131 -50 -211 17 -61 41 -82 95 -82 73 0
100 41 100 150 1 124 -46 170 -145 143z m85 -26 c62 -62 33 -257 -39 -257 -29
0 -63 45 -70 94 -10 67 2 134 30 162 30 30 50 30 79 1z"/>
<path d="M70 6633 c1 -17 27 -41 75 -69 46 -27 58 -29 145 -29 106 0 177 23
222 72 12 14 19 24 13 21 -5 -2 -36 -16 -68 -32 -109 -52 -263 -46 -347 15
-22 16 -40 26 -40 22z"/>
<path d="M260 6217 c-27 -14 -50 -51 -50 -82 0 -31 37 -84 68 -96 41 -16 93
-4 121 27 19 23 22 36 18 77 -2 26 -11 56 -20 65 -26 25 -32 6 -8 -24 11 -15
21 -35 21 -46 0 -26 -53 -78 -79 -78 -20 0 -21 6 -21 85 0 91 -3 96 -50 72z
m40 -86 c0 -65 -1 -69 -20 -64 -22 6 -50 50 -50 79 0 24 29 54 52 54 16 0 18
-9 18 -69z"/>
<path d="M230 5928 c-25 -41 -25 -64 0 -105 26 -43 54 -56 104 -50 53 7 86 44
86 96 0 36 -35 99 -48 87 -3 -3 2 -14 11 -23 30 -34 31 -67 2 -101 -35 -42
-93 -45 -130 -7 -41 40 -31 108 16 103 31 -4 33 26 2 30 -16 2 -28 -6 -43 -30z"/>
<path d="M410 5690 c0 -18 -7 -20 -85 -20 l-85 0 -17 -35 c-15 -31 -15 -38 -1
-74 13 -33 14 -41 2 -45 -16 -6 -19 -56 -4 -56 6 0 10 7 10 15 0 12 17 15 89
15 77 0 90 -2 94 -17 3 -10 5 7 4 37 0 30 -2 45 -4 33 -4 -21 -10 -23 -77 -23
-81 0 -92 6 -102 58 -10 51 7 62 96 62 66 0 79 -3 83 -17 3 -10 5 6 6 35 0 28
-1 52 -4 52 -3 0 -5 -9 -5 -20z"/>
<path d="M239 5371 c-78 -78 19 -201 125 -157 38 16 56 46 56 94 0 32 -20 74
-38 80 -8 2 -5 -9 8 -30 11 -18 20 -41 20 -50 0 -25 -41 -66 -72 -74 l-28 -6
0 86 c0 80 -1 86 -21 86 -11 0 -34 -13 -50 -29z m61 -66 c0 -73 -14 -84 -49
-39 -36 45 -19 104 30 104 17 0 19 -7 19 -65z"/>
<path d="M217 5133 c-4 -3 -1 -16 7 -28 12 -18 12 -24 0 -40 -21 -29 -17 -54
16 -87 25 -25 36 -29 60 -24 17 3 41 0 55 -6 18 -8 31 -8 49 0 19 9 27 8 36
-4 14 -16 48 -18 69 -5 16 11 27 114 17 156 -12 47 -69 50 -103 6 -7 -9 -13
-37 -13 -62 0 -53 -19 -85 -45 -76 -12 5 -15 13 -10 25 19 45 17 62 -14 93
-27 27 -36 30 -66 25 -31 -6 -35 -4 -35 14 0 20 -11 26 -23 13z m282 -22 c9
-6 16 -32 19 -68 3 -47 0 -63 -15 -82 -16 -20 -23 -22 -40 -12 -19 10 -21 17
-16 68 6 63 18 103 30 103 5 0 14 -4 22 -9z m-69 -76 c-7 -45 -7 -46 -9 -13
-1 32 8 74 14 66 1 -2 -1 -25 -5 -53z m-99 35 c23 -13 25 -53 3 -74 -33 -34
-104 -10 -104 34 0 42 56 64 101 40z"/>
<path d="M1167 4872 l-77 -107 70 -3 70 -3 0 -34 c0 -24 -5 -35 -15 -35 -8 0
-15 -4 -15 -10 0 -5 20 -10 45 -10 25 0 45 5 45 10 0 6 -7 10 -15 10 -10 0
-15 10 -15 34 0 32 3 35 33 39 l32 4 -32 1 -33 2 0 99 c0 55 -3 102 -7 104 -5
3 -43 -43 -86 -101z m63 -27 l0 -75 -55 0 c-30 0 -55 2 -55 5 0 7 101 145 106
145 2 0 4 -34 4 -75z"/>
<path d="M1443 4970 c-42 -18 -58 -57 -58 -145 1 -94 17 -128 71 -145 87 -29
146 55 130 184 -9 66 -39 105 -86 111 -19 3 -45 0 -57 -5z m81 -25 c24 -25 38
-93 31 -151 -10 -84 -53 -122 -105 -94 -44 23 -51 199 -9 241 23 23 62 25 83
4z"/>
<path d="M222 4878 c-18 -18 -15 -52 8 -81 11 -14 20 -27 20 -30 0 -3 -9 -7
-20 -10 -14 -3 -20 -14 -20 -31 0 -14 5 -26 10 -26 6 0 10 7 10 15 0 12 17 15
89 15 77 0 90 -2 94 -17 3 -10 5 7 4 37 0 30 -2 44 -4 31 -4 -22 -8 -23 -70
-19 -57 4 -69 8 -89 32 -21 23 -36 71 -17 53 3 -4 12 -2 20 4 10 9 10 15 2 25
-14 17 -22 17 -37 2z"/>
<path d="M239 4611 c-33 -33 -37 -67 -13 -112 19 -37 74 -63 115 -54 41 9 79
58 79 104 0 37 -23 81 -42 81 -6 0 -4 -8 5 -18 9 -10 19 -32 23 -49 7 -36 -26
-79 -68 -89 l-28 -6 0 86 c0 80 -1 86 -21 86 -11 0 -34 -13 -50 -29z m61 -66
c0 -73 -14 -84 -49 -39 -36 45 -19 104 30 104 17 0 19 -7 19 -65z"/>
<path d="M218 4394 c-12 -11 -10 -72 2 -79 6 -3 10 3 10 14 0 12 3 21 8 21 13
0 132 -53 132 -59 0 -3 -28 -17 -62 -31 -35 -14 -66 -26 -70 -28 -5 -2 -8 3
-8 12 0 9 -4 16 -10 16 -13 0 -13 -77 0 -85 6 -3 10 0 10 8 0 9 37 30 91 54
50 21 91 43 91 48 0 6 -41 28 -90 49 -50 21 -92 45 -94 53 -2 8 -6 11 -10 7z"/>
<path d="M410 4120 c0 -18 -8 -20 -97 -22 -94 -3 -98 -4 -101 -27 -2 -13 1
-28 7 -34 8 -8 11 -5 11 11 0 21 4 22 89 22 85 0 90 -1 94 -22 2 -13 5 3 6 35
0 31 -1 57 -4 57 -3 0 -5 -9 -5 -20z"/>
<path d="M124 4089 c-10 -17 13 -36 27 -22 12 12 4 33 -11 33 -5 0 -12 -5 -16
-11z"/>
<path d="M194 3961 c-63 -29 -74 -51 -73 -151 1 -47 4 -75 6 -62 4 22 7 22
143 22 136 0 139 0 143 -22 2 -13 5 15 6 62 1 65 -3 91 -15 109 -21 30 -89 61
-134 61 -19 0 -54 -9 -76 -19z m140 -25 c44 -18 76 -61 76 -102 l0 -34 -140 0
-140 0 0 34 c0 85 111 141 204 102z"/>
<path d="M1151 3102 c-36 -18 -55 -50 -41 -72 4 -7 15 -10 24 -7 14 6 14 10 4
27 -17 26 -2 40 51 47 53 7 91 -16 91 -56 0 -33 -17 -50 -87 -85 -29 -14 -59
-36 -68 -49 -20 -32 -30 -83 -16 -91 7 -4 11 1 11 13 0 27 26 27 65 1 40 -26
101 -27 115 -1 5 11 10 30 9 43 l0 23 -9 -22 c-5 -12 -21 -25 -36 -29 -32 -8
-134 23 -134 41 0 18 30 40 83 61 83 32 112 74 91 129 -8 21 -56 45 -91 45
-15 0 -43 -8 -62 -18z"/>
<path d="M1444 3106 c-47 -21 -70 -93 -59 -183 19 -151 179 -153 200 -3 12 84
-12 163 -56 185 -34 18 -45 18 -85 1z m80 -29 c46 -46 42 -212 -4 -237 -32
-17 -69 -12 -84 13 -34 54 -31 175 5 221 25 32 53 33 83 3z"/>
<path d="M1444 1411 c-41 -18 -58 -60 -59 -146 0 -67 4 -85 22 -111 40 -56
127 -54 156 3 36 69 33 178 -6 226 -24 30 -77 43 -113 28z m80 -26 c37 -37 44
-155 14 -221 -13 -29 -50 -41 -83 -26 -48 22 -59 198 -14 243 23 23 62 25 83
4z"/>
<path d="M1713 870 c-42 -17 -58 -57 -58 -145 0 -67 4 -85 23 -112 43 -61 134
-51 163 19 19 46 17 155 -5 196 -24 46 -72 62 -123 42z m73 -18 c25 -16 38
-60 38 -129 0 -58 -4 -78 -20 -100 -38 -51 -96 -39 -114 25 -20 75 -6 182 28
201 20 12 53 14 68 3z"/>
<path d="M7634 869 c-9 -15 -35 -151 -30 -157 3 -2 9 5 15 16 13 24 73 46 101
37 58 -18 79 -107 35 -150 -42 -43 -133 -28 -121 20 7 29 -7 40 -24 20 -10
-12 -9 -20 4 -40 37 -56 121 -58 170 -4 25 28 28 38 23 77 -7 68 -33 87 -113
87 l-66 0 6 29 c3 15 6 32 6 37 0 5 17 9 39 9 51 0 101 10 101 21 0 13 -138
11 -146 -2z"/>
<path d="M13502 848 c-33 -28 -39 -54 -7 -28 13 11 15 -1 15 -109 0 -114 -1
-121 -20 -121 -11 0 -20 -4 -20 -10 0 -6 27 -10 60 -10 33 0 60 4 60 10 0 6
-11 10 -25 10 l-24 0 -3 144 -3 144 -33 -30z"/>
<path d="M13761 871 c-37 -10 -65 -73 -65 -145 0 -84 25 -132 74 -147 77 -23
130 36 130 144 0 119 -50 173 -139 148z m69 -21 c24 -13 40 -62 40 -125 0 -90
-26 -135 -78 -135 -48 0 -81 100 -62 186 17 75 51 100 100 74z"/>
<path d="M8530 288 c0 -56 8 -58 19 -6 6 28 11 33 39 36 l32 3 0 -135 c0 -114
-2 -136 -15 -136 -8 0 -15 -4 -15 -10 0 -5 23 -10 50 -10 28 0 50 5 50 10 0 6
-9 10 -20 10 -19 0 -20 7 -20 136 l0 135 38 -3 c33 -3 37 -6 40 -33 6 -54 22
-52 22 3 l0 52 -110 0 -110 0 0 -52z"/>
<path d="M10560 331 c0 -6 9 -11 20 -11 19 0 20 -7 20 -135 0 -128 -1 -135
-20 -135 -11 0 -20 -4 -20 -10 0 -5 23 -10 50 -10 28 0 50 5 50 10 0 6 -7 10
-15 10 -12 0 -15 15 -15 75 0 82 9 95 67 95 44 0 53 -16 53 -97 0 -58 -3 -73
-15 -73 -8 0 -15 -4 -15 -10 0 -5 20 -10 45 -10 25 0 45 5 45 10 0 6 -7 10
-15 10 -12 0 -15 15 -15 75 0 62 -4 79 -20 95 -22 22 -64 26 -104 10 -25 -9
-25 -9 -28 48 -3 56 -3 57 -35 60 -19 2 -33 -1 -33 -7z"/>
<path d="M8824 314 c3 -9 6 -18 6 -21 0 -3 7 0 15 7 17 14 11 30 -12 30 -10 0
-13 -6 -9 -16z"/>
<path d="M9913 318 c2 -7 10 -13 17 -13 7 0 15 6 18 13 2 7 -5 12 -18 12 -13
0 -20 -5 -17 -12z"/>
<path d="M11840 235 c-9 -11 -16 -13 -24 -5 -15 15 -88 12 -109 -5 -37 -27
-18 -57 61 -94 39 -19 72 -40 72 -46 0 -21 -24 -35 -62 -35 -36 0 -44 5 -73
45 -13 18 -14 16 -14 -30 0 -39 2 -46 10 -32 8 13 14 15 29 7 32 -17 88 -12
110 10 42 42 20 75 -73 111 -72 28 -75 52 -7 57 40 3 48 0 73 -29 l27 -33 0
47 c0 52 -2 54 -20 32z"/>
<path d="M8800 230 c0 -5 7 -10 15 -10 12 0 15 -16 15 -85 0 -69 -3 -85 -15
-85 -8 0 -15 -4 -15 -10 0 -5 20 -10 45 -10 25 0 45 5 45 10 0 6 -7 10 -15 10
-12 0 -15 17 -15 95 l0 95 -30 0 c-16 0 -30 -4 -30 -10z"/>
<path d="M8950 230 c0 -5 7 -10 15 -10 12 0 15 -16 15 -85 0 -69 -3 -85 -15
-85 -8 0 -15 -4 -15 -10 0 -5 23 -10 50 -10 28 0 50 5 50 10 0 6 -9 10 -20 10
-18 0 -20 7 -20 68 0 81 15 102 73 102 47 0 57 -19 57 -104 0 -59 -2 -66 -20
-66 -11 0 -20 -4 -20 -10 0 -5 23 -10 50 -10 28 0 50 5 50 10 0 6 -7 10 -15
10 -12 0 -15 15 -15 75 0 82 9 95 69 95 40 0 51 -23 51 -104 0 -59 -2 -66 -20
-66 -11 0 -20 -4 -20 -10 0 -5 23 -10 50 -10 28 0 50 5 50 10 0 6 -7 10 -15
10 -12 0 -15 15 -15 73 0 43 -5 80 -13 90 -18 26 -79 32 -118 13 -22 -11 -35
-13 -39 -6 -12 19 -76 23 -109 7 -26 -13 -31 -13 -31 -1 0 9 -11 14 -30 14
-16 0 -30 -4 -30 -10z"/>
<path d="M9448 211 c-28 -25 -33 -36 -33 -75 0 -63 37 -101 99 -101 29 0 51 6
65 19 27 25 19 33 -11 12 -47 -33 -110 -10 -124 47 l-6 27 81 0 c92 0 103 8
77 58 -27 53 -97 59 -148 13z m122 -10 c19 -36 12 -41 -55 -41 -69 0 -79 8
-48 42 23 25 89 25 103 -1z"/>
<path d="M9890 230 c0 -5 7 -10 15 -10 12 0 15 -16 15 -85 0 -69 -3 -85 -15
-85 -8 0 -15 -4 -15 -10 0 -5 20 -10 45 -10 25 0 45 5 45 10 0 6 -7 10 -15 10
-12 0 -15 17 -15 95 l0 95 -30 0 c-16 0 -30 -4 -30 -10z"/>
<path d="M10040 230 c0 -5 7 -10 15 -10 12 0 15 -16 15 -85 0 -69 -3 -85 -15
-85 -8 0 -15 -4 -15 -10 0 -5 23 -10 50 -10 28 0 50 5 50 10 0 6 -9 10 -20 10
-18 0 -20 7 -20 68 0 81 15 102 73 102 47 0 57 -19 57 -104 0 -59 -2 -66 -20
-66 -11 0 -20 -4 -20 -10 0 -5 23 -10 50 -10 28 0 50 5 50 10 0 6 -7 10 -15
10 -12 0 -15 14 -15 65 0 35 -5 75 -11 89 -17 37 -73 47 -121 22 -24 -13 -28
-13 -28 0 0 9 -11 14 -30 14 -16 0 -30 -4 -30 -10z"/>
<path d="M10930 228 c-14 -7 -33 -30 -43 -51 -24 -48 -9 -100 37 -128 39 -24
73 -24 113 0 50 31 58 126 14 165 -25 23 -89 30 -121 14z m97 -30 c49 -46 14
-148 -50 -148 -52 0 -90 76 -63 128 25 47 74 56 113 20z"/>
<path d="M11145 231 c3 -6 13 -11 21 -11 11 0 14 -17 14 -79 0 -54 4 -82 13
-90 25 -20 74 -24 106 -8 26 13 31 13 31 1 0 -9 11 -14 30 -14 17 0 30 5 30
10 0 6 -7 10 -15 10 -12 0 -15 17 -15 95 l0 95 -36 0 c-21 0 -33 -4 -29 -10 3
-5 13 -10 21 -10 11 0 14 -16 14 -69 0 -61 -3 -72 -22 -85 -27 -19 -72 -21
-86 -3 -6 7 -12 49 -14 92 l-3 80 -34 3 c-21 2 -31 0 -26 -7z"/>
<path d="M11450 230 c0 -5 7 -10 15 -10 12 0 15 -16 15 -85 0 -69 -3 -85 -15
-85 -8 0 -15 -4 -15 -10 0 -5 20 -10 45 -10 25 0 45 5 45 10 0 6 -7 10 -16 10
-24 0 -15 121 10 149 18 20 73 31 62 12 -3 -5 1 -14 8 -21 12 -9 17 -7 25 8
22 42 -46 58 -93 21 l-26 -20 0 20 c0 17 -6 21 -30 21 -16 0 -30 -4 -30 -10z"/>
</g>
</svg>
