<?xml version="1.0" standalone="no"?>
<!DOCTYPE svg PUBLIC "-//W3C//DTD SVG 20010904//EN"
 "http://www.w3.org/TR/2001/REC-SVG-20010904/DTD/svg10.dtd">
<svg version="1.0" xmlns="http://www.w3.org/2000/svg"
 width="2358.000000pt" height="2358.000000pt" viewBox="0 0 2358.000000 2358.000000"
 preserveAspectRatio="xMidYMid meet">
<metadata>
Created by potrace 1.16, written by Peter Selinger 2001-2019
</metadata>
<g transform="translate(0.000000,2358.000000) scale(0.100000,-0.100000)"
fill="#000000" stroke="none">
<path d="M2891 22444 c-13 -37 -56 -64 -101 -64 -15 0 -20 -7 -20 -25 0 -24 3
-25 55 -25 l55 0 0 -195 0 -195 35 0 35 0 0 270 0 270 -23 0 c-17 0 -26 -9
-36 -36z"/>
<path d="M3450 22461 c-69 -36 -108 -157 -97 -303 10 -129 56 -209 130 -229
54 -14 101 -4 142 32 54 48 70 104 70 249 0 113 -2 130 -25 175 -14 28 -40 60
-59 72 -42 29 -112 30 -161 4z m139 -67 c33 -43 44 -100 39 -219 -6 -150 -31
-195 -106 -195 -42 0 -78 45 -93 117 -16 81 -6 220 20 271 23 45 31 50 83 51
28 1 41 -5 57 -25z"/>
<path d="M18705 22397 c-275 -4 -3713 -11 -7640 -15 l-7140 -7 -3 -9942 -2
-9943 9265 0 9265 0 0 9938 c0 5465 -3 9947 -6 9960 l-6 22 -1617 -2 c-889 -2
-1841 -6 -2116 -11z m-14145 -122 c0 -57 4 -95 10 -95 6 0 10 38 10 95 l0 95
260 0 260 0 0 -101 c0 -64 4 -98 10 -94 6 3 10 48 10 101 l0 94 225 0 225 0 2
-102 2 -103 3 103 4 102 199 0 200 0 0 -101 c0 -64 4 -98 10 -94 6 3 10 48 10
101 l0 94 175 0 175 0 2 -202 3 -203 2 203 3 202 1205 0 1205 0 2 -102 2 -103
3 103 4 102 699 0 700 0 0 -94 c0 -53 4 -98 10 -101 6 -4 10 30 10 94 l0 101
495 0 495 0 0 -101 c0 -64 4 -98 10 -94 6 3 10 48 10 101 l0 94 380 0 380 0 0
-101 c0 -64 4 -98 10 -94 6 3 10 48 10 101 l0 94 310 0 310 0 2 -102 2 -103 3
103 4 102 259 0 260 0 0 -94 c0 -53 4 -98 10 -101 6 -4 10 30 10 94 l0 101
225 0 225 0 0 -95 c0 -57 4 -95 10 -95 6 0 10 38 10 95 l0 95 195 0 195 0 0
-95 c0 -57 4 -95 10 -95 6 0 10 38 10 95 l0 95 175 0 175 0 0 -195 c0 -123 4
-195 10 -195 6 0 10 72 10 195 l0 195 1200 0 1200 0 0 -95 c0 -57 4 -95 10
-95 6 0 10 38 10 95 l0 95 653 -1 652 0 -130 -45 c-90 -30 -152 -45 -201 -48
-141 -9 -194 -18 -194 -33 0 -11 13 -12 68 -7 37 4 65 4 62 1 -3 -3 -66 -28
-140 -55 -1288 -475 -2393 -1159 -3372 -2088 -168 -160 -646 -648 -822 -839
-936 -1017 -1790 -2328 -2627 -4030 -568 -1157 -1094 -2393 -1870 -4397 -85
-219 -158 -398 -164 -398 -6 0 -36 -46 -67 -102 l-57 -103 21 -16 22 -17 -59
-153 c-629 -1655 -1130 -2885 -1503 -3694 -365 -792 -785 -1545 -1112 -1995
-562 -773 -1140 -1211 -1879 -1424 -64 -18 -128 -36 -144 -40 l-28 -7 3 142 3
141 104 37 c58 20 106 42 109 49 5 17 -3 16 -116 -22 l-102 -35 0 145 0 144
90 0 c53 0 90 4 90 10 0 6 -37 10 -90 10 l-90 0 0 485 0 485 90 0 c53 0 90 4
90 10 0 6 -37 10 -90 10 l-90 0 0 264 c0 243 1 265 18 270 9 3 58 30 108 59
l92 53 -15 29 c-9 17 -17 32 -19 33 -1 2 -33 -14 -71 -36 -37 -21 -78 -45 -90
-51 l-23 -12 0 186 0 185 90 0 c53 0 90 4 90 10 0 6 -37 10 -90 10 l-90 0 0
485 0 485 180 0 c113 0 180 4 180 10 0 6 -67 10 -180 10 l-180 0 0 218 0 219
90 69 c80 61 108 94 81 94 -5 0 -45 -29 -90 -65 l-81 -66 0 256 0 255 93 2 92
2 -92 3 -93 4 0 489 0 490 90 0 c53 0 90 4 90 10 0 6 -37 10 -90 10 l-90 0 0
485 0 485 90 0 c53 0 90 4 90 10 0 6 -37 10 -90 10 l-90 0 0 490 0 490 186 0
c121 0 183 3 179 10 -4 6 -77 10 -186 10 l-179 0 0 485 0 485 90 0 c53 0 90 4
90 10 0 6 -37 10 -90 10 l-90 0 0 490 0 490 93 2 92 2 -92 3 -93 4 0 489 0
490 90 0 c53 0 90 4 90 10 0 6 -37 10 -90 10 l-90 0 0 485 0 485 179 0 c109 0
182 4 186 10 4 7 -58 10 -179 10 l-186 0 0 490 0 490 90 0 c53 0 90 4 90 10 0
6 -37 10 -90 10 l-90 0 0 485 0 485 90 0 c53 0 90 4 90 10 0 6 -37 10 -90 10
l-90 0 0 490 0 490 93 2 92 2 -92 3 -93 4 0 489 0 490 180 0 c113 0 180 4 180
10 0 6 -67 10 -180 10 l-180 0 0 485 0 485 90 0 c53 0 90 4 90 10 0 6 -37 10
-90 10 l-90 0 0 490 0 490 90 0 c53 0 90 4 90 10 0 6 -37 10 -90 10 l-90 0 0
485 0 485 90 0 c53 0 90 4 90 10 0 6 -37 10 -90 10 l-90 0 0 490 0 490 310 0
310 0 0 -95z m13668 40 c-1 -1 -34 -5 -73 -8 l-70 -6 70 22 c56 19 71 20 73 9
2 -7 2 -15 0 -17z m662 21 c-98 -27 -100 -27 -100 -10 0 14 -12 15 -112 9
-119 -8 -132 -10 -122 -26 3 -6 49 -7 112 -4 83 4 99 3 72 -6 -44 -13 -490
-129 -496 -129 -2 0 -4 25 -4 55 l0 55 40 6 c22 4 40 12 40 19 0 9 -11 12 -40
8 -36 -5 -40 -3 -40 16 l0 21 348 -1 c295 -1 340 -3 302 -13z m1120 -71 l0
-74 -32 -3 c-30 -3 -33 -6 -36 -42 l-3 -39 73 7 c174 16 168 14 168 54 l0 35
-75 -5 -75 -5 0 74 0 73 310 0 310 0 0 -49 0 -49 -107 -7 c-60 -3 -114 -8
-120 -10 -7 -3 -13 -20 -13 -40 l0 -36 108 7 c156 10 152 7 152 104 l0 80 260
0 260 0 2 -87 2 -88 3 88 4 87 225 0 225 0 -3 -82 -3 -83 -37 -3 c-26 -2 -38
-8 -38 -19 0 -12 8 -14 43 -10 23 4 77 9 120 13 57 5 77 10 77 21 0 12 -12 13
-70 7 l-70 -7 0 82 0 81 200 0 c110 0 200 -4 200 -9 0 -9 -104 -21 -187 -21
l-53 0 0 -38 0 -38 120 4 c106 4 120 3 120 -12 0 -9 -7 -16 -15 -16 -8 0 -15
-6 -15 -14 0 -16 37 -28 46 -15 3 5 27 9 53 9 76 0 142 12 138 24 -4 11 -112
11 -169 0 l-28 -6 0 66 0 66 178 -2 c97 -1 147 -3 110 -5 l-68 -4 0 -41 0 -41
65 6 65 6 0 -434 0 -435 -85 0 c-50 0 -85 -4 -85 -10 0 -6 35 -10 85 -10 l85
0 0 -485 0 -485 -84 0 c-47 0 -88 -4 -91 -10 -4 -6 27 -10 84 -10 l91 0 0
-490 0 -490 -91 0 c-57 0 -88 -4 -84 -10 3 -5 44 -10 91 -10 l84 0 0 -485 0
-485 -180 0 c-113 0 -180 -4 -180 -10 0 -6 67 -10 180 -10 l180 0 0 -490 0
-490 -92 -2 -93 -2 93 -3 92 -4 0 -489 0 -490 -85 0 c-50 0 -85 -4 -85 -10 0
-6 35 -10 85 -10 l85 0 0 -485 0 -485 -84 0 c-47 0 -88 -4 -91 -10 -4 -6 27
-10 84 -10 l91 0 0 -490 0 -490 -180 0 c-113 0 -180 -4 -180 -10 0 -6 67 -10
180 -10 l180 0 0 -485 0 -485 -85 0 c-50 0 -85 -4 -85 -10 0 -6 35 -10 85 -10
l85 0 0 -490 0 -490 -92 -2 -93 -2 93 -3 92 -4 0 -489 0 -490 -85 0 c-50 0
-85 -4 -85 -10 0 -6 35 -10 85 -10 l85 0 0 -485 0 -485 -180 0 c-113 0 -180
-4 -180 -10 0 -6 67 -10 180 -10 l180 0 0 -490 0 -490 -91 0 c-57 0 -88 -4
-84 -10 3 -5 44 -10 91 -10 l84 0 0 -485 0 -485 -85 0 c-50 0 -85 -4 -85 -10
0 -6 35 -10 85 -10 l85 0 0 -490 0 -490 -92 -2 -93 -2 93 -3 92 -4 0 -489 0
-490 -180 0 c-113 0 -180 -4 -180 -10 0 -6 67 -10 180 -10 l180 0 0 -485 0
-485 -84 0 c-47 0 -88 -4 -91 -10 -4 -6 27 -10 84 -10 l91 0 0 -490 0 -490
-91 0 c-57 0 -88 -4 -84 -10 3 -5 44 -10 91 -10 l84 0 0 -485 0 -485 -85 0
c-50 0 -85 -4 -85 -10 0 -6 35 -10 85 -10 l85 0 0 -490 0 -490 -175 0 -175 0
-2 103 -2 102 -3 -103 -4 -102 -199 0 -200 0 0 101 c0 64 -4 98 -10 94 -6 -3
-10 -48 -10 -101 l0 -94 -225 0 -225 0 -2 103 -2 102 -3 -103 -4 -102 -259 0
-260 0 0 94 c0 53 -4 98 -10 101 -6 4 -10 -30 -10 -94 l0 -101 -310 0 -310 0
0 95 c0 57 -4 95 -10 95 -6 0 -10 -38 -10 -95 l0 -95 -380 0 -380 0 0 95 c0
57 -4 95 -10 95 -6 0 -10 -38 -10 -95 l0 -95 -495 0 -495 0 -2 103 -2 102 -3
-102 -4 -103 -699 0 -700 0 0 95 c0 57 -4 95 -10 95 -6 0 -10 -38 -10 -95 l0
-95 -1200 0 -1200 0 0 195 c0 123 -4 195 -10 195 -6 0 -10 -72 -10 -195 l0
-195 -175 0 -175 0 0 95 c0 57 -4 95 -10 95 -6 0 -10 -38 -10 -95 l0 -95 -195
0 -195 0 0 95 c0 57 -4 95 -10 95 -6 0 -10 -38 -10 -95 l0 -95 -225 0 -225 0
0 101 c0 64 -4 98 -10 94 -6 -3 -10 -48 -10 -101 l0 -94 -260 0 -260 0 -2 103
-2 102 -3 -102 -4 -103 -309 0 -310 0 0 94 c0 53 -4 98 -10 101 -6 4 -10 -30
-10 -94 l0 -101 -380 0 -380 0 0 94 c0 53 -4 98 -10 101 -6 4 -10 -30 -10 -94
l0 -101 -495 0 -495 0 0 101 c0 64 -4 98 -10 94 -6 -3 -10 -48 -10 -101 l0
-94 -700 0 -700 0 -2 103 -2 102 -3 -102 -4 -103 -1204 0 -1205 0 -2 203 -3
202 -2 -203 -3 -202 -175 0 -175 0 0 94 c0 53 -4 98 -10 101 -6 4 -10 -30 -10
-94 l0 -101 -200 0 -200 0 -2 103 -2 102 -3 -102 -4 -103 -224 0 -225 0 0 94
c0 53 -4 98 -10 101 -6 4 -10 -30 -10 -94 l0 -101 -260 0 -260 0 0 95 c0 57
-4 95 -10 95 -6 0 -10 -38 -10 -95 l0 -95 -310 0 -310 0 0 35 c0 28 4 36 23
40 12 3 78 17 146 31 865 179 1518 665 2164 1609 80 117 410 663 457 755 15
30 47 76 70 103 30 34 39 51 32 60 -7 8 13 55 69 157 170 314 523 1072 787
1690 199 466 564 1369 917 2270 353 901 590 1498 775 1956 110 271 253 636
319 812 66 175 134 353 151 393 17 41 33 81 35 89 2 8 20 59 40 113 27 69 42
97 54 97 11 0 33 34 66 101 50 101 50 101 29 116 l-21 14 40 105 c42 108 42
109 89 89 14 -5 26 12 67 94 28 55 51 104 51 109 0 9 -43 32 -60 32 -5 0 -12
-9 -15 -21 -4 -11 -9 -19 -11 -16 -8 8 287 719 508 1222 809 1841 1634 3276
2531 4400 160 200 234 282 472 523 377 384 702 667 1140 994 l170 127 26 -30
25 -31 97 68 96 67 -19 28 c-11 15 -20 29 -20 32 0 2 43 33 96 68 100 66 97
65 125 16 9 -16 15 -14 67 21 31 22 71 46 87 55 59 32 58 31 41 65 -18 36 -31
23 107 106 l77 46 17 -35 17 -35 99 53 c55 28 101 58 104 65 3 6 -2 23 -11 36
-12 19 -13 26 -3 34 7 5 89 48 182 95 697 348 1425 617 2290 846 176 47 570
140 658 156 l37 7 0 -76 c0 -44 4 -76 10 -76 6 0 10 31 10 74 0 50 4 76 13 79
6 2 177 5 380 5 l367 2 0 -75z m-1927 21 c5 -12 20 -14 76 -9 l71 6 0 -60 0
-60 -62 -18 c-153 -42 -464 -141 -636 -201 -878 -309 -1587 -654 -2282 -1111
-207 -137 -249 -166 -465 -327 -165 -123 -125 -81 80 84 900 724 1827 1230
3005 1641 107 37 198 68 201 68 4 1 9 -6 12 -13z m-3423 -1870 c0 -2 -8 -10
-17 -17 -16 -13 -17 -12 -4 4 13 16 21 21 21 13z m-2168 -2433 c-574 -859
-1177 -1985 -1740 -3248 -275 -618 -651 -1529 -858 -2079 -26 -66 -54 -128
-64 -136 -10 -8 -39 -57 -65 -109 -44 -88 -46 -96 -29 -108 16 -12 15 -19 -22
-115 -40 -103 -46 -110 -86 -93 -14 5 -26 -12 -67 -94 -28 -55 -51 -104 -51
-109 0 -8 43 -32 55 -32 3 0 18 26 34 58 17 31 30 54 31 51 1 -13 -135 -359
-305 -779 -169 -419 -492 -1232 -800 -2020 -848 -2166 -1306 -3206 -1850
-4205 -62 -114 -345 -579 -425 -700 -48 -71 -131 -188 -185 -260 -523 -695
-1055 -1098 -1706 -1291 -120 -35 -368 -94 -401 -94 -16 0 -18 11 -18 93 l0
93 63 13 c100 20 431 134 566 195 395 178 755 445 1085 806 151 165 207 232
352 426 62 83 126 162 142 176 16 13 27 29 24 36 -2 7 41 81 95 165 243 373
626 1088 888 1657 404 876 769 1775 1545 3798 106 277 199 509 205 516 7 7 37
58 68 114 52 95 54 102 37 114 -18 12 -16 18 23 120 l42 106 29 -15 c15 -8 32
-11 36 -6 4 4 30 52 59 105 l51 97 -29 16 c-17 8 -32 15 -35 15 -3 0 -17 -23
-32 -51 -79 -157 -3 46 355 938 885 2211 1666 3819 2487 5120 170 269 576 863
590 863 2 0 -40 -66 -94 -147z"/>
<path d="M17245 22213 c-105 -15 -114 -18 -99 -33 14 -14 234 20 234 37 0 15
-5 15 -135 -4z"/>
<path d="M16778 22138 c-71 -15 -98 -25 -98 -35 0 -11 7 -14 23 -10 12 3 64
14 115 23 60 12 92 22 92 31 0 16 -13 15 -132 -9z"/>
<path d="M16336 22041 c-60 -14 -111 -32 -114 -39 -5 -16 7 -15 121 12 101 24
111 28 106 44 -2 5 -52 -2 -113 -17z"/>
<path d="M15877 21911 c-123 -41 -122 -40 -110 -52 13 -13 236 58 228 72 -9
13 -21 11 -118 -20z"/>
<path d="M15445 21752 c-49 -21 -99 -42 -109 -45 -14 -6 -16 -11 -9 -18 14
-14 223 69 223 88 0 18 -4 17 -105 -25z"/>
<path d="M15015 21554 c-94 -48 -123 -69 -112 -80 4 -4 53 17 109 46 121 62
114 58 102 70 -7 7 -41 -6 -99 -36z"/>
<path d="M14594 21312 c-81 -51 -110 -79 -77 -76 22 3 193 116 187 125 -8 14
-14 12 -110 -49z"/>
<path d="M14205 21049 c-97 -73 -99 -75 -91 -88 7 -10 196 126 196 141 0 19
-30 4 -105 -53z"/>
<path d="M13833 20749 c-46 -39 -83 -77 -83 -85 0 -8 2 -14 5 -14 10 0 176
148 176 157 1 21 -23 7 -98 -58z"/>
<path d="M13481 20426 c-56 -56 -79 -86 -71 -91 14 -8 182 153 174 167 -10 15
-19 8 -103 -76z"/>
<path d="M13160 20085 c-70 -80 -83 -100 -61 -100 14 0 160 168 155 177 -10
15 -19 7 -94 -77z"/>
<path d="M12851 19723 c-72 -89 -81 -103 -58 -103 12 1 142 156 146 175 7 31
-25 5 -88 -72z"/>
<path d="M12557 19348 c-45 -62 -64 -95 -57 -102 7 -7 15 -3 25 11 8 11 39 53
70 93 30 41 55 77 55 82 0 26 -33 -4 -93 -84z"/>
<path d="M12282 18967 c-65 -96 -70 -107 -49 -107 11 1 137 177 137 193 0 4
-6 7 -12 7 -7 0 -41 -42 -76 -93z"/>
<path d="M12019 18579 c-37 -56 -58 -97 -55 -106 4 -9 8 -14 10 -12 14 14 126
191 126 199 0 27 -25 2 -81 -81z"/>
<path d="M11775 18198 c-77 -126 -78 -128 -61 -128 16 0 138 188 130 202 -10
16 -20 6 -69 -74z"/>
<path d="M11515 17774 c-38 -65 -54 -99 -47 -106 7 -7 15 -2 25 13 122 201
116 189 93 189 -7 0 -39 -43 -71 -96z"/>
<path d="M11277 17368 c-38 -68 -54 -105 -47 -112 12 -12 6 -20 73 98 50 90
59 117 39 116 -4 -1 -33 -46 -65 -102z"/>
<path d="M11046 16959 c-37 -65 -54 -105 -48 -111 7 -7 24 14 50 59 64 110 75
134 64 145 -6 6 -30 -28 -66 -93z"/>
<path d="M10816 16547 c-31 -57 -56 -107 -56 -111 0 -3 6 -6 13 -6 7 0 23 19
35 43 12 23 36 68 53 100 23 41 29 61 22 68 -8 8 -27 -20 -67 -94z"/>
<path d="M10623 16193 c-11 -21 -37 -68 -57 -104 -27 -50 -33 -68 -23 -72 9
-3 31 28 67 93 29 54 53 102 52 106 -2 22 -20 11 -39 -23z"/>
<path d="M10366 15717 c-31 -58 -56 -108 -56 -111 0 -3 6 -6 13 -6 19 0 122
199 109 212 -6 6 -29 -26 -66 -95z"/>
<path d="M10140 15295 c-30 -57 -51 -107 -47 -111 11 -11 20 2 76 105 46 84
54 111 33 111 -4 0 -32 -47 -62 -105z"/>
<path d="M9920 14883 c-28 -53 -48 -104 -45 -112 7 -18 15 -8 78 110 42 79 47
99 26 99 -4 0 -30 -44 -59 -97z"/>
<path d="M9697 14465 c-32 -58 -57 -107 -57 -110 0 -3 6 -5 13 -5 12 0 117
179 117 200 0 34 -25 5 -73 -85z"/>
<path d="M9471 14049 c-35 -67 -50 -104 -43 -111 7 -7 22 13 47 59 21 37 46
83 57 101 17 31 17 52 0 52 -4 0 -31 -46 -61 -101z"/>
<path d="M9247 13636 c-32 -57 -57 -107 -57 -110 0 -3 6 -6 13 -6 11 0 117
180 117 200 0 33 -25 5 -73 -84z"/>
<path d="M9014 13219 c-37 -66 -53 -104 -46 -111 10 -10 21 6 86 123 20 36 36
71 36 77 0 31 -24 3 -76 -89z"/>
<path d="M8826 12888 c-61 -100 -97 -171 -91 -186 4 -12 23 11 65 83 33 55 59
106 60 113 0 20 -18 14 -34 -10z"/>
<path d="M8546 12406 c-56 -95 -66 -121 -43 -114 15 6 127 194 119 202 -12 13
-22 2 -76 -88z"/>
<path d="M8302 11999 c-34 -56 -59 -105 -56 -110 9 -16 22 -1 80 97 37 62 54
98 47 105 -6 6 -31 -26 -71 -92z"/>
<path d="M8085 11650 c-14 -22 -42 -65 -61 -96 -24 -38 -33 -59 -26 -66 7 -7
19 3 36 31 15 23 42 66 61 96 19 30 35 59 35 65 0 22 -21 8 -45 -30z"/>
<path d="M7800 11207 c-63 -99 -68 -109 -52 -115 16 -5 135 189 124 200 -7 7
-31 -21 -72 -85z"/>
<path d="M7532 10811 c-61 -88 -72 -111 -53 -111 9 0 141 182 141 194 0 3 -6
6 -13 6 -7 0 -41 -40 -75 -89z"/>
<path d="M7257 10423 c-44 -61 -65 -99 -59 -105 9 -9 25 9 120 141 28 39 34
62 14 60 -4 0 -38 -43 -75 -96z"/>
<path d="M6980 10048 c-62 -82 -71 -98 -58 -108 6 -5 148 172 148 184 0 3 -6
6 -13 6 -8 0 -42 -37 -77 -82z"/>
<path d="M8446 9918 l-59 -102 23 -18 c12 -10 27 -18 34 -18 6 0 36 45 68 100
58 103 58 104 12 128 -19 10 -25 3 -78 -90z"/>
<path d="M6688 9674 c-66 -83 -78 -104 -58 -104 14 0 150 172 144 182 -10 16
-19 7 -86 -78z"/>
<path d="M8207 9514 c-31 -52 -57 -99 -57 -103 0 -8 44 -41 54 -41 6 0 128
202 124 205 -26 18 -54 35 -58 35 -3 0 -31 -43 -63 -96z"/>
<path d="M6387 9308 c-50 -59 -73 -96 -67 -102 5 -5 11 -8 13 -5 2 2 36 44 77
92 48 58 70 91 63 98 -6 6 -36 -22 -86 -83z"/>
<path d="M7993 9167 c-14 -23 -41 -66 -59 -95 -19 -29 -34 -56 -34 -61 0 -8
43 -41 54 -41 5 0 113 169 120 190 4 10 -5 21 -24 32 l-30 17 -27 -42z"/>
<path d="M6079 8954 c-78 -90 -88 -104 -69 -104 6 0 33 24 59 53 88 95 104
118 94 128 -6 6 -37 -23 -84 -77z"/>
<path d="M7698 8712 l-66 -99 30 -18 c25 -14 32 -15 43 -4 24 27 115 166 115
176 0 9 -42 43 -52 43 -2 0 -33 -44 -70 -98z"/>
<path d="M5756 8604 c-53 -57 -76 -88 -69 -95 12 -12 176 158 167 173 -9 15
-18 8 -98 -78z"/>
<path d="M7435 8333 c-35 -48 -65 -94 -65 -100 0 -17 49 -48 59 -37 4 5 36 49
71 97 67 93 66 90 18 118 -15 8 -28 -4 -83 -78z"/>
<path d="M5428 8264 c-49 -47 -82 -86 -76 -90 6 -4 49 32 95 78 47 47 81 88
77 91 -5 3 -48 -33 -96 -79z"/>
<path d="M7151 7945 l-71 -94 27 -20 c14 -12 28 -21 32 -20 3 0 37 41 74 90
72 94 74 104 26 129 -14 8 -29 -7 -88 -85z"/>
<path d="M5086 7936 c-57 -53 -85 -85 -78 -90 12 -7 182 139 182 156 0 23 -24
7 -104 -66z"/>
<path d="M4736 7616 c-54 -50 -85 -85 -78 -90 11 -6 182 138 182 155 0 24 -23
9 -104 -65z"/>
<path d="M6861 7578 l-73 -89 23 -25 c12 -13 26 -23 31 -22 10 4 148 170 148
180 0 3 -12 15 -27 26 l-28 19 -74 -89z"/>
<path d="M4383 7311 c-55 -45 -88 -80 -83 -85 15 -15 194 132 182 150 -4 8
-40 -15 -99 -65z"/>
<path d="M6590 7253 c-25 -27 -61 -65 -80 -86 l-34 -37 26 -27 27 -26 49 54
c27 30 63 70 80 90 l31 36 -22 22 c-13 11 -25 21 -28 21 -3 0 -25 -21 -49 -47z"/>
<path d="M6236 6868 c-42 -45 -76 -84 -76 -88 0 -4 10 -16 23 -28 l23 -22 84
85 84 84 -24 26 c-13 14 -27 25 -31 25 -4 0 -41 -37 -83 -82z"/>
<path d="M5903 6538 l-82 -83 23 -26 23 -27 88 82 87 81 -22 28 c-12 15 -25
27 -28 27 -4 0 -44 -37 -89 -82z"/>
<path d="M5557 6224 c-48 -41 -87 -78 -87 -83 0 -4 10 -17 23 -29 l23 -22 87
76 c48 41 87 78 87 83 0 4 -10 17 -23 29 l-23 22 -87 -76z"/>
<path d="M5205 5934 c-38 -31 -78 -62 -89 -69 -18 -13 -18 -14 4 -44 l21 -31
80 62 c44 35 87 68 96 75 13 10 13 14 -4 37 -10 14 -22 25 -28 26 -5 0 -41
-25 -80 -56z"/>
<path d="M4813 5644 c-51 -36 -93 -69 -93 -72 0 -4 9 -18 20 -32 l19 -25 85
59 c110 75 112 79 89 110 -10 14 -20 25 -23 25 -3 0 -47 -29 -97 -65z"/>
<path d="M4460 5409 c-25 -17 -66 -43 -92 -59 l-47 -29 17 -31 c11 -19 22 -28
32 -24 21 7 190 115 190 120 0 13 -34 54 -44 53 -6 0 -31 -14 -56 -30z"/>
<path d="M5700 4093 c-79 -60 -98 -81 -76 -84 12 -3 186 129 186 141 0 20 -27
6 -110 -57z"/>
<path d="M5324 3834 c-105 -67 -108 -69 -100 -83 4 -6 46 14 104 51 116 73
108 66 96 78 -7 7 -41 -9 -100 -46z"/>
<path d="M4901 3592 c-78 -41 -100 -57 -92 -65 9 -9 35 0 107 38 99 52 112 62
98 74 -5 4 -56 -17 -113 -47z"/>
<path d="M4485 3394 c-55 -24 -103 -45 -107 -46 -4 -2 -4 -8 0 -15 5 -9 36 0
111 32 113 48 119 52 105 64 -5 4 -54 -12 -109 -35z"/>
<path d="M21455 22293 c-49 -2 -94 -8 -98 -12 -5 -5 -6 -23 -2 -40 l7 -32 111
7 c62 3 116 10 121 14 4 5 5 22 1 39 -5 24 -11 31 -28 29 -12 -1 -62 -4 -112
-5z"/>
<path d="M20937 22263 l-58 -4 3 -37 3 -37 85 3 c47 1 101 5 120 8 34 5 36 7
32 40 l-4 34 -62 -2 c-33 -1 -87 -3 -119 -5z"/>
<path d="M19570 22144 c-52 -7 -96 -13 -97 -13 -8 -3 -2 -61 7 -66 5 -3 59 0
120 6 l110 12 0 39 c0 44 9 43 -140 22z"/>
<path d="M21235 22134 c-11 -2 -46 -6 -77 -9 -43 -5 -58 -10 -58 -22 0 -12 7
-14 33 -10 17 3 64 9 102 12 83 8 105 13 105 26 0 8 -59 10 -105 3z"/>
<path d="M19120 22089 c-121 -19 -120 -19 -120 -42 0 -47 11 -51 101 -38 155
22 145 18 141 57 -4 31 -7 34 -36 33 -17 -1 -56 -5 -86 -10z"/>
<path d="M20775 22079 c-33 -4 -79 -11 -102 -14 -30 -4 -43 -11 -43 -22 0 -11
7 -14 23 -10 12 3 66 11 120 17 70 9 97 16 97 26 0 15 -7 16 -95 3z"/>
<path d="M18620 22011 l-85 -16 3 -35 c2 -19 5 -36 5 -36 3 -3 231 37 234 40
2 2 0 17 -3 34 -8 38 -22 39 -154 13z"/>
<path d="M20280 22007 c-63 -11 -117 -21 -119 -23 -3 -2 0 -8 5 -13 9 -9 218
19 230 32 20 20 -14 21 -116 4z"/>
<path d="M18166 21927 l-98 -20 6 -35 c3 -19 7 -36 8 -38 4 -3 229 43 233 48
1 2 -2 18 -7 36 -10 37 -7 37 -142 9z"/>
<path d="M19808 21927 c-72 -14 -108 -25 -108 -34 0 -17 -5 -17 128 8 68 13
111 26 109 32 -5 16 -13 16 -129 -6z"/>
<path d="M19353 21831 c-74 -16 -113 -29 -113 -38 0 -7 3 -13 8 -13 18 1 213
48 218 53 21 21 -16 20 -113 -2z"/>
<path d="M17712 21822 l-103 -26 6 -36 c4 -19 8 -36 9 -37 3 -4 215 53 221 59
11 10 -5 68 -18 67 -7 -1 -58 -13 -115 -27z"/>
<path d="M18970 21738 c-157 -40 -190 -51 -190 -65 0 -9 6 -12 18 -9 9 3 59
17 111 30 99 27 105 29 100 44 -3 5 -18 5 -39 0z"/>
<path d="M17263 21697 c-56 -18 -104 -35 -107 -38 -4 -3 -1 -20 5 -38 8 -21
16 -30 26 -27 7 3 58 20 113 37 55 17 100 32 100 33 0 12 -23 66 -28 65 -4 0
-53 -15 -109 -32z"/>
<path d="M18440 21588 c-96 -30 -119 -42 -107 -55 10 -9 227 60 224 71 -6 17
-20 15 -117 -16z"/>
<path d="M16821 21549 c-58 -22 -106 -41 -109 -43 -8 -8 10 -66 20 -66 23 0
218 76 217 85 0 6 -5 22 -12 36 l-12 27 -104 -39z"/>
<path d="M17978 21431 c-54 -20 -98 -42 -98 -48 0 -7 4 -13 9 -13 21 0 216 79
219 89 6 18 -27 11 -130 -28z"/>
<path d="M16365 21367 c-49 -22 -91 -42 -93 -43 -8 -5 12 -56 24 -61 12 -4
189 69 207 86 12 12 -14 61 -32 60 -9 0 -56 -19 -106 -42z"/>
<path d="M17605 21284 c-16 -7 -61 -28 -99 -44 -46 -21 -66 -34 -59 -41 11
-11 215 72 221 90 5 15 -27 13 -63 -5z"/>
<path d="M17118 21059 c-87 -43 -119 -69 -88 -69 23 0 210 101 205 110 -9 14
-11 14 -117 -41z"/>
<path d="M16697 20834 c-66 -37 -95 -60 -89 -66 11 -11 212 96 212 113 0 18
-26 8 -123 -47z"/>
<path d="M16293 20586 c-59 -40 -89 -66 -84 -74 5 -8 37 9 104 53 90 61 115
86 85 84 -7 0 -54 -28 -105 -63z"/>
<path d="M14763 20380 c-48 -39 -89 -74 -91 -79 -1 -4 9 -17 22 -30 l24 -23
91 73 c93 75 98 84 58 118 -12 10 -31 -1 -104 -59z"/>
<path d="M15911 20318 c-64 -48 -90 -73 -83 -80 7 -7 37 10 94 52 107 81 104
78 93 89 -6 6 -47 -18 -104 -61z"/>
<path d="M14400 20061 l-85 -79 24 -26 24 -26 36 33 c20 17 61 54 90 80 l54
48 -23 24 c-13 14 -26 25 -30 25 -3 0 -44 -35 -90 -79z"/>
<path d="M15599 20073 c-100 -80 -148 -128 -140 -136 7 -7 42 17 98 64 48 40
90 75 92 76 3 2 0 8 -5 13 -7 7 -22 1 -45 -17z"/>
<path d="M14062 19732 c-86 -94 -87 -97 -36 -125 6 -3 47 31 92 76 l82 83 -28
27 -29 28 -81 -89z"/>
<path d="M15187 19708 c-61 -56 -85 -84 -78 -91 7 -7 33 10 83 58 40 38 80 75
88 82 9 8 11 16 4 23 -6 6 -40 -19 -97 -72z"/>
<path d="M13746 19384 c-42 -48 -76 -89 -76 -93 0 -3 13 -15 27 -25 l27 -20
39 45 c112 126 118 135 99 151 -36 31 -41 29 -116 -58z"/>
<path d="M14851 19376 c-56 -56 -79 -86 -71 -91 14 -8 170 141 170 162 0 24
-15 13 -99 -71z"/>
<path d="M14560 19058 c-94 -106 -102 -117 -94 -130 5 -8 17 0 38 24 17 20 53
61 80 92 31 36 46 60 40 66 -6 6 -30 -13 -64 -52z"/>
<path d="M13442 19018 c-75 -95 -77 -104 -31 -128 14 -8 30 6 89 81 l73 90
-23 24 c-13 14 -26 25 -29 25 -3 0 -39 -41 -79 -92z"/>
<path d="M14231 18672 c-68 -85 -82 -112 -62 -112 5 0 42 41 81 91 49 60 69
94 63 100 -7 7 -34 -20 -82 -79z"/>
<path d="M13156 18642 l-69 -95 28 -24 c15 -13 31 -21 35 -16 19 22 122 166
126 178 3 7 -7 22 -23 33 l-28 20 -69 -96z"/>
<path d="M13948 18303 c-79 -107 -81 -110 -68 -118 14 -9 155 184 143 196 -7
7 -33 -21 -75 -78z"/>
<path d="M12881 18253 l-64 -97 23 -18 c12 -10 27 -18 34 -18 8 0 122 160 134
189 2 6 -50 41 -60 41 -1 0 -32 -44 -67 -97z"/>
<path d="M13707 17968 c-50 -67 -107 -152 -107 -160 0 -4 6 -8 13 -8 11 1 137
176 137 193 0 17 -21 5 -43 -25z"/>
<path d="M12621 17858 c-51 -80 -61 -102 -50 -109 28 -19 51 -31 53 -27 85
130 123 198 113 206 -47 37 -49 36 -116 -70z"/>
<path d="M13400 17514 c-41 -64 -58 -100 -52 -106 7 -7 31 21 72 85 63 99 68
109 52 115 -5 1 -37 -41 -72 -94z"/>
<path d="M12375 17462 c-32 -53 -60 -100 -62 -104 -2 -4 11 -15 28 -24 26 -13
33 -14 41 -2 36 55 108 177 108 185 0 5 -13 16 -29 26 l-29 17 -57 -98z"/>
<path d="M13176 17158 c-70 -111 -87 -146 -76 -153 6 -4 12 -5 14 -4 24 35
116 192 116 199 0 24 -23 6 -54 -42z"/>
<path d="M12176 17128 c-8 -13 -35 -59 -60 -102 l-45 -80 31 -19 c25 -15 33
-16 40 -5 4 7 31 53 60 102 l51 89 -24 18 c-31 24 -36 24 -53 -3z"/>
<path d="M12907 16708 c-36 -64 -54 -105 -48 -111 10 -10 14 -4 85 116 41 70
49 98 28 97 -4 0 -33 -46 -65 -102z"/>
<path d="M11943 16722 c-6 -10 -32 -57 -58 -105 l-46 -86 32 -16 c37 -20 26
-32 102 107 l48 87 -30 16 c-37 19 -34 19 -48 -3z"/>
<path d="M12676 16298 c-34 -64 -51 -107 -46 -112 5 -5 11 -8 13 -5 11 13 110
199 109 206 -2 30 -28 0 -76 -89z"/>
<path d="M11671 16225 c-28 -53 -51 -99 -51 -103 0 -4 13 -15 29 -25 l30 -17
56 105 c32 59 56 108 54 109 -10 8 -49 26 -57 26 -6 0 -33 -43 -61 -95z"/>
<path d="M12454 15888 c-56 -107 -60 -118 -42 -118 11 0 118 186 118 205 0 3
-6 5 -14 5 -8 0 -36 -42 -62 -92z"/>
<path d="M11451 15811 c-28 -55 -51 -104 -51 -109 0 -10 58 -38 64 -31 2 2 27
50 55 106 l51 103 -30 15 c-16 8 -31 15 -34 15 -2 0 -27 -45 -55 -99z"/>
<path d="M12283 15558 c-12 -14 -103 -194 -103 -203 0 -3 6 -5 13 -5 16 0 120
201 109 212 -5 5 -14 3 -19 -4z"/>
<path d="M11232 15384 c-29 -59 -52 -107 -50 -109 10 -8 48 -25 57 -25 9 0
111 188 111 205 0 4 -54 35 -62 35 -2 0 -27 -48 -56 -106z"/>
<path d="M12019 15039 c-34 -68 -47 -105 -40 -112 6 -6 26 24 60 92 52 103 58
121 41 121 -5 0 -33 -46 -61 -101z"/>
<path d="M11022 14970 c-28 -54 -52 -103 -52 -108 0 -10 58 -38 64 -31 2 2 26
49 54 105 l51 101 -32 15 -32 15 -53 -97z"/>
<path d="M11813 14615 c-33 -64 -48 -107 -42 -111 13 -8 9 -15 67 102 46 91
52 114 33 114 -4 0 -30 -47 -58 -105z"/>
<path d="M10812 14544 c-29 -57 -52 -106 -52 -109 0 -6 61 -37 65 -33 2 2 26
51 53 109 l50 106 -32 16 -32 15 -52 -104z"/>
<path d="M11607 14188 c-31 -67 -44 -105 -37 -112 5 -5 11 -8 12 -5 14 22 98
202 98 209 0 6 -6 10 -12 10 -7 0 -34 -46 -61 -102z"/>
<path d="M10600 14118 c-28 -57 -50 -106 -50 -109 0 -8 59 -33 64 -28 2 2 27
50 55 106 l51 103 -30 15 c-16 8 -32 15 -35 15 -3 0 -28 -46 -55 -102z"/>
<path d="M11410 13765 c-34 -73 -47 -112 -40 -119 6 -6 26 25 61 98 35 76 47
112 40 119 -7 7 -26 -22 -61 -98z"/>
<path d="M10392 13692 l-49 -107 31 -17 31 -16 53 104 c29 58 50 109 47 113
-3 5 -18 14 -34 19 l-29 10 -50 -106z"/>
<path d="M11247 13409 c-8 -19 -31 -69 -50 -111 -27 -57 -32 -78 -23 -81 19
-8 113 200 98 215 -8 8 -15 1 -25 -23z"/>
<path d="M11017 12903 c-31 -70 -44 -110 -38 -116 7 -7 26 23 55 87 50 106 56
127 41 132 -6 2 -31 -44 -58 -103z"/>
<path d="M10861 12559 c-5 -13 -25 -60 -45 -103 -20 -44 -34 -87 -31 -95 8
-21 16 -8 65 102 32 72 40 101 32 109 -8 8 -14 5 -21 -13z"/>
<path d="M10649 12084 c-63 -140 -68 -153 -58 -160 14 -8 13 -10 64 105 31 71
43 107 36 114 -7 7 -20 -12 -42 -59z"/>
<path d="M10436 11606 c-51 -114 -51 -116 -33 -116 10 0 63 108 105 212 2 4
-3 8 -11 8 -9 0 -33 -41 -61 -104z"/>
<path d="M10286 11272 c-11 -19 -86 -194 -86 -202 0 -6 5 -10 10 -10 10 0 86
155 96 197 6 22 -9 33 -20 15z"/>
<path d="M10052 10756 c-57 -128 -56 -126 -40 -126 9 0 33 42 61 104 52 115
52 116 34 116 -7 0 -32 -42 -55 -94z"/>
<path d="M9855 10324 c-45 -97 -54 -129 -35 -122 12 4 99 185 100 206 1 35
-25 2 -65 -84z"/>
<path d="M9654 9893 c-52 -113 -53 -114 -37 -120 10 -4 26 26 89 165 19 42 21
52 9 52 -9 0 -33 -39 -61 -97z"/>
<path d="M9485 9532 c-67 -139 -83 -181 -71 -185 9 -4 30 32 63 103 36 76 47
110 38 113 -7 3 -20 -10 -30 -31z"/>
<path d="M9247 9037 c-50 -108 -53 -117 -37 -117 10 0 110 191 110 210 0 5 -6
10 -12 10 -7 0 -34 -46 -61 -103z"/>
<path d="M12950 8536 l0 -276 145 0 c125 0 151 3 184 20 42 21 81 85 81 133 0
44 -27 96 -60 115 -33 19 -38 30 -15 39 43 16 61 119 29 172 -33 56 -65 66
-221 69 l-143 4 0 -276z m239 205 c52 -10 71 -31 71 -79 0 -71 -36 -92 -161
-92 l-79 0 0 90 0 90 63 0 c34 -1 82 -5 106 -9z m68 -255 c37 -32 40 -103 5
-138 -20 -21 -34 -23 -132 -26 l-110 -4 0 96 0 96 104 0 c96 0 107 -2 133 -24z"/>
<path d="M14490 8536 l0 -276 35 0 35 0 -2 273 -3 272 -32 3 -33 3 0 -275z"/>
<path d="M16530 8536 l0 -276 35 0 35 0 -2 273 -3 272 -32 3 -33 3 0 -275z"/>
<path d="M17228 8793 c-30 -36 -57 -90 -84 -168 -38 -112 -38 -228 0 -340 36
-105 83 -185 111 -185 20 0 20 3 -12 68 -75 154 -84 350 -23 514 17 49 36 91
41 94 14 8 11 34 -4 34 -8 0 -21 -8 -29 -17z"/>
<path d="M19044 8738 c86 -188 87 -386 1 -566 -34 -71 -34 -73 -12 -70 27 4
77 85 109 177 33 94 33 258 0 352 -32 92 -82 173 -109 177 -22 3 -21 1 11 -70z"/>
<path d="M17430 8782 c-41 -22 -80 -90 -80 -140 0 -32 2 -33 32 -30 30 3 33 7
39 42 9 54 47 86 102 86 54 0 84 -21 96 -67 19 -69 -9 -104 -157 -195 -72 -43
-110 -96 -121 -167 l-8 -51 178 0 179 0 0 35 0 35 -140 0 c-83 0 -140 4 -140
10 0 21 65 81 125 115 119 66 157 112 157 191 0 50 -24 97 -65 128 -40 29
-149 34 -197 8z"/>
<path d="M17860 8781 c-69 -36 -108 -157 -97 -303 10 -129 56 -209 130 -229
54 -14 101 -4 142 32 54 48 70 104 70 249 0 113 -2 130 -25 175 -14 28 -40 60
-59 72 -42 29 -112 30 -161 4z m139 -67 c33 -43 44 -100 39 -219 -6 -150 -31
-195 -106 -195 -42 0 -78 45 -93 117 -16 81 -6 220 20 271 23 45 31 50 83 51
28 1 41 -5 57 -25z"/>
<path d="M18351 8764 c-13 -37 -56 -64 -101 -64 -15 0 -20 -7 -20 -25 0 -24 3
-25 55 -25 l55 0 0 -195 0 -195 35 0 35 0 0 270 0 270 -23 0 c-17 0 -26 -9
-36 -36z"/>
<path d="M18700 8630 c-99 -139 -120 -175 -120 -205 l0 -35 110 0 110 0 0 -65
0 -65 35 0 35 0 0 65 0 65 40 0 c38 0 40 2 40 30 0 28 -2 30 -40 30 l-40 0 0
175 0 175 -25 0 c-20 0 -45 -29 -145 -170z m97 -177 c-3 -2 -38 -3 -80 -1
l-75 3 77 110 76 110 3 -109 c1 -60 1 -110 -1 -113z"/>
<path d="M14290 8710 c0 -47 -2 -50 -25 -50 -21 0 -25 -5 -25 -30 0 -25 4 -30
25 -30 l25 0 0 -155 c0 -153 0 -156 25 -181 20 -20 34 -25 63 -22 32 3 37 7
40 31 3 24 0 27 -27 27 l-31 0 0 150 0 150 30 0 c27 0 30 3 30 30 0 27 -3 30
-30 30 -29 0 -30 1 -30 50 l0 50 -35 0 -35 0 0 -50z"/>
<path d="M15710 8710 c0 -47 -2 -50 -25 -50 -21 0 -25 -5 -25 -30 0 -25 4 -30
25 -30 l25 0 0 -155 c0 -153 0 -156 25 -181 20 -20 34 -25 63 -22 32 3 37 7
40 31 3 24 0 27 -27 27 l-31 0 0 150 0 150 30 0 c27 0 30 3 30 30 0 27 -3 30
-30 30 -29 0 -30 1 -30 50 l0 50 -35 0 -35 0 0 -50z"/>
<path d="M9041 8621 c-52 -103 -58 -121 -41 -121 17 0 113 201 101 213 -6 6
-26 -24 -60 -92z"/>
<path d="M13551 8660 c-83 -20 -131 -94 -131 -202 0 -114 43 -185 127 -209 55
-15 124 -1 162 34 76 70 83 253 13 330 -37 41 -111 61 -171 47z m84 -64 c54
-23 82 -97 69 -183 -15 -98 -105 -145 -172 -88 -74 62 -60 235 21 270 40 18
41 18 82 1z"/>
<path d="M14755 8655 c-103 -37 -154 -172 -110 -296 20 -55 40 -77 90 -100 91
-42 194 -5 230 84 l15 37 -32 0 c-26 -1 -37 -8 -53 -33 -22 -35 -69 -53 -111
-43 -41 11 -84 59 -84 95 l0 30 143 3 142 3 -3 54 c-5 90 -50 151 -128 170
-52 13 -50 13 -99 -4z m93 -56 c33 -11 55 -38 66 -81 l6 -28 -110 0 c-93 0
-110 2 -110 15 0 31 32 77 63 90 39 17 46 18 85 4z"/>
<path d="M15385 8655 c-103 -37 -154 -172 -110 -296 20 -55 40 -77 90 -100 91
-42 194 -5 230 84 l15 37 -32 0 c-26 -1 -37 -8 -53 -33 -22 -35 -69 -53 -111
-43 -41 11 -84 59 -84 95 l0 30 143 3 142 3 -3 54 c-5 90 -50 151 -128 170
-52 13 -50 13 -99 -4z m93 -56 c33 -11 55 -38 66 -81 l6 -28 -110 0 c-93 0
-110 2 -110 15 0 31 32 77 63 90 39 17 46 18 85 4z"/>
<path d="M16207 8656 c-58 -16 -84 -39 -93 -84 -6 -31 -5 -32 25 -32 24 0 34
6 41 24 14 37 77 54 127 35 32 -13 38 -20 41 -48 2 -19 -1 -38 -7 -44 -5 -5
-47 -15 -92 -23 -119 -19 -165 -59 -155 -137 11 -97 127 -135 225 -75 27 17
35 19 42 7 5 -8 9 -17 9 -20 0 -11 50 -20 71 -14 27 9 26 55 -1 55 -19 0 -20
7 -20 133 0 182 -18 216 -125 231 -22 3 -62 -1 -88 -8z m141 -258 c-3 -47 -7
-55 -37 -75 -41 -28 -106 -31 -133 -6 -36 33 -16 96 35 108 21 4 112 21 130
24 4 0 7 -22 5 -51z"/>
<path d="M13860 8486 c0 -160 2 -175 21 -199 42 -54 141 -59 199 -11 29 25 30
25 30 5 0 -17 6 -21 30 -21 l30 0 0 200 0 200 -30 0 -30 0 0 -130 c0 -142 -10
-185 -51 -214 -37 -26 -94 -21 -118 10 -19 24 -21 40 -21 180 l0 154 -30 0
-30 0 0 -174z"/>
<path d="M11200 8460 l0 -40 708 2 707 3 0 35 0 35 -707 3 -708 2 0 -40z"/>
<path d="M16717 8333 c-4 -3 -7 -21 -7 -40 0 -32 1 -33 40 -33 l40 0 0 40 c0
39 -1 40 -33 40 -19 0 -37 -3 -40 -7z"/>
<path d="M8820 8195 c-30 -57 -51 -107 -47 -112 11 -11 28 13 82 118 32 62 41
88 32 92 -8 3 -32 -33 -67 -98z"/>
<path d="M8601 7783 c-53 -100 -59 -115 -44 -120 9 -3 117 188 115 203 -3 28
-25 2 -71 -83z"/>
<path d="M12950 7545 l0 -275 35 0 35 0 0 125 0 125 140 0 140 0 0 -125 0
-125 40 0 40 0 -2 273 -3 272 -35 0 -35 0 -3 -117 -3 -118 -139 0 -140 0 0
120 0 120 -35 0 -35 0 0 -275z"/>
<path d="M17070 7546 l0 -276 35 0 35 0 -2 273 -3 272 -32 3 -33 3 0 -275z"/>
<path d="M17768 7803 c-30 -36 -57 -90 -84 -168 -38 -112 -38 -228 0 -340 36
-105 83 -185 111 -185 20 0 20 3 -12 68 -75 154 -84 350 -23 514 17 49 36 91
41 94 14 8 11 34 -4 34 -8 0 -21 -8 -29 -17z"/>
<path d="M19584 7748 c86 -188 87 -386 1 -566 -34 -71 -34 -73 -12 -70 27 4
77 85 109 177 33 94 33 258 0 352 -32 92 -82 173 -109 177 -22 3 -21 1 11 -70z"/>
<path d="M17970 7792 c-41 -22 -80 -90 -80 -140 0 -32 2 -33 32 -30 30 3 33 7
39 42 9 54 47 86 102 86 54 0 84 -21 96 -67 19 -69 -9 -104 -157 -195 -72 -43
-110 -96 -121 -167 l-8 -51 178 0 179 0 0 35 0 35 -140 0 c-83 0 -140 4 -140
10 0 21 65 81 125 115 119 66 157 112 157 191 0 50 -24 97 -65 128 -40 29
-149 34 -197 8z"/>
<path d="M18400 7791 c-69 -36 -108 -157 -97 -303 10 -129 56 -209 130 -229
54 -14 101 -4 142 32 54 48 70 104 70 249 0 113 -2 130 -25 175 -14 28 -40 60
-59 72 -42 29 -112 30 -161 4z m139 -67 c33 -43 44 -100 39 -219 -6 -150 -31
-195 -106 -195 -42 0 -78 45 -93 117 -16 81 -6 220 20 271 23 45 31 50 83 51
28 1 41 -5 57 -25z"/>
<path d="M18891 7774 c-13 -37 -56 -64 -101 -64 -15 0 -20 -7 -20 -25 0 -24 3
-25 55 -25 l55 0 0 -195 0 -195 35 0 35 0 0 270 0 270 -23 0 c-17 0 -26 -9
-36 -36z"/>
<path d="M19311 7774 c-13 -37 -56 -64 -101 -64 -15 0 -20 -7 -20 -25 0 -24 3
-25 55 -25 l55 0 0 -195 0 -195 35 0 35 0 0 270 0 270 -23 0 c-17 0 -26 -9
-36 -36z"/>
<path d="M15410 7720 c0 -47 -2 -50 -25 -50 -21 0 -25 -5 -25 -30 0 -25 4 -30
25 -30 l25 0 0 -155 c0 -153 0 -156 25 -181 20 -20 34 -25 63 -22 32 3 37 7
40 31 3 24 0 27 -27 27 l-31 0 0 150 0 150 30 0 c27 0 30 3 30 30 0 27 -3 30
-30 30 -29 0 -30 1 -30 50 l0 50 -35 0 -35 0 0 -50z"/>
<path d="M16250 7720 c0 -47 -2 -50 -25 -50 -21 0 -25 -5 -25 -30 0 -25 4 -30
25 -30 l25 0 0 -155 c0 -153 0 -156 25 -181 20 -20 34 -25 63 -22 32 3 37 7
40 31 3 24 0 27 -27 27 l-31 0 0 150 0 150 30 0 c27 0 30 3 30 30 0 27 -3 30
-30 30 -29 0 -30 1 -30 50 l0 50 -35 0 -35 0 0 -50z"/>
<path d="M13601 7670 c-83 -20 -131 -94 -131 -202 0 -114 43 -185 127 -209 55
-15 124 -1 162 34 76 70 83 253 13 330 -37 41 -111 61 -171 47z m84 -64 c54
-23 82 -97 69 -183 -15 -98 -105 -145 -172 -88 -74 62 -60 235 21 270 40 18
41 18 82 1z"/>
<path d="M14046 7670 c-16 -5 -42 -21 -57 -36 l-29 -28 0 33 c0 29 -2 32 -27
29 l-28 -3 -3 -197 -2 -198 35 0 35 0 0 141 0 141 34 34 c22 22 44 34 61 34
28 0 65 -16 77 -34 4 -6 8 -80 8 -163 l0 -153 35 0 35 0 0 158 c0 105 -4 165
-13 181 -26 52 -100 80 -161 61z"/>
<path d="M14466 7670 c-16 -5 -42 -21 -57 -36 l-29 -28 0 33 c0 29 -2 32 -27
29 l-28 -3 -3 -197 -2 -198 35 0 35 0 0 141 0 141 34 34 c22 22 44 34 61 34
28 0 65 -16 77 -34 4 -6 8 -80 8 -163 l0 -153 35 0 35 0 0 158 c0 105 -4 165
-13 181 -26 52 -100 80 -161 61z"/>
<path d="M14845 7665 c-103 -37 -154 -172 -110 -296 20 -55 40 -77 90 -100 91
-42 194 -5 230 84 l15 37 -32 0 c-26 -1 -37 -8 -53 -33 -22 -35 -69 -53 -111
-43 -41 11 -84 59 -84 95 l0 30 143 3 142 3 -3 54 c-5 90 -50 151 -128 170
-52 13 -50 13 -99 -4z m93 -56 c33 -11 55 -38 66 -81 l6 -28 -110 0 c-93 0
-110 2 -110 15 0 31 32 77 63 90 39 17 46 18 85 4z"/>
<path d="M15284 7666 c-17 -8 -40 -26 -52 -41 l-22 -28 0 37 c0 35 -2 37 -27
34 l-28 -3 -3 -197 -2 -198 35 0 35 0 0 130 c0 160 9 184 76 202 42 11 45 15
42 42 -4 35 -13 39 -54 22z"/>
<path d="M15925 7665 c-103 -37 -154 -172 -110 -296 20 -55 40 -77 90 -100 91
-42 194 -5 230 84 l15 37 -32 0 c-26 -1 -37 -8 -53 -33 -22 -35 -69 -53 -111
-43 -41 11 -84 59 -84 95 l0 30 143 3 142 3 -3 54 c-5 90 -50 151 -128 170
-52 13 -50 13 -99 -4z m93 -56 c33 -11 55 -38 66 -81 l6 -28 -110 0 c-93 0
-110 2 -110 15 0 31 32 77 63 90 39 17 46 18 85 4z"/>
<path d="M16747 7666 c-58 -16 -84 -39 -93 -84 -6 -31 -5 -32 25 -32 24 0 34
6 41 24 14 37 77 54 127 35 32 -13 38 -20 41 -48 2 -19 -1 -38 -7 -44 -5 -5
-47 -15 -92 -23 -119 -19 -165 -59 -155 -137 11 -97 127 -135 225 -75 27 17
35 19 42 7 5 -8 9 -17 9 -20 0 -11 50 -20 71 -14 27 9 26 55 -1 55 -19 0 -20
7 -20 133 0 182 -18 216 -125 231 -22 3 -62 -1 -88 -8z m141 -258 c-3 -47 -7
-55 -37 -75 -41 -28 -106 -31 -133 -6 -36 33 -16 96 35 108 21 4 112 21 130
24 4 0 7 -22 5 -51z"/>
<path d="M11200 7465 l0 -35 120 0 120 0 0 35 0 35 -120 0 -120 0 0 -35z"/>
<path d="M11670 7465 l0 -35 120 0 120 0 0 35 0 35 -120 0 -120 0 0 -35z"/>
<path d="M12140 7465 l0 -35 120 0 120 0 0 35 0 35 -120 0 -120 0 0 -35z"/>
<path d="M8366 7363 c-38 -65 -53 -100 -46 -107 5 -5 11 -8 13 -5 8 10 117
201 117 205 0 2 -6 4 -14 4 -8 0 -39 -44 -70 -97z"/>
<path d="M17257 7343 c-4 -3 -7 -21 -7 -40 0 -32 1 -33 40 -33 l40 0 0 40 c0
39 -1 40 -33 40 -19 0 -37 -3 -40 -7z"/>
<path d="M8168 7024 c-91 -146 -101 -165 -91 -175 7 -7 29 20 72 92 40 66 59
105 52 112 -6 6 -18 -4 -33 -29z"/>
<path d="M13897 6778 c-18 -42 -32 -53 -84 -67 -32 -9 -43 -17 -43 -31 0 -18
7 -20 60 -20 l60 0 0 -195 0 -195 30 0 30 0 0 270 c0 263 -1 270 -20 270 -13
0 -24 -11 -33 -32z"/>
<path d="M14240 6792 c-76 -38 -104 -117 -98 -282 4 -132 27 -197 82 -231 42
-26 121 -25 164 1 92 57 121 325 49 454 -39 70 -124 95 -197 58z m125 -65 c27
-27 35 -45 45 -106 19 -114 -1 -250 -44 -290 -58 -54 -126 -25 -152 65 -23 81
-17 255 12 304 38 66 90 76 139 27z"/>
<path d="M14937 6778 c-18 -42 -32 -53 -84 -67 -32 -9 -43 -17 -43 -31 0 -18
7 -20 60 -20 l60 0 0 -195 0 -195 30 0 30 0 0 270 c0 263 -1 270 -20 270 -13
0 -24 -11 -33 -32z"/>
<path d="M13445 6659 c-11 -6 -30 -23 -42 -38 l-23 -26 0 33 c0 27 -3 32 -25
32 l-25 0 0 -195 0 -195 25 0 25 0 0 123 c1 173 27 227 113 227 19 0 45 -9 58
-19 23 -18 24 -25 27 -175 l3 -156 25 0 24 0 0 166 c0 94 -4 174 -10 185 -23
42 -125 65 -175 38z"/>
<path d="M7881 6563 c-39 -60 -60 -102 -56 -112 4 -11 25 13 71 84 67 104 70
110 55 119 -5 3 -37 -38 -70 -91z"/>
<path d="M12957 6503 c30 -87 61 -174 68 -193 10 -30 16 -35 45 -35 l33 0 73
190 c41 105 74 191 74 193 0 1 -15 2 -32 2 l-33 0 -54 -156 c-29 -85 -57 -152
-61 -147 -5 4 -29 74 -56 156 l-47 147 -33 0 -33 0 56 -157z"/>
<path d="M11200 6470 l0 -30 705 0 705 0 0 30 0 30 -705 0 -705 0 0 -30z"/>
<path d="M14590 6305 c0 -33 2 -35 35 -35 33 0 35 2 35 35 0 33 -2 35 -35 35
-33 0 -35 -2 -35 -35z"/>
<path d="M7615 6164 c-43 -62 -63 -100 -57 -106 10 -10 142 168 142 191 0 27
-23 4 -85 -85z"/>
<path d="M7342 5783 c-49 -67 -68 -101 -61 -108 7 -7 12 -6 17 1 4 6 36 50 71
98 41 56 60 91 54 97 -6 6 -36 -25 -81 -88z"/>
<path d="M7051 5409 c-47 -58 -70 -94 -63 -101 10 -10 152 159 152 181 0 24
-20 7 -89 -80z"/>
<path d="M9343 11576 l-52 -104 24 -16 c13 -9 29 -16 35 -16 8 0 110 189 110
205 0 4 -54 35 -62 35 -2 0 -27 -47 -55 -104z"/>
<path d="M6411 4706 c-56 -56 -79 -86 -71 -91 14 -8 182 153 174 167 -10 15
-19 8 -103 -76z"/>
<path d="M3177 22013 c-4 -3 -7 -21 -7 -40 0 -32 1 -33 40 -33 l40 0 0 40 c0
39 -1 40 -33 40 -19 0 -37 -3 -40 -7z"/>
<path d="M2820 18671 c-69 -36 -108 -157 -97 -303 10 -129 56 -209 130 -229
54 -14 101 -4 142 32 54 48 70 104 70 249 0 113 -2 130 -25 175 -14 28 -40 60
-59 72 -42 29 -112 30 -161 4z m139 -67 c33 -43 44 -100 39 -219 -6 -150 -31
-195 -106 -195 -42 0 -78 45 -93 117 -16 81 -6 220 20 271 23 45 31 50 83 51
28 1 41 -5 57 -25z"/>
<path d="M3441 18673 c-46 -23 -71 -67 -71 -126 0 -41 5 -53 31 -80 l31 -31
-26 -19 c-80 -58 -73 -196 13 -252 104 -69 250 -21 280 93 16 59 0 114 -44
149 l-34 28 32 33 c27 28 32 40 32 82 0 57 -24 96 -76 122 -43 23 -123 23
-168 1z m148 -60 c12 -10 24 -34 27 -54 5 -29 1 -41 -19 -65 -21 -24 -33 -29
-70 -29 -61 0 -87 24 -87 82 0 58 25 83 84 83 27 0 52 -7 65 -17z m16 -233 c8
-7 20 -29 26 -49 24 -80 -43 -152 -126 -137 -57 11 -85 45 -85 104 0 80 53
118 138 101 18 -4 39 -13 47 -19z"/>
<path d="M3177 18223 c-4 -3 -7 -21 -7 -40 0 -32 1 -33 40 -33 l40 0 0 40 c0
39 -1 40 -33 40 -19 0 -37 -3 -40 -7z"/>
<path d="M2820 14691 c-69 -36 -108 -157 -97 -303 10 -129 56 -209 130 -229
54 -14 101 -4 142 32 54 48 70 104 70 249 0 113 -2 130 -25 175 -14 28 -40 60
-59 72 -42 29 -112 30 -161 4z m139 -67 c33 -43 44 -100 39 -219 -6 -150 -31
-195 -106 -195 -42 0 -78 45 -93 117 -16 81 -6 220 20 271 23 45 31 50 83 51
28 1 41 -5 57 -25z"/>
<path d="M3474 14700 c-38 -15 -82 -69 -101 -122 -25 -74 -25 -245 0 -310 35
-89 116 -132 206 -108 90 24 146 127 121 221 -31 114 -176 164 -256 88 l-24
-22 0 21 c0 54 24 128 50 154 51 50 130 32 153 -34 4 -12 17 -18 38 -18 30 0
31 2 25 30 -7 38 -33 73 -68 94 -28 17 -109 20 -144 6z m123 -276 c12 -7 28
-32 34 -54 37 -122 -92 -211 -173 -120 -23 25 -28 40 -28 84 0 44 5 58 26 79
39 39 92 43 141 11z"/>
<path d="M3177 14243 c-4 -3 -7 -21 -7 -40 0 -32 1 -33 40 -33 l40 0 0 40 c0
39 -1 40 -33 40 -19 0 -37 -3 -40 -7z"/>
<path d="M2035 13049 c-17 -4 -44 -22 -60 -39 -28 -29 -30 -37 -33 -126 l-4
-94 172 0 172 0 -4 94 c-3 89 -5 97 -32 125 -45 47 -132 63 -211 40z m157 -50
c32 -17 48 -52 48 -106 l0 -53 -130 0 -130 0 0 54 c0 65 26 103 80 116 38 9
104 3 132 -11z"/>
<path d="M1940 12640 c0 -5 13 -16 29 -25 19 -9 32 -25 36 -45 9 -43 35 -39
35 5 l0 35 120 0 c113 0 120 1 120 20 0 19 -7 20 -170 20 -104 0 -170 -4 -170
-10z"/>
<path d="M1550 12442 c0 -30 5 -42 18 -46 9 -3 103 -24 207 -47 105 -23 193
-45 198 -48 4 -4 -80 -31 -185 -60 -253 -70 -238 -64 -238 -105 0 -40 -18 -33
240 -102 96 -26 178 -50 182 -53 4 -4 -88 -29 -205 -56 l-212 -50 -3 -37 c-2
-27 1 -38 10 -38 7 1 130 31 273 68 l260 67 3 40 3 40 -221 59 c-122 33 -215
63 -208 66 7 4 106 33 221 65 l207 57 0 39 c0 36 -2 39 -37 48 -21 5 -139 35
-262 66 -123 31 -230 59 -237 62 -11 4 -14 -5 -14 -35z"/>
<path d="M2820 10721 c-69 -36 -108 -157 -97 -303 10 -129 56 -209 130 -229
54 -14 101 -4 142 32 54 48 70 104 70 249 0 113 -2 130 -25 175 -14 28 -40 60
-59 72 -42 29 -112 30 -161 4z m139 -67 c33 -43 44 -100 39 -219 -6 -150 -31
-195 -106 -195 -42 0 -78 45 -93 117 -16 81 -6 220 20 271 23 45 31 50 83 51
28 1 41 -5 57 -25z"/>
<path d="M3460 10570 c-99 -139 -120 -175 -120 -205 l0 -35 110 0 110 0 0 -65
0 -65 35 0 35 0 0 65 0 65 40 0 c38 0 40 2 40 30 0 28 -2 30 -40 30 l-40 0 0
175 0 175 -25 0 c-20 0 -45 -29 -145 -170z m97 -177 c-3 -2 -38 -3 -80 -1
l-75 3 77 110 76 110 3 -109 c1 -60 1 -110 -1 -113z"/>
<path d="M3177 10273 c-4 -3 -7 -21 -7 -40 0 -32 1 -33 40 -33 l40 0 0 40 c0
39 -1 40 -33 40 -19 0 -37 -3 -40 -7z"/>
<path d="M2820 6741 c-69 -36 -108 -157 -97 -303 10 -129 56 -209 130 -229 54
-14 101 -4 142 32 54 48 70 104 70 249 0 113 -2 130 -25 175 -14 28 -40 60
-59 72 -42 29 -112 30 -161 4z m139 -67 c33 -43 44 -100 39 -219 -6 -150 -31
-195 -106 -195 -42 0 -78 45 -93 117 -16 81 -6 220 20 271 23 45 31 50 83 51
28 1 41 -5 57 -25z"/>
<path d="M3440 6742 c-41 -22 -80 -90 -80 -140 0 -32 2 -33 32 -30 30 3 33 7
39 42 9 54 47 86 102 86 54 0 84 -21 96 -67 19 -69 -9 -104 -157 -195 -72 -43
-110 -96 -121 -167 l-8 -51 178 0 179 0 0 35 0 35 -140 0 c-83 0 -140 4 -140
10 0 21 65 81 125 115 119 66 157 112 157 191 0 50 -24 97 -65 128 -40 29
-149 34 -197 8z"/>
<path d="M3177 6293 c-4 -3 -7 -21 -7 -40 0 -32 1 -33 40 -33 l40 0 0 40 c0
39 -1 40 -33 40 -19 0 -37 -3 -40 -7z"/>
<path d="M2820 3011 c-69 -36 -108 -157 -97 -303 10 -129 56 -209 130 -229 54
-14 101 -4 142 32 54 48 70 104 70 249 0 113 -2 130 -25 175 -14 28 -40 60
-59 72 -42 29 -112 30 -161 4z m139 -67 c33 -43 44 -100 39 -219 -6 -150 -31
-195 -106 -195 -42 0 -78 45 -93 117 -16 81 -6 220 20 271 23 45 31 50 83 51
28 1 41 -5 57 -25z"/>
<path d="M3450 3011 c-69 -36 -108 -157 -97 -303 10 -129 56 -209 130 -229 54
-14 101 -4 142 32 54 48 70 104 70 249 0 113 -2 130 -25 175 -14 28 -40 60
-59 72 -42 29 -112 30 -161 4z m139 -67 c33 -43 44 -100 39 -219 -6 -150 -31
-195 -106 -195 -42 0 -78 45 -93 117 -16 81 -6 220 20 271 23 45 31 50 83 51
28 1 41 -5 57 -25z"/>
<path d="M3177 2563 c-4 -3 -7 -21 -7 -40 0 -32 1 -33 40 -33 l40 0 0 40 c0
39 -1 40 -33 40 -19 0 -37 -3 -40 -7z"/>
<path d="M5960 2081 c-69 -36 -108 -157 -97 -303 10 -129 56 -209 130 -229 54
-14 101 -4 142 32 54 48 70 104 70 249 0 113 -2 130 -25 175 -14 28 -40 60
-59 72 -42 29 -112 30 -161 4z m139 -67 c33 -43 44 -100 39 -219 -6 -150 -31
-195 -106 -195 -42 0 -78 45 -93 117 -16 81 -6 220 20 271 23 45 31 50 83 51
28 1 41 -5 57 -25z"/>
<path d="M6661 2064 c-13 -37 -56 -64 -101 -64 -15 0 -20 -7 -20 -25 0 -24 3
-25 55 -25 l55 0 0 -195 0 -195 35 0 35 0 0 270 0 270 -23 0 c-17 0 -26 -9
-36 -36z"/>
<path d="M14081 2064 c-13 -37 -56 -64 -101 -64 -15 0 -20 -7 -20 -25 0 -24 3
-25 55 -25 l55 0 0 -195 0 -195 35 0 35 0 0 270 0 270 -23 0 c-17 0 -26 -9
-36 -36z"/>
<path d="M14630 2081 c-69 -36 -108 -157 -97 -303 10 -129 56 -209 130 -229
54 -14 101 -4 142 32 54 48 70 104 70 249 0 113 -2 130 -25 175 -14 28 -40 60
-59 72 -42 29 -112 30 -161 4z m139 -67 c33 -43 44 -100 39 -219 -6 -150 -31
-195 -106 -195 -42 0 -78 45 -93 117 -16 81 -6 220 20 271 23 45 31 50 83 51
28 1 41 -5 57 -25z"/>
<path d="M21911 2064 c-13 -37 -56 -64 -101 -64 -15 0 -20 -7 -20 -25 0 -24 3
-25 55 -25 l55 0 0 -195 0 -195 35 0 35 0 0 270 0 270 -23 0 c-17 0 -26 -9
-36 -36z"/>
<path d="M22260 2081 c-69 -36 -108 -157 -97 -303 10 -129 56 -209 130 -229
54 -14 101 -4 142 32 54 48 70 104 70 249 0 113 -2 130 -25 175 -14 28 -40 60
-59 72 -42 29 -112 30 -161 4z m139 -67 c33 -43 44 -100 39 -219 -6 -150 -31
-195 -106 -195 -42 0 -78 45 -93 117 -16 81 -6 220 20 271 23 45 31 50 83 51
28 1 41 -5 57 -25z"/>
<path d="M22880 2081 c-69 -36 -108 -157 -97 -303 10 -129 56 -209 130 -229
54 -14 101 -4 142 32 54 48 70 104 70 249 0 113 -2 130 -25 175 -14 28 -40 60
-59 72 -42 29 -112 30 -161 4z m139 -67 c33 -43 44 -100 39 -219 -6 -150 -31
-195 -106 -195 -42 0 -78 45 -93 117 -16 81 -6 220 20 271 23 45 31 50 83 51
28 1 41 -5 57 -25z"/>
<path d="M6317 1633 c-4 -3 -7 -21 -7 -40 0 -32 1 -33 40 -33 l40 0 0 40 c0
39 -1 40 -33 40 -19 0 -37 -3 -40 -7z"/>
<path d="M14357 1633 c-4 -3 -7 -21 -7 -40 0 -32 1 -33 40 -33 l40 0 0 40 c0
39 -1 40 -33 40 -19 0 -37 -3 -40 -7z"/>
<path d="M22617 1633 c-4 -3 -7 -21 -7 -40 0 -32 1 -33 40 -33 l40 0 0 40 c0
39 -1 40 -33 40 -19 0 -37 -3 -40 -7z"/>
<path d="M13047 1188 c-114 -359 -140 -448 -134 -454 20 -20 41 29 120 278 48
151 87 277 87 281 0 4 -8 7 -19 7 -14 0 -25 -22 -54 -112z"/>
<path d="M12206 1011 c-64 -137 -116 -251 -116 -255 0 -3 101 -6 224 -6 l223
0 -102 250 c-56 138 -104 252 -107 255 -3 3 -58 -107 -122 -244z m170 -67 l63
-154 -149 0 -150 0 24 53 c107 237 131 284 140 270 4 -8 37 -84 72 -169z"/>
<path d="M12570 1140 c0 -6 27 -51 60 -101 l61 -90 -66 -94 c-36 -51 -65 -96
-65 -99 0 -3 15 -6 33 -6 29 0 37 7 81 76 l49 75 50 -76 c46 -69 53 -75 83
-75 19 0 34 2 34 5 0 3 -28 47 -62 97 -34 51 -61 97 -61 103 0 5 27 49 61 97
34 48 62 89 62 92 0 3 -15 6 -34 6 -31 0 -37 -6 -81 -76 l-48 -76 -50 76 c-43
65 -54 76 -78 76 -16 0 -29 -5 -29 -10z"/>
<path d="M13160 1120 l0 -30 105 0 c58 0 105 -3 105 -6 0 -3 -52 -68 -115
-144 -82 -98 -115 -145 -115 -164 l0 -26 160 0 160 0 0 30 0 29 -116 3 -116 3
111 135 c91 111 111 140 111 167 l0 33 -145 0 -145 0 0 -30z"/>
<path d="M14060 740 c0 -163 1 -170 20 -170 11 0 20 5 20 11 0 5 10 3 22 -5
36 -25 83 -20 120 13 28 25 32 35 35 92 3 51 0 70 -16 96 -26 41 -81 54 -123
30 l-28 -16 0 59 c0 57 -1 60 -25 60 l-25 0 0 -170z m160 20 c15 -15 20 -33
20 -70 0 -37 -5 -55 -20 -70 -24 -24 -67 -26 -92 -3 -24 22 -25 118 -1 145 21
24 68 23 93 -2z"/>
<path d="M13540 845 c0 -24 -5 -35 -15 -35 -8 0 -15 -7 -15 -15 0 -8 7 -15 15
-15 12 0 15 -18 15 -98 0 -107 6 -122 52 -122 33 0 39 25 8 33 -18 5 -20 14
-20 96 0 84 1 91 20 91 11 0 20 7 20 15 0 8 -9 15 -20 15 -16 0 -20 7 -20 35
0 28 -4 35 -20 35 -16 0 -20 -7 -20 -35z"/>
<path d="M13972 798 c-19 -19 -22 -20 -22 -5 0 10 -8 17 -20 17 -19 0 -20 -7
-20 -120 0 -113 1 -120 20 -120 18 0 20 7 20 79 0 64 4 83 21 105 11 14 29 26
40 26 12 0 19 7 19 20 0 27 -30 26 -58 -2z"/>
<path d="M13660 705 c0 -92 3 -108 20 -125 26 -26 80 -26 114 1 21 17 26 18
26 5 0 -9 8 -16 20 -16 19 0 20 7 20 120 l0 120 -25 0 c-25 0 -25 -1 -25 -88
0 -59 -5 -94 -14 -107 -16 -22 -74 -25 -87 -4 -5 8 -9 56 -9 107 0 85 -1 92
-20 92 -19 0 -20 -7 -20 -105z"/>
</g>
</svg>
