<?xml version="1.0" standalone="no"?>
<!DOCTYPE svg PUBLIC "-//W3C//DTD SVG 20010904//EN"
 "http://www.w3.org/TR/2001/REC-SVG-20010904/DTD/svg10.dtd">
<svg version="1.0" xmlns="http://www.w3.org/2000/svg"
 width="1679.000000pt" height="2000.000000pt" viewBox="0 0 1679.000000 2000.000000"
 preserveAspectRatio="xMidYMid meet">
<metadata>
Created by potrace 1.16, written by Peter Selinger 2001-2019
</metadata>
<g transform="translate(0.000000,2000.000000) scale(0.100000,-0.100000)"
fill="#000000" stroke="none">
<path d="M1260 15901 c0 -2239 3 -4071 8 -4073 4 -2 1366 -1 3027 2 1661 3
2681 6 2268 8 l-753 2 0 70 0 70 65 0 65 0 0 135 0 135 -65 0 -65 0 0 285 0
285 65 0 66 0 -3 138 -3 137 -62 3 -63 3 0 699 0 700 65 0 65 0 0 140 0 140
-65 0 -65 0 -2 493 -3 492 -777 3 -778 2 0 435 0 435 28 1 27 1 -27 11 c-24 9
-28 17 -28 48 l0 38 63 3 62 3 3 138 3 137 -66 0 -65 0 0 489 0 490 48 4 c26
2 -182 4 -461 5 l-508 2 -8 22 -8 22 -5 -22 c-4 -14 -14 -22 -27 -22 -21 0
-21 1 -21 405 0 263 3 405 10 405 6 0 10 11 10 25 0 14 -4 25 -10 25 -6 0 -10
27 -10 60 l0 60 65 0 65 0 0 140 0 140 -65 0 -65 0 0 350 c0 227 -4 350 -10
350 -6 0 -10 -60 -11 -157 -1 -95 -4 -148 -9 -133 l-8 25 -1 -27 c-1 -16 3
-28 8 -28 5 0 9 -84 9 -190 l0 -189 -62 -3 -61 -3 -3 -137 -3 -138 66 0 65 0
0 -490 0 -490 -42 0 c-23 0 -39 -2 -36 -5 3 -3 245 -6 537 -5 l531 0 0 -490 0
-490 -65 0 -65 0 0 -140 0 -140 65 0 65 0 0 -485 0 -485 -65 0 c-37 0 -65 -4
-65 -10 0 -7 288 -10 845 -10 l845 0 0 -485 0 -485 -65 0 -65 0 0 -140 0 -140
65 0 65 0 0 -700 0 -700 -65 0 -65 0 0 -140 0 -140 65 0 65 0 0 -285 0 -285
-65 0 -65 0 0 -135 0 -135 65 0 65 0 0 -70 0 -70 -2172 0 c-1195 0 -2210 3
-2255 7 l-83 6 0 353 0 353 118 4 117 3 -117 2 -118 2 0 610 0 610 110 0 c67
0 110 4 110 10 0 6 -43 10 -110 10 l-110 0 0 970 0 970 110 0 c67 0 110 4 110
10 0 6 -43 10 -110 10 l-110 0 0 330 0 329 58 4 57 3 -57 2 -58 2 0 160 0 160
55 0 c30 0 55 5 55 10 0 6 -25 10 -55 10 l-55 0 0 610 0 609 118 4 117 3 -117
2 -118 2 0 980 c0 647 -3 980 -10 980 -7 0 -10 -1363 -10 -4069z m1980 3229
l0 -120 -55 0 -55 0 0 120 0 120 55 0 55 0 0 -120z m140 0 l0 -120 -54 0 c-65
0 -66 2 -66 143 l0 97 60 0 60 0 0 -120z m850 -2245 l0 -125 -55 0 -55 0 0
125 0 125 55 0 55 0 0 -125z m130 0 l0 -125 -55 0 -55 0 0 125 0 125 55 0 55
0 0 -125z m1430 -2245 l0 -120 -55 0 -55 0 0 120 0 120 55 0 55 0 0 -120z
m130 0 l0 -120 -55 0 -55 0 0 120 0 120 55 0 55 0 0 -120z m-130 -1685 l0
-125 -55 0 -55 0 0 125 0 125 55 0 55 0 0 -125z m130 0 l0 -125 -55 0 -55 0 0
125 0 125 55 0 55 0 0 -125z m-130 -840 l0 -125 -55 0 -55 0 0 125 0 125 55 0
55 0 0 -125z m130 0 l0 -125 -55 0 -55 0 0 125 0 125 55 0 55 0 0 -125z"/>
<path d="M10705 15900 c0 -2707 3 -4070 10 -4070 155 -3 6040 2 6043 5 3 3
-81 5 -186 5 l-192 0 0 74 c0 41 -4 78 -10 81 -6 4 -10 -23 -10 -74 l0 -81
-595 0 -595 0 0 65 0 65 -65 0 c-50 0 -65 3 -65 15 0 8 -6 12 -14 9 -9 -4 -15
5 -19 28 -3 18 -12 61 -20 95 -8 34 -12 64 -10 67 2 2 -3 28 -11 57 -9 30 -18
82 -22 117 l-6 62 46 0 46 0 0 70 0 69 93 4 92 3 -92 2 -93 2 0 65 0 65 -74 0
-73 0 -17 73 c-9 39 -19 91 -21 115 -3 24 -15 89 -26 145 -12 56 -25 127 -31
157 -5 30 -13 69 -18 85 -5 17 -14 68 -20 115 -10 74 -28 175 -45 248 -5 21
-2 22 45 22 l50 0 0 140 0 140 -79 0 -79 0 -7 48 c-3 26 -15 90 -25 142 -32
164 -68 354 -130 690 -33 179 -65 345 -70 370 -5 25 -23 122 -40 215 -17 94
-33 180 -36 193 -4 20 -1 22 46 22 l50 0 0 140 0 139 -77 3 -77 3 -7 35 c-3
19 -26 140 -50 268 l-44 232 -80 46 c-107 63 -275 175 -354 237 l-64 51 7 110
c13 225 67 902 74 941 l8 40 67 3 67 3 0 139 0 140 -61 0 c-55 0 -60 2 -53 18
4 9 8 42 10 72 7 161 18 270 26 270 6 0 8 17 4 43 -4 24 -2 64 4 88 7 24 13
76 15 114 9 190 14 236 24 249 7 8 9 31 5 59 -5 31 -1 63 10 98 10 29 14 55 9
58 -10 7 -4 111 6 111 4 0 8 36 8 81 0 53 5 84 13 89 8 5 10 20 6 47 -4 21 -2
61 5 88 6 28 13 77 14 110 2 33 6 98 10 145 4 54 3 81 -3 75 -9 -9 -25 -151
-87 -765 -23 -227 -84 -870 -91 -962 l-7 -87 -71 -3 -71 -3 -3 -67 -3 -67 -37
-4 -37 -4 38 -1 37 -2 0 -65 0 -65 38 -2 c20 -1 48 -1 61 0 23 1 24 0 18 -66
-6 -66 -45 -566 -68 -875 -6 -87 -10 -159 -8 -161 2 -1 36 -27 74 -58 79 -63
210 -150 336 -226 58 -35 89 -60 92 -75 3 -12 24 -121 47 -242 23 -121 44
-230 47 -242 5 -22 2 -23 -51 -23 l-56 0 0 -65 0 -65 -66 0 c-41 0 -63 -4 -59
-10 3 -5 33 -10 65 -10 l59 0 3 -62 3 -63 77 -3 c62 -2 78 -6 82 -20 3 -9 22
-105 41 -212 20 -107 49 -265 66 -350 16 -85 38 -202 49 -260 11 -58 47 -251
80 -430 33 -179 64 -344 69 -367 l8 -41 -56 -4 c-53 -3 -58 -1 -111 41 -30 25
-60 48 -66 53 -7 5 -14 3 -17 -5 -3 -9 23 -36 69 -72 71 -56 74 -59 74 -101 0
-24 -5 -45 -12 -48 -10 -5 -10 -7 0 -12 8 -4 12 -28 12 -70 l0 -64 80 0 c71 0
80 -2 80 -18 0 -10 12 -75 26 -143 14 -68 32 -158 40 -199 7 -41 17 -95 22
-120 6 -25 16 -83 22 -130 7 -47 21 -117 31 -156 10 -38 21 -98 24 -132 l7
-62 -51 0 -52 0 3 -137 3 -138 76 -3 75 -3 17 -67 c9 -37 19 -85 21 -107 3
-22 11 -69 19 -105 8 -36 17 -89 20 -117 l6 -53 -49 0 -50 0 0 -65 0 -65
-2018 0 -2018 0 -64 65 -64 65 -2 229 -2 229 67 65 c63 63 68 66 121 70 l55 3
-56 2 c-55 2 -57 3 -121 70 l-65 67 1 482 1 482 60 61 c58 58 61 60 112 60 29
0 53 5 53 10 0 6 -24 10 -53 10 -53 0 -55 1 -115 64 l-62 64 0 906 0 906 115
0 c70 0 115 4 115 10 0 6 -45 10 -115 10 l-115 0 0 330 0 330 63 1 c54 1 58 2
32 10 -16 5 -45 7 -62 4 l-33 -6 0 161 0 162 88 -6 c81 -5 85 -5 57 9 -16 8
-56 14 -87 15 l-58 0 0 595 c0 479 3 595 13 595 7 0 35 -22 62 -50 27 -27 51
-47 54 -45 3 3 -22 32 -54 65 l-59 60 114 2 115 2 -113 5 -113 6 56 55 c30 30
55 59 55 64 0 6 -26 -15 -58 -47 -32 -31 -60 -57 -62 -57 -3 0 -5 437 -4 970
1 697 -2 970 -10 970 -8 0 -11 -1126 -11 -4070z m3035 2227 c0 -1 -22 -25 -50
-52 l-50 -49 0 52 0 52 50 0 c28 0 50 -1 50 -3z m150 -47 c0 -27 -1 -50 -3
-50 -1 0 -25 23 -52 50 l-49 50 52 0 52 0 0 -50z m-135 -19 l-7 -51 -51 0 -51
0 54 55 c29 30 56 53 58 50 2 -2 1 -27 -3 -54z m68 -113 c-31 -32 -58 -56 -60
-54 -6 6 9 106 16 106 3 0 4 24 3 52 l-4 53 51 -50 51 -49 -57 -58z m-73 7 c0
-25 -3 -45 -7 -45 -10 0 -83 72 -83 82 0 4 20 8 45 8 l45 0 0 -45z m-51 -57
c-5 -10 -21 -18 -34 -18 -23 0 -25 3 -25 52 l0 52 35 -34 c27 -27 32 -37 24
-52z m191 32 l0 -50 -50 0 c-27 0 -50 3 -50 7 0 10 82 93 92 93 4 0 8 -22 8
-50z m375 -2071 c4 -11 15 -65 25 -120 l17 -99 -68 0 -69 0 0 55 0 55 45 0
c25 0 45 5 45 10 0 6 -20 10 -45 10 l-45 0 0 55 0 55 44 0 c36 0 46 -4 51 -21z
m155 -100 l0 -120 -47 3 -47 3 -17 85 c-9 47 -19 100 -22 118 l-6 32 69 0 70
0 0 -121z m216 -1866 c3 -16 8 -36 11 -45 6 -26 2 -23 -47 27 l-44 45 37 0
c32 0 37 -4 43 -27z m89 -23 c-27 -27 -52 -47 -56 -42 -4 4 -10 26 -14 50 l-7
42 63 0 63 0 -49 -50z m-3950 -10 l49 -50 -38 0 c-33 0 -37 2 -26 15 16 19 5
34 -12 17 -21 -21 -28 -13 -28 28 0 22 1 40 3 40 1 0 25 -22 52 -50z m4015
-62 l0 -112 -51 49 c-43 43 -47 50 -30 53 28 4 27 22 -1 22 -19 0 -16 7 27 50
27 28 51 50 52 50 2 0 3 -50 3 -112z m-179 46 l33 -34 -52 0 -52 0 0 33 c0 45
28 45 71 1z m-3831 -99 c-24 -25 -48 -45 -52 -45 -4 0 -8 20 -8 45 l0 45 52 0
52 0 -44 -45z m3860 42 c0 -1 -22 -25 -50 -52 l-50 -49 0 52 0 52 50 0 c28 0
50 -1 50 -3z m30 -71 l8 -36 -61 0 -61 0 44 45 c48 49 57 47 70 -9z m65 4 l39
-40 -42 0 c-23 0 -42 4 -42 9 0 5 -3 23 -6 40 -9 41 4 39 51 -9z m129 -1047
c2 -10 8 -34 11 -53 l7 -35 -46 45 c-25 24 -46 48 -46 52 0 4 15 8 34 8 24 0
36 -5 40 -17z m91 -33 c-27 -27 -52 -47 -56 -42 -4 4 -10 26 -14 50 l-7 42 63
0 63 0 -49 -50z m-4135 -62 c0 -4 -22 -8 -50 -8 l-50 0 0 43 c0 24 3 47 7 51
7 7 93 -72 93 -86z m4008 39 l52 -53 -55 -54 -55 -54 0 107 c0 59 1 107 3 107
1 0 26 -24 55 -53z m192 3 c0 -48 -1 -50 -27 -51 l-28 -2 28 -4 c25 -4 27 -8
27 -54 0 -27 -4 -49 -8 -49 -4 0 -30 23 -57 50 l-49 50 54 55 c30 30 56 55 57
55 2 0 3 -22 3 -50z m-4200 -67 c0 -9 -82 -93 -91 -93 -3 0 -6 22 -5 50 l1 50
48 0 c26 0 47 -3 47 -7z m4074 -65 l7 -48 -58 0 -57 0 49 50 c27 27 50 49 51
47 1 -1 5 -23 8 -49z m76 -46 c-39 -4 -39 -4 -47 44 l-6 39 42 -40 42 -40 -31
-3z m32 -526 c5 -21 7 -40 5 -42 -2 -2 -23 17 -48 42 l-44 45 40 -3 c37 -3 40
-5 47 -42z m138 41 c0 -1 -22 -25 -50 -52 l-50 -49 0 52 0 52 50 0 c28 0 50
-1 50 -3z m-4360 -62 l44 -45 -46 0 c-43 0 -46 2 -52 31 -14 73 -6 75 54 14z
m4220 -47 c0 -4 -20 -8 -45 -8 l-45 0 0 52 0 52 45 -44 c25 -24 45 -48 45 -52z
m150 42 l0 -50 -45 0 c-25 0 -45 3 -45 7 0 7 81 93 87 93 2 0 3 -22 3 -50z"/>
<path d="M3210 19836 c0 -22 3 -27 11 -19 8 8 8 16 0 30 -9 16 -10 14 -11 -11z"/>
<path d="M3270 18686 c0 -14 5 -26 10 -26 6 0 10 9 10 19 0 11 -4 23 -10 26
-6 4 -10 -5 -10 -19z"/>
<path d="M3280 18515 c0 -14 5 -25 10 -25 6 0 10 11 10 25 0 14 -4 25 -10 25
-5 0 -10 -11 -10 -25z"/>
<path d="M3291 18351 c-1 -24 2 -32 9 -25 7 7 7 19 1 35 -9 23 -10 22 -10 -10z"/>
<path d="M3300 18185 c0 -14 4 -25 9 -25 4 0 6 11 3 25 -2 14 -6 25 -8 25 -2
0 -4 -11 -4 -25z"/>
<path d="M1798 18003 c34 -2 90 -2 125 0 34 2 6 3 -63 3 -69 0 -97 -1 -62 -3z"/>
<path d="M2268 18003 c34 -2 90 -2 125 0 34 2 6 3 -63 3 -69 0 -97 -1 -62 -3z"/>
<path d="M2738 18003 c34 -2 90 -2 125 0 34 2 6 3 -63 3 -69 0 -97 -1 -62 -3z"/>
<path d="M4628 18003 c34 -2 90 -2 125 0 34 2 6 3 -63 3 -69 0 -97 -1 -62 -3z"/>
<path d="M5103 18003 c37 -2 96 -2 130 0 34 2 4 3 -68 3 -71 0 -99 -1 -62 -3z"/>
<path d="M5578 18003 c34 -2 90 -2 125 0 34 2 6 3 -63 3 -69 0 -97 -1 -62 -3z"/>
<path d="M6048 18003 c34 -2 90 -2 125 0 34 2 6 3 -63 3 -69 0 -97 -1 -62 -3z"/>
<path d="M6518 18003 c34 -2 90 -2 125 0 34 2 6 3 -63 3 -69 0 -97 -1 -62 -3z"/>
<path d="M6993 18003 c37 -2 96 -2 130 0 34 2 4 3 -68 3 -71 0 -99 -1 -62 -3z"/>
<path d="M11248 18003 c34 -2 90 -2 125 0 34 2 6 3 -63 3 -69 0 -97 -1 -62 -3z"/>
<path d="M11718 18003 c34 -2 90 -2 125 0 34 2 6 3 -63 3 -69 0 -97 -1 -62 -3z"/>
<path d="M12188 18003 c34 -2 90 -2 125 0 34 2 6 3 -63 3 -69 0 -97 -1 -62 -3z"/>
<path d="M12658 18003 c34 -2 90 -2 125 0 34 2 6 3 -63 3 -69 0 -97 -1 -62 -3z"/>
<path d="M13138 18003 c34 -2 90 -2 125 0 34 2 6 3 -63 3 -69 0 -97 -1 -62 -3z"/>
<path d="M14078 18003 c34 -2 90 -2 125 0 34 2 6 3 -63 3 -69 0 -97 -1 -62 -3z"/>
<path d="M14548 18003 c34 -2 90 -2 125 0 34 2 6 3 -63 3 -69 0 -97 -1 -62 -3z"/>
<path d="M15028 18003 c34 -2 90 -2 125 0 34 2 6 3 -63 3 -69 0 -97 -1 -62 -3z"/>
<path d="M15498 18003 c34 -2 90 -2 125 0 34 2 6 3 -63 3 -69 0 -97 -1 -62 -3z"/>
<path d="M15968 18003 c34 -2 90 -2 125 0 34 2 6 3 -63 3 -69 0 -97 -1 -62 -3z"/>
<path d="M16438 18003 c34 -2 90 -2 125 0 34 2 6 3 -63 3 -69 0 -97 -1 -62 -3z"/>
<path d="M3311 17873 c0 -5 4 -17 9 -28 8 -18 9 -17 9 8 1 15 -3 27 -9 27 -5
0 -10 -3 -9 -7z"/>
<path d="M10797 17873 c-6 -10 121 -193 134 -193 19 0 7 24 -53 111 -59 85
-71 98 -81 82z"/>
<path d="M13630 17741 c-7 -14 -7 -22 1 -27 12 -7 29 12 29 34 0 19 -18 14
-30 -7z"/>
<path d="M3320 17691 c0 -11 5 -23 10 -26 6 -4 10 5 10 19 0 14 -4 26 -10 26
-5 0 -10 -9 -10 -19z"/>
<path d="M13566 17594 c-10 -25 -7 -34 9 -34 8 0 15 4 15 9 0 5 3 16 6 25 4
10 1 16 -9 16 -8 0 -18 -7 -21 -16z"/>
<path d="M10996 17581 c-8 -12 30 -58 40 -48 8 8 -15 57 -27 57 -4 0 -10 -4
-13 -9z"/>
<path d="M3330 17525 c0 -14 5 -25 10 -25 6 0 10 11 10 25 0 14 -4 25 -10 25
-5 0 -10 -11 -10 -25z"/>
<path d="M13500 17441 c-13 -26 -13 -31 4 -31 13 0 26 20 26 41 0 16 -19 10
-30 -10z"/>
<path d="M11090 17433 c0 -5 30 -52 67 -106 44 -65 70 -94 77 -87 12 12 -112
199 -131 200 -7 0 -13 -3 -13 -7z"/>
<path d="M3340 17360 c0 -11 5 -20 10 -20 6 0 10 9 10 20 0 11 -4 20 -10 20
-5 0 -10 -9 -10 -20z"/>
<path d="M13435 17290 c-10 -32 6 -46 21 -19 7 13 10 27 8 31 -9 14 -23 8 -29
-12z"/>
<path d="M3350 17195 c0 -14 5 -25 10 -25 6 0 10 11 10 25 0 14 -4 25 -10 25
-5 0 -10 -11 -10 -25z"/>
<path d="M13370 17140 c-8 -15 -9 -25 -2 -32 7 -7 14 -3 22 12 8 15 9 25 2 32
-7 7 -14 3 -22 -12z"/>
<path d="M11296 17142 c-8 -14 14 -52 31 -52 18 0 16 14 -5 41 -13 14 -21 18
-26 11z"/>
<path d="M3360 17036 c0 -14 5 -26 10 -26 6 0 10 9 10 19 0 11 -4 23 -10 26
-6 4 -10 -5 -10 -19z"/>
<path d="M11390 16989 c0 -19 122 -189 136 -189 8 0 14 2 14 5 0 3 -30 48 -66
100 -61 88 -84 111 -84 84z"/>
<path d="M13300 16981 c-7 -14 -7 -22 1 -27 12 -7 29 12 29 34 0 19 -18 14
-30 -7z"/>
<path d="M3370 16868 c0 -16 5 -28 10 -28 13 0 13 20 0 40 -8 12 -10 9 -10
-12z"/>
<path d="M811 16834 c-20 -25 -28 -54 -15 -54 3 0 13 9 22 21 14 17 26 20 72
17 l54 -3 -72 -54 c-65 -48 -92 -76 -92 -97 0 -3 7 -1 15 6 13 10 23 10 54 -4
52 -24 81 -18 104 22 22 38 16 53 -11 29 -12 -11 -36 -17 -72 -17 l-53 0 49
37 c69 51 114 95 114 110 0 10 -4 11 -19 1 -15 -9 -25 -9 -46 0 -44 20 -81 15
-104 -14z"/>
<path d="M10261 16834 c-22 -28 -27 -54 -11 -54 6 0 10 7 10 15 0 18 34 27 90
23 l43 -3 -79 -60 c-43 -33 -80 -68 -82 -78 -3 -16 -1 -16 15 -6 15 9 26 8 51
-5 17 -9 39 -16 50 -16 20 0 55 34 65 63 8 21 -1 22 -24 1 -12 -11 -32 -14
-70 -12 l-52 3 61 43 c59 41 102 85 102 103 0 5 -9 4 -20 -3 -15 -10 -26 -10
-53 0 -50 18 -73 15 -96 -14z"/>
<path d="M13235 16829 c-9 -29 4 -38 21 -15 18 25 18 36 0 36 -8 0 -18 -9 -21
-21z"/>
<path d="M3435 16760 c3 -5 15 -10 26 -10 11 0 17 5 14 10 -3 6 -15 10 -26 10
-11 0 -17 -4 -14 -10z"/>
<path d="M13540 16760 c0 -5 9 -10 19 -10 11 0 23 5 26 10 4 6 -5 10 -19 10
-14 0 -26 -4 -26 -10z"/>
<path d="M3595 16740 c3 -5 15 -10 26 -10 11 0 17 5 14 10 -3 6 -15 10 -26 10
-11 0 -17 -4 -14 -10z"/>
<path d="M11010 16740 c0 -5 14 -10 30 -10 17 0 30 5 30 10 0 6 -13 10 -30 10
-16 0 -30 -4 -30 -10z"/>
<path d="M13370 16740 c0 -5 9 -10 19 -10 11 0 23 5 26 10 4 6 -5 10 -19 10
-14 0 -26 -4 -26 -10z"/>
<path d="M1087 16723 c-4 -3 -7 -15 -7 -25 0 -10 -10 -23 -22 -28 -13 -5 -17
-9 -10 -9 9 -1 12 -16 10 -52 -4 -63 18 -85 51 -54 12 10 19 20 16 23 -3 3
-14 -3 -25 -13 -20 -18 -20 -17 -20 7 0 41 21 88 38 88 14 0 14 2 3 9 -9 6
-11 18 -7 35 6 25 -10 37 -27 19z"/>
<path d="M3760 16720 c0 -5 12 -10 28 -9 24 0 25 1 7 9 -27 12 -35 12 -35 0z"/>
<path d="M10529 16700 c-6 -17 -18 -30 -27 -30 -13 0 -14 -2 -4 -9 10 -6 12
-21 7 -53 -5 -35 -3 -47 10 -58 18 -15 45 -5 53 21 3 9 -2 8 -17 -5 -21 -19
-21 -19 -21 1 0 47 14 85 34 93 12 5 15 9 7 9 -9 1 -12 10 -9 31 3 21 0 30 -9
30 -8 0 -19 -13 -24 -30z"/>
<path d="M11202 16721 c15 -5 71 -12 125 -15 63 -4 88 -3 71 3 -15 5 -71 12
-125 15 -63 4 -88 3 -71 -3z"/>
<path d="M13210 16720 c0 -12 8 -12 35 0 18 8 17 9 -7 9 -16 1 -28 -3 -28 -9z"/>
<path d="M13060 16710 c-24 -8 -23 -8 8 -9 20 -1 31 3 27 9 -3 6 -7 10 -8 9
-1 -1 -13 -5 -27 -9z"/>
<path d="M11573 16702 c-39 -4 -44 -22 -7 -22 15 0 33 -8 40 -17 8 -12 16 -15
23 -8 19 18 -20 51 -56 47z"/>
<path d="M3935 16690 c27 -12 35 -12 35 0 0 6 -12 10 -27 9 -25 0 -26 -1 -8
-9z"/>
<path d="M12895 16690 c-18 -8 -17 -9 8 -9 15 -1 27 4 27 9 0 12 -8 12 -35 0z"/>
<path d="M13170 16691 c0 -5 -3 -16 -6 -25 -4 -10 -1 -16 9 -16 14 0 27 20 27
41 0 5 -7 9 -15 9 -8 0 -15 -4 -15 -9z"/>
<path d="M4085 16670 c3 -5 15 -10 26 -10 10 0 19 5 19 10 0 6 -12 10 -26 10
-14 0 -23 -4 -19 -10z"/>
<path d="M11713 16673 c4 -6 52 -14 108 -18 56 -4 108 -9 116 -12 7 -3 13 -1
13 5 0 10 -37 16 -169 28 -49 5 -72 3 -68 -3z"/>
<path d="M12720 16670 c-12 -8 -9 -10 13 -10 15 0 27 5 27 10 0 13 -20 13 -40
0z"/>
<path d="M12550 16650 c0 -5 11 -10 25 -10 14 0 25 5 25 10 0 6 -11 10 -25 10
-14 0 -25 -4 -25 -10z"/>
<path d="M12070 16640 c0 -5 15 -10 33 -9 27 0 29 2 12 9 -28 12 -45 12 -45 0z"/>
<path d="M12390 16629 c0 -9 -20 -10 -69 -5 -66 6 -101 1 -101 -13 0 -3 43 -7
96 -7 52 -1 111 -5 130 -8 21 -4 34 -3 34 4 0 5 -17 10 -37 10 -35 0 -36 1
-17 15 18 14 18 14 -8 15 -16 0 -28 -5 -28 -11z"/>
<path d="M4410 16626 c0 -2 11 -6 25 -8 14 -3 25 -1 25 3 0 5 -11 9 -25 9 -14
0 -25 -2 -25 -4z"/>
<path d="M4580 16600 c20 -13 40 -13 40 0 0 6 -12 10 -27 10 -22 0 -25 -2 -13
-10z"/>
<path d="M12060 16590 c0 -12 8 -12 35 0 18 8 17 9 -7 9 -16 1 -28 -3 -28 -9z"/>
<path d="M12594 16588 c-3 -4 11 -8 30 -8 20 0 36 2 36 4 0 8 -61 12 -66 4z"/>
<path d="M4740 16580 c0 -5 12 -10 26 -10 14 0 23 4 19 10 -3 6 -15 10 -26 10
-10 0 -19 -4 -19 -10z"/>
<path d="M11903 16573 c9 -2 23 -2 30 0 6 3 -1 5 -18 5 -16 0 -22 -2 -12 -5z"/>
<path d="M12770 16572 c0 -5 33 -12 73 -16 39 -4 93 -9 120 -13 28 -3 47 -2
47 4 0 6 -35 13 -77 17 -43 3 -97 9 -120 12 -26 4 -43 2 -43 -4z"/>
<path d="M4900 16560 c0 -5 12 -10 28 -9 24 0 25 1 7 9 -27 12 -35 12 -35 0z"/>
<path d="M11745 16560 c-18 -8 -17 -9 8 -9 15 -1 27 4 27 9 0 12 -8 12 -35 0z"/>
<path d="M11687 16554 c-11 -11 124 -203 139 -197 9 3 -6 34 -53 104 -64 96
-73 106 -86 93z"/>
<path d="M11575 16540 c-18 -8 -17 -9 8 -9 15 -1 27 4 27 9 0 12 -8 12 -35 0z"/>
<path d="M13105 16530 c-9 -29 3 -39 20 -17 9 13 20 17 34 12 12 -4 21 -2 21
4 0 6 -9 11 -19 11 -11 0 -26 3 -34 6 -10 3 -18 -2 -22 -16z"/>
<path d="M5080 16530 c19 -13 30 -13 30 0 0 6 -10 10 -22 10 -19 0 -20 -2 -8
-10z"/>
<path d="M746 16499 c-14 -17 -26 -34 -26 -38 0 -19 14 -18 29 0 13 17 26 20
69 17 l54 -3 -66 -48 c-62 -45 -96 -81 -96 -99 0 -5 9 -3 19 4 15 9 25 9 46 0
44 -20 81 -15 104 14 21 27 28 54 13 54 -4 0 -13 -9 -20 -20 -10 -16 -23 -20
-70 -20 l-57 1 30 22 c79 58 130 105 133 121 3 15 1 16 -17 5 -17 -11 -26 -10
-56 4 -49 23 -59 22 -89 -14z"/>
<path d="M10202 16513 c-20 -18 -39 -63 -27 -63 4 0 13 7 21 15 10 10 35 15
72 15 l57 -1 -30 -22 c-79 -58 -130 -105 -133 -121 -3 -15 -1 -16 16 -5 16 10
26 10 47 1 44 -20 81 -15 104 14 20 25 28 54 15 54 -3 0 -13 -9 -22 -21 -14
-17 -26 -20 -72 -17 l-55 3 67 48 c62 44 98 80 98 99 0 5 -9 3 -19 -4 -16 -10
-27 -9 -56 5 -45 21 -58 21 -83 0z"/>
<path d="M11410 16520 c-12 -8 -9 -10 13 -10 15 0 27 5 27 10 0 13 -20 13 -40
0z"/>
<path d="M13300 16522 c0 -5 27 -12 60 -16 33 -3 88 -9 121 -12 41 -5 60 -3
56 3 -4 6 -48 14 -99 17 -51 4 -103 10 -115 13 -13 3 -23 1 -23 -5z"/>
<path d="M5235 16510 c3 -5 15 -10 26 -10 10 0 19 5 19 10 0 6 -12 10 -26 10
-14 0 -23 -4 -19 -10z"/>
<path d="M11240 16500 c0 -5 9 -10 19 -10 11 0 23 5 26 10 4 6 -5 10 -19 10
-14 0 -26 -4 -26 -10z"/>
<path d="M5400 16490 c0 -5 9 -10 21 -10 11 0 17 5 14 10 -3 6 -13 10 -21 10
-8 0 -14 -4 -14 -10z"/>
<path d="M11075 16480 c-4 -6 5 -10 19 -10 14 0 26 5 26 10 0 6 -9 10 -19 10
-11 0 -23 -4 -26 -10z"/>
<path d="M13665 16480 c28 -12 45 -12 45 0 0 6 -15 10 -32 9 -28 0 -30 -2 -13
-9z"/>
<path d="M5560 16469 c0 -5 11 -9 25 -9 14 0 25 2 25 4 0 2 -11 6 -25 8 -14 3
-25 1 -25 -3z"/>
<path d="M13830 16469 c0 -8 53 -16 165 -25 44 -4 77 -3 73 1 -10 10 -238 33
-238 24z"/>
<path d="M10910 16460 c0 -5 11 -10 25 -10 14 0 25 5 25 10 0 6 -11 10 -25 10
-14 0 -25 -4 -25 -10z"/>
<path d="M5730 16440 c20 -13 40 -13 40 0 0 6 -12 10 -27 10 -22 0 -25 -2 -13
-10z"/>
<path d="M995 16378 c3 -13 -4 -54 -15 -93 -24 -83 -24 -85 -5 -85 8 0 19 16
24 38 14 50 38 82 63 82 15 0 18 -4 13 -17 -17 -43 -17 -79 0 -93 20 -17 48
-3 53 26 3 18 2 18 -8 2 -6 -10 -17 -18 -25 -18 -11 0 -12 6 -5 26 22 57 -2
104 -45 88 -14 -6 -15 -1 -10 30 7 34 6 36 -19 36 -22 0 -26 -3 -21 -22z"/>
<path d="M10445 16380 c3 -10 -3 -50 -14 -88 -24 -78 -25 -92 -11 -92 5 0 22
26 37 58 20 41 34 57 48 57 13 0 19 -5 16 -15 -13 -47 -12 -77 4 -90 20 -17
48 -3 53 26 3 18 2 18 -11 2 -22 -28 -38 -23 -27 8 22 58 -2 104 -46 87 -15
-5 -16 -2 -10 30 7 35 5 37 -19 37 -22 0 -25 -4 -20 -20z"/>
<path d="M13040 16391 c0 -5 -3 -16 -6 -25 -4 -10 -1 -16 9 -16 16 0 30 27 21
41 -7 12 -24 12 -24 0z"/>
<path d="M5790 16326 c0 -14 5 -26 10 -26 6 0 10 9 10 19 0 11 -4 23 -10 26
-6 4 -10 -5 -10 -19z"/>
<path d="M11886 16261 c-8 -12 30 -58 40 -48 8 8 -15 57 -27 57 -4 0 -10 -4
-13 -9z"/>
<path d="M12974 16234 c-4 -10 -9 -22 -11 -26 -2 -5 3 -8 12 -8 20 0 31 28 17
42 -8 8 -13 6 -18 -8z"/>
<path d="M5790 16154 c0 -14 4 -23 10 -19 6 3 10 15 10 26 0 10 -4 19 -10 19
-5 0 -10 -12 -10 -26z"/>
<path d="M11986 16112 c-9 -15 125 -205 136 -194 6 6 -12 42 -54 106 -62 94
-72 104 -82 88z"/>
<path d="M12904 16075 c-7 -17 4 -38 15 -30 5 2 11 14 14 25 6 23 -20 29 -29
5z"/>
<path d="M5790 15996 c0 -14 5 -26 10 -26 6 0 10 9 10 19 0 11 -4 23 -10 26
-6 4 -10 -5 -10 -19z"/>
<path d="M12836 15923 c-4 -9 -2 -21 4 -27 12 -12 15 -8 24 22 9 27 -18 32
-28 5z"/>
<path d="M12097 15893 c-4 -4 18 -33 50 -65 l57 -58 -37 0 c-23 0 -36 -4 -32
-10 3 -5 20 -10 38 -10 l31 0 -59 -60 c-33 -33 -55 -60 -50 -60 5 0 37 27 70
60 l61 60 59 -60 c33 -33 66 -60 74 -60 7 0 38 -20 67 -45 51 -44 74 -55 74
-35 0 12 -171 150 -186 150 -6 0 -21 11 -34 25 l-23 25 56 0 c31 0 57 5 57 10
0 6 -27 10 -62 10 l-62 0 57 58 c31 32 57 62 57 67 0 5 -29 -19 -63 -53 l-64
-63 -17 26 c-10 15 -20 24 -24 21 -3 -4 -24 12 -47 34 -23 22 -44 37 -48 33z"/>
<path d="M12710 15835 c-35 -36 -72 -65 -82 -65 -10 0 -18 -4 -18 -10 0 -5 10
-10 22 -10 14 0 47 -24 88 -65 l66 -65 69 70 69 70 -69 70 c-38 39 -72 70 -75
70 -3 0 -35 -29 -70 -65z m135 -135 l-60 -60 -55 56 -55 55 50 -1 c86 -3 115
0 115 10 0 6 -9 10 -19 10 -11 0 -21 6 -24 13 -4 10 -7 10 -18 0 -7 -7 -33
-13 -58 -13 l-45 0 54 55 55 55 60 -60 60 -60 -60 -60z"/>
<path d="M50 15875 c10 -13 10 -23 -4 -54 -24 -52 -18 -81 22 -104 35 -21 59
-14 29 7 -13 10 -17 28 -17 71 l0 58 50 -66 c49 -64 84 -97 105 -97 5 0 2 7
-8 14 -17 13 -17 17 -3 51 9 21 16 48 16 60 0 24 -42 65 -66 65 -20 0 -17 -9
7 -28 17 -14 20 -26 17 -72 l-3 -54 -54 72 c-48 65 -76 92 -97 92 -3 0 -1 -7
6 -15z"/>
<path d="M5790 15824 c0 -14 4 -23 10 -19 6 3 10 15 10 26 0 10 -4 19 -10 19
-5 0 -10 -12 -10 -26z"/>
<path d="M1740 15760 c0 -6 45 -10 114 -10 66 0 117 4 121 10 4 6 -37 10 -114
10 -74 0 -121 -4 -121 -10z"/>
<path d="M2215 15760 c4 -6 55 -10 121 -10 69 0 114 4 114 10 0 6 -47 10 -121
10 -77 0 -118 -4 -114 -10z"/>
<path d="M2690 15760 c0 -6 45 -10 115 -10 70 0 115 4 115 10 0 6 -45 10 -115
10 -70 0 -115 -4 -115 -10z"/>
<path d="M3160 15760 c0 -6 45 -10 115 -10 70 0 115 4 115 10 0 6 -45 10 -115
10 -70 0 -115 -4 -115 -10z"/>
<path d="M3630 15760 c0 -6 45 -10 114 -10 66 0 117 4 121 10 4 6 -37 10 -114
10 -74 0 -121 -4 -121 -10z"/>
<path d="M5990 15760 c0 -6 47 -10 120 -10 73 0 120 4 120 10 0 6 -47 10 -120
10 -73 0 -120 -4 -120 -10z"/>
<path d="M6465 15760 c4 -6 55 -10 121 -10 69 0 114 4 114 10 0 6 -47 10 -121
10 -77 0 -118 -4 -114 -10z"/>
<path d="M6940 15760 c0 -6 45 -10 115 -10 70 0 115 4 115 10 0 6 -45 10 -115
10 -70 0 -115 -4 -115 -10z"/>
<path d="M11190 15760 c0 -6 45 -10 114 -10 66 0 117 4 121 10 4 6 -37 10
-114 10 -74 0 -121 -4 -121 -10z"/>
<path d="M11660 15760 c0 -6 47 -10 120 -10 73 0 120 4 120 10 0 6 -47 10
-120 10 -73 0 -120 -4 -120 -10z"/>
<path d="M13080 15760 c0 -6 45 -10 115 -10 70 0 115 4 115 10 0 6 -45 10
-115 10 -70 0 -115 -4 -115 -10z"/>
<path d="M13550 15760 c0 -6 45 -10 114 -10 66 0 117 4 121 10 4 6 -37 10
-114 10 -74 0 -121 -4 -121 -10z"/>
<path d="M14500 15760 c0 -6 45 -10 115 -10 70 0 115 4 115 10 0 6 -45 10
-115 10 -70 0 -115 -4 -115 -10z"/>
<path d="M14970 15760 c0 -6 45 -10 115 -10 70 0 115 4 115 10 0 6 -45 10
-115 10 -70 0 -115 -4 -115 -10z"/>
<path d="M15440 15760 c0 -6 45 -10 114 -10 66 0 117 4 121 10 4 6 -37 10
-114 10 -74 0 -121 -4 -121 -10z"/>
<path d="M15915 15760 c4 -6 55 -10 121 -10 69 0 114 4 114 10 0 6 -47 10
-121 10 -77 0 -118 -4 -114 -10z"/>
<path d="M16390 15760 c0 -6 45 -10 115 -10 70 0 115 4 115 10 0 6 -45 10
-115 10 -70 0 -115 -4 -115 -10z"/>
<path d="M12656 15661 c-12 -14 -14 -21 -6 -26 17 -10 47 22 34 35 -7 7 -16 4
-28 -9z"/>
<path d="M12534 15545 c-14 -10 -16 -17 -8 -25 7 -7 15 -5 28 9 21 23 6 36
-20 16z"/>
<path d="M12586 15471 c-8 -12 31 -44 44 -36 8 5 6 13 -6 26 -19 21 -30 24
-38 10z"/>
<path d="M12416 15431 c-12 -14 -14 -21 -6 -26 17 -10 47 22 34 35 -7 7 -16 4
-28 -9z"/>
<path d="M12725 15360 c-4 -6 -5 -13 -4 -14 2 -1 41 -33 85 -69 45 -37 87 -67
93 -67 25 0 7 22 -66 81 -106 85 -100 81 -108 69z"/>
<path d="M12290 15315 c-19 -23 -1 -39 21 -19 10 9 19 21 19 26 0 13 -27 9
-40 -7z"/>
<path d="M12176 15201 c-21 -23 -6 -36 20 -16 14 10 16 17 8 25 -7 7 -15 5
-28 -9z"/>
<path d="M12996 15141 c-3 -4 5 -18 18 -30 23 -22 46 -15 31 9 -10 16 -43 31
-49 21z"/>
<path d="M12056 15091 c-12 -14 -14 -21 -6 -26 17 -10 47 22 34 35 -7 7 -16 4
-28 -9z"/>
<path d="M13135 15030 c-4 -7 -3 -15 1 -19 27 -23 161 -128 171 -134 6 -4 14
-3 17 2 3 5 -29 38 -71 73 -114 93 -110 91 -118 78z"/>
<path d="M11935 14977 c-10 -8 -15 -19 -11 -26 6 -9 13 -8 27 5 33 30 20 47
-16 21z"/>
<path d="M11816 14861 c-12 -14 -14 -21 -6 -26 17 -10 47 22 34 35 -7 7 -16 4
-28 -9z"/>
<path d="M5129 14713 l-46 -138 -38 115 c-21 63 -42 121 -48 128 -11 14 -57
16 -57 2 0 -5 7 -10 15 -10 13 0 15 -22 15 -135 0 -113 -2 -135 -15 -135 -8 0
-15 -4 -15 -10 0 -5 18 -10 40 -10 22 0 40 5 40 10 0 6 -7 10 -15 10 -12 0
-15 18 -14 108 l1 107 42 -125 43 -125 42 128 c24 70 45 127 47 127 2 0 4 -49
4 -110 0 -103 -1 -110 -20 -110 -11 0 -20 -4 -20 -10 0 -5 23 -10 50 -10 28 0
50 5 50 10 0 6 -7 10 -15 10 -13 0 -15 22 -15 135 0 113 2 135 15 135 8 0 15
5 15 10 0 6 -11 10 -24 10 -13 0 -26 5 -28 10 -2 6 -24 -51 -49 -127z"/>
<path d="M2965 14820 c-3 -5 3 -10 14 -10 20 0 21 -5 21 -135 0 -111 -3 -135
-14 -135 -8 0 -18 -4 -21 -10 -4 -6 33 -10 104 -10 l111 0 0 45 c0 52 -17 61
-22 13 -3 -33 -3 -33 -65 -36 l-63 -3 0 136 c0 113 2 135 15 135 8 0 15 5 15
10 0 6 -20 10 -44 10 -25 0 -48 -4 -51 -10z"/>
<path d="M3985 14821 c-3 -7 2 -11 14 -11 20 0 21 -5 21 -134 0 -130 -1 -134
-22 -141 -22 -8 -22 -8 4 -12 15 -2 42 -2 60 0 30 4 31 5 11 12 -22 7 -23 13
-25 149 l-3 141 -27 3 c-14 2 -29 -2 -33 -7z"/>
<path d="M4360 14820 c0 -5 7 -10 15 -10 13 0 15 -22 15 -135 0 -113 -2 -135
-15 -135 -8 0 -15 -4 -15 -10 0 -5 18 -10 40 -10 22 0 40 5 40 10 0 6 -7 10
-15 10 -12 0 -15 19 -15 115 0 63 2 115 4 115 2 0 41 -60 87 -132 l84 -133 3
153 c2 126 5 152 17 152 8 0 15 5 15 10 0 6 -18 10 -40 10 -22 0 -40 -4 -40
-10 0 -5 7 -10 15 -10 12 0 15 -19 15 -112 l0 -112 -72 115 c-40 62 -77 117
-83 121 -15 11 -55 10 -55 -2z"/>
<path d="M4670 14778 c0 -55 16 -57 22 -3 3 26 8 30 36 33 l32 3 0 -135 c0
-114 -2 -136 -15 -136 -8 0 -15 -4 -15 -10 0 -5 23 -10 50 -10 28 0 50 5 50
10 0 6 -7 10 -15 10 -13 0 -15 22 -15 136 l0 135 33 -3 c27 -3 32 -7 35 -33 6
-54 22 -52 22 3 l0 52 -110 0 -110 0 0 -52z"/>
<path d="M5285 14820 c-3 -5 3 -10 14 -10 20 0 21 -5 21 -135 0 -111 -3 -135
-14 -135 -8 0 -18 -4 -21 -10 -4 -6 33 -10 104 -10 l111 0 0 45 c0 25 -4 45
-10 45 -5 0 -10 -9 -10 -19 0 -44 -10 -51 -71 -51 l-59 0 0 135 c0 113 2 135
15 135 8 0 15 5 15 10 0 6 -20 10 -44 10 -25 0 -48 -4 -51 -10z"/>
<path d="M13410 14802 c0 -16 39 -44 50 -37 8 5 6 13 -6 26 -17 19 -44 26 -44
11z"/>
<path d="M11691 14746 c-9 -10 -9 -16 -1 -21 12 -7 40 11 40 26 0 14 -26 10
-39 -5z"/>
<path d="M3285 14721 c-40 -17 -60 -51 -60 -102 0 -67 27 -94 95 -94 38 0 55
5 72 23 12 12 17 22 11 22 -6 0 -16 -7 -23 -15 -7 -9 -29 -15 -50 -15 -30 0
-43 6 -59 26 -12 15 -21 35 -21 45 0 17 9 19 86 19 l86 0 -6 28 c-14 56 -75
86 -131 63z m79 -17 c9 -3 16 -17 16 -30 0 -23 -3 -24 -60 -24 -46 0 -60 3
-60 14 0 32 63 56 104 40z"/>
<path d="M3460 14720 c0 -5 6 -10 13 -10 7 0 30 -41 51 -90 21 -50 42 -92 46
-95 4 -3 24 35 45 83 20 48 43 92 51 98 23 18 16 24 -26 24 -22 0 -40 -4 -40
-10 0 -5 9 -10 20 -10 11 0 20 -2 20 -4 0 -11 -61 -138 -64 -135 -15 15 -55
134 -46 137 25 9 6 22 -30 22 -22 0 -40 -4 -40 -10z"/>
<path d="M3800 14723 c-28 -10 -59 -45 -65 -74 -21 -96 90 -168 162 -104 15
13 23 25 17 25 -6 0 -17 -7 -24 -15 -7 -9 -29 -15 -50 -15 -30 0 -43 6 -59 26
-12 15 -21 35 -21 45 0 17 9 19 85 19 79 0 85 1 85 21 0 31 -53 79 -87 78 -15
0 -35 -3 -43 -6z m90 -32 c19 -36 12 -41 -55 -41 -50 0 -65 3 -65 14 0 41 100
63 120 27z"/>
<path d="M13546 14692 c-5 -8 169 -152 184 -152 24 0 4 23 -76 89 -86 71 -99
78 -108 63z"/>
<path d="M11576 14631 c-21 -23 -6 -36 20 -16 14 10 16 17 8 25 -7 7 -15 5
-28 -9z"/>
<path d="M11456 14521 c-12 -14 -14 -21 -6 -26 17 -10 47 22 34 35 -7 7 -16 4
-28 -9z"/>
<path d="M13827 14473 c-9 -9 22 -43 40 -43 18 0 16 14 -5 33 -21 19 -26 20
-35 10z"/>
<path d="M11335 14407 c-10 -8 -15 -19 -11 -26 6 -9 13 -8 27 5 33 30 20 47
-16 21z"/>
<path d="M13965 14360 c-4 -6 -5 -13 -4 -14 2 -2 44 -35 92 -74 49 -40 90 -72
93 -72 2 0 4 6 4 14 0 8 -35 43 -77 77 -106 85 -100 81 -108 69z"/>
<path d="M11216 14291 c-12 -14 -14 -21 -6 -26 17 -10 47 22 34 35 -7 7 -16 4
-28 -9z"/>
<path d="M11096 14181 c-12 -14 -14 -21 -6 -26 17 -10 47 22 34 35 -7 7 -16 4
-28 -9z"/>
<path d="M14240 14132 c0 -14 39 -46 47 -38 4 4 2 15 -3 24 -12 19 -44 29 -44
14z"/>
<path d="M10976 14061 c-12 -13 -14 -21 -6 -26 13 -8 40 12 40 31 0 20 -14 17
-34 -5z"/>
<path d="M10856 13951 c-12 -14 -14 -21 -6 -26 17 -10 47 22 34 35 -7 7 -16 4
-28 -9z"/>
<path d="M1740 13800 c0 -6 47 -10 121 -10 77 0 118 4 114 10 -4 6 -55 10
-121 10 -69 0 -114 -4 -114 -10z"/>
<path d="M2215 13800 c-4 -6 37 -10 114 -10 74 0 121 4 121 10 0 6 -45 10
-114 10 -66 0 -117 -4 -121 -10z"/>
<path d="M2690 13800 c0 -6 45 -10 115 -10 70 0 115 4 115 10 0 6 -45 10 -115
10 -70 0 -115 -4 -115 -10z"/>
<path d="M3160 13800 c0 -6 45 -10 115 -10 70 0 115 4 115 10 0 6 -45 10 -115
10 -70 0 -115 -4 -115 -10z"/>
<path d="M3630 13800 c0 -6 47 -10 121 -10 77 0 118 4 114 10 -4 6 -55 10
-121 10 -69 0 -114 -4 -114 -10z"/>
<path d="M4100 13800 c0 -6 47 -10 120 -10 73 0 120 4 120 10 0 6 -47 10 -120
10 -73 0 -120 -4 -120 -10z"/>
<path d="M4575 13800 c-4 -6 37 -10 114 -10 74 0 121 4 121 10 0 6 -45 10
-114 10 -66 0 -117 -4 -121 -10z"/>
<path d="M5050 13800 c0 -6 45 -10 115 -10 70 0 115 4 115 10 0 6 -45 10 -115
10 -70 0 -115 -4 -115 -10z"/>
<path d="M5520 13800 c0 -6 47 -10 121 -10 77 0 118 4 114 10 -4 6 -55 10
-121 10 -69 0 -114 -4 -114 -10z"/>
<path d="M5990 13800 c0 -6 47 -10 120 -10 73 0 120 4 120 10 0 6 -47 10 -120
10 -73 0 -120 -4 -120 -10z"/>
<path d="M6465 13800 c-4 -6 37 -10 114 -10 74 0 121 4 121 10 0 6 -45 10
-114 10 -66 0 -117 -4 -121 -10z"/>
<path d="M6940 13800 c0 -6 45 -10 115 -10 70 0 115 4 115 10 0 6 -45 10 -115
10 -70 0 -115 -4 -115 -10z"/>
<path d="M11190 13800 c0 -6 47 -10 121 -10 77 0 118 4 114 10 -4 6 -55 10
-121 10 -69 0 -114 -4 -114 -10z"/>
<path d="M11660 13800 c0 -6 47 -10 120 -10 73 0 120 4 120 10 0 6 -47 10
-120 10 -73 0 -120 -4 -120 -10z"/>
<path d="M12135 13800 c-4 -6 37 -10 114 -10 74 0 121 4 121 10 0 6 -45 10
-114 10 -66 0 -117 -4 -121 -10z"/>
<path d="M12610 13800 c0 -6 45 -10 115 -10 70 0 115 4 115 10 0 6 -45 10
-115 10 -70 0 -115 -4 -115 -10z"/>
<path d="M13080 13800 c0 -6 45 -10 115 -10 70 0 115 4 115 10 0 6 -45 10
-115 10 -70 0 -115 -4 -115 -10z"/>
<path d="M13550 13800 c0 -6 47 -10 121 -10 77 0 118 4 114 10 -4 6 -55 10
-121 10 -69 0 -114 -4 -114 -10z"/>
<path d="M14025 13800 c-4 -6 37 -10 114 -10 74 0 121 4 121 10 0 6 -45 10
-114 10 -66 0 -117 -4 -121 -10z"/>
<path d="M14970 13800 c0 -6 45 -10 115 -10 70 0 115 4 115 10 0 6 -45 10
-115 10 -70 0 -115 -4 -115 -10z"/>
<path d="M15440 13800 c0 -6 47 -10 121 -10 77 0 118 4 114 10 -4 6 -55 10
-121 10 -69 0 -114 -4 -114 -10z"/>
<path d="M15915 13800 c-4 -6 37 -10 114 -10 74 0 121 4 121 10 0 6 -45 10
-114 10 -66 0 -117 -4 -121 -10z"/>
<path d="M16390 13800 c0 -6 45 -10 115 -10 70 0 115 4 115 10 0 6 -45 10
-115 10 -70 0 -115 -4 -115 -10z"/>
<path d="M1798 12563 c34 -2 90 -2 125 0 34 2 6 3 -63 3 -69 0 -97 -1 -62 -3z"/>
<path d="M2268 12563 c34 -2 90 -2 125 0 34 2 6 3 -63 3 -69 0 -97 -1 -62 -3z"/>
<path d="M2738 12563 c34 -2 90 -2 125 0 34 2 6 3 -63 3 -69 0 -97 -1 -62 -3z"/>
<path d="M3218 12563 c34 -2 90 -2 125 0 34 2 6 3 -63 3 -69 0 -97 -1 -62 -3z"/>
<path d="M3688 12563 c34 -2 90 -2 125 0 34 2 6 3 -63 3 -69 0 -97 -1 -62 -3z"/>
<path d="M4158 12563 c34 -2 90 -2 125 0 34 2 6 3 -63 3 -69 0 -97 -1 -62 -3z"/>
<path d="M4628 12563 c34 -2 90 -2 125 0 34 2 6 3 -63 3 -69 0 -97 -1 -62 -3z"/>
<path d="M5103 12563 c37 -2 96 -2 130 0 34 2 4 3 -68 3 -71 0 -99 -1 -62 -3z"/>
<path d="M5578 12563 c34 -2 90 -2 125 0 34 2 6 3 -63 3 -69 0 -97 -1 -62 -3z"/>
<path d="M6048 12563 c34 -2 90 -2 125 0 34 2 6 3 -63 3 -69 0 -97 -1 -62 -3z"/>
<path d="M6518 12563 c34 -2 90 -2 125 0 34 2 6 3 -63 3 -69 0 -97 -1 -62 -3z"/>
<path d="M6993 12563 c37 -2 96 -2 130 0 34 2 4 3 -68 3 -71 0 -99 -1 -62 -3z"/>
<path d="M11248 12563 c34 -2 90 -2 125 0 34 2 6 3 -63 3 -69 0 -97 -1 -62 -3z"/>
<path d="M11718 12563 c34 -2 90 -2 125 0 34 2 6 3 -63 3 -69 0 -97 -1 -62 -3z"/>
<path d="M12188 12563 c34 -2 90 -2 125 0 34 2 6 3 -63 3 -69 0 -97 -1 -62 -3z"/>
<path d="M12658 12563 c34 -2 90 -2 125 0 34 2 6 3 -63 3 -69 0 -97 -1 -62 -3z"/>
<path d="M13138 12563 c34 -2 90 -2 125 0 34 2 6 3 -63 3 -69 0 -97 -1 -62 -3z"/>
<path d="M13608 12563 c34 -2 90 -2 125 0 34 2 6 3 -63 3 -69 0 -97 -1 -62 -3z"/>
<path d="M14078 12563 c34 -2 90 -2 125 0 34 2 6 3 -63 3 -69 0 -97 -1 -62 -3z"/>
<path d="M14548 12563 c34 -2 90 -2 125 0 34 2 6 3 -63 3 -69 0 -97 -1 -62 -3z"/>
<path d="M15498 12563 c34 -2 90 -2 125 0 34 2 6 3 -63 3 -69 0 -97 -1 -62 -3z"/>
<path d="M15968 12563 c34 -2 90 -2 125 0 34 2 6 3 -63 3 -69 0 -97 -1 -62 -3z"/>
<path d="M16438 12563 c34 -2 90 -2 125 0 34 2 6 3 -63 3 -69 0 -97 -1 -62 -3z"/>
<path d="M939 12123 c-52 -14 -75 -182 -34 -250 19 -33 40 -43 92 -43 59 0 87
48 87 150 1 124 -46 170 -145 143z m86 -27 c62 -63 33 -256 -40 -256 -29 0
-63 45 -70 94 -14 94 20 186 70 186 9 0 27 -11 40 -24z"/>
<path d="M10390 12123 c-44 -18 -68 -99 -55 -191 9 -67 32 -93 88 -99 41 -5
49 -2 75 24 34 33 47 97 36 170 -12 80 -76 122 -144 96z m91 -34 c21 -24 32
-97 23 -156 -7 -49 -40 -93 -69 -93 -29 0 -63 45 -70 94 -21 135 51 231 116
155z"/>
<path d="M1209 11583 c-61 -16 -79 -208 -24 -267 19 -21 34 -26 69 -26 62 0
87 27 101 107 17 106 -27 194 -97 192 -18 -1 -40 -3 -49 -6z m85 -26 c62 -62
33 -257 -39 -257 -29 0 -63 45 -70 94 -10 67 2 134 30 162 30 30 50 30 79 1z"/>
<path d="M10660 11583 c-65 -26 -82 -205 -25 -267 19 -21 33 -26 69 -26 72 0
99 40 100 145 0 75 -19 126 -53 145 -21 11 -66 12 -91 3z m88 -31 c40 -52 38
-186 -3 -228 -41 -41 -75 -31 -100 29 -30 71 -12 190 32 216 22 12 53 5 71
-17z"/>
<path d="M13416 11034 c-9 -8 -16 -31 -16 -49 0 -27 -4 -34 -22 -38 l-23 -4
23 -2 c21 -1 22 -5 22 -90 0 -85 -1 -90 -22 -94 -13 -2 2 -4 32 -4 30 0 45 2
33 4 -22 4 -23 9 -23 93 l0 89 28 4 27 4 -27 2 c-21 1 -28 6 -28 22 0 26 17
59 31 59 6 0 8 -4 5 -9 -3 -5 1 -14 9 -21 12 -10 16 -9 21 4 16 41 -37 64 -70
30z"/>
<path d="M13540 11040 c0 -5 7 -10 15 -10 13 0 15 -22 15 -134 0 -120 -2 -135
-17 -139 -10 -3 7 -5 37 -4 30 0 45 2 33 4 -23 4 -23 7 -23 149 l0 144 -30 0
c-16 0 -30 -4 -30 -10z"/>
<path d="M4064 10958 c-27 -13 -54 -69 -54 -114 0 -51 40 -88 86 -81 33 6 34
5 28 -21 -10 -41 -23 -62 -39 -62 -8 0 -15 -4 -15 -10 0 -5 25 -10 55 -10 52
0 72 11 41 23 -11 5 -7 31 25 139 21 73 39 137 39 141 0 5 -10 7 -22 5 -15 -2
-24 -11 -26 -26 l-4 -23 -23 25 c-25 27 -55 32 -91 14z m89 -42 c11 -33 -4
-96 -29 -121 -8 -8 -26 -15 -39 -15 -20 0 -25 7 -31 35 -7 40 1 80 22 113 22
33 64 27 77 -12z"/>
<path d="M12811 10957 c-37 -19 -63 -75 -57 -122 6 -51 38 -78 84 -73 33 4 34
3 28 -25 -7 -36 -23 -57 -43 -57 -8 0 -11 -4 -8 -10 3 -5 28 -10 55 -10 27 0
52 5 55 10 3 6 -1 10 -9 10 -22 0 -21 4 19 143 19 67 35 127 35 134 0 23 -29
14 -44 -14 -11 -20 -15 -23 -16 -11 0 34 -55 48 -99 25z m77 -19 c17 -17 15
-78 -6 -118 -14 -28 -23 -35 -47 -35 l-30 0 0 62 c0 46 5 66 19 82 21 24 46
27 64 9z"/>
<path d="M14698 10959 c-5 -13 -17 -15 -61 -11 -65 5 -97 -9 -97 -44 0 -21 11
-29 76 -59 81 -37 94 -61 43 -79 -39 -13 -77 1 -99 37 l-20 32 0 -55 c1 -51 2
-53 14 -31 8 15 16 20 20 12 10 -15 97 -13 119 3 20 15 23 59 5 74 -7 5 -40
21 -73 34 -71 29 -84 54 -31 63 48 9 73 -1 93 -38 l18 -32 3 28 c5 41 -1 86
-10 66z"/>
<path d="M13708 10943 c21 -4 22 -10 22 -83 0 -58 4 -83 16 -94 17 -18 70 -21
108 -6 17 6 26 6 26 0 0 -6 15 -9 33 -9 17 1 24 3 15 6 -16 4 -18 17 -18 99
l0 94 -37 -1 c-24 -1 -29 -3 -15 -6 20 -4 22 -10 22 -77 0 -73 0 -73 -34 -91
-28 -15 -39 -17 -60 -7 -24 10 -25 16 -28 94 l-3 83 -35 2 c-19 0 -25 -1 -12
-4z"/>
<path d="M14005 10941 c11 -5 35 -28 54 -51 l33 -42 -29 -36 c-17 -20 -41 -43
-54 -49 -22 -12 -20 -13 26 -12 34 1 42 3 27 7 -23 7 -23 7 11 40 l34 33 26
-35 c24 -31 25 -35 9 -39 -9 -3 6 -5 33 -5 28 0 42 2 33 6 -9 4 -32 27 -51 51
l-35 44 31 40 c18 22 41 43 52 48 14 5 5 8 -30 7 -27 0 -40 -3 -28 -5 l23 -4
-26 -35 c-15 -19 -29 -34 -33 -33 -3 0 -17 14 -30 31 -20 24 -22 31 -10 39 9
6 -3 9 -36 8 -36 0 -44 -3 -30 -8z"/>
<path d="M14313 10926 c-24 -21 -28 -32 -28 -76 0 -45 4 -55 29 -77 25 -21 37
-25 79 -20 26 2 56 11 65 20 26 26 6 31 -26 7 -48 -36 -106 -12 -118 48 l-6
32 81 0 c80 0 81 0 81 25 0 64 -100 90 -157 41z m115 2 c7 -7 12 -22 12 -35 0
-22 -4 -23 -65 -23 -63 0 -64 1 -56 23 14 39 83 61 109 35z"/>
<path d="M4325 10810 c-4 -16 -13 -30 -21 -30 -8 0 -14 -4 -14 -10 0 -5 4 -10
10 -10 5 0 7 -20 3 -48 -4 -37 -2 -51 11 -62 15 -12 20 -11 38 8 12 12 19 25
15 28 -4 4 -14 -1 -21 -12 -22 -29 -28 -12 -15 40 7 27 17 46 25 46 16 0 19
17 3 22 -7 2 -7 12 0 31 9 23 8 27 -8 27 -13 0 -22 -10 -26 -30z"/>
<path d="M13077 10833 c-4 -3 -7 -15 -7 -25 0 -10 -10 -23 -22 -27 -20 -8 -20
-10 -6 -16 13 -5 14 -12 6 -41 -11 -41 -4 -70 20 -79 17 -6 58 32 46 44 -3 3
-12 -3 -20 -13 -20 -28 -27 -14 -19 35 5 29 13 43 26 46 20 6 26 23 8 23 -7 0
-9 11 -5 30 5 29 -9 41 -27 23z"/>
<path d="M1260 5271 c0 -2239 3 -4071 8 -4073 4 -2 1366 -1 3027 2 2859 5
2913 5 1008 8 l-2013 2 0 70 0 70 65 0 65 0 0 140 0 140 -65 0 -65 0 0 150 0
149 58 4 57 3 -57 2 -58 2 0 125 0 125 65 0 65 0 0 140 0 140 -65 0 -65 0 0
345 0 345 50 0 c28 0 50 5 50 10 0 6 -22 10 -50 10 l-50 0 0 345 0 345 65 0
65 0 0 140 0 140 -65 0 -65 0 0 485 0 485 1063 2 1062 3 3 493 2 492 65 0 65
0 0 140 0 140 -65 0 -65 0 0 490 0 490 883 2 c485 1 845 4 800 5 l-83 4 0 489
0 490 70 0 71 0 -3 138 -3 137 -67 3 -68 3 -3 352 -2 352 -3 -352 -2 -353 -65
0 -65 0 0 -140 0 -140 45 0 c28 0 45 -4 45 -12 0 -9 3 -9 12 0 7 7 16 12 20
12 4 0 8 -220 8 -490 l0 -490 -115 0 c-112 0 -115 1 -116 23 l0 22 -11 -22
-11 -23 -676 -2 -676 -3 -3 -492 -2 -493 -65 0 -66 0 3 -137 3 -138 63 -3 62
-3 0 -484 0 -485 -1120 0 c-740 0 -1120 -3 -1120 -10 0 -5 25 -10 55 -10 l55
0 0 -485 0 -485 -65 0 -65 0 0 -140 0 -140 65 0 65 0 0 -345 0 -345 -55 0
c-30 0 -55 -4 -55 -10 0 -5 25 -10 55 -10 l55 0 0 -345 0 -344 -62 -3 -63 -3
-3 -138 -3 -137 66 0 65 0 0 -125 0 -124 -57 -4 -58 -3 58 -2 57 -2 0 -150 0
-149 -62 -3 -63 -3 -3 -137 -3 -138 66 0 65 0 0 -70 0 -70 -912 0 c-502 0
-950 3 -995 7 l-83 6 0 353 0 353 118 4 117 3 -117 2 -118 2 0 610 0 610 110
0 c67 0 110 4 110 10 0 6 -43 10 -110 10 l-110 0 0 970 0 970 109 0 c63 0 112
4 116 10 4 6 -35 10 -109 10 l-116 0 0 330 0 329 58 4 57 3 -57 2 -58 2 0 160
0 160 55 0 c30 0 55 5 55 10 0 6 -25 10 -55 10 l-55 0 0 610 0 609 118 4 117
3 -117 2 -118 2 0 980 c0 647 -3 980 -10 980 -7 0 -10 -1363 -10 -4069z m5749
3230 l0 -118 -59 -2 -60 -2 0 121 0 120 60 0 59 0 0 -119z m131 -1 l0 -120
-60 0 -60 0 1 120 2 120 58 0 59 0 0 -120z m-1740 -2245 l0 -125 -55 0 -55 0
0 125 0 125 55 0 55 0 0 -125z m130 0 l0 -125 -55 0 -55 0 0 125 0 125 55 0
55 0 0 -125z m-2260 -2245 l0 -120 -55 0 -55 0 0 120 0 120 55 0 55 0 0 -120z
m130 0 l0 -120 -55 0 -55 0 0 120 0 120 55 0 55 0 0 -120z m-130 -1685 l0
-125 -55 0 -55 0 0 125 0 125 55 0 55 0 0 -125z m130 0 l0 -125 -55 0 -55 0 0
125 0 125 55 0 55 0 0 -125z m-130 -840 l0 -125 -55 0 -55 0 0 125 0 125 55 0
55 0 0 -125z m130 0 l0 -125 -55 0 -55 0 0 125 0 125 55 0 55 0 0 -125z"/>
<path d="M7180 9324 c0 -8 5 -12 10 -9 6 3 10 10 10 16 0 5 -4 9 -10 9 -5 0
-10 -7 -10 -16z"/>
<path d="M10938 9333 c7 -3 16 -2 19 1 4 3 -2 6 -13 5 -11 0 -14 -3 -6 -6z"/>
<path d="M12720 8368 l0 -972 -58 57 c-32 31 -62 57 -67 57 -5 0 20 -29 55
-65 l64 -65 -59 -2 -60 -1 58 -6 58 -6 -56 -55 c-30 -30 -55 -59 -55 -64 0 -6
27 16 60 49 l60 59 0 -601 c0 -563 -1 -603 -17 -612 -17 -10 -17 -10 0 -11 16
0 17 -30 17 -495 l0 -495 -61 0 c-37 0 -58 -4 -54 -10 3 -5 31 -10 61 -10 l54
0 0 -907 0 -907 -67 -68 -67 -68 38 -39 c38 -38 38 -39 22 -70 l-17 -31 46 0
45 0 0 -483 0 -483 -65 -64 -65 -64 22 -23 22 -23 -22 -45 -22 -45 65 0 65 0
0 -233 0 -233 -63 -62 -62 -62 -945 -2 c-896 -3 -871 -3 475 -8 781 -3 2145
-3 3030 0 l1610 5 -1542 3 -1543 2 0 65 0 65 -51 0 -51 0 7 72 c3 40 13 99 21
131 8 32 14 68 14 80 0 12 7 57 17 99 l17 78 73 0 73 0 0 135 0 135 -51 0 -51
0 7 48 c3 26 17 108 30 182 61 343 125 712 125 720 0 6 35 10 80 10 l80 0 0
65 0 65 120 0 c78 0 120 4 120 11 0 7 -40 9 -120 7 l-120 -3 0 68 0 67 -55 0
c-52 0 -55 1 -50 23 3 12 39 213 79 447 41 234 100 574 132 757 l59 332 87 48
c49 26 88 51 88 55 0 12 -3 11 -87 -36 -43 -25 -79 -41 -81 -37 -1 4 1 25 6
47 l8 39 77 3 77 3 0 139 0 140 -50 0 c-40 0 -50 3 -50 16 0 26 79 476 88 504
5 14 58 97 119 185 61 88 113 171 116 185 6 23 97 841 113 1008 l7 72 74 0 74
0 -3 138 -3 137 -59 3 -58 3 6 47 c17 135 103 1246 121 1562 3 58 8 129 11
158 3 30 1 52 -4 52 -6 0 -13 -44 -16 -97 -38 -587 -57 -842 -111 -1488 -21
-259 -12 -235 -95 -235 l-70 0 0 -69 0 -70 -42 -4 -43 -4 43 -1 42 -2 0 -65 0
-65 55 0 55 0 0 -42 c0 -24 -4 -81 -10 -128 -5 -47 -30 -274 -56 -504 l-46
-420 -116 -165 -116 -166 -43 -240 c-23 -132 -45 -255 -48 -272 l-6 -33 -79 0
-80 0 0 -65 0 -65 -31 0 c-17 0 -28 -4 -24 -10 3 -5 17 -10 30 -10 22 0 24 -4
27 -62 l3 -63 53 -3 53 -3 -7 -37 c-3 -20 -12 -49 -19 -64 -7 -15 -10 -28 -6
-30 4 -2 -14 -122 -39 -268 -26 -146 -87 -493 -135 -772 -86 -490 -90 -508
-111 -508 -21 0 -23 6 -29 98 -3 53 -10 106 -15 117 -6 12 -7 -25 -3 -99 8
-152 -8 -154 -52 -6 -17 57 -36 105 -43 108 -17 5 -15 -11 17 -118 27 -90 28
-95 10 -98 -10 -2 -19 -11 -19 -20 0 -12 -3 -13 -12 -4 -22 22 -32 12 -10 -11
14 -15 22 -36 22 -60 l0 -37 -95 0 c-57 0 -95 -4 -95 -10 0 -6 38 -10 95 -10
l95 0 0 -38 c0 -26 -7 -45 -20 -57 -11 -10 -20 -23 -20 -28 0 -6 9 -2 20 8 18
16 20 16 20 2 0 -14 10 -17 53 -17 l53 0 -5 -37 c-5 -37 -5 -37 -10 -9 -8 42
-29 44 -35 4 -29 -182 -31 -208 -10 -208 13 0 15 -8 9 -42 -10 -65 -15 -77
-29 -72 -20 8 -29 -48 -9 -63 11 -8 13 -21 8 -45 -11 -57 -16 -68 -28 -68 -14
0 -48 -228 -35 -236 12 -7 -2 -85 -19 -113 -8 -13 -13 -34 -10 -47 4 -24 3
-24 -74 -24 l-79 0 0 -135 0 -135 51 0 51 0 -6 -67 c-4 -37 -11 -85 -17 -106
-5 -21 -12 -55 -14 -75 -9 -78 -40 -201 -47 -189 -5 8 -8 6 -8 -5 0 -15 -10
-18 -65 -18 l-65 0 0 -65 0 -65 -268 0 -268 0 -62 63 -62 63 0 232 0 232 65 0
65 0 -22 45 -22 45 22 23 22 23 -65 64 -65 64 1 261 c1 143 4 322 8 398 3 75
3 137 -1 137 -5 0 -8 38 -8 85 l0 85 85 0 c52 0 85 4 85 10 0 6 -11 33 -25 61
-14 27 -23 54 -19 60 3 6 -5 23 -19 37 -34 37 -47 65 -48 104 -1 18 -3 26 -6
17 -4 -17 -37 -32 -47 -21 -3 3 -6 356 -6 784 l0 778 25 -16 c14 -9 28 -14 32
-11 3 4 -8 14 -26 24 l-31 18 0 123 0 122 50 0 c28 0 50 5 50 10 0 6 -22 10
-50 10 l-50 0 0 330 0 329 98 4 97 3 -97 2 -98 2 0 160 0 160 95 0 c57 0 95 4
95 10 0 6 -38 10 -95 10 l-95 0 0 550 c0 484 2 549 15 544 11 -5 15 1 15 20 0
15 -7 29 -15 32 -8 4 -15 18 -15 32 0 25 4 23 60 -33 33 -33 60 -55 60 -49 0
5 -25 34 -55 64 l-56 55 48 6 48 6 -50 1 -49 2 64 65 c35 36 60 65 55 65 -5 0
-35 -26 -67 -57 l-58 -57 0 972 c0 641 -3 972 -10 972 -7 0 -10 -331 -10 -972z
m1990 -890 c0 -13 -3 -40 -6 -60 l-7 -38 -58 0 -59 0 0 60 0 60 65 0 c61 0 65
-1 65 -22z m120 -103 l0 -125 -63 0 -62 0 3 48 c2 26 6 54 9 62 3 8 5 30 4 48
-2 18 0 46 4 62 6 28 9 30 56 30 l49 0 0 -125z m-134 -36 c-3 -17 -6 -44 -6
-60 0 -28 -1 -29 -55 -29 l-55 0 0 60 0 60 61 0 62 0 -7 -31z m-466 -2106 c0
-10 -3 -35 -6 -55 l-7 -38 -58 0 -59 0 0 55 0 55 65 0 c55 0 65 -3 65 -17z
m120 -103 l0 -120 -70 0 -71 0 6 38 c11 60 16 72 31 72 17 0 19 17 1 22 -9 2
-10 16 -4 56 l9 52 49 0 49 0 0 -120z m-146 -57 c-3 -27 -8 -51 -11 -55 -2 -5
-24 -8 -49 -8 l-44 0 0 55 0 55 56 0 55 0 -7 -47z m-318 -1815 c-7 -33 -32
-68 -50 -68 -17 0 -76 63 -76 82 0 16 9 18 66 18 l67 0 -7 -32z m39 12 c-20
-23 -29 -21 -19 4 3 9 13 16 22 16 13 0 12 -3 -3 -20z m75 -100 c0 -141 -8
-149 -78 -77 -42 43 -43 45 -33 87 10 47 64 110 93 110 16 0 18 -11 18 -120z
m-1280 80 c0 -11 -7 -20 -15 -20 -18 0 -18 -5 -5 -31 10 -17 7 -19 -32 -19
l-42 0 44 45 c24 25 45 45 47 45 2 0 3 -9 3 -20z m50 -35 c0 -24 -5 -35 -15
-35 -17 0 -20 23 -5 51 15 27 20 24 20 -16z m1022 -77 l-32 -33 0 28 c0 19 5
27 18 27 16 1 16 1 0 14 -10 7 -18 24 -18 37 0 23 1 23 32 -9 l33 -32 -33 -32z
m-972 51 c0 -5 -9 -9 -19 -9 -14 0 -18 5 -14 20 4 16 8 18 19 9 8 -6 14 -15
14 -20z m1052 -15 c-3 -17 -8 -22 -15 -15 -7 7 -6 15 3 26 17 20 18 19 12 -11z
m-1182 -22 c0 -5 -6 -16 -13 -26 -12 -16 -14 -15 -36 8 l-24 26 36 0 c20 0 37
-4 37 -8z m26 -79 c-3 -3 -12 0 -20 6 -13 11 -13 17 2 48 l17 36 3 -42 c2 -24
1 -46 -2 -48z m44 52 c0 -19 0 -38 1 -42 0 -4 -4 -9 -10 -11 -7 -2 -11 14 -11
42 0 25 5 46 10 46 6 0 10 -16 10 -35z m70 28 c0 -9 -42 -53 -50 -53 -4 0 -5
14 -2 30 3 24 9 30 28 30 13 0 24 -3 24 -7z m39 -60 l21 -43 -67 0 -67 0 44
45 c24 24 45 44 46 42 1 -1 11 -21 23 -44z m991 23 c0 -55 -10 -66 -56 -66
-52 0 -58 19 -20 59 32 34 76 38 76 7z m55 -36 l29 -30 -37 0 c-32 0 -37 3
-37 23 0 19 7 37 15 37 1 0 14 -13 30 -30z m-1225 -15 c10 -13 9 -15 -8 -15
-15 0 -20 5 -16 15 4 8 7 15 9 15 1 0 8 -7 15 -15z m1137 -147 c-3 -8 -6 -5
-6 6 -1 11 2 17 5 13 3 -3 4 -12 1 -19z m-160 -903 c-2 -26 -8 -49 -11 -53 -4
-3 -30 17 -59 46 l-52 52 64 0 64 0 -6 -45z m63 0 c-24 -24 -46 -43 -48 -40
-2 2 -1 22 3 44 7 40 8 41 48 41 l41 0 -44 -45z m-137 -74 l-48 -5 48 -5 48
-6 -50 -50 -51 -49 0 109 0 109 50 -49 51 -50 -48 -4z m197 49 l0 -50 -50 0
c-27 0 -50 3 -50 7 0 10 82 93 92 93 4 0 8 -22 8 -50z m-1070 -10 c0 -33 -3
-40 -20 -40 -11 0 -20 2 -20 5 0 7 33 75 37 75 2 0 3 -18 3 -40z m60 -32 c0
-5 -9 -8 -20 -8 -17 0 -20 7 -20 43 l1 42 19 -35 c11 -19 19 -38 20 -42z m58
-25 c-12 -15 -28 -17 -28 -4 0 5 8 12 18 14 13 4 12 5 -5 6 -16 1 -29 14 -44
44 l-21 42 46 -44 c35 -34 43 -48 34 -58z m-163 48 c-10 -20 -23 -31 -37 -31
-20 0 -19 3 12 35 39 41 48 39 25 -4z m-25 -51 c0 -5 -4 -10 -9 -10 -6 0 -13
5 -16 10 -3 6 1 10 9 10 9 0 16 -4 16 -10z m70 -42 l0 -52 -35 34 c-27 27 -32
37 -24 52 5 10 21 18 34 18 23 0 25 -3 25 -52z m79 34 c8 -15 3 -25 -24 -52
l-35 -34 0 52 c0 49 2 52 25 52 13 0 29 -8 34 -18z m991 -32 c0 -27 -4 -50 -8
-50 -4 0 -30 23 -57 50 l-49 50 57 0 57 0 0 -50z m-71 -68 c-28 -2 -54 -1 -56
2 -3 3 -2 26 2 52 l7 47 49 -49 50 -49 -52 -3z m-85 39 c-6 -40 -7 -41 -47
-41 l-41 0 44 45 c24 24 45 43 47 41 2 -2 1 -22 -3 -45z m-949 -11 l29 -30
-52 0 -53 0 16 30 c9 17 19 30 23 30 5 0 21 -13 37 -30z m150 0 l16 -30 -53 0
-52 0 29 30 c16 17 32 30 37 30 4 0 14 -13 23 -30z m695 -560 c0 -27 -1 -50
-3 -50 -1 0 -25 23 -52 50 l-49 50 52 0 52 0 0 -50z m110 42 c0 -4 -18 -26
-40 -47 -42 -41 -46 -37 -34 24 6 27 10 31 40 31 19 0 34 -4 34 -8z m-175 -62
l49 -50 -52 0 -52 0 0 50 c0 28 1 50 3 50 1 0 25 -22 52 -50z m195 0 l0 -50
-52 0 -52 0 49 50 c27 28 51 50 52 50 2 0 3 -22 3 -50z m-940 -5 c0 -32 -21
-57 -36 -42 -5 4 26 77 33 77 2 0 3 -16 3 -35z m56 -42 c-3 -3 -12 -3 -21 0
-10 4 -15 19 -15 44 l1 38 20 -38 c11 -22 18 -41 15 -44z m29 37 c35 -36 37
-40 17 -40 -15 0 -28 12 -42 40 -11 22 -19 40 -17 40 2 0 21 -18 42 -40z
m-130 -9 c-13 -27 -45 -44 -45 -24 0 10 53 64 58 59 2 -2 -4 -18 -13 -35z"/>
<path d="M10955 9210 c-7 -31 -1 -50 16 -50 12 0 12 67 0 74 -5 4 -12 -7 -16
-24z"/>
<path d="M16590 9143 c-12 -54 -24 -106 -26 -115 -3 -10 -1 -18 3 -18 5 0 21
52 34 115 14 63 22 115 18 115 -4 0 -17 -44 -29 -97z"/>
<path d="M7147 9170 c-3 -11 -2 -20 3 -20 4 0 10 9 13 20 3 11 2 20 -3 20 -4
0 -10 -9 -13 -20z"/>
<path d="M10983 9066 c3 -8 1 -16 -5 -18 -13 -5 -1 -48 13 -48 5 0 9 18 9 40
0 23 -5 40 -11 40 -6 0 -9 -6 -6 -14z"/>
<path d="M7118 9024 c-5 -4 -8 -16 -8 -28 0 -14 3 -17 11 -9 6 6 9 19 7 28 -1
9 -6 13 -10 9z"/>
<path d="M11007 8898 c-11 -38 -8 -58 8 -58 17 0 21 46 6 68 -6 10 -10 8 -14
-10z"/>
<path d="M7080 8861 c0 -5 -3 -16 -6 -25 -3 -9 -2 -16 4 -16 5 0 12 11 14 25
3 14 1 25 -3 25 -5 0 -9 -4 -9 -9z"/>
<path d="M16495 8703 c-9 -43 -21 -93 -25 -112 -9 -32 -6 -51 5 -40 9 9 52
229 45 229 -5 0 -16 -35 -25 -77z"/>
<path d="M11025 8720 c-7 -31 -1 -50 16 -50 5 0 9 18 9 40 0 47 -16 53 -25 10z"/>
<path d="M7048 8704 c-5 -4 -8 -16 -8 -28 0 -14 3 -17 11 -9 6 6 9 19 7 28 -1
9 -6 13 -10 9z"/>
<path d="M11061 8578 c-1 -9 -6 -18 -12 -20 -13 -4 -3 -48 11 -48 13 0 19 40
10 63 -6 16 -9 18 -9 5z"/>
<path d="M11074 8402 c-12 -22 -6 -64 9 -59 15 4 22 56 10 68 -5 5 -13 1 -19
-9z"/>
<path d="M16400 8263 c-7 -32 -18 -84 -25 -115 -7 -32 -9 -58 -4 -58 5 0 9 3
9 8 1 4 11 55 24 115 13 59 20 107 16 107 -5 0 -14 -26 -20 -57z"/>
<path d="M11096 8238 c-10 -38 -7 -58 9 -58 11 0 15 11 15 40 0 43 -14 54 -24
18z"/>
<path d="M6937 8200 c-3 -11 -1 -20 4 -20 5 0 9 2 9 4 0 2 3 11 6 20 3 9 2 16
-4 16 -5 0 -12 -9 -15 -20z"/>
<path d="M11118 8076 c-11 -26 -5 -56 12 -56 5 0 10 18 10 40 0 46 -6 50 -22
16z"/>
<path d="M6908 8054 c-5 -4 -8 -16 -8 -28 0 -14 3 -17 11 -9 6 6 9 19 7 28 -1
9 -6 13 -10 9z"/>
<path d="M11145 7921 c3 -5 1 -12 -3 -15 -13 -8 -2 -58 12 -53 6 2 10 11 10
20 -1 10 -2 26 -3 37 0 11 -6 20 -12 20 -5 0 -8 -4 -4 -9z"/>
<path d="M6871 7873 c0 -25 1 -26 9 -8 12 27 12 35 0 35 -5 0 -10 -12 -9 -27z"/>
<path d="M16289 7745 c-14 -63 -22 -115 -18 -115 4 0 17 44 29 98 12 53 24
105 26 115 3 9 1 17 -3 17 -5 0 -21 -52 -34 -115z"/>
<path d="M11167 7749 c-11 -39 -8 -59 8 -59 16 0 19 31 6 64 -7 18 -8 18 -14
-5z"/>
<path d="M6836 7722 c-4 -13 -5 -26 -2 -29 10 -11 18 4 14 29 l-4 23 -8 -23z"/>
<path d="M11187 7589 c-11 -39 -8 -59 8 -59 16 0 19 31 6 64 -7 18 -8 18 -14
-5z"/>
<path d="M6798 7555 c-3 -14 -1 -25 3 -25 5 0 9 4 9 9 0 5 3 16 6 25 3 9 2 16
-4 16 -5 0 -12 -11 -14 -25z"/>
<path d="M11147 7442 l-68 -68 90 -87 c49 -48 92 -87 95 -87 3 0 6 11 6 25 0
17 -6 25 -17 25 -12 0 2 20 42 60 52 53 64 60 100 61 l40 2 -43 6 c-35 6 -55
19 -105 69 -34 34 -65 62 -68 62 -2 0 -35 -31 -72 -68z m133 -7 l54 -55 -51 0
c-49 0 -51 1 -58 33 l-7 32 -12 -35 c-17 -44 -9 -49 68 -43 l61 5 -58 -58 -58
-57 -60 59 -59 58 57 58 c32 32 60 58 63 58 3 0 30 -25 60 -55z"/>
<path d="M16178 7445 l-32 -65 -121 -2 -120 -2 117 -3 118 -4 -30 -59 c-17
-33 -30 -62 -30 -65 0 -3 22 -5 49 -5 l49 0 -4 -42 -4 -43 14 40 13 40 81 3
82 3 -68 134 c-36 74 -70 135 -74 135 -5 0 -23 -29 -40 -65z m97 -75 c30 -60
55 -112 55 -115 0 -3 -29 -5 -65 -5 -36 0 -65 3 -65 8 1 4 7 35 14 70 8 34 10
64 6 67 -4 3 -14 -28 -21 -68 l-14 -72 -43 -3 c-23 -2 -42 -1 -42 3 0 10 110
225 115 225 3 0 30 -49 60 -110z"/>
<path d="M1798 7373 c34 -2 90 -2 125 0 34 2 6 3 -63 3 -69 0 -97 -1 -62 -3z"/>
<path d="M2268 7373 c34 -2 90 -2 125 0 34 2 6 3 -63 3 -69 0 -97 -1 -62 -3z"/>
<path d="M2738 7373 c34 -2 90 -2 125 0 34 2 6 3 -63 3 -69 0 -97 -1 -62 -3z"/>
<path d="M3218 7373 c34 -2 90 -2 125 0 34 2 6 3 -63 3 -69 0 -97 -1 -62 -3z"/>
<path d="M3688 7373 c34 -2 90 -2 125 0 34 2 6 3 -63 3 -69 0 -97 -1 -62 -3z"/>
<path d="M4158 7373 c34 -2 90 -2 125 0 34 2 6 3 -63 3 -69 0 -97 -1 -62 -3z"/>
<path d="M4628 7373 c34 -2 90 -2 125 0 34 2 6 3 -63 3 -69 0 -97 -1 -62 -3z"/>
<path d="M5103 7373 c37 -2 96 -2 130 0 34 2 4 3 -68 3 -71 0 -99 -1 -62 -3z"/>
<path d="M10773 7373 c37 -2 96 -2 130 0 34 2 4 3 -68 3 -71 0 -99 -1 -62 -3z"/>
<path d="M11718 7373 c34 -2 90 -2 125 0 34 2 6 3 -63 3 -69 0 -97 -1 -62 -3z"/>
<path d="M12188 7373 c34 -2 90 -2 125 0 34 2 6 3 -63 3 -69 0 -97 -1 -62 -3z"/>
<path d="M13138 7373 c34 -2 90 -2 125 0 34 2 6 3 -63 3 -69 0 -97 -1 -62 -3z"/>
<path d="M13608 7373 c34 -2 90 -2 125 0 34 2 6 3 -63 3 -69 0 -97 -1 -62 -3z"/>
<path d="M14078 7373 c34 -2 90 -2 125 0 34 2 6 3 -63 3 -69 0 -97 -1 -62 -3z"/>
<path d="M15028 7373 c34 -2 90 -2 125 0 34 2 6 3 -63 3 -69 0 -97 -1 -62 -3z"/>
<path d="M15498 7373 c34 -2 90 -2 125 0 34 2 6 3 -63 3 -69 0 -97 -1 -62 -3z"/>
<path d="M16438 7373 c34 -2 90 -2 125 0 34 2 6 3 -63 3 -69 0 -97 -1 -62 -3z"/>
<path d="M6731 7223 c0 -25 1 -26 9 -8 12 27 12 35 0 35 -5 0 -10 -12 -9 -27z"/>
<path d="M12780 7115 c0 -9 9 -51 19 -93 10 -43 22 -89 25 -104 4 -17 11 -25
19 -22 11 4 8 28 -13 116 -14 62 -31 113 -38 116 -7 2 -12 -4 -12 -13z"/>
<path d="M11241 7103 c0 -5 4 -17 9 -28 8 -18 9 -17 9 8 1 15 -3 27 -9 27 -5
0 -10 -3 -9 -7z"/>
<path d="M6697 7077 c-11 -29 -9 -43 4 -30 6 6 9 19 7 29 -3 18 -4 18 -11 1z"/>
<path d="M11282 7068 c5 -32 28 -35 28 -4 0 17 -5 26 -16 26 -10 0 -14 -7 -12
-22z"/>
<path d="M11260 6938 c0 -7 5 -20 10 -28 8 -12 10 -9 10 13 0 15 -4 27 -10 27
-5 0 -10 -6 -10 -12z"/>
<path d="M6661 6903 c0 -25 1 -26 9 -8 12 27 12 35 0 35 -5 0 -10 -12 -9 -27z"/>
<path d="M11322 6909 c1 -12 9 -24 16 -27 9 -3 13 3 10 19 -1 12 -9 24 -16 27
-9 3 -13 -3 -10 -19z"/>
<path d="M16091 6830 c-11 -56 -21 -108 -21 -117 0 -34 11 -3 30 88 12 52 23
102 26 112 3 9 1 17 -4 17 -5 0 -19 -45 -31 -100z"/>
<path d="M12865 6780 c-10 -17 4 -62 18 -57 13 4 11 46 -3 60 -4 5 -11 4 -15
-3z"/>
<path d="M11280 6761 c0 -11 5 -23 10 -26 6 -4 10 5 10 19 0 14 -4 26 -10 26
-5 0 -10 -9 -10 -19z"/>
<path d="M6626 6754 c-8 -22 -7 -34 3 -34 5 0 11 11 13 25 6 28 -6 34 -16 9z"/>
<path d="M11362 6749 c1 -12 9 -24 16 -27 9 -3 13 3 10 19 -1 12 -9 24 -16 27
-9 3 -13 -3 -10 -19z"/>
<path d="M11300 6598 c0 -16 5 -28 10 -28 13 0 13 20 0 40 -8 12 -10 9 -10
-12z"/>
<path d="M6590 6583 c0 -22 2 -25 10 -13 13 20 13 40 0 40 -5 0 -10 -12 -10
-27z"/>
<path d="M11400 6585 c0 -16 6 -25 15 -25 16 0 19 9 9 34 -9 25 -24 19 -24 -9z"/>
<path d="M12900 6599 c0 -6 9 -45 19 -87 10 -43 22 -89 25 -104 4 -16 13 -28
22 -28 10 0 14 6 11 14 -3 7 -16 59 -28 115 -15 64 -28 101 -36 101 -7 0 -13
-5 -13 -11z"/>
<path d="M15992 6368 c-12 -57 -22 -109 -22 -117 0 -33 13 3 31 86 11 48 21
98 24 111 3 12 2 22 -3 22 -5 0 -18 -46 -30 -102z"/>
<path d="M11317 6453 c-2 -5 -1 -19 4 -33 7 -23 7 -23 8 8 1 31 -3 40 -12 25z"/>
<path d="M6558 6430 c-7 -24 -3 -38 8 -28 3 4 4 17 2 30 l-3 23 -7 -25z"/>
<path d="M11440 6425 c0 -16 6 -25 15 -25 16 0 19 9 9 34 -9 25 -24 19 -24 -9z"/>
<path d="M12230 6348 c-22 -37 -16 -58 8 -28 14 18 26 21 72 18 l54 -3 -72
-54 c-70 -52 -100 -86 -87 -99 3 -4 10 0 15 8 7 12 15 12 43 2 73 -26 127 -4
127 52 0 19 -1 19 -20 -2 -16 -17 -32 -22 -73 -21 l-52 0 40 32 c66 53 128
117 121 124 -4 4 -11 1 -16 -7 -7 -12 -15 -12 -43 -2 -60 22 -95 16 -117 -20z"/>
<path d="M6528 6284 c-5 -4 -8 -16 -8 -28 0 -14 3 -17 11 -9 6 6 9 19 7 28 -1
9 -6 13 -10 9z"/>
<path d="M11330 6271 c0 -11 5 -23 10 -26 6 -4 10 5 10 19 0 14 -4 26 -10 26
-5 0 -10 -9 -10 -19z"/>
<path d="M11478 6284 c-11 -10 4 -44 19 -44 10 0 13 6 9 16 -3 9 -6 20 -6 25
0 10 -14 12 -22 3z"/>
<path d="M12981 6253 c1 -33 13 -53 27 -44 10 6 10 14 3 34 -12 30 -31 36 -30
10z"/>
<path d="M12507 6230 c-6 -16 -17 -30 -24 -30 -15 0 -17 -17 -3 -22 7 -2 8
-17 3 -42 -8 -39 -9 -40 -77 -55 -37 -9 -65 -19 -61 -22 3 -4 36 0 73 8 48 11
67 12 70 4 6 -18 41 -13 54 9 7 11 19 20 26 20 7 0 11 4 7 9 -3 6 -17 6 -35 1
-25 -7 -30 -6 -30 8 0 33 13 62 26 62 8 0 14 5 14 10 0 6 -4 10 -8 10 -5 0 -7
14 -4 30 3 19 0 30 -8 30 -6 0 -17 -13 -23 -30z"/>
<path d="M811 6204 c-20 -25 -28 -54 -15 -54 3 0 13 9 22 21 14 17 26 20 72
17 l54 -3 -72 -54 c-65 -48 -92 -76 -92 -97 0 -3 7 -1 15 6 13 10 23 10 54 -4
52 -24 81 -18 104 22 22 38 16 53 -11 29 -12 -11 -36 -17 -72 -17 l-53 0 49
37 c69 51 114 95 114 110 0 10 -4 11 -19 1 -15 -9 -25 -9 -46 0 -44 20 -81 15
-104 -14z"/>
<path d="M6445 6140 c-18 -8 -17 -9 8 -9 15 -1 27 4 27 9 0 12 -8 12 -35 0z"/>
<path d="M11380 6130 c20 -13 43 -13 35 0 -3 6 -16 10 -28 10 -18 0 -19 -2 -7
-10z"/>
<path d="M6270 6120 c0 -5 11 -10 25 -10 14 0 25 5 25 10 0 6 -11 10 -25 10
-14 0 -25 -4 -25 -10z"/>
<path d="M11518 6124 c-3 -3 -4 -14 -1 -24 4 -13 14 -18 34 -18 29 1 42 18 14
18 -9 0 -18 7 -21 15 -6 15 -16 19 -26 9z"/>
<path d="M6110 6100 c0 -12 8 -12 35 0 18 8 17 9 -7 9 -16 1 -28 -3 -28 -9z"/>
<path d="M1087 6093 c-4 -3 -7 -15 -7 -25 0 -10 -10 -23 -22 -28 -13 -5 -17
-9 -10 -9 9 -1 12 -16 10 -52 -4 -63 18 -85 51 -54 12 10 19 20 16 23 -3 3
-14 -3 -25 -13 -20 -18 -20 -17 -20 7 0 41 21 88 38 88 14 0 14 2 3 9 -9 6
-11 18 -7 35 6 25 -10 37 -27 19z"/>
<path d="M5955 6090 c-18 -8 -17 -9 8 -9 15 -1 27 4 27 9 0 12 -8 12 -35 0z"/>
<path d="M13024 6068 c3 -13 15 -65 27 -115 15 -66 26 -93 36 -93 11 0 14 7 9
23 -3 12 -15 64 -27 115 -15 65 -26 92 -36 92 -11 0 -14 -7 -9 -22z"/>
<path d="M5780 6070 c0 -5 12 -10 26 -10 14 0 23 4 19 10 -3 6 -15 10 -26 10
-10 0 -19 -4 -19 -10z"/>
<path d="M11690 6062 c0 -5 11 -12 25 -14 14 -3 25 -1 25 3 0 5 -4 9 -9 9 -5
0 -16 3 -25 6 -9 3 -16 2 -16 -4z"/>
<path d="M5610 6050 c0 -5 9 -10 19 -10 11 0 23 5 26 10 4 6 -5 10 -19 10 -14
0 -26 -4 -26 -10z"/>
<path d="M5450 6031 c0 -4 11 -6 25 -3 14 2 25 6 25 8 0 2 -11 4 -25 4 -14 0
-25 -4 -25 -9z"/>
<path d="M12188 6033 c-30 -8 -20 -20 12 -15 17 2 30 8 30 13 0 9 -13 10 -42
2z"/>
<path d="M5295 6020 c-18 -8 -17 -9 8 -9 15 -1 27 4 27 9 0 12 -8 12 -35 0z"/>
<path d="M11850 6022 c0 -5 11 -12 25 -14 14 -3 25 -1 25 3 0 5 -4 9 -9 9 -5
0 -16 3 -25 6 -9 3 -16 2 -16 -4z"/>
<path d="M5120 6000 c0 -5 9 -10 19 -10 11 0 23 5 26 10 4 6 -5 10 -19 10 -14
0 -26 -4 -26 -10z"/>
<path d="M15883 5972 c-11 -21 -42 -61 -68 -90 -26 -29 -45 -55 -43 -58 8 -8
101 98 126 144 13 23 20 42 15 42 -4 0 -18 -17 -30 -38z"/>
<path d="M11933 5973 c-57 -13 -103 -28 -103 -33 0 -4 26 -2 58 6 31 8 83 17
115 21 38 4 57 10 57 19 0 18 -6 17 -127 -13z"/>
<path d="M4960 5980 c0 -13 11 -13 30 0 12 8 11 10 -7 10 -13 0 -23 -4 -23
-10z"/>
<path d="M4810 5970 l-25 -8 28 -1 c15 -1 27 4 27 9 0 6 -1 10 -2 9 -2 -1 -14
-5 -28 -9z"/>
<path d="M11556 5961 c-9 -14 5 -41 21 -41 10 0 13 6 9 16 -3 9 -6 20 -6 25 0
12 -17 12 -24 0z"/>
<path d="M4630 5950 c-12 -8 -9 -10 13 -10 15 0 27 5 27 10 0 13 -20 13 -40 0z"/>
<path d="M12175 5940 c3 -5 16 -10 28 -10 18 0 19 2 7 10 -20 13 -43 13 -35 0z"/>
<path d="M4460 5930 c0 -5 11 -10 25 -10 14 0 25 5 25 10 0 6 -11 10 -25 10
-14 0 -25 -4 -25 -10z"/>
<path d="M4300 5910 c0 -12 8 -12 35 0 18 8 17 9 -7 9 -16 1 -28 -3 -28 -9z"/>
<path d="M11685 5912 c-11 -2 -24 -9 -30 -14 -7 -7 -1 -8 20 -3 44 10 53 26
10 17z"/>
<path d="M4145 5900 c-18 -8 -17 -9 8 -9 15 -1 27 4 27 9 0 12 -8 12 -35 0z"/>
<path d="M12243 5887 c-21 -23 -37 -57 -26 -57 4 0 14 7 24 16 12 10 32 14 68
12 l52 -3 -70 -52 c-39 -29 -75 -62 -81 -73 -11 -21 -1 -27 17 -9 8 8 19 6 41
-5 17 -9 42 -16 55 -16 30 0 67 34 67 62 l0 22 -20 -22 c-17 -18 -32 -22 -78
-22 -53 1 -56 2 -37 16 93 70 135 106 145 124 11 20 -3 30 -15 10 -3 -5 -14
-10 -23 -9 -14 0 -13 2 3 9 24 10 24 11 -46 16 -48 3 -58 1 -76 -19z"/>
<path d="M746 5869 c-37 -44 -34 -68 5 -33 12 10 32 14 69 12 l52 -3 -66 -48
c-62 -45 -96 -81 -96 -99 0 -5 9 -3 19 4 15 9 25 9 46 0 44 -20 81 -15 104 14
20 25 28 54 15 54 -3 0 -13 -9 -22 -21 -14 -17 -26 -20 -70 -17 l-54 3 66 48
c62 45 96 81 96 99 0 5 -8 3 -18 -3 -13 -8 -27 -7 -56 5 -52 22 -60 21 -90
-15z"/>
<path d="M3970 5880 c0 -5 9 -10 19 -10 11 0 23 5 26 10 4 6 -5 10 -19 10 -14
0 -26 -4 -26 -10z"/>
<path d="M3800 5860 c0 -13 20 -13 40 0 12 8 9 10 -12 10 -16 0 -28 -4 -28
-10z"/>
<path d="M11418 5842 c-90 -25 -131 -43 -97 -42 21 1 207 55 215 63 12 12 -17
7 -118 -21z"/>
<path d="M12495 5860 c3 -5 15 -10 26 -10 11 0 17 5 14 10 -3 6 -15 10 -26 10
-11 0 -17 -4 -14 -10z"/>
<path d="M3653 5843 c9 -2 23 -2 30 0 6 3 -1 5 -18 5 -16 0 -22 -2 -12 -5z"/>
<path d="M3480 5830 c-12 -8 -9 -10 13 -10 15 0 27 5 27 10 0 13 -20 13 -40 0z"/>
<path d="M12655 5820 c3 -5 16 -10 28 -10 18 0 19 2 7 10 -20 13 -43 13 -35 0z"/>
<path d="M3310 5810 c0 -5 11 -10 25 -10 14 0 25 5 25 10 0 6 -11 10 -25 10
-14 0 -25 -4 -25 -10z"/>
<path d="M11596 5802 c-3 -5 -3 -18 0 -30 8 -29 32 -17 26 14 -4 24 -16 31
-26 16z"/>
<path d="M12517 5773 c-12 -11 -8 -23 8 -23 8 0 15 7 15 15 0 16 -12 20 -23 8z"/>
<path d="M995 5747 c3 -12 -3 -51 -14 -87 -25 -78 -26 -90 -6 -90 8 0 19 16
24 38 14 50 38 82 63 82 15 0 18 -4 13 -17 -17 -43 -17 -79 0 -93 20 -17 48
-3 53 26 3 18 2 18 -8 2 -6 -10 -17 -18 -25 -18 -11 0 -12 6 -5 26 22 57 -2
104 -45 88 -14 -6 -15 -1 -10 30 7 34 6 36 -19 36 -22 0 -26 -3 -21 -23z"/>
<path d="M13104 5728 c3 -13 6 -26 6 -30 0 -5 7 -8 15 -8 17 0 18 4 9 38 -4
12 -13 22 -21 22 -11 0 -14 -6 -9 -22z"/>
<path d="M3277 5713 c-11 -10 -8 -43 3 -43 6 0 10 11 10 25 0 26 -2 29 -13 18z"/>
<path d="M11415 5700 c10 -11 23 -20 28 -20 6 0 2 9 -8 20 -10 11 -23 20 -28
20 -6 0 -2 -9 8 -20z"/>
<path d="M12462 5708 c-7 -7 -12 -19 -12 -27 1 -13 2 -13 11 2 19 32 30 18 23
-31 -5 -37 -3 -51 10 -61 14 -12 19 -11 36 4 11 10 20 23 20 28 0 6 -9 2 -20
-8 -27 -24 -31 -18 -17 32 8 32 8 45 -2 57 -16 19 -33 20 -49 4z"/>
<path d="M15485 5608 c-54 -37 -92 -68 -84 -68 8 0 55 27 105 61 104 71 98 66
87 71 -4 3 -53 -26 -108 -64z"/>
<path d="M11635 5640 c-3 -6 -4 -19 0 -30 8 -25 34 -15 28 11 -7 24 -19 33
-28 19z"/>
<path d="M11538 5597 c6 -7 41 -33 76 -58 46 -31 64 -49 60 -60 -6 -21 5 -51
17 -43 5 3 9 14 9 26 0 17 2 18 15 8 9 -8 15 -8 15 -2 0 6 -42 40 -94 76 -93
65 -119 79 -98 53z"/>
<path d="M13147 5573 c-9 -15 47 -233 60 -233 17 0 17 -2 -13 128 -25 102 -35
125 -47 105z"/>
<path d="M3270 5531 c0 -11 5 -23 10 -26 6 -4 10 5 10 19 0 14 -4 26 -10 26
-5 0 -10 -9 -10 -19z"/>
<path d="M15083 5368 c-51 -29 -93 -56 -93 -61 0 -8 150 68 195 99 48 34 -17
9 -102 -38z"/>
<path d="M11830 5402 c0 -5 11 -14 25 -20 29 -13 33 -5 8 14 -21 15 -33 18
-33 6z"/>
<path d="M3277 5383 c-11 -10 -8 -43 3 -43 6 0 10 11 10 25 0 26 -2 29 -13 18z"/>
<path d="M11710 5311 c0 -17 12 -41 21 -41 5 0 9 11 9 25 0 16 -6 25 -15 25
-8 0 -15 -4 -15 -9z"/>
<path d="M11980 5313 c0 -11 200 -127 206 -120 6 6 1 9 -119 81 -81 48 -87 51
-87 39z"/>
<path d="M11695 5200 l-69 -70 69 -70 69 -70 73 72 73 72 -67 68 c-37 38 -70
68 -73 68 -3 0 -37 -31 -75 -70z m135 -58 c-24 -2 -48 2 -57 10 -13 10 -17 10
-20 1 -3 -8 -22 -13 -49 -13 -24 0 -44 -4 -44 -10 0 -10 61 -14 160 -10 l55 2
-55 -56 -55 -56 -60 60 -60 60 60 60 59 60 54 -53 53 -52 -41 -3z"/>
<path d="M13127 5263 c-4 -4 18 -33 50 -65 l57 -58 -77 0 c-45 0 -77 -4 -77
-10 0 -6 32 -10 77 -10 l77 0 -59 -60 c-33 -33 -55 -60 -49 -60 5 0 36 27 69
60 l59 60 63 -62 c34 -34 66 -59 70 -55 4 4 -16 31 -45 60 -47 47 -50 53 -34
64 15 11 14 12 -8 12 -22 1 -20 6 33 59 31 32 57 62 57 67 0 5 -29 -19 -64
-54 -40 -40 -69 -61 -76 -56 -9 6 -9 9 0 15 17 11 4 60 -15 60 -12 0 -14 -7
-9 -27 6 -26 3 -25 -43 20 -27 26 -52 44 -56 40z"/>
<path d="M14622 5205 l-32 -65 -50 0 c-32 0 -49 -4 -45 -10 3 -5 24 -10 46
-10 l39 0 -30 -60 c-16 -33 -30 -62 -30 -65 0 -3 63 -5 140 -5 77 0 140 2 140
5 0 3 -18 41 -40 84 l-39 79 29 12 c17 7 30 16 30 21 0 12 -6 11 -39 -6 -28
-14 -29 -14 -46 25 -30 67 -38 66 -73 -5z m58 -5 c20 -39 20 -39 1 -50 -20
-10 -71 -14 -71 -5 0 7 43 95 47 95 1 0 12 -18 23 -40z m65 -130 c14 -27 25
-52 25 -55 0 -3 -52 -5 -115 -5 l-115 0 16 33 c19 41 78 76 126 77 35 0 39 -3
63 -50z"/>
<path d="M49 5246 c12 -14 11 -22 -3 -55 -24 -52 -18 -81 22 -104 35 -21 59
-14 29 7 -13 10 -17 28 -17 71 l0 58 50 -66 c48 -63 84 -97 104 -97 5 0 2 8
-7 18 -14 15 -14 21 -1 51 21 49 17 77 -12 100 -25 20 -54 28 -54 15 0 -3 9
-13 21 -22 17 -14 20 -26 17 -71 l-3 -54 -60 79 c-33 43 -69 80 -80 83 -17 3
-18 1 -6 -13z"/>
<path d="M3270 5201 c0 -11 5 -23 10 -26 6 -4 10 5 10 19 0 14 -4 26 -10 26
-5 0 -10 -9 -10 -19z"/>
<path d="M1740 5130 c0 -6 45 -10 114 -10 66 0 117 4 121 10 4 6 -37 10 -114
10 -74 0 -121 -4 -121 -10z"/>
<path d="M2215 5130 c4 -6 55 -10 121 -10 69 0 114 4 114 10 0 6 -47 10 -121
10 -77 0 -118 -4 -114 -10z"/>
<path d="M2685 5130 c4 -6 55 -10 121 -10 69 0 114 4 114 10 0 6 -47 10 -121
10 -77 0 -118 -4 -114 -10z"/>
<path d="M5520 5130 c0 -6 45 -10 114 -10 66 0 117 4 121 10 4 6 -37 10 -114
10 -74 0 -121 -4 -121 -10z"/>
<path d="M5990 5130 c0 -6 47 -10 120 -10 73 0 120 4 120 10 0 6 -47 10 -120
10 -73 0 -120 -4 -120 -10z"/>
<path d="M6465 5130 c4 -6 55 -10 121 -10 69 0 114 4 114 10 0 6 -47 10 -121
10 -77 0 -118 -4 -114 -10z"/>
<path d="M6935 5130 c4 -6 55 -10 120 -10 65 0 116 4 120 10 4 6 -38 10 -120
10 -82 0 -124 -4 -120 -10z"/>
<path d="M10715 5130 c4 -6 55 -10 120 -10 65 0 116 4 120 10 4 6 -38 10 -120
10 -82 0 -124 -4 -120 -10z"/>
<path d="M11190 5130 c0 -6 45 -10 114 -10 66 0 117 4 121 10 4 6 -37 10 -114
10 -74 0 -121 -4 -121 -10z"/>
<path d="M12135 5130 c3 -5 43 -10 89 -10 52 0 87 -5 95 -12 11 -10 14 -10 18
0 3 6 11 12 19 12 8 0 14 5 14 10 0 6 -47 10 -121 10 -77 0 -118 -4 -114 -10z"/>
<path d="M13550 5130 c0 -6 45 -10 114 -10 66 0 117 4 121 10 4 6 -37 10 -114
10 -74 0 -121 -4 -121 -10z"/>
<path d="M14970 5130 c0 -6 45 -10 114 -10 66 0 117 4 121 10 4 6 -37 10 -114
10 -74 0 -121 -4 -121 -10z"/>
<path d="M15440 5130 c0 -6 45 -10 114 -10 66 0 117 4 121 10 4 6 -37 10 -114
10 -74 0 -121 -4 -121 -10z"/>
<path d="M15915 5130 c4 -6 55 -10 121 -10 69 0 114 4 114 10 0 6 -47 10 -121
10 -77 0 -118 -4 -114 -10z"/>
<path d="M16385 5130 c4 -6 55 -10 121 -10 69 0 114 4 114 10 0 6 -47 10 -121
10 -77 0 -118 -4 -114 -10z"/>
<path d="M13270 5053 c0 -4 14 -56 31 -115 20 -70 36 -108 45 -108 8 0 14 1
14 3 -2 27 -69 222 -77 225 -7 2 -13 0 -13 -5z"/>
<path d="M12444 5041 c9 -15 197 -123 203 -117 8 8 13 5 -99 70 -95 55 -114
64 -104 47z"/>
<path d="M11826 5011 c-9 -13 2 -51 14 -51 16 0 18 15 6 39 -9 15 -16 20 -20
12z"/>
<path d="M11896 4862 c-9 -15 12 -54 25 -47 12 8 11 18 -4 40 -10 12 -16 14
-21 7z"/>
<path d="M12891 4766 c21 -21 193 -136 197 -131 7 6 13 1 -90 74 -48 33 -92
61 -99 61 -7 0 -10 -2 -8 -4z"/>
<path d="M13848 4689 c-54 -34 -98 -66 -98 -71 0 -6 10 -3 23 5 13 8 58 37
100 63 42 26 77 51 77 55 0 12 6 15 -102 -52z"/>
<path d="M11966 4711 c-7 -11 20 -48 29 -39 9 8 -4 48 -15 48 -5 0 -11 -4 -14
-9z"/>
<path d="M13374 4698 c3 -13 6 -26 6 -30 0 -8 30 -11 30 -4 0 3 -4 16 -10 30
-12 32 -35 35 -26 4z"/>
<path d="M12036 4561 c-8 -13 20 -45 33 -37 8 5 8 13 1 27 -11 20 -25 25 -34
10z"/>
<path d="M13182 4559 c5 -16 48 -44 48 -31 0 5 -12 17 -26 27 -17 11 -25 13
-22 4z"/>
<path d="M13420 4542 c0 -5 7 -31 15 -58 20 -65 19 -81 -5 -94 -17 -9 -27 -5
-62 24 -23 20 -46 36 -52 36 -6 -1 11 -20 37 -43 44 -38 47 -45 33 -56 -9 -8
-14 -16 -11 -19 2 -3 11 1 19 7 13 11 21 6 47 -23 44 -51 59 -45 16 7 -34 41
-34 44 -16 55 17 11 21 9 29 -13 6 -15 10 -31 10 -36 0 -5 7 -9 16 -9 11 0 14
5 9 18 -22 58 -19 75 21 109 21 18 34 33 27 33 -6 0 -25 -12 -42 -26 -23 -19
-32 -22 -35 -12 -3 7 -11 33 -18 57 -13 39 -38 69 -38 43z"/>
<path d="M12110 4411 c0 -21 13 -41 26 -41 17 0 17 5 4 31 -11 20 -30 26 -30
10z"/>
<path d="M12180 4262 c0 -5 6 -16 13 -27 16 -20 31 -7 21 19 -6 16 -34 23 -34
8z"/>
<path d="M5861 4077 c-24 -71 -44 -127 -46 -125 -2 2 -20 55 -40 118 -21 63
-43 118 -49 122 -16 11 -56 10 -56 -2 0 -5 7 -10 15 -10 13 0 15 -22 15 -135
0 -113 -2 -135 -15 -135 -8 0 -15 -4 -15 -10 0 -5 21 -10 46 -10 27 0 43 4 39
10 -3 6 -13 10 -21 10 -11 0 -14 21 -13 113 l1 112 41 -122 c23 -68 44 -123
47 -123 3 0 24 55 47 123 l41 122 1 -112 c1 -92 -2 -113 -13 -113 -8 0 -18 -4
-21 -10 -4 -6 13 -10 44 -10 28 0 51 5 51 10 0 6 -7 10 -15 10 -13 0 -15 22
-15 135 0 113 2 135 15 135 27 0 16 18 -13 22 -29 4 -29 3 -71 -125z"/>
<path d="M13524 4188 c3 -13 6 -26 6 -30 0 -5 7 -8 16 -8 11 0 14 6 10 18 -4
11 1 9 14 -7 11 -13 24 -21 28 -16 7 7 -55 65 -71 65 -5 0 -7 -10 -3 -22z"/>
<path d="M3695 4190 c-3 -5 3 -10 14 -10 20 0 21 -5 21 -135 0 -111 -3 -135
-14 -135 -8 0 -18 -4 -21 -10 -4 -6 33 -10 104 -10 l111 0 0 46 c0 27 -4 43
-10 39 -5 -3 -10 -19 -10 -36 l0 -29 -65 0 -65 0 0 135 c0 130 1 135 21 135
11 0 17 5 14 10 -3 6 -26 10 -50 10 -24 0 -47 -4 -50 -10z"/>
<path d="M4720 4191 c0 -6 7 -11 15 -11 13 0 15 -22 15 -135 0 -113 -2 -135
-15 -135 -8 0 -15 -4 -15 -10 0 -5 23 -10 51 -10 31 0 48 4 44 10 -3 6 -13 10
-20 10 -12 0 -15 28 -17 143 l-3 142 -27 3 c-16 2 -28 -1 -28 -7z"/>
<path d="M5090 4190 c0 -5 9 -10 20 -10 19 0 20 -7 20 -135 0 -128 -1 -135
-20 -135 -11 0 -20 -4 -20 -10 0 -5 21 -10 46 -10 27 0 43 4 39 10 -3 6 -13
10 -21 10 -11 0 -14 22 -14 122 0 105 2 120 13 103 7 -11 47 -73 88 -139 l74
-119 3 152 c2 144 3 151 23 151 11 0 17 5 14 10 -3 6 -24 10 -46 10 -21 0 -39
-4 -39 -10 0 -5 7 -10 15 -10 12 0 15 -19 15 -107 0 -59 -4 -103 -8 -98 -5 6
-37 55 -72 110 -34 55 -68 103 -74 107 -16 11 -56 10 -56 -2z"/>
<path d="M5407 4193 c-10 -10 -8 -93 2 -93 5 0 11 18 15 40 6 38 8 40 41 40
l35 0 0 -135 c0 -111 -3 -135 -14 -135 -8 0 -18 -4 -21 -10 -4 -6 13 -10 44
-10 28 0 51 5 51 10 0 6 -7 10 -15 10 -13 0 -15 22 -15 135 l0 135 35 0 c31 0
35 -3 35 -27 0 -16 5 -35 10 -43 7 -11 10 0 10 38 l0 52 -103 0 c-57 0 -107
-3 -110 -7z"/>
<path d="M6015 4190 c-3 -5 3 -10 14 -10 20 0 21 -5 21 -135 0 -111 -3 -135
-14 -135 -8 0 -18 -4 -21 -10 -4 -6 33 -10 104 -10 l111 0 0 45 c0 52 -17 61
-22 13 -3 -33 -3 -33 -65 -36 l-63 -3 0 136 c0 130 1 135 21 135 11 0 17 5 14
10 -3 6 -26 10 -50 10 -24 0 -47 -4 -50 -10z"/>
<path d="M13153 4117 c-70 -86 -105 -137 -95 -137 6 0 21 15 33 33 13 17 44
57 71 88 26 31 48 59 48 63 0 16 -19 1 -57 -47z"/>
<path d="M12250 4112 c0 -5 6 -16 13 -27 16 -20 33 -5 23 20 -6 16 -36 21 -36
7z"/>
<path d="M4015 4091 c-39 -16 -60 -51 -60 -98 0 -38 5 -49 34 -75 30 -27 39
-30 78 -25 25 3 52 12 61 21 22 21 7 33 -16 13 -41 -37 -114 -11 -128 45 l-6
27 83 3 c98 3 111 18 61 68 -31 31 -66 37 -107 21z m95 -30 c19 -36 12 -41
-55 -41 -50 0 -65 3 -65 14 0 41 100 63 120 27z"/>
<path d="M4203 4086 c9 -7 35 -53 56 -102 21 -49 41 -89 45 -89 4 0 25 40 47
89 21 49 47 95 57 102 15 12 11 13 -31 14 -30 0 -46 -4 -42 -10 3 -5 13 -10
21 -10 8 0 14 -2 14 -5 0 -12 -54 -135 -59 -135 -4 0 -18 30 -32 67 -24 62
-25 69 -10 80 13 10 8 12 -34 12 -44 0 -48 -1 -32 -13z"/>
<path d="M4525 4091 c-62 -26 -82 -119 -34 -167 44 -43 142 -40 157 6 4 11 0
11 -21 -3 -53 -35 -119 -12 -133 46 l-6 27 86 0 c78 0 86 2 86 19 0 11 -12 33
-26 50 -27 32 -65 40 -109 22z m95 -30 c19 -36 12 -41 -55 -41 -69 0 -78 7
-45 40 27 27 85 27 100 1z"/>
<path d="M13659 4046 c-3 -3 11 -39 31 -78 20 -40 42 -89 49 -108 7 -19 15
-29 18 -23 5 15 -89 218 -98 209z"/>
<path d="M13570 4028 c0 -7 9 -40 19 -73 10 -33 24 -79 30 -102 7 -26 18 -43
26 -43 8 0 15 1 15 3 -2 26 -69 222 -78 225 -7 2 -12 -2 -12 -10z"/>
<path d="M12335 3968 c-9 -21 7 -49 22 -40 8 5 8 14 -2 32 -12 21 -15 23 -20
8z"/>
<path d="M12406 3822 c-9 -15 4 -42 20 -42 18 0 18 11 1 35 -9 11 -16 14 -21
7z"/>
<path d="M12902 3708 c-37 -90 -55 -148 -50 -154 3 -2 24 46 47 107 48 123 50
161 3 47z"/>
<path d="M13790 3698 c0 -15 5 -30 10 -33 13 -8 13 25 0 45 -8 12 -10 9 -10
-12z"/>
<path d="M13670 3686 c0 -25 12 -46 26 -46 17 0 17 1 4 34 -10 28 -30 35 -30
12z"/>
<path d="M12476 3671 c-7 -11 20 -48 29 -39 9 8 -4 48 -15 48 -5 0 -11 -4 -14
-9z"/>
<path d="M12546 3521 c-8 -13 20 -45 33 -37 8 5 8 13 1 27 -11 20 -25 25 -34
10z"/>
<path d="M12620 3368 c0 -22 17 -41 29 -34 8 5 8 13 1 27 -12 21 -30 26 -30 7z"/>
<path d="M1740 3170 c0 -6 47 -10 121 -10 77 0 118 4 114 10 -4 6 -55 10 -121
10 -69 0 -114 -4 -114 -10z"/>
<path d="M2215 3170 c-4 -6 37 -10 114 -10 74 0 121 4 121 10 0 6 -45 10 -114
10 -66 0 -117 -4 -121 -10z"/>
<path d="M2690 3170 c0 -6 45 -10 115 -10 70 0 115 4 115 10 0 6 -45 10 -115
10 -70 0 -115 -4 -115 -10z"/>
<path d="M3630 3170 c0 -6 47 -10 121 -10 77 0 118 4 114 10 -4 6 -55 10 -121
10 -69 0 -114 -4 -114 -10z"/>
<path d="M4100 3170 c0 -6 47 -10 120 -10 73 0 120 4 120 10 0 6 -47 10 -120
10 -73 0 -120 -4 -120 -10z"/>
<path d="M4575 3170 c-4 -6 37 -10 114 -10 74 0 121 4 121 10 0 6 -45 10 -114
10 -66 0 -117 -4 -121 -10z"/>
<path d="M5050 3170 c0 -6 45 -10 115 -10 70 0 115 4 115 10 0 6 -45 10 -115
10 -70 0 -115 -4 -115 -10z"/>
<path d="M5520 3170 c0 -6 47 -10 121 -10 77 0 118 4 114 10 -4 6 -55 10 -121
10 -69 0 -114 -4 -114 -10z"/>
<path d="M5990 3170 c0 -6 47 -10 120 -10 73 0 120 4 120 10 0 6 -47 10 -120
10 -73 0 -120 -4 -120 -10z"/>
<path d="M6465 3170 c-4 -6 37 -10 114 -10 74 0 121 4 121 10 0 6 -45 10 -114
10 -66 0 -117 -4 -121 -10z"/>
<path d="M6940 3170 c0 -6 45 -10 115 -10 70 0 115 4 115 10 0 6 -45 10 -115
10 -70 0 -115 -4 -115 -10z"/>
<path d="M10720 3170 c0 -6 45 -10 115 -10 70 0 115 4 115 10 0 6 -45 10 -115
10 -70 0 -115 -4 -115 -10z"/>
<path d="M11190 3170 c0 -6 47 -10 121 -10 77 0 118 4 114 10 -4 6 -55 10
-121 10 -69 0 -114 -4 -114 -10z"/>
<path d="M11660 3170 c0 -6 47 -10 120 -10 73 0 120 4 120 10 0 6 -47 10 -120
10 -73 0 -120 -4 -120 -10z"/>
<path d="M12135 3170 c-4 -6 37 -10 114 -10 74 0 121 4 121 10 0 6 -45 10
-114 10 -66 0 -117 -4 -121 -10z"/>
<path d="M13080 3170 c0 -6 45 -10 115 -10 70 0 115 4 115 10 0 6 -45 10 -115
10 -70 0 -115 -4 -115 -10z"/>
<path d="M14500 3170 c0 -6 45 -10 115 -10 70 0 115 4 115 10 0 6 -45 10 -115
10 -70 0 -115 -4 -115 -10z"/>
<path d="M14970 3170 c0 -6 45 -10 115 -10 70 0 115 4 115 10 0 6 -45 10 -115
10 -70 0 -115 -4 -115 -10z"/>
<path d="M15440 3170 c0 -6 47 -10 121 -10 77 0 118 4 114 10 -4 6 -55 10
-121 10 -69 0 -114 -4 -114 -10z"/>
<path d="M15915 3170 c-4 -6 37 -10 114 -10 74 0 121 4 121 10 0 6 -45 10
-114 10 -66 0 -117 -4 -121 -10z"/>
<path d="M16390 3170 c0 -6 45 -10 115 -10 70 0 115 4 115 10 0 6 -45 10 -115
10 -70 0 -115 -4 -115 -10z"/>
<path d="M1798 1933 c34 -2 90 -2 125 0 34 2 6 3 -63 3 -69 0 -97 -1 -62 -3z"/>
<path d="M2268 1933 c34 -2 90 -2 125 0 34 2 6 3 -63 3 -69 0 -97 -1 -62 -3z"/>
<path d="M2738 1933 c34 -2 90 -2 125 0 34 2 6 3 -63 3 -69 0 -97 -1 -62 -3z"/>
<path d="M3688 1933 c34 -2 90 -2 125 0 34 2 6 3 -63 3 -69 0 -97 -1 -62 -3z"/>
<path d="M4158 1933 c34 -2 90 -2 125 0 34 2 6 3 -63 3 -69 0 -97 -1 -62 -3z"/>
<path d="M4628 1933 c34 -2 90 -2 125 0 34 2 6 3 -63 3 -69 0 -97 -1 -62 -3z"/>
<path d="M5103 1933 c37 -2 96 -2 130 0 34 2 4 3 -68 3 -71 0 -99 -1 -62 -3z"/>
<path d="M5578 1933 c34 -2 90 -2 125 0 34 2 6 3 -63 3 -69 0 -97 -1 -62 -3z"/>
<path d="M6048 1933 c34 -2 90 -2 125 0 34 2 6 3 -63 3 -69 0 -97 -1 -62 -3z"/>
<path d="M6518 1933 c34 -2 90 -2 125 0 34 2 6 3 -63 3 -69 0 -97 -1 -62 -3z"/>
<path d="M6993 1933 c37 -2 96 -2 130 0 34 2 4 3 -68 3 -71 0 -99 -1 -62 -3z"/>
<path d="M10773 1933 c37 -2 96 -2 130 0 34 2 4 3 -68 3 -71 0 -99 -1 -62 -3z"/>
<path d="M11248 1933 c34 -2 90 -2 125 0 34 2 6 3 -63 3 -69 0 -97 -1 -62 -3z"/>
<path d="M11718 1933 c34 -2 90 -2 125 0 34 2 6 3 -63 3 -69 0 -97 -1 -62 -3z"/>
<path d="M12188 1933 c34 -2 90 -2 125 0 34 2 6 3 -63 3 -69 0 -97 -1 -62 -3z"/>
<path d="M13138 1933 c34 -2 90 -2 125 0 34 2 6 3 -63 3 -69 0 -97 -1 -62 -3z"/>
<path d="M14078 1933 c34 -2 90 -2 125 0 34 2 6 3 -63 3 -69 0 -97 -1 -62 -3z"/>
<path d="M14548 1933 c34 -2 90 -2 125 0 34 2 6 3 -63 3 -69 0 -97 -1 -62 -3z"/>
<path d="M15028 1933 c34 -2 90 -2 125 0 34 2 6 3 -63 3 -69 0 -97 -1 -62 -3z"/>
<path d="M15498 1933 c34 -2 90 -2 125 0 34 2 6 3 -63 3 -69 0 -97 -1 -62 -3z"/>
<path d="M15968 1933 c34 -2 90 -2 125 0 34 2 6 3 -63 3 -69 0 -97 -1 -62 -3z"/>
<path d="M16438 1933 c34 -2 90 -2 125 0 34 2 6 3 -63 3 -69 0 -97 -1 -62 -3z"/>
<path d="M939 1493 c-52 -14 -75 -182 -34 -250 19 -33 40 -43 92 -43 59 0 87
48 87 150 1 124 -46 170 -145 143z m86 -27 c62 -63 33 -256 -40 -256 -29 0
-63 45 -70 94 -14 94 20 186 70 186 9 0 27 -11 40 -24z"/>
<path d="M12652 933 c-56 -55 -54 -200 4 -257 23 -23 99 -21 123 3 37 37 51
131 31 201 -16 55 -34 72 -84 77 -40 5 -48 2 -74 -24z m103 -7 c62 -63 33
-256 -40 -256 -29 0 -62 44 -69 93 -10 67 2 136 30 164 29 29 49 29 79 -1z"/>
<path d="M4079 389 c-51 -54 -82 -214 -50 -252 20 -25 86 -22 112 4 54 54 87
205 55 254 -25 38 -79 35 -117 -6z m97 -13 c3 -13 4 -38 2 -57 -3 -34 -3 -34
-60 -37 -32 -2 -58 1 -58 6 0 13 22 62 40 90 21 31 68 30 76 -2z m-6 -116 c0
-41 -64 -130 -93 -130 -23 0 -38 48 -31 96 l6 44 59 0 c34 0 59 -4 59 -10z"/>
<path d="M12510 410 c0 -5 7 -10 15 -10 13 0 15 -22 15 -134 0 -120 -2 -135
-17 -139 -10 -3 7 -5 37 -4 30 0 45 2 33 4 -21 4 -23 10 -23 74 l0 69 75 0 75
0 0 -69 c0 -58 -3 -70 -17 -74 -10 -3 7 -5 37 -4 30 0 45 2 33 4 -23 4 -23 7
-23 139 0 110 3 134 14 134 8 0 18 5 21 10 4 6 -13 10 -44 10 -28 0 -51 -4
-51 -10 0 -5 7 -10 15 -10 12 0 15 -13 15 -60 l0 -60 -75 0 -75 0 0 60 c0 46
3 60 14 60 8 0 18 5 21 10 4 6 -13 10 -44 10 -28 0 -51 -4 -51 -10z"/>
<path d="M13423 413 c-8 -3 -13 -22 -13 -48 0 -33 -4 -45 -17 -48 -17 -4 -17
-5 0 -6 14 -1 17 -11 17 -68 0 -87 15 -117 58 -121 35 -4 62 11 62 34 0 10 -6
8 -20 -6 -45 -45 -70 -11 -70 95 0 62 1 64 28 68 l27 4 -27 2 c-25 1 -27 5
-30 49 -2 34 -7 47 -15 45z"/>
<path d="M13857 402 c-10 -10 -17 -33 -17 -50 0 -24 -5 -32 -22 -35 l-23 -4
23 -2 c21 -1 22 -5 22 -90 0 -85 -1 -90 -22 -94 -13 -2 2 -4 32 -4 30 -1 47 1
38 4 -16 4 -18 17 -18 93 l0 89 28 4 27 4 -27 2 c-23 1 -28 6 -28 25 0 31 10
56 22 56 5 0 7 -4 4 -9 -3 -5 0 -14 8 -20 10 -8 16 -8 26 4 32 39 -39 65 -73
27z"/>
<path d="M13985 410 c3 -5 13 -10 21 -10 11 0 14 -24 14 -134 0 -132 0 -135
-22 -139 -13 -2 2 -4 32 -4 30 -1 47 1 38 4 -16 4 -18 20 -18 149 l0 144 -36
0 c-21 0 -33 -4 -29 -10z"/>
<path d="M15137 327 c-4 -10 -20 -13 -61 -9 -45 4 -61 1 -76 -13 -38 -35 -18
-61 73 -95 64 -24 81 -45 52 -66 -43 -31 -97 -14 -132 42 -10 16 -12 11 -12
-36 0 -46 2 -52 12 -39 10 13 24 15 63 12 69 -7 96 8 92 50 -3 29 -10 35 -76
67 -75 35 -83 49 -40 64 38 13 76 -1 98 -37 l20 -32 0 53 c0 52 -4 63 -13 39z"/>
<path d="M12882 298 c-35 -38 -44 -74 -28 -112 18 -43 51 -66 97 -66 34 0 97
35 85 48 -3 3 -14 -2 -24 -11 -10 -9 -32 -20 -49 -23 -26 -5 -37 -1 -57 19
-14 15 -26 38 -26 52 0 25 1 25 80 25 77 0 80 1 80 23 0 13 -9 33 -20 45 -30
31 -108 31 -138 0z m109 2 c11 -6 19 -21 19 -35 0 -24 -3 -25 -65 -25 -72 0
-78 8 -40 45 26 27 54 31 86 15z"/>
<path d="M13138 309 c-22 -12 -24 -39 -3 -39 8 0 15 7 15 15 0 8 12 18 26 21
37 9 79 -7 79 -30 0 -16 -13 -22 -64 -32 -36 -8 -68 -19 -73 -26 -13 -21 -9
-66 8 -82 19 -20 93 -21 119 -2 16 11 21 11 33 0 7 -8 22 -14 33 -14 19 0 19
0 -1 20 -15 15 -20 33 -20 74 0 76 -25 106 -88 106 -26 0 -55 -5 -64 -11z
m120 -110 c-2 -31 -9 -44 -30 -57 -39 -23 -82 -7 -86 32 -4 34 6 46 50 56 66
16 69 14 66 -31z"/>
<path d="M14148 313 c21 -4 22 -9 22 -83 0 -70 2 -81 22 -94 26 -18 80 -21
109 -6 13 7 19 7 19 0 0 -5 17 -9 38 -9 23 1 28 3 15 6 -22 4 -23 9 -23 99 l0
94 -32 -1 c-18 -1 -25 -3 -15 -6 14 -4 17 -16 17 -78 0 -79 -7 -91 -57 -101
-49 -10 -63 14 -63 107 l0 79 -37 -1 c-24 -1 -29 -3 -15 -6z"/>
<path d="M14449 313 c17 -7 55 -49 72 -80 10 -19 8 -27 -21 -60 -18 -21 -40
-41 -49 -45 -9 -4 7 -6 34 -6 34 0 42 2 26 7 l-24 6 29 34 28 33 29 -32 c23
-26 26 -34 16 -41 -9 -6 0 -9 27 -9 l40 0 -43 46 c-24 26 -43 52 -43 58 1 13
63 82 82 89 7 3 -7 5 -32 5 -25 0 -37 -2 -27 -5 24 -6 22 -15 -12 -47 l-28
-27 -26 33 c-24 30 -25 34 -9 40 9 4 -5 7 -33 7 -27 -1 -44 -3 -36 -6z"/>
<path d="M14763 305 c-32 -23 -47 -77 -33 -120 15 -45 44 -65 95 -65 41 0 85
22 85 42 0 6 -8 4 -18 -5 -10 -9 -32 -19 -49 -23 -36 -7 -79 26 -89 69 l-6 27
86 0 c77 0 86 2 86 19 0 10 -9 30 -21 45 -17 21 -29 26 -68 26 -25 0 -56 -7
-68 -15z m111 -11 c9 -8 16 -24 16 -35 0 -17 -7 -19 -65 -19 -73 0 -84 14 -39
49 32 25 67 27 88 5z"/>
<path d="M4304 194 c3 -9 -1 -41 -9 -73 -16 -62 -12 -96 13 -106 17 -6 58 32
47 43 -3 3 -12 -3 -19 -14 -8 -10 -18 -15 -22 -11 -7 6 2 47 33 160 4 13 -1
17 -22 17 -21 0 -26 -4 -21 -16z"/>
</g>
</svg>
