<?xml version="1.0" standalone="no"?>
<!DOCTYPE svg PUBLIC "-//W3C//DTD SVG 20010904//EN"
 "http://www.w3.org/TR/2001/REC-SVG-20010904/DTD/svg10.dtd">
<svg version="1.0" xmlns="http://www.w3.org/2000/svg"
 width="819.000000pt" height="810.000000pt" viewBox="0 0 819.000000 810.000000"
 preserveAspectRatio="xMidYMid meet">
<metadata>
Created by potrace 1.16, written by Peter Selinger 2001-2019
</metadata>
<g transform="translate(0.000000,810.000000) scale(0.100000,-0.100000)"
fill="#000000" stroke="none">
<path d="M3420 7968 l0 -112 -60 59 c-33 32 -62 57 -64 54 -3 -3 19 -30 49
-59 30 -30 55 -58 55 -62 0 -4 -24 -9 -52 -11 l-53 -3 53 -2 c28 -1 52 -6 52
-10 0 -4 -25 -32 -55 -62 -30 -29 -52 -56 -49 -59 2 -3 31 22 64 54 l60 59 0
-702 0 -702 -135 0 -135 0 0 -110 c0 -60 -3 -110 -7 -110 -4 0 -31 23 -60 52
-29 29 -53 48 -53 42 0 -5 25 -34 55 -64 30 -30 55 -59 55 -65 0 -6 -25 -35
-55 -65 -30 -30 -55 -59 -55 -64 0 -6 27 16 60 49 l60 59 0 -357 0 -357 135 0
135 0 0 -405 0 -406 -30 -59 c-25 -49 -35 -60 -55 -60 -13 0 -27 -4 -30 -10
-4 -6 5 -10 20 -10 l25 0 -30 -60 c-16 -33 -30 -62 -30 -65 0 -3 29 -5 65 -5
l65 0 0 -334 c0 -258 -3 -336 -12 -340 -10 -5 -10 -7 0 -12 9 -4 12 -75 12
-305 l0 -300 -30 -59 c-27 -53 -34 -60 -60 -60 -17 0 -30 -4 -30 -10 0 -5 11
-10 25 -10 l25 0 -30 -60 c-16 -33 -30 -62 -30 -65 0 -3 29 -5 65 -5 l65 0 0
-365 0 -365 -32 -64 c-27 -56 -36 -66 -62 -69 -29 -4 -29 -5 -8 -12 12 -4 22
-9 22 -11 0 -3 -11 -27 -25 -54 -14 -27 -25 -54 -25 -60 0 -6 27 -10 65 -10
l65 0 0 -255 0 -255 -32 -65 -32 -65 -973 0 c-642 0 -973 -3 -973 -10 0 -7
1013 -10 3020 -10 2007 0 3020 3 3020 10 0 7 -539 10 -1597 10 l-1597 0 59 60
c73 74 61 80 -13 7 l-54 -52 6 50 c3 28 23 158 43 290 l38 240 5 -109 c3 -75
9 -111 18 -114 9 -3 12 39 12 189 l0 193 55 -54 c30 -29 58 -51 62 -47 4 4
-18 32 -47 62 l-54 55 46 0 c26 0 50 5 53 10 4 6 -16 10 -52 10 l-57 0 57 58
c77 77 73 92 -4 17 l-61 -60 6 50 c3 28 16 112 28 188 l21 137 49 0 48 0 0
292 0 292 58 -57 c32 -32 61 -54 65 -50 4 4 -21 35 -55 70 l-62 63 62 63 c34
35 59 66 55 70 -4 4 -33 -18 -66 -50 -56 -56 -59 -57 -53 -28 3 17 13 77 21
135 9 58 30 202 48 320 l33 215 69 3 70 3 -3 402 -3 402 53 -53 c30 -28 58
-52 63 -52 5 0 -17 27 -50 60 l-59 60 97 0 c63 0 96 4 92 10 -3 6 -47 10 -98
10 l-91 0 59 60 c33 33 55 60 49 60 -5 0 -32 -22 -59 -50 -27 -27 -50 -48 -53
-46 -2 2 15 123 37 267 79 513 230 1505 237 1557 l7 52 51 2 c28 1 80 3 116 3
36 1 89 5 118 10 37 5 52 4 52 -4 0 -14 47 -15 52 0 2 7 193 22 563 45 661 40
624 38 605 20 -8 -7 -51 -27 -95 -44 -44 -17 -71 -31 -60 -32 32 0 148 49 181
78 30 25 36 44 94 272 162 643 240 954 240 957 0 2 38 3 85 3 l85 0 -56 112
-57 113 18 73 c18 78 14 114 -5 41 -15 -61 -28 -96 -29 -81 -2 34 -27 0 -86
-118 -36 -71 -65 -132 -65 -135 0 -3 20 -5 45 -5 25 0 45 -4 45 -9 0 -6 -43
-180 -96 -388 -53 -208 -120 -472 -148 -588 l-52 -210 -64 -7 c-36 -3 -398
-26 -805 -49 -407 -23 -741 -43 -742 -44 -2 -1 -127 -811 -139 -905 -8 -59 -7
-60 -28 33 -4 15 -10 27 -15 27 -6 0 -6 -13 0 -32 12 -43 12 -243 -1 -305 -5
-26 -21 -124 -35 -218 -57 -381 -52 -385 -54 53 l-1 392 -650 0 c-513 0 -650
3 -650 13 0 6 12 36 25 66 14 30 24 59 22 65 -5 14 -36 -45 -53 -99 -11 -34
-13 8 -13 283 -1 303 0 323 17 318 9 -2 44 -10 77 -16 33 -6 70 -13 83 -16 12
-2 22 0 22 5 0 5 -45 17 -100 26 -84 15 -100 21 -100 37 0 15 8 18 50 18 28 0
50 5 50 10 0 6 -22 10 -50 10 l-50 0 0 110 0 110 95 0 c57 0 95 4 95 10 0 6
-38 10 -95 10 l-95 0 0 702 0 702 60 -59 c33 -33 60 -55 60 -50 0 5 -26 35
-57 67 l-57 58 49 2 50 1 -48 6 -48 6 56 55 c30 30 55 59 55 64 0 6 -27 -16
-60 -49 l-60 -59 0 106 c0 61 -4 110 -10 113 -6 4 -10 -34 -10 -107z m3552
-151 l-27 -107 -37 0 -38 0 57 115 c32 63 61 111 65 107 4 -4 -4 -56 -20 -115z
m127 -99 c1 -5 -28 -8 -64 -8 -39 0 -65 4 -65 10 0 12 28 135 37 160 3 9 22
-19 48 -70 24 -47 44 -88 44 -92z m-3669 -1443 l0 -105 -65 0 c-37 0 -65 -4
-65 -10 0 -6 28 -10 65 -10 51 0 65 -3 65 -15 0 -8 -7 -15 -15 -15 -8 0 -15
-4 -15 -10 0 -5 7 -10 15 -10 13 0 15 -43 15 -325 l0 -325 -130 0 -130 0 0
342 0 342 60 -59 c33 -32 63 -56 67 -52 4 4 -22 37 -57 72 l-64 65 64 65 c35
36 58 65 50 65 -8 0 -38 -23 -67 -52 l-53 -52 0 97 0 97 130 0 130 0 0 -105z
m1300 -1312 l0 -457 -55 54 c-30 29 -57 52 -60 49 -2 -3 20 -30 50 -59 30 -30
55 -61 55 -70 0 -9 -25 -40 -55 -70 -30 -30 -55 -59 -55 -64 0 -6 27 16 61 49
l60 60 -5 -35 c-4 -19 -13 -82 -22 -140 -26 -175 -43 -288 -67 -445 l-23 -150
-57 -3 -57 -3 0 -367 0 -366 -58 57 c-32 32 -61 54 -65 50 -4 -4 18 -33 50
-65 l57 -58 -117 0 c-71 0 -117 -4 -117 -10 0 -6 46 -10 117 -10 l117 0 -57
-58 c-72 -73 -62 -91 11 -20 l54 53 -6 -35 c-5 -29 -52 -342 -73 -482 -5 -33
-9 -37 -37 -40 l-31 -3 -3 -189 -2 -190 -55 54 c-30 30 -58 51 -62 47 -4 -4
20 -34 52 -67 l59 -60 -42 0 c-23 0 -42 -4 -42 -10 0 -5 19 -10 42 -10 l42 0
-59 -60 c-33 -33 -55 -60 -50 -60 5 0 33 24 63 52 45 45 52 49 48 28 -5 -20
-69 -452 -78 -520 -1 -8 -4 25 -7 74 -4 58 -10 91 -18 94 -10 3 -13 -37 -13
-179 l0 -183 -60 59 c-33 33 -60 55 -60 50 0 -5 27 -37 60 -70 l61 -61 -338 1
c-186 1 -348 3 -360 3 -17 2 -30 17 -52 60 -36 72 -46 190 -35 422 l7 160 63
0 c35 0 64 2 64 5 0 3 -14 32 -30 65 -24 47 -27 60 -15 60 8 0 15 5 15 10 0 6
-9 10 -20 10 -14 0 -29 17 -52 63 l-31 62 -1 368 -1 367 68 0 c37 0 67 2 67 5
0 3 -14 32 -30 65 -24 47 -27 60 -15 60 8 0 15 5 15 10 0 6 -9 10 -20 10 -14
0 -28 17 -49 59 l-30 58 -3 219 c-2 121 -2 262 -1 314 1 52 1 245 0 428 l-3
332 68 0 c37 0 68 2 68 5 0 3 -14 32 -30 65 -24 47 -27 60 -15 60 8 0 15 5 15
10 0 6 -9 10 -20 10 -14 0 -29 18 -52 63 l-32 62 -2 378 c-1 208 3 377 7 377
5 0 9 11 9 25 l0 25 640 0 640 0 0 -457z m-1310 -433 c0 -33 -3 -40 -20 -40
-11 0 -20 2 -20 5 0 7 33 75 37 75 2 0 3 -18 3 -40z m50 -32 c0 -5 -7 -8 -15
-8 -10 0 -15 10 -15 33 l1 32 14 -25 c8 -14 14 -28 15 -32z m-50 -83 l0 -55
-55 0 -55 0 27 55 c23 47 31 55 55 55 27 0 28 -1 28 -55z m93 0 l27 -55 -55 0
c-51 0 -55 2 -55 24 0 56 12 86 34 86 16 0 28 -14 49 -55z m1217 -435 l0 -300
-51 0 c-43 0 -50 2 -45 18 2 9 14 80 26 157 11 77 27 181 35 230 7 50 17 114
20 143 4 28 9 52 11 52 2 0 4 -135 4 -300z m-125 -362 c-7 -46 -41 -262 -61
-393 -9 -60 -18 -112 -20 -114 -2 -2 -4 118 -4 267 l0 272 45 0 46 0 -6 -32z
m-1185 -648 c0 -33 -3 -40 -20 -40 -11 0 -20 2 -20 5 0 7 33 75 37 75 2 0 3
-18 3 -40z m40 0 l20 -40 -25 0 c-23 0 -25 4 -25 40 0 22 2 40 5 40 2 0 14
-18 25 -40z m-40 -115 l0 -55 -55 0 -55 0 27 55 c23 47 31 55 55 55 27 0 28
-1 28 -55z m95 5 c14 -27 25 -52 25 -55 0 -3 -25 -5 -55 -5 l-55 0 0 55 c0 54
0 55 30 55 26 0 33 -7 55 -50z m981 -517 c-3 -7 -19 -13 -37 -13 l-31 0 7 53
c3 28 12 88 20 132 7 44 19 121 27 170 l13 90 3 -210 c1 -115 0 -215 -2 -222z
m-97 -55 c0 -13 -6 -59 -14 -103 l-13 -80 -1 103 c-1 84 2 102 14 102 9 0 15
-9 14 -22z m-940 -325 l21 -43 -25 0 c-23 0 -25 3 -25 47 0 53 0 53 29 -4z
m-39 -3 c0 -33 -3 -40 -20 -40 -11 0 -20 2 -20 5 0 7 33 75 37 75 2 0 3 -18 3
-40z m0 -115 l0 -55 -55 0 -55 0 27 55 c23 47 31 55 55 55 27 0 28 -1 28 -55z
m95 5 c14 -27 25 -52 25 -55 0 -3 -22 -5 -49 -5 -46 0 -49 1 -55 31 -13 65 -9
79 24 79 26 0 33 -7 55 -50z m-95 -680 c0 -33 -3 -40 -20 -40 -11 0 -20 2 -20
5 0 7 33 75 37 75 2 0 3 -18 3 -40z m44 -7 c16 -32 16 -33 -4 -33 -16 0 -20 7
-20 37 0 41 1 41 24 -4z"/>
<path d="M3230 6140 c0 -5 14 -10 31 -10 17 0 28 4 24 10 -3 6 -17 10 -31 10
-13 0 -24 -4 -24 -10z"/>
<path d="M3775 4480 c-4 -6 37 -10 114 -10 74 0 121 4 121 10 0 6 -45 10 -114
10 -66 0 -117 -4 -121 -10z"/>
<path d="M4250 4480 c0 -6 47 -10 121 -10 77 0 118 4 114 10 -4 6 -55 10 -121
10 -69 0 -114 -4 -114 -10z"/>
<path d="M3560 3660 c0 -5 11 -10 25 -10 14 0 25 5 25 10 0 6 -11 10 -25 10
-14 0 -25 -4 -25 -10z"/>
<path d="M3730 3660 c0 -5 11 -10 25 -10 14 0 25 5 25 10 0 6 -11 10 -25 10
-14 0 -25 -4 -25 -10z"/>
<path d="M3890 3660 c0 -5 11 -10 25 -10 14 0 25 5 25 10 0 6 -11 10 -25 10
-14 0 -25 -4 -25 -10z"/>
<path d="M4060 3660 c0 -5 11 -10 25 -10 14 0 25 5 25 10 0 6 -11 10 -25 10
-14 0 -25 -4 -25 -10z"/>
<path d="M4220 3660 c0 -5 11 -10 25 -10 14 0 25 5 25 10 0 6 -11 10 -25 10
-14 0 -25 -4 -25 -10z"/>
<path d="M4390 3660 c0 -5 11 -10 25 -10 14 0 25 5 25 10 0 6 -11 10 -25 10
-14 0 -25 -4 -25 -10z"/>
<path d="M3770 2920 c0 -6 47 -10 120 -10 73 0 120 4 120 10 0 6 -47 10 -120
10 -73 0 -120 -4 -120 -10z"/>
<path d="M3775 1910 c4 -6 55 -10 121 -10 69 0 114 4 114 10 0 6 -47 10 -121
10 -77 0 -118 -4 -114 -10z"/>
<path d="M1468 7833 c34 -2 90 -2 125 0 34 2 6 3 -63 3 -69 0 -97 -1 -62 -3z"/>
<path d="M1938 7833 c34 -2 90 -2 125 0 34 2 6 3 -63 3 -69 0 -97 -1 -62 -3z"/>
<path d="M2418 7833 c34 -2 90 -2 125 0 34 2 6 3 -63 3 -69 0 -97 -1 -62 -3z"/>
<path d="M2888 7833 c34 -2 90 -2 125 0 34 2 6 3 -63 3 -69 0 -97 -1 -62 -3z"/>
<path d="M3828 7833 c34 -2 90 -2 125 0 34 2 6 3 -63 3 -69 0 -97 -1 -62 -3z"/>
<path d="M4308 7833 c34 -2 90 -2 125 0 34 2 6 3 -63 3 -69 0 -97 -1 -62 -3z"/>
<path d="M4778 7833 c34 -2 90 -2 125 0 34 2 6 3 -63 3 -69 0 -97 -1 -62 -3z"/>
<path d="M5248 7833 c34 -2 90 -2 125 0 34 2 6 3 -63 3 -69 0 -97 -1 -62 -3z"/>
<path d="M5718 7833 c34 -2 90 -2 125 0 34 2 6 3 -63 3 -69 0 -97 -1 -62 -3z"/>
<path d="M6198 7833 c34 -2 90 -2 125 0 34 2 6 3 -63 3 -69 0 -97 -1 -62 -3z"/>
<path d="M6668 7833 c34 -2 90 -2 125 0 34 2 6 3 -63 3 -69 0 -97 -1 -62 -3z"/>
<path d="M7138 7833 c34 -2 90 -2 125 0 34 2 6 3 -63 3 -69 0 -97 -1 -62 -3z"/>
<path d="M681 6634 c-20 -25 -28 -54 -15 -54 3 0 13 9 22 21 14 17 26 20 71
17 l55 -3 -77 -57 c-42 -32 -81 -67 -87 -78 -11 -21 -1 -27 16 -10 7 7 22 6
47 -5 20 -8 45 -15 55 -15 20 0 55 34 65 63 8 23 -5 22 -26 -3 -12 -14 -29
-20 -60 -20 -24 0 -47 3 -50 6 -4 4 22 29 58 55 63 48 99 88 89 98 -3 3 -9 -1
-14 -9 -8 -12 -14 -12 -45 3 -51 24 -80 21 -104 -9z"/>
<path d="M957 6523 c-13 -12 -7 -23 13 -23 11 0 20 7 20 15 0 15 -21 21 -33 8z"/>
<path d="M3345 6490 c-4 -6 6 -10 24 -10 16 0 33 5 36 10 4 6 -6 10 -24 10
-16 0 -33 -4 -36 -10z"/>
<path d="M3092 6480 c-97 -7 -136 -20 -60 -20 81 0 198 13 198 21 0 5 -10 8
-22 7 -13 0 -65 -4 -116 -8z"/>
<path d="M902 6458 c-7 -7 -12 -16 -12 -22 0 -6 5 -5 12 2 22 22 38 15 28 -14
-15 -38 -12 -74 6 -81 19 -7 46 7 52 28 4 10 0 9 -15 -4 -27 -23 -32 -14 -20
32 8 30 8 43 -2 55 -16 19 -33 20 -49 4z"/>
<path d="M2828 6453 c12 -2 30 -2 40 0 9 3 -1 5 -23 4 -22 0 -30 -2 -17 -4z"/>
<path d="M2518 6443 c-32 -2 -58 -8 -58 -13 0 -11 195 -1 225 11 20 8 -55 9
-167 2z"/>
<path d="M1453 6353 c-28 -51 -48 -94 -45 -97 12 -13 23 -4 42 34 11 22 23 40
25 40 3 0 5 -36 5 -80 l0 -80 -29 0 c-17 0 -33 -4 -36 -10 -4 -6 8 -10 29 -10
l36 0 0 -235 c0 -202 2 -235 15 -235 13 0 15 33 15 235 l0 235 70 0 c40 0 70
4 70 10 0 6 -30 10 -70 10 l-70 0 0 83 0 82 26 -42 c24 -41 44 -55 44 -32 0 6
-14 36 -32 67 -17 30 -34 69 -37 86 -7 30 -8 28 -58 -61z"/>
<path d="M2285 6420 c-3 -5 -15 -10 -26 -10 -10 0 -19 -4 -19 -10 0 -5 11 -10
25 -10 14 0 25 5 25 10 0 6 14 10 31 10 17 0 28 4 24 10 -3 6 -17 10 -30 10
-13 0 -27 -4 -30 -10z"/>
<path d="M2085 6413 c-33 -2 -71 -6 -85 -9 -23 -6 -21 -8 20 -20 24 -7 47 -9
50 -5 3 5 26 12 53 16 26 4 47 11 47 16 0 5 -6 8 -12 7 -7 -1 -40 -3 -73 -5z"/>
<path d="M1415 6400 c-4 -6 5 -10 19 -10 14 0 26 5 26 10 0 6 -9 10 -19 10
-11 0 -23 -4 -26 -10z"/>
<path d="M1580 6400 c0 -5 12 -10 26 -10 14 0 23 4 19 10 -3 6 -15 10 -26 10
-10 0 -19 -4 -19 -10z"/>
<path d="M1745 6400 c-4 -6 5 -10 19 -10 14 0 26 5 26 10 0 6 -9 10 -19 10
-11 0 -23 -4 -26 -10z"/>
<path d="M1910 6400 c0 -5 12 -10 26 -10 14 0 23 4 19 10 -3 6 -15 10 -26 10
-10 0 -19 -4 -19 -10z"/>
<path d="M2405 6400 c-4 -6 7 -10 25 -10 18 0 29 4 25 10 -3 6 -15 10 -25 10
-10 0 -22 -4 -25 -10z"/>
<path d="M2570 6400 c0 -5 11 -10 25 -10 14 0 25 5 25 10 0 6 -11 10 -25 10
-14 0 -25 -4 -25 -10z"/>
<path d="M2735 6400 c-4 -6 7 -10 25 -10 18 0 29 4 25 10 -3 6 -15 10 -25 10
-10 0 -22 -4 -25 -10z"/>
<path d="M2900 6400 c0 -5 11 -10 25 -10 14 0 25 5 25 10 0 6 -11 10 -25 10
-14 0 -25 -4 -25 -10z"/>
<path d="M3065 6400 c-4 -6 7 -10 25 -10 18 0 29 4 25 10 -3 6 -15 10 -25 10
-10 0 -22 -4 -25 -10z"/>
<path d="M3730 6400 c0 -5 12 -10 26 -10 14 0 23 4 19 10 -3 6 -15 10 -26 10
-10 0 -19 -4 -19 -10z"/>
<path d="M3895 6400 c-4 -6 5 -10 19 -10 14 0 26 5 26 10 0 6 -9 10 -19 10
-11 0 -23 -4 -26 -10z"/>
<path d="M4060 6400 c0 -5 12 -10 26 -10 14 0 23 4 19 10 -3 6 -15 10 -26 10
-10 0 -19 -4 -19 -10z"/>
<path d="M4225 6400 c-4 -6 5 -10 19 -10 14 0 26 5 26 10 0 6 -9 10 -19 10
-11 0 -23 -4 -26 -10z"/>
<path d="M4390 6400 c0 -5 12 -10 26 -10 14 0 23 4 19 10 -3 6 -15 10 -26 10
-10 0 -19 -4 -19 -10z"/>
<path d="M4555 6400 c-4 -6 5 -10 19 -10 14 0 26 5 26 10 0 6 -9 10 -19 10
-11 0 -23 -4 -26 -10z"/>
<path d="M4720 6400 c0 -5 11 -10 25 -10 14 0 25 5 25 10 0 6 -11 10 -25 10
-14 0 -25 -4 -25 -10z"/>
<path d="M4885 6400 c-4 -6 7 -10 25 -10 18 0 29 4 25 10 -3 6 -15 10 -25 10
-10 0 -22 -4 -25 -10z"/>
<path d="M7134 6378 c-12 -5 -26 -20 -32 -32 -21 -42 -84 -238 -78 -243 3 -3
10 5 15 18 l10 24 1 -25 c1 -17 8 -4 21 38 19 59 31 74 44 52 3 -5 21 -10 40
-10 87 0 126 144 49 179 -30 13 -42 13 -70 -1z m78 -33 c15 -34 -5 -100 -37
-121 -23 -15 -27 -15 -50 0 -14 9 -25 23 -25 32 0 18 26 83 41 101 19 22 58
16 71 -12z"/>
<path d="M2195 6340 c3 -5 18 -10 33 -10 21 0 24 2 12 10 -20 13 -53 13 -45 0z"/>
<path d="M6082 6315 c-95 -21 -135 -35 -101 -35 32 0 229 45 229 52 0 10 -6
10 -128 -17z"/>
<path d="M2363 6304 c11 -11 227 -52 227 -43 0 5 -2 9 -4 9 -2 0 -48 9 -101
20 -101 21 -133 24 -122 14z"/>
<path d="M5225 6221 l-37 -69 -69 -13 c-39 -7 -73 -17 -76 -22 -4 -6 4 -8 18
-4 13 3 46 9 72 13 l49 7 -26 -51 c-14 -28 -26 -54 -26 -57 0 -3 63 -5 140 -5
l140 0 -30 60 c-16 33 -30 62 -30 65 0 3 18 5 40 5 22 0 40 5 40 10 0 6 -22
10 -48 10 l-48 0 -29 60 c-16 33 -32 60 -36 60 -4 0 -24 -31 -44 -69z m70 -1
l25 -50 -50 0 c-27 0 -50 2 -50 5 0 7 43 95 47 95 1 0 14 -22 28 -50z m60
-120 c14 -27 25 -54 25 -60 0 -6 -43 -10 -115 -10 -63 0 -115 2 -115 5 0 3 11
28 25 55 26 51 35 56 112 59 41 1 43 0 68 -49z"/>
<path d="M7395 6268 c-2 -7 -6 -33 -7 -58 l-3 -45 -37 53 c-21 28 -42 52 -48
52 -5 0 -10 -22 -10 -50 l0 -50 -99 0 c-56 0 -103 -4 -106 -10 -4 -6 31 -10
99 -10 100 0 105 -1 108 -22 2 -12 8 -23 15 -25 8 -3 13 14 15 53 l3 58 39
-57 c22 -31 43 -57 48 -57 12 0 10 168 -2 175 -6 3 -12 0 -15 -7z"/>
<path d="M7457 6273 c-13 -12 -7 -23 13 -23 17 0 19 -8 22 -72 2 -46 7 -73 16
-76 9 -3 12 16 12 72 0 69 2 76 20 76 11 0 20 7 20 15 0 11 -12 15 -48 15 -27
0 -52 -3 -55 -7z"/>
<path d="M7788 6274 c-5 -4 -8 -45 -8 -91 l0 -83 55 0 c30 0 55 5 55 10 0 6
-20 10 -45 10 l-44 0 -3 81 c-2 44 -6 77 -10 73z"/>
<path d="M8143 6261 c-26 -22 -31 -43 -8 -35 12 5 15 -5 15 -60 0 -37 4 -66
10 -66 6 0 10 37 10 90 0 50 -1 90 -2 90 -2 -1 -13 -9 -25 -19z"/>
<path d="M7592 6188 c2 -54 7 -83 16 -86 8 -2 12 10 12 40 l0 43 20 -44 c22
-48 25 -48 51 7 l17 37 1 -42 c1 -24 6 -43 11 -43 6 0 10 35 10 85 0 47 -3 85
-8 85 -4 0 -18 -28 -32 -62 l-24 -62 -28 62 c-16 34 -33 62 -38 62 -7 0 -10
-30 -8 -82z"/>
<path d="M2710 6240 c0 -4 10 -10 23 -14 31 -8 39 -7 33 3 -7 11 -56 21 -56
11z"/>
<path d="M5618 6227 c-60 -11 -108 -24 -108 -29 0 -5 8 -7 18 -4 9 2 63 12
119 22 56 9 100 21 97 25 -3 5 -8 8 -12 8 -4 -1 -55 -11 -114 -22z"/>
<path d="M7970 6220 c0 -27 -3 -30 -30 -30 -16 0 -30 -4 -30 -10 0 -5 14 -10
30 -10 27 0 30 -3 30 -30 0 -16 5 -30 10 -30 6 0 10 14 10 30 0 27 3 30 29 30
17 0 33 5 36 10 4 6 -8 10 -29 10 -33 0 -36 2 -36 30 0 17 -4 30 -10 30 -5 0
-10 -13 -10 -30z"/>
<path d="M2883 6203 c4 -3 37 -12 74 -19 l68 -12 -97 -1 c-58 -1 -98 -5 -98
-11 0 -11 218 -12 265 0 38 9 25 14 -91 34 -99 17 -131 20 -121 9z"/>
<path d="M1885 6160 c-4 -6 37 -10 114 -10 74 0 121 4 121 10 0 6 -45 10 -114
10 -66 0 -117 -4 -121 -10z"/>
<path d="M2360 6160 c0 -6 47 -10 121 -10 77 0 118 4 114 10 -4 6 -55 10 -121
10 -69 0 -114 -4 -114 -10z"/>
<path d="M3775 6160 c-4 -6 37 -10 114 -10 74 0 121 4 121 10 0 6 -45 10 -114
10 -66 0 -117 -4 -121 -10z"/>
<path d="M4250 6160 c0 -6 47 -10 121 -10 77 0 118 4 114 10 -4 6 -55 10 -121
10 -69 0 -114 -4 -114 -10z"/>
<path d="M4720 6160 c0 -6 47 -10 121 -10 77 0 118 4 114 10 -4 6 -55 10 -121
10 -69 0 -114 -4 -114 -10z"/>
<path d="M5665 6160 c-4 -6 37 -10 114 -10 74 0 121 4 121 10 0 6 -45 10 -114
10 -66 0 -117 -4 -121 -10z"/>
<path d="M6140 6160 c0 -6 47 -10 121 -10 77 0 118 4 114 10 -4 6 -55 10 -121
10 -69 0 -114 -4 -114 -10z"/>
<path d="M6610 6160 c0 -6 47 -10 121 -10 77 0 118 4 114 10 -4 6 -55 10 -121
10 -69 0 -114 -4 -114 -10z"/>
<path d="M4680 6059 c-92 -20 -108 -25 -99 -33 5 -5 229 41 237 49 10 10 -43
4 -138 -16z"/>
<path d="M3760 6040 c8 -5 24 -10 35 -10 17 0 17 2 5 10 -8 5 -24 10 -35 10
-17 0 -17 -2 -5 -10z"/>
<path d="M3921 6006 c5 -6 215 -56 232 -56 27 0 -9 14 -95 36 -85 22 -148 31
-137 20z"/>
<path d="M4237 5960 c-100 -26 -138 -40 -108 -40 28 0 221 53 221 61 0 5 -1 9
-2 8 -2 0 -52 -13 -111 -29z"/>
<path d="M4270 5921 c0 -10 50 -25 58 -17 2 3 -7 10 -22 16 -33 12 -36 12 -36
1z"/>
<path d="M4445 5860 c3 -5 11 -10 16 -10 6 0 51 -19 100 -42 49 -22 92 -38 95
-35 7 7 -47 35 -135 71 -70 28 -86 32 -76 16z"/>
<path d="M3810 5822 c-100 -44 -133 -62 -127 -68 3 -3 31 8 63 24 33 16 80 37
107 47 26 10 47 22 47 26 0 12 7 14 -90 -29z"/>
<path d="M4750 5703 c0 -12 38 -48 45 -41 3 2 -6 15 -20 28 -14 13 -25 19 -25
13z"/>
<path d="M1127 5483 c-9 -15 -107 -274 -107 -284 0 -5 52 -9 115 -9 63 0 115
4 115 9 0 14 -101 275 -110 284 -4 5 -10 5 -13 0z m47 -156 c21 -54 36 -100
33 -103 -2 -3 -40 -4 -84 -2 l-80 3 41 107 c22 59 43 104 47 100 3 -4 22 -51
43 -105z"/>
<path d="M1356 5389 c-9 -13 -16 -32 -16 -43 0 -19 1 -19 20 2 16 17 32 22 73
21 l52 0 -40 -32 c-66 -53 -128 -117 -121 -124 4 -4 11 -1 16 7 8 13 14 13 42
1 59 -25 89 -20 115 18 25 38 20 67 -6 32 -15 -19 -25 -22 -71 -19 l-54 3 72
54 c75 55 100 85 82 96 -5 3 -10 1 -10 -6 0 -7 -11 -9 -32 -5 -92 19 -105 19
-122 -5z"/>
<path d="M1975 5270 c-3 -5 -1 -10 4 -10 6 0 11 -11 11 -25 0 -21 -4 -24 -23
-20 -34 9 -77 -28 -77 -66 0 -45 30 -68 87 -67 l48 1 -3 76 c-1 42 -5 86 -8
99 -4 23 -28 30 -39 12z m4 -84 c7 -8 11 -30 9 -48 -2 -28 -7 -34 -30 -36 -39
-5 -58 36 -34 73 19 28 38 32 55 11z"/>
<path d="M1570 5210 c0 -5 5 -10 10 -10 6 0 10 -22 10 -50 0 -27 -4 -50 -10
-50 -5 0 -10 -4 -10 -10 0 -5 14 -10 30 -10 17 0 30 5 30 10 0 6 -5 10 -11 10
-16 0 -4 70 16 89 15 15 17 14 26 -2 11 -19 29 -14 29 8 0 19 -28 27 -52 14
-14 -8 -23 -8 -31 0 -14 14 -37 14 -37 1z"/>
<path d="M1748 5209 c-19 -11 -25 -39 -8 -39 6 0 10 7 10 16 0 11 8 14 27 12
42 -5 37 -24 -9 -34 -34 -7 -44 -14 -46 -32 -2 -13 2 -30 8 -38 14 -16 66 -19
75 -4 5 8 11 7 21 -1 21 -17 22 -11 14 50 -9 71 -44 98 -92 70z m58 -95 c-8
-21 -60 -14 -64 8 -2 12 6 20 30 26 35 9 46 -2 34 -34z"/>
<path d="M1480 4776 l0 -286 -29 0 c-17 0 -33 -4 -36 -10 -4 -6 8 -10 29 -10
l36 0 0 -370 c0 -203 -2 -370 -5 -370 -2 0 -14 18 -25 40 -20 38 -30 47 -42
34 -6 -5 64 -137 82 -157 7 -8 90 132 90 153 0 22 -20 8 -44 -32 l-26 -43 0
373 0 372 70 0 c40 0 70 4 70 10 0 6 -30 10 -70 10 l-70 0 -2 282 c-2 214 -6
282 -15 286 -10 3 -13 -58 -13 -282z"/>
<path d="M7135 4701 c-26 -11 -38 -34 -80 -160 -40 -120 -38 -111 -25 -111 6
0 10 8 11 18 0 14 2 14 8 -3 7 -17 10 -12 20 25 24 88 21 83 40 66 38 -35 94
-16 122 40 41 86 -14 158 -96 125z m77 -36 c15 -34 -5 -100 -37 -121 -23 -15
-27 -15 -50 0 -14 9 -25 23 -25 32 0 18 26 83 41 101 19 22 58 16 71 -12z"/>
<path d="M7395 4588 c-2 -7 -6 -33 -7 -57 l-3 -45 -35 52 c-45 66 -60 67 -60
2 l0 -50 -99 0 c-56 0 -103 -4 -106 -10 -4 -6 31 -10 99 -10 100 0 105 -1 108
-22 2 -12 8 -23 15 -25 8 -3 13 14 15 53 l3 58 39 -57 c22 -31 43 -57 48 -57
12 0 10 168 -2 175 -6 3 -12 0 -15 -7z"/>
<path d="M7457 4593 c-13 -12 -7 -23 13 -23 17 0 19 -8 22 -72 2 -46 7 -73 16
-76 9 -3 12 16 12 71 0 66 2 75 20 80 11 3 20 10 20 16 0 12 -92 16 -103 4z"/>
<path d="M7788 4594 c-5 -4 -8 -45 -8 -91 l0 -83 55 0 c30 0 55 5 55 10 0 6
-20 10 -45 10 l-44 0 -3 81 c-2 44 -6 77 -10 73z"/>
<path d="M7592 4508 c2 -54 7 -83 16 -86 8 -2 12 10 12 40 l0 43 20 -44 c22
-48 25 -48 51 7 l17 37 1 -42 c1 -24 6 -43 11 -43 6 0 10 35 10 85 0 47 -3 85
-7 85 -5 0 -20 -26 -34 -58 l-26 -57 -26 58 c-36 80 -48 74 -45 -25z"/>
<path d="M1890 4480 c0 -6 45 -10 115 -10 70 0 115 4 115 10 0 6 -45 10 -115
10 -70 0 -115 -4 -115 -10z"/>
<path d="M2360 4480 c0 -6 45 -10 115 -10 70 0 115 4 115 10 0 6 -45 10 -115
10 -70 0 -115 -4 -115 -10z"/>
<path d="M2830 4480 c0 -6 47 -10 121 -10 77 0 118 4 114 10 -4 6 -55 10 -121
10 -69 0 -114 -4 -114 -10z"/>
<path d="M5195 4480 c-4 -6 37 -10 114 -10 74 0 121 4 121 10 0 6 -45 10 -114
10 -66 0 -117 -4 -121 -10z"/>
<path d="M5670 4480 c0 -6 45 -10 115 -10 70 0 115 4 115 10 0 6 -45 10 -115
10 -70 0 -115 -4 -115 -10z"/>
<path d="M6140 4480 c0 -6 45 -10 115 -10 70 0 115 4 115 10 0 6 -45 10 -115
10 -70 0 -115 -4 -115 -10z"/>
<path d="M6610 4480 c0 -6 47 -10 121 -10 77 0 118 4 114 10 -4 6 -55 10 -121
10 -69 0 -114 -4 -114 -10z"/>
<path d="M87 3959 c-29 -22 -67 -127 -67 -185 0 -36 28 -74 54 -74 41 0 68 22
92 74 34 74 42 148 20 181 -21 31 -63 33 -99 4z m77 -15 c3 -9 6 -31 6 -50 l0
-34 -55 0 c-54 0 -54 0 -45 25 18 47 42 75 65 75 13 0 26 -7 29 -16z m-4 -109
c0 -14 -33 -81 -47 -97 -20 -22 -49 -23 -57 -2 -8 21 -8 89 1 97 8 8 103 9
103 2z"/>
<path d="M1098 3767 c-31 -25 -35 -37 -13 -37 12 0 15 -13 15 -60 0 -47 3 -60
15 -60 12 0 15 17 15 90 0 50 -1 90 -2 90 -2 -1 -15 -11 -30 -23z"/>
<path d="M250 3696 c0 -99 18 -127 22 -34 l3 62 39 -57 c22 -31 43 -57 48 -57
4 0 8 38 8 85 0 95 -17 117 -22 28 l-3 -58 -40 57 c-22 32 -43 57 -47 58 -5 0
-8 -38 -8 -84z"/>
<path d="M400 3770 c0 -5 11 -10 25 -10 24 0 25 -2 25 -74 0 -41 5 -78 10 -81
6 -4 10 23 10 74 0 74 2 81 19 81 11 0 23 5 26 10 4 6 -17 10 -54 10 -34 0
-61 -4 -61 -10z"/>
<path d="M550 3696 c0 -47 5 -88 10 -91 6 -4 10 13 11 42 l0 48 19 -42 c11
-24 24 -43 29 -43 5 0 15 17 22 38 l14 37 5 -38 c3 -21 10 -38 15 -37 13 0 19
150 7 162 -5 5 -20 -17 -36 -54 l-28 -63 -28 63 c-16 34 -31 62 -34 62 -3 0
-6 -38 -6 -84z"/>
<path d="M734 3767 c-3 -8 -4 -47 -2 -88 l3 -74 53 -3 c42 -2 52 0 52 12 0 12
-11 16 -40 16 l-40 0 0 75 c0 45 -4 75 -10 75 -6 0 -13 -6 -16 -13z"/>
<path d="M865 3690 c-3 -5 0 -13 8 -16 23 -8 127 0 130 11 3 14 -129 19 -138
5z"/>
<path d="M1415 3660 c3 -5 15 -10 26 -10 10 0 19 5 19 10 0 6 -12 10 -26 10
-14 0 -23 -4 -19 -10z"/>
<path d="M1580 3660 c0 -5 9 -10 19 -10 11 0 23 5 26 10 4 6 -5 10 -19 10 -14
0 -26 -4 -26 -10z"/>
<path d="M1745 3660 c3 -5 15 -10 26 -10 10 0 19 5 19 10 0 6 -12 10 -26 10
-14 0 -23 -4 -19 -10z"/>
<path d="M1910 3660 c0 -5 9 -10 19 -10 11 0 23 5 26 10 4 6 -5 10 -19 10 -14
0 -26 -4 -26 -10z"/>
<path d="M2075 3660 c3 -5 15 -10 26 -10 10 0 19 5 19 10 0 6 -12 10 -26 10
-14 0 -23 -4 -19 -10z"/>
<path d="M2240 3660 c0 -5 11 -10 25 -10 14 0 25 5 25 10 0 6 -11 10 -25 10
-14 0 -25 -4 -25 -10z"/>
<path d="M2405 3660 c3 -5 15 -10 25 -10 10 0 22 5 25 10 4 6 -7 10 -25 10
-18 0 -29 -4 -25 -10z"/>
<path d="M2570 3660 c0 -5 11 -10 25 -10 14 0 25 5 25 10 0 6 -11 10 -25 10
-14 0 -25 -4 -25 -10z"/>
<path d="M2735 3660 c3 -5 15 -10 25 -10 10 0 22 5 25 10 4 6 -7 10 -25 10
-18 0 -29 -4 -25 -10z"/>
<path d="M2900 3660 c0 -5 11 -10 25 -10 14 0 25 5 25 10 0 6 -11 10 -25 10
-14 0 -25 -4 -25 -10z"/>
<path d="M3065 3660 c3 -5 15 -10 25 -10 10 0 22 5 25 10 4 6 -7 10 -25 10
-18 0 -29 -4 -25 -10z"/>
<path d="M3230 3660 c0 -5 11 -10 25 -10 14 0 25 5 25 10 0 6 -11 10 -25 10
-14 0 -25 -4 -25 -10z"/>
<path d="M4885 3660 c3 -5 15 -10 25 -10 10 0 22 5 25 10 4 6 -7 10 -25 10
-18 0 -29 -4 -25 -10z"/>
<path d="M5050 3660 c0 -5 11 -10 25 -10 14 0 25 5 25 10 0 6 -11 10 -25 10
-14 0 -25 -4 -25 -10z"/>
<path d="M5215 3660 c3 -5 15 -10 25 -10 10 0 22 5 25 10 4 6 -7 10 -25 10
-18 0 -29 -4 -25 -10z"/>
<path d="M5380 3660 c0 -5 11 -10 25 -10 14 0 25 5 25 10 0 6 -11 10 -25 10
-14 0 -25 -4 -25 -10z"/>
<path d="M5545 3660 c3 -5 15 -10 25 -10 10 0 22 5 25 10 4 6 -7 10 -25 10
-18 0 -29 -4 -25 -10z"/>
<path d="M5715 3660 c3 -5 15 -10 26 -10 10 0 19 5 19 10 0 6 -12 10 -26 10
-14 0 -23 -4 -19 -10z"/>
<path d="M5880 3660 c0 -5 9 -10 19 -10 11 0 23 5 26 10 4 6 -5 10 -19 10 -14
0 -26 -4 -26 -10z"/>
<path d="M6045 3660 c3 -5 15 -10 26 -10 10 0 19 5 19 10 0 6 -12 10 -26 10
-14 0 -23 -4 -19 -10z"/>
<path d="M6210 3660 c0 -5 9 -10 19 -10 11 0 23 5 26 10 4 6 -5 10 -19 10 -14
0 -26 -4 -26 -10z"/>
<path d="M6375 3660 c3 -5 15 -10 26 -10 10 0 19 5 19 10 0 6 -12 10 -26 10
-14 0 -23 -4 -19 -10z"/>
<path d="M6540 3660 c0 -5 9 -10 19 -10 11 0 23 5 26 10 4 6 -5 10 -19 10 -14
0 -26 -4 -26 -10z"/>
<path d="M6705 3660 c3 -5 15 -10 26 -10 10 0 19 5 19 10 0 6 -12 10 -26 10
-14 0 -23 -4 -19 -10z"/>
<path d="M6870 3660 c0 -5 9 -10 19 -10 11 0 23 5 26 10 4 6 -5 10 -19 10 -14
0 -26 -4 -26 -10z"/>
<path d="M7035 3660 c3 -5 15 -10 25 -10 10 0 22 5 25 10 4 6 -7 10 -25 10
-18 0 -29 -4 -25 -10z"/>
<path d="M7200 3660 c0 -5 11 -10 25 -10 14 0 25 5 25 10 0 6 -11 10 -25 10
-14 0 -25 -4 -25 -10z"/>
<path d="M7365 3660 c3 -5 15 -10 25 -10 10 0 22 5 25 10 4 6 -7 10 -25 10
-18 0 -29 -4 -25 -10z"/>
<path d="M1410 2920 c0 -6 47 -10 120 -10 73 0 120 4 120 10 0 6 -47 10 -120
10 -73 0 -120 -4 -120 -10z"/>
<path d="M1890 2920 c0 -6 45 -10 115 -10 70 0 115 4 115 10 0 6 -45 10 -115
10 -70 0 -115 -4 -115 -10z"/>
<path d="M2360 2920 c0 -6 45 -10 115 -10 70 0 115 4 115 10 0 6 -45 10 -115
10 -70 0 -115 -4 -115 -10z"/>
<path d="M2830 2920 c0 -6 47 -10 120 -10 73 0 120 4 120 10 0 6 -47 10 -120
10 -73 0 -120 -4 -120 -10z"/>
<path d="M4720 2920 c0 -6 47 -10 120 -10 73 0 120 4 120 10 0 6 -47 10 -120
10 -73 0 -120 -4 -120 -10z"/>
<path d="M5190 2920 c0 -6 47 -10 120 -10 73 0 120 4 120 10 0 6 -47 10 -120
10 -73 0 -120 -4 -120 -10z"/>
<path d="M5670 2920 c0 -6 45 -10 115 -10 70 0 115 4 115 10 0 6 -45 10 -115
10 -70 0 -115 -4 -115 -10z"/>
<path d="M6140 2920 c0 -6 45 -10 115 -10 70 0 115 4 115 10 0 6 -45 10 -115
10 -70 0 -115 -4 -115 -10z"/>
<path d="M6610 2920 c0 -6 47 -10 120 -10 73 0 120 4 120 10 0 6 -47 10 -120
10 -73 0 -120 -4 -120 -10z"/>
<path d="M7080 2920 c0 -6 47 -10 120 -10 73 0 120 4 120 10 0 6 -47 10 -120
10 -73 0 -120 -4 -120 -10z"/>
<path d="M1415 1910 c4 -6 55 -10 121 -10 69 0 114 4 114 10 0 6 -47 10 -121
10 -77 0 -118 -4 -114 -10z"/>
<path d="M1885 1910 c4 -6 55 -10 121 -10 69 0 114 4 114 10 0 6 -47 10 -121
10 -77 0 -118 -4 -114 -10z"/>
<path d="M2360 1910 c0 -6 45 -10 114 -10 66 0 117 4 121 10 4 6 -37 10 -114
10 -74 0 -121 -4 -121 -10z"/>
<path d="M2830 1910 c0 -6 45 -10 114 -10 66 0 117 4 121 10 4 6 -37 10 -114
10 -74 0 -121 -4 -121 -10z"/>
<path d="M4720 1910 c0 -6 45 -10 114 -10 66 0 117 4 121 10 4 6 -37 10 -114
10 -74 0 -121 -4 -121 -10z"/>
<path d="M5195 1910 c4 -6 55 -10 121 -10 69 0 114 4 114 10 0 6 -47 10 -121
10 -77 0 -118 -4 -114 -10z"/>
<path d="M5665 1910 c4 -6 55 -10 121 -10 69 0 114 4 114 10 0 6 -47 10 -121
10 -77 0 -118 -4 -114 -10z"/>
<path d="M6140 1910 c0 -6 45 -10 114 -10 66 0 117 4 121 10 4 6 -37 10 -114
10 -74 0 -121 -4 -121 -10z"/>
<path d="M6610 1910 c0 -6 45 -10 114 -10 66 0 117 4 121 10 4 6 -37 10 -114
10 -74 0 -121 -4 -121 -10z"/>
<path d="M7085 1910 c4 -6 55 -10 121 -10 69 0 114 4 114 10 0 6 -47 10 -121
10 -77 0 -118 -4 -114 -10z"/>
<path d="M3373 870 c-42 -17 -58 -57 -58 -146 0 -68 4 -87 21 -111 43 -57 128
-52 161 11 23 43 23 160 -1 204 -24 46 -72 62 -123 42z m73 -18 c25 -16 38
-60 38 -129 0 -58 -4 -78 -20 -100 -38 -51 -96 -39 -114 25 -20 75 -6 182 28
201 20 12 53 14 68 3z"/>
<path d="M3210 330 c0 -5 7 -10 15 -10 13 0 15 -22 15 -135 0 -113 -2 -135
-15 -135 -8 0 -15 -4 -15 -10 0 -5 20 -10 45 -10 25 0 45 5 45 10 0 6 -7 10
-15 10 -12 0 -15 14 -15 65 l0 65 75 0 75 0 0 -65 c0 -58 -2 -65 -20 -65 -11
0 -20 -4 -20 -10 0 -5 23 -10 50 -10 28 0 50 5 50 10 0 6 -7 10 -15 10 -13 0
-15 22 -15 135 0 113 2 135 15 135 8 0 15 5 15 10 0 6 -22 10 -50 10 -27 0
-50 -4 -50 -10 0 -5 9 -10 20 -10 18 0 20 -7 20 -60 l0 -60 -75 0 -75 0 0 60
c0 47 3 60 15 60 8 0 15 5 15 10 0 6 -20 10 -45 10 -25 0 -45 -4 -45 -10z"/>
<path d="M4562 324 c-15 -11 -22 -25 -22 -50 0 -27 -4 -34 -20 -34 -11 0 -20
-4 -20 -10 0 -5 9 -10 20 -10 18 0 20 -7 20 -85 0 -78 -2 -85 -20 -85 -11 0
-20 -4 -20 -10 0 -5 23 -10 50 -10 28 0 50 5 50 10 0 6 -7 10 -15 10 -12 0
-15 16 -15 85 0 77 2 85 19 85 11 0 23 5 26 10 4 6 -5 10 -20 10 -24 0 -26 3
-23 37 2 20 9 39 17 41 8 3 11 0 8 -6 -4 -5 -1 -15 7 -21 20 -17 43 13 26 34
-16 19 -40 19 -68 -1z"/>
<path d="M4680 331 c0 -6 7 -11 15 -11 13 0 15 -22 15 -135 0 -113 -2 -135
-15 -135 -8 0 -15 -4 -15 -10 0 -5 23 -10 50 -10 28 0 50 5 50 10 0 6 -7 10
-15 10 -12 0 -15 25 -17 143 l-3 142 -32 3 c-19 2 -33 -1 -33 -7z"/>
<path d="M4110 286 c0 -38 -3 -45 -22 -49 l-23 -4 21 -8 c20 -6 22 -16 26 -87
3 -83 17 -108 59 -108 23 0 66 36 56 47 -5 4 -13 0 -18 -10 -6 -9 -20 -17 -33
-17 -29 0 -36 21 -36 108 0 55 2 62 19 62 11 0 23 5 26 10 4 6 -5 10 -19 10
-24 0 -26 3 -26 45 0 33 -4 45 -15 45 -11 0 -15 -12 -15 -44z"/>
<path d="M5836 238 c-6 -14 -12 -15 -26 -8 -47 25 -130 0 -130 -39 0 -25 14
-35 85 -63 44 -18 61 -30 63 -46 2 -16 -3 -23 -21 -27 -48 -12 -80 -1 -104 34
l-23 34 0 -54 c1 -48 2 -52 14 -36 12 15 18 16 35 8 53 -29 121 -1 121 50 0
28 -6 33 -76 65 -87 39 -92 58 -16 62 49 3 52 2 69 -30 l18 -33 3 28 c2 15 2
37 -1 50 -3 19 -4 20 -11 5z"/>
<path d="M3582 215 c-38 -32 -48 -72 -28 -118 26 -64 109 -85 158 -40 28 25
21 37 -8 14 -49 -39 -109 -17 -129 47 -6 22 -5 22 79 22 85 0 86 0 86 25 0 69
-99 100 -158 50z m116 -7 c7 -7 12 -20 12 -30 0 -15 -9 -18 -65 -18 -69 0 -79
8 -48 42 19 21 82 25 101 6z"/>
<path d="M3838 229 c-20 -11 -25 -49 -7 -49 6 0 13 9 16 20 4 16 14 20 48 20
42 0 73 -19 61 -39 -4 -5 -28 -13 -54 -17 -56 -7 -88 -26 -97 -54 -17 -55 69
-100 128 -67 26 15 30 15 53 1 13 -9 28 -14 32 -10 3 4 0 11 -8 16 -9 5 -17
35 -21 81 -5 58 -11 76 -29 91 -25 20 -94 24 -122 7z m122 -104 c0 -57 -49
-90 -104 -69 -18 7 -23 69 -6 79 8 5 68 19 103 24 4 1 7 -15 7 -34z"/>
<path d="M4835 231 c3 -6 13 -11 21 -11 11 0 14 -16 14 -71 0 -39 4 -79 10
-89 14 -26 61 -34 103 -16 31 12 36 12 41 0 6 -16 56 -20 56 -4 0 6 -7 10 -15
10 -12 0 -15 17 -15 95 l0 95 -36 0 c-21 0 -33 -4 -29 -10 3 -5 13 -10 21 -10
11 0 14 -16 14 -69 0 -61 -3 -72 -22 -85 -27 -19 -72 -21 -86 -3 -6 7 -12 49
-14 92 l-3 80 -34 3 c-21 2 -31 0 -26 -7z"/>
<path d="M5140 230 c0 -5 6 -10 13 -10 11 0 50 -43 71 -77 8 -15 -52 -93 -71
-93 -7 0 -13 -4 -13 -10 0 -5 18 -10 40 -10 40 0 56 15 23 22 -14 3 -12 8 12
36 l30 33 28 -36 c15 -19 23 -35 17 -35 -5 0 -10 -4 -10 -10 0 -5 18 -10 40
-10 22 0 40 5 40 10 0 6 -6 10 -13 10 -16 0 -77 73 -77 92 0 17 61 78 78 78 7
0 12 5 12 10 0 6 -21 10 -46 10 -27 0 -43 -4 -39 -10 3 -5 14 -10 23 -10 12 0
9 -8 -15 -31 l-31 -32 -25 29 c-14 16 -21 31 -16 32 24 9 5 22 -31 22 -22 0
-40 -4 -40 -10z"/>
<path d="M5470 227 c-77 -39 -55 -173 31 -192 33 -7 100 21 107 44 3 10 -5 7
-23 -7 -51 -40 -116 -20 -131 41 l-6 27 81 0 81 0 0 30 c0 60 -74 90 -140 57z
m112 -32 c6 -14 9 -28 6 -31 -3 -3 -36 -4 -73 -2 l-67 3 22 28 c17 21 30 27
61 27 32 0 41 -4 51 -25z"/>
</g>
</svg>
