<?xml version="1.0" standalone="no"?>
<!DOCTYPE svg PUBLIC "-//W3C//DTD SVG 20010904//EN"
 "http://www.w3.org/TR/2001/REC-SVG-20010904/DTD/svg10.dtd">
<svg version="1.0" xmlns="http://www.w3.org/2000/svg"
 width="883.000000pt" height="1004.000000pt" viewBox="0 0 883.000000 1004.000000"
 preserveAspectRatio="xMidYMid meet">
<metadata>
Created by potrace 1.16, written by Peter Selinger 2001-2019
</metadata>
<g transform="translate(0.000000,1004.000000) scale(0.100000,-0.100000)"
fill="#000000" stroke="none">
<path d="M1752 5838 l-2 -4168 3520 0 c2340 0 3520 3 3520 10 0 7 -1010 10
-3010 10 l-3010 0 0 122 0 122 60 -59 c33 -33 60 -55 60 -49 0 5 -27 36 -60
69 l-60 59 62 63 c34 34 59 66 55 70 -4 4 -32 -18 -62 -47 l-55 -54 0 191 0
192 88 4 87 3 -87 2 -88 2 0 192 0 192 55 -54 c30 -29 58 -51 62 -47 4 4 -21
36 -55 70 l-62 63 60 59 c33 33 60 64 60 69 0 6 -27 -16 -60 -49 l-60 -59 0
397 0 397 79 0 c44 0 83 4 86 10 4 6 -25 10 -79 10 l-86 0 0 402 0 402 60 -59
c33 -33 60 -55 60 -49 0 5 -27 36 -60 69 l-60 59 60 61 c33 33 60 65 60 70 0
5 -27 -17 -60 -50 l-60 -59 0 402 0 402 835 0 835 0 0 407 0 407 60 -59 c33
-33 60 -55 60 -49 0 5 -27 36 -60 69 l-60 59 62 63 c34 34 59 66 55 70 -4 4
-32 -18 -62 -47 l-55 -54 0 67 c0 66 0 67 28 68 15 1 33 1 40 0 22 -3 13 14
-28 54 -39 38 -40 41 -40 109 l0 71 120 -120 c65 -65 122 -117 124 -114 3 3
-51 61 -119 129 l-125 125 0 75 0 75 205 -205 c113 -113 205 -200 205 -195 0
6 -92 102 -205 215 l-205 205 0 75 0 75 290 -290 c159 -159 290 -285 290 -280
0 6 -131 141 -290 300 -261 261 -290 293 -290 322 0 31 2 33 38 33 36 0 51
-14 367 -330 181 -181 334 -330 340 -330 5 0 -139 149 -320 330 l-330 330 75
0 75 0 330 -330 c181 -181 331 -327 334 -324 3 3 -141 151 -319 329 l-325 325
75 0 75 0 330 -330 c181 -181 331 -327 334 -324 3 3 -141 151 -319 329 l-325
325 70 0 70 0 330 -330 c181 -181 334 -330 338 -330 5 0 -136 147 -312 328
l-322 327 68 3 67 3 333 -333 c183 -183 333 -328 333 -323 0 5 -145 155 -322
332 l-323 323 75 0 75 0 330 -330 c181 -181 331 -327 334 -324 3 3 -141 151
-319 329 l-325 325 70 0 70 0 332 -332 c183 -183 336 -329 340 -325 4 4 -139
154 -317 332 l-325 325 70 0 70 0 330 -330 c181 -181 331 -327 334 -324 3 3
-141 151 -319 329 l-325 325 75 0 75 0 330 -330 c181 -181 331 -327 334 -324
3 3 -141 151 -319 329 l-325 325 75 0 75 0 330 -330 c181 -181 331 -327 334
-324 3 3 -141 151 -319 329 l-325 325 70 0 70 0 305 -305 c167 -167 306 -302
309 -299 3 3 -130 140 -294 304 l-300 300 75 0 75 0 244 -244 c198 -199 243
-248 238 -265 -7 -28 10 -27 18 0 6 18 -31 60 -236 265 l-244 244 75 0 75 0
193 -192 c154 -154 194 -190 202 -178 5 8 10 22 10 30 -1 12 -3 12 -13 -2 -12
-15 -33 3 -193 163 l-179 179 70 0 70 0 132 -132 c73 -73 136 -129 140 -125 4
4 -49 64 -117 132 l-125 125 70 0 71 0 74 -75 c41 -41 76 -72 79 -69 3 2 -26
36 -64 74 l-69 70 76 0 c85 0 103 -11 93 -57 -6 -27 -6 -27 9 -9 19 24 20 38
4 54 -9 9 56 12 295 12 198 0 307 4 307 10 0 6 -38 10 -95 10 l-95 0 0 402 0
402 58 -57 c32 -31 62 -57 67 -57 5 0 -21 31 -58 68 l-67 68 60 59 c33 33 60
64 60 69 0 6 -27 -16 -60 -49 l-60 -59 0 402 0 402 375 0 375 0 0 407 0 407
60 -59 c33 -32 63 -56 67 -52 4 4 -21 36 -55 70 l-62 62 62 62 c34 34 59 66
55 70 -4 4 -34 -20 -67 -52 l-60 -59 -3 269 -2 270 -3 -270 -2 -269 -60 59
c-33 32 -63 56 -67 52 -4 -4 21 -36 55 -70 l62 -62 -62 -62 c-34 -34 -59 -66
-55 -70 4 -4 34 20 67 52 l60 59 0 -402 0 -402 -397 -1 c-219 -1 -390 -3 -380
-6 16 -4 17 -32 17 -406 l0 -401 -60 59 c-33 33 -60 55 -60 49 0 -5 27 -36 60
-69 l60 -59 -67 -68 c-37 -37 -63 -68 -58 -68 5 0 35 26 67 57 l58 57 0 -402
0 -402 -1515 0 -1515 0 0 -32 0 -32 -33 32 -33 32 -117 0 c-71 0 -117 -4 -117
-10 0 -5 8 -10 17 -10 13 0 10 -7 -12 -30 l-29 -30 -36 35 c-20 19 -42 35 -50
35 -8 0 -29 -14 -47 -32 l-33 -32 -25 24 c-14 13 -25 29 -25 37 0 10 -27 13
-121 13 -99 0 -120 -3 -116 -14 3 -7 -7 -25 -22 -40 l-27 -26 -34 35 c-19 19
-41 35 -49 35 -8 0 -31 -16 -51 -35 l-36 -35 -29 30 c-28 29 -28 30 -7 30 12
0 22 5 22 10 0 6 -46 10 -117 10 l-117 0 -41 -40 -41 -40 -34 35 c-19 19 -41
35 -49 35 -8 0 -31 -16 -51 -35 l-36 -35 -29 30 -29 30 37 0 c20 0 37 5 37 10
0 6 -47 10 -120 10 -73 0 -120 -4 -120 -10 0 -5 26 -10 57 -10 l57 0 -34 -35
-34 -35 42 -43 42 -43 -40 -39 -40 -39 42 -43 42 -43 -42 -43 -42 -43 40 -39
40 -39 -42 -43 -42 -43 38 -39 c38 -39 38 -39 15 -44 l-24 -4 24 -2 25 -1 -32
-33 c-32 -33 -54 -97 -33 -97 6 0 11 12 11 28 0 21 18 45 78 105 l78 77 33
-34 c33 -34 33 -34 10 -39 l-24 -4 24 -2 c22 -1 9 -17 -97 -124 -95 -96 -122
-130 -122 -150 0 -15 5 -27 10 -27 6 0 10 12 10 28 0 22 31 58 163 190 l163
162 34 -35 34 -35 -30 -1 c-23 -1 -25 -3 -6 -6 12 -2 22 -7 22 -11 0 -4 -90
-97 -200 -207 -142 -142 -200 -206 -200 -222 0 -13 5 -23 10 -23 6 0 10 10 10
22 0 16 71 94 247 270 l247 248 28 -27 c34 -32 35 -40 6 -46 -22 -4 -22 -4 2
-6 21 -1 -20 -46 -263 -289 -235 -235 -287 -293 -287 -315 0 -15 5 -27 10 -27
6 0 10 12 10 28 0 22 56 83 328 355 l328 327 33 -34 c33 -34 33 -34 10 -39
l-24 -4 25 -2 c21 -1 -35 -60 -348 -374 -307 -307 -372 -377 -372 -400 0 -15
5 -27 10 -27 6 0 10 12 10 28 0 22 69 96 413 440 l413 413 34 -36 34 -35 -30
-1 -29 -1 28 -7 c26 -6 4 -29 -428 -461 -331 -331 -455 -461 -455 -477 0 -13
5 -23 10 -23 6 0 10 10 10 22 0 17 136 159 497 520 l497 498 28 -27 c34 -32
35 -40 6 -46 -22 -4 -22 -4 2 -6 21 -1 -54 -80 -465 -491 l-490 -490 -72 0
c-42 0 -73 -4 -73 -10 0 -5 11 -10 25 -10 l25 0 0 -402 0 -402 -60 59 c-33 33
-60 55 -60 49 0 -5 25 -34 55 -64 30 -30 55 -59 55 -65 0 -6 -27 -37 -60 -70
-33 -32 -57 -61 -54 -64 2 -3 31 22 64 54 l60 59 0 -402 0 -402 -25 0 c-14 0
-25 -4 -25 -10 0 -5 11 -10 25 -10 l25 0 0 -397 0 -397 -58 57 c-32 32 -61 54
-65 50 -4 -4 21 -35 55 -70 l62 -63 -64 -65 c-35 -36 -60 -65 -55 -65 5 0 35
26 67 57 l58 57 0 -196 0 -197 -27 -4 -28 -4 28 -2 27 -1 0 -197 0 -197 -58
57 c-32 31 -62 57 -67 57 -5 0 20 -29 55 -65 l64 -65 -62 -63 c-34 -35 -59
-66 -55 -70 4 -4 33 18 65 50 l58 57 0 -122 0 -122 -495 0 -495 0 0 340 0 339
118 4 117 3 -117 2 -118 2 0 615 0 615 115 0 c70 0 115 4 115 10 0 6 -45 10
-115 10 l-115 0 0 825 0 825 115 0 c70 0 115 4 115 10 0 6 -45 10 -115 10
l-115 0 0 490 0 489 73 4 72 3 -72 2 -73 2 0 325 0 325 115 0 c70 0 115 4 115
10 0 6 -45 10 -115 10 l-115 0 0 825 0 824 118 4 117 3 -117 2 -118 2 -3 693
c-1 380 -3 -1183 -5 -3475z m1128 997 l-34 -35 -35 35 -35 35 34 35 34 35 35
-35 35 -35 -34 -35z m170 70 l34 -35 -37 -38 -37 -37 -37 37 -37 38 34 35 c19
19 37 35 40 35 3 0 21 -16 40 -35z m170 0 l34 -35 -37 -38 -37 -37 -37 37 -37
38 34 35 c19 19 37 35 40 35 3 0 21 -16 40 -35z m100 32 c0 -2 -13 -15 -28
-30 l-28 -27 -29 30 -29 30 57 0 c31 0 57 -1 57 -3z m60 -102 l-34 -35 -35 35
-35 35 34 35 34 35 35 -35 35 -35 -34 -35z m170 70 l34 -35 -37 -38 -37 -37
-37 37 -37 38 34 35 c19 19 37 35 40 35 3 0 21 -16 40 -35z m170 0 l34 -35
-37 -38 -37 -37 -37 37 -37 38 34 35 c19 19 37 35 40 35 3 0 21 -16 40 -35z
m100 32 c0 -2 -13 -15 -28 -30 l-28 -27 -29 30 -29 30 57 0 c31 0 57 -1 57 -3z
m60 -102 l-34 -35 -35 35 -35 35 34 35 34 35 35 -35 35 -35 -34 -35z m170 70
l34 -35 -34 -35 -34 -35 -38 37 -38 37 32 33 c18 18 35 33 38 33 3 0 21 -16
40 -35z m170 0 l34 -35 -37 -38 -37 -37 -37 37 -37 38 34 35 c19 19 37 35 40
35 3 0 21 -16 40 -35z m100 32 c0 -2 -13 -15 -28 -30 l-28 -27 -29 30 -29 30
57 0 c31 0 57 -1 57 -3z m68 -30 l32 -33 -38 -37 -38 -37 -34 35 -34 35 34 35
c19 19 37 35 40 35 3 0 20 -15 38 -33z m-1423 -157 l-35 -35 -37 37 -37 38 34
35 34 35 38 -37 38 -37 -35 -36z m195 35 c0 -13 -52 -65 -65 -65 -5 0 -24 14
-42 32 l-33 32 37 38 37 38 33 -32 c18 -18 33 -37 33 -43z m138 -32 l-38 -37
-35 34 -35 34 37 38 37 38 36 -35 35 -35 -37 -37z m167 -3 l-35 -35 -37 37
-37 38 34 35 34 35 38 -37 38 -37 -35 -36z m173 3 c-18 -18 -36 -33 -42 -33
-13 0 -66 51 -66 64 0 5 14 25 32 43 l32 33 38 -37 38 -37 -32 -33z m160 0
l-38 -37 -35 34 -35 34 37 38 37 38 36 -35 35 -35 -37 -37z m167 -3 l-35 -35
-37 37 -37 38 34 35 34 35 38 -37 38 -37 -35 -36z m170 0 l-35 -35 -37 37 -37
38 34 35 34 35 38 -37 38 -37 -35 -36z m163 3 l-38 -37 -35 34 -35 34 37 38
37 38 36 -35 35 -35 -37 -37z m122 30 l0 -57 -30 29 -30 29 27 28 c15 15 28
28 30 28 2 0 3 -26 3 -57z m-1540 -48 l34 -35 -34 -35 -34 -35 -38 37 -38 37
32 33 c18 18 35 33 38 33 3 0 21 -16 40 -35z m170 0 l34 -35 -34 -35 -34 -35
-38 37 -38 37 32 33 c18 18 35 33 38 33 3 0 21 -16 40 -35z m168 2 l32 -33
-38 -37 -38 -37 -34 35 -34 35 34 35 c19 19 37 35 40 35 3 0 20 -15 38 -33z
m164 6 c15 -15 28 -31 28 -37 0 -5 -14 -25 -32 -43 l-32 -33 -33 32 c-18 18
-33 36 -33 42 0 13 51 66 64 66 5 0 23 -12 38 -27z m168 -8 l34 -35 -34 -35
-34 -35 -38 37 -38 37 32 33 c18 18 35 33 38 33 3 0 21 -16 40 -35z m168 2
l32 -33 -38 -37 -38 -37 -34 35 -34 35 34 35 c19 19 37 35 40 35 3 0 20 -15
38 -33z m169 1 l33 -32 -37 -38 -37 -38 -33 32 c-18 18 -33 36 -33 42 0 13 51
66 64 66 5 0 25 -14 43 -32z m163 -3 l34 -35 -34 -35 -34 -35 -38 37 -38 37
32 33 c18 18 35 33 38 33 3 0 21 -16 40 -35z m168 2 l32 -33 -35 -34 -35 -34
-35 34 -35 34 32 33 c18 18 35 33 38 33 3 0 20 -15 38 -33z m170 0 l32 -33
-38 -37 -38 -37 -34 35 -34 35 34 35 c19 19 37 35 40 35 3 0 20 -15 38 -33z
m-1423 -157 l-35 -35 -37 37 -37 38 34 35 34 35 38 -37 38 -37 -35 -36z m165
5 l-34 -35 -35 35 -35 35 34 35 34 35 35 -35 35 -35 -34 -35z m170 70 l34 -35
-37 -38 -37 -37 -37 37 -37 38 34 35 c19 19 37 35 40 35 3 0 21 -16 40 -35z
m170 0 l34 -35 -37 -38 -37 -37 -37 37 -37 38 34 35 c19 19 37 35 40 35 3 0
21 -16 40 -35z m160 -70 l-34 -35 -35 35 -35 35 34 35 34 35 35 -35 35 -35
-34 -35z m170 70 l34 -35 -37 -38 -37 -37 -37 37 -37 38 34 35 c19 19 37 35
40 35 3 0 21 -16 40 -35z m170 0 l34 -35 -37 -38 -37 -37 -37 37 -37 38 34 35
c19 19 37 35 40 35 3 0 21 -16 40 -35z m160 -70 l-34 -35 -35 35 -35 35 34 35
34 35 35 -35 35 -35 -34 -35z m170 0 l-34 -35 -35 35 -35 35 34 35 34 35 35
-35 35 -35 -34 -35z m120 33 l0 -63 -32 32 -32 33 29 30 c16 16 30 30 32 30 2
0 3 -28 3 -62z m-1516 -95 c-6 -9 -23 -26 -37 -37 l-27 -20 -35 34 -35 34 37
38 37 38 36 -35 c28 -28 33 -38 24 -52z m311 -23 l-35 -35 -37 37 -37 38 34
35 34 35 38 -37 38 -37 -35 -36z m195 35 c0 -13 -52 -65 -65 -65 -13 0 -65 52
-65 64 0 5 14 25 32 43 l32 33 33 -32 c18 -18 33 -37 33 -43z m138 -32 l-38
-37 -35 34 -35 34 37 38 37 38 36 -35 35 -35 -37 -37z m167 -3 l-35 -35 -37
37 -37 38 34 35 34 35 38 -37 38 -37 -35 -36z m173 3 c-18 -18 -36 -33 -42
-33 -13 0 -66 51 -66 64 0 5 14 25 32 43 l32 33 38 -37 38 -37 -32 -33z m160
0 l-38 -37 -35 34 -35 34 37 38 37 38 36 -35 35 -35 -37 -37z m337 -3 l-35
-35 -37 37 -37 38 34 35 34 35 38 -37 38 -37 -35 -36z m-1337 67 l32 -33 -35
-34 -35 -34 -35 34 -35 34 32 33 c18 18 35 33 38 33 3 0 20 -15 38 -33z m1170
0 l32 -33 -35 -34 -35 -34 -35 34 -35 34 32 33 c18 18 35 33 38 33 3 0 20 -15
38 -33z m-1250 -80 l32 -33 -38 -37 -38 -37 -34 35 -34 35 34 35 c19 19 37 35
40 35 3 0 20 -15 38 -33z m162 -2 l34 -35 -34 -35 -34 -35 -38 37 -38 37 32
33 c18 18 35 33 38 33 3 0 21 -16 40 -35z m170 0 l34 -35 -34 -35 -34 -35 -38
37 -38 37 32 33 c18 18 35 33 38 33 3 0 21 -16 40 -35z m168 2 l32 -33 -38
-37 -38 -37 -34 35 -34 35 34 35 c19 19 37 35 40 35 3 0 20 -15 38 -33z m169
1 l33 -32 -37 -38 -37 -38 -33 32 c-18 18 -33 36 -33 42 0 13 51 66 64 66 5 0
25 -14 43 -32z m163 -3 l34 -35 -34 -35 -34 -35 -38 37 -38 37 32 33 c18 18
35 33 38 33 3 0 21 -16 40 -35z m168 2 l32 -33 -35 -34 -35 -34 -35 34 -35 34
32 33 c18 18 35 33 38 33 3 0 20 -15 38 -33z m170 0 l32 -33 -38 -37 -38 -37
-34 35 -34 35 34 35 c19 19 37 35 40 35 3 0 20 -15 38 -33z m162 -2 l34 -35
-34 -35 -34 -35 -38 37 -38 37 32 33 c18 18 35 33 38 33 3 0 21 -16 40 -35z
m120 -32 l0 -57 -30 29 -30 29 27 28 c15 15 28 28 30 28 2 0 3 -26 3 -57z
m-1540 -118 l-34 -35 -35 35 -35 35 34 35 34 35 35 -35 35 -35 -34 -35z m170
70 l34 -35 -37 -38 -37 -37 -37 37 -37 38 34 35 c19 19 37 35 40 35 3 0 21
-16 40 -35z m165 -75 l-35 -35 -37 37 -37 38 34 35 34 35 38 -37 38 -37 -35
-36z m165 5 l-34 -35 -35 35 -35 35 34 35 34 35 35 -35 35 -35 -34 -35z m170
70 l34 -35 -37 -38 -37 -37 -37 37 -37 38 34 35 c19 19 37 35 40 35 3 0 21
-16 40 -35z m170 0 l34 -35 -37 -38 -37 -37 -37 37 -37 38 34 35 c19 19 37 35
40 35 3 0 21 -16 40 -35z m160 -70 l-34 -35 -35 35 -35 35 34 35 34 35 35 -35
35 -35 -34 -35z m170 0 l-34 -35 -35 35 -35 35 34 35 34 35 35 -35 35 -35 -34
-35z m170 70 l34 -35 -37 -38 -37 -37 -37 37 -37 38 34 35 c19 19 37 35 40 35
3 0 21 -16 40 -35z m160 -70 l-34 -35 -35 35 -35 35 34 35 34 35 35 -35 35
-35 -34 -35z m-702 -542 l-493 -493 -75 0 -75 0 530 530 530 530 37 -37 38
-37 -492 -493z m162 2 l-495 -495 -70 0 -70 0 530 530 530 530 35 -35 35 -35
-495 -495z m128 522 l32 -33 -493 -492 -492 -492 -70 0 -70 0 525 525 c289
289 527 525 531 525 3 0 19 -15 37 -33z m435 -129 c-18 -18 -20 -17 -53 17
l-34 35 49 51 50 50 3 -67 c2 -55 0 -71 -15 -86z m67 127 l23 -25 -26 0 c-22
0 -27 5 -27 25 0 14 1 25 3 25 2 0 14 -11 27 -25z m-525 -585 l-430 -430 -70
0 -70 0 465 465 465 465 35 -35 35 -35 -430 -430z m475 428 c0 -16 -3 -19 -11
-11 -6 6 -8 16 -5 22 11 17 16 13 16 -11z m-68 -101 c-34 -35 -59 -66 -55 -70
4 -4 33 18 65 50 l58 57 0 -29 c0 -26 -50 -79 -367 -397 l-368 -368 -75 0 -75
0 425 425 c376 376 426 423 439 410 14 -13 8 -22 -47 -78z m-214 -474 l-283
-283 -75 0 -75 0 355 355 355 355 3 -72 3 -72 -283 -283z m80 -80 l-203 -203
-70 0 -70 0 270 270 270 270 3 -67 3 -67 -203 -203z m85 -85 l-118 -118 -70 0
-70 0 185 185 185 185 3 -67 3 -67 -118 -118z m86 -85 c-32 -32 -36 -33 -108
-33 l-76 0 105 105 105 105 3 -71 c3 -69 2 -73 -29 -106z m31 -13 c0 -14 -7
-20 -22 -20 -20 0 -21 1 -3 20 10 11 20 20 22 20 1 0 3 -9 3 -20z"/>
<path d="M4123 6283 c9 -2 23 -2 30 0 6 3 -1 5 -18 5 -16 0 -22 -2 -12 -5z"/>
<path d="M4283 6283 c9 -2 23 -2 30 0 6 3 -1 5 -18 5 -16 0 -22 -2 -12 -5z"/>
<path d="M3953 6283 c9 -2 23 -2 30 0 6 3 -1 5 -18 5 -16 0 -22 -2 -12 -5z"/>
<path d="M8411 9901 c-7 -12 -7 -22 -2 -26 5 -3 13 4 16 16 9 28 -1 36 -14 10z"/>
<path d="M8345 9750 c-4 -12 -5 -24 -2 -27 3 -2 8 5 12 17 4 12 5 24 2 27 -3
2 -8 -5 -12 -17z"/>
<path d="M8276 9604 c-9 -23 -7 -36 3 -30 12 8 21 46 11 46 -4 0 -11 -7 -14
-16z"/>
<path d="M8140 9300 c-6 -12 -9 -24 -7 -27 3 -2 11 5 17 17 6 12 9 24 7 27 -3
2 -11 -5 -17 -17z"/>
<path d="M8070 9149 c-13 -24 -4 -41 10 -19 10 16 13 40 5 40 -2 0 -9 -9 -15
-21z"/>
<path d="M8002 8995 c-6 -14 -7 -25 -2 -25 9 0 25 39 18 46 -3 2 -10 -7 -16
-21z"/>
<path d="M7937 8857 c-11 -29 -9 -43 4 -30 6 6 9 19 7 29 -3 18 -4 18 -11 1z"/>
<path d="M7865 8699 c-9 -28 1 -36 14 -10 7 12 7 22 2 26 -5 3 -13 -4 -16 -16z"/>
<path d="M2283 8613 c37 -2 96 -2 130 0 34 2 4 3 -68 3 -71 0 -99 -1 -62 -3z"/>
<path d="M2758 8613 c34 -2 90 -2 125 0 34 2 6 3 -63 3 -69 0 -97 -1 -62 -3z"/>
<path d="M3228 8613 c34 -2 90 -2 125 0 34 2 6 3 -63 3 -69 0 -97 -1 -62 -3z"/>
<path d="M3698 8613 c34 -2 90 -2 125 0 34 2 6 3 -63 3 -69 0 -97 -1 -62 -3z"/>
<path d="M4168 8613 c34 -2 90 -2 125 0 34 2 6 3 -63 3 -69 0 -97 -1 -62 -3z"/>
<path d="M4648 8613 c34 -2 90 -2 125 0 34 2 6 3 -63 3 -69 0 -97 -1 -62 -3z"/>
<path d="M5118 8613 c34 -2 90 -2 125 0 34 2 6 3 -63 3 -69 0 -97 -1 -62 -3z"/>
<path d="M5588 8613 c34 -2 90 -2 125 0 34 2 6 3 -63 3 -69 0 -97 -1 -62 -3z"/>
<path d="M6058 8613 c34 -2 90 -2 125 0 34 2 6 3 -63 3 -69 0 -97 -1 -62 -3z"/>
<path d="M6538 8613 c34 -2 90 -2 125 0 34 2 6 3 -63 3 -69 0 -97 -1 -62 -3z"/>
<path d="M7008 8613 c34 -2 90 -2 125 0 34 2 6 3 -63 3 -69 0 -97 -1 -62 -3z"/>
<path d="M8428 8613 c34 -2 90 -2 125 0 34 2 6 3 -63 3 -69 0 -97 -1 -62 -3z"/>
<path d="M7796 8544 c-8 -21 -8 -24 3 -24 5 0 11 9 14 20 6 24 -8 27 -17 4z"/>
<path d="M7726 8394 c-9 -22 3 -32 14 -14 12 19 12 30 1 30 -5 0 -12 -7 -15
-16z"/>
<path d="M7660 8241 c-6 -12 -7 -21 -1 -21 10 0 24 30 17 37 -2 3 -9 -5 -16
-16z"/>
<path d="M7590 8091 c-7 -15 -7 -21 0 -21 12 0 25 28 17 36 -3 3 -10 -4 -17
-15z"/>
<path d="M7523 7945 c-9 -25 4 -29 17 -6 7 15 7 21 0 21 -6 0 -13 -7 -17 -15z"/>
<path d="M7386 7644 c-11 -28 -6 -39 9 -20 8 11 15 23 15 28 0 14 -18 9 -24
-8z"/>
<path d="M7320 7490 c-6 -12 -9 -24 -7 -27 3 -2 11 5 17 17 6 12 9 24 7 27 -3
2 -11 -5 -17 -17z"/>
<path d="M7251 7341 c-7 -12 -7 -22 -2 -26 5 -3 13 4 16 16 9 28 -1 36 -14 10z"/>
<path d="M7187 7204 c-4 -4 -7 -17 -7 -28 1 -19 1 -20 11 -3 11 19 8 43 -4 31z"/>
<path d="M7116 7044 c-9 -23 -7 -36 3 -30 12 8 21 46 11 46 -4 0 -11 -7 -14
-16z"/>
<path d="M2230 6950 c0 -6 45 -10 115 -10 70 0 115 4 115 10 0 6 -45 10 -115
10 -70 0 -115 -4 -115 -10z"/>
<path d="M7900 6950 c0 -6 45 -10 115 -10 70 0 115 4 115 10 0 6 -45 10 -115
10 -70 0 -115 -4 -115 -10z"/>
<path d="M8370 6950 c0 -6 45 -10 115 -10 70 0 115 4 115 10 0 6 -45 10 -115
10 -70 0 -115 -4 -115 -10z"/>
<path d="M6980 6740 c-6 -12 -9 -24 -7 -27 3 -2 11 5 17 17 6 12 9 24 7 27 -3
2 -11 -5 -17 -17z"/>
<path d="M1138 6323 c-29 -31 -47 -83 -29 -83 6 0 11 6 11 14 0 30 48 47 126
45 87 -2 89 4 -38 -94 -93 -71 -138 -119 -124 -132 4 -4 12 0 17 10 13 22 41
22 89 -3 22 -11 50 -20 64 -20 29 0 86 61 86 92 0 20 -1 20 -25 -6 -22 -24
-30 -26 -106 -26 -45 0 -79 3 -75 8 4 4 48 39 98 77 92 70 138 119 125 132 -4
3 -13 -2 -21 -12 -14 -19 -15 -19 -68 3 -71 29 -99 28 -130 -5z"/>
<path d="M6780 6301 c0 -5 -8 -12 -17 -14 -14 -4 -12 -5 5 -6 13 -1 22 5 22
14 0 8 -2 15 -5 15 -3 0 -5 -4 -5 -9z"/>
<path d="M4613 6283 c9 -2 23 -2 30 0 6 3 -1 5 -18 5 -16 0 -22 -2 -12 -5z"/>
<path d="M4783 6283 c9 -2 23 -2 30 0 6 3 -1 5 -18 5 -16 0 -22 -2 -12 -5z"/>
<path d="M4943 6283 c9 -2 25 -2 35 0 9 3 1 5 -18 5 -19 0 -27 -2 -17 -5z"/>
<path d="M5113 6283 c9 -2 23 -2 30 0 6 3 -1 5 -18 5 -16 0 -22 -2 -12 -5z"/>
<path d="M5273 6283 c9 -2 25 -2 35 0 9 3 1 5 -18 5 -19 0 -27 -2 -17 -5z"/>
<path d="M5443 6283 c9 -2 23 -2 30 0 6 3 -1 5 -18 5 -16 0 -22 -2 -12 -5z"/>
<path d="M5603 6283 c9 -2 25 -2 35 0 9 3 1 5 -18 5 -19 0 -27 -2 -17 -5z"/>
<path d="M5773 6283 c9 -2 23 -2 30 0 6 3 -1 5 -18 5 -16 0 -22 -2 -12 -5z"/>
<path d="M5943 6283 c9 -2 23 -2 30 0 6 3 -1 5 -18 5 -16 0 -22 -2 -12 -5z"/>
<path d="M6103 6283 c9 -2 23 -2 30 0 6 3 -1 5 -18 5 -16 0 -22 -2 -12 -5z"/>
<path d="M6273 6283 c9 -2 23 -2 30 0 6 3 -1 5 -18 5 -16 0 -22 -2 -12 -5z"/>
<path d="M6433 6283 c9 -2 23 -2 30 0 6 3 -1 5 -18 5 -16 0 -22 -2 -12 -5z"/>
<path d="M6603 6283 c9 -2 23 -2 30 0 6 3 -1 5 -18 5 -16 0 -22 -2 -12 -5z"/>
<path d="M1517 6163 c-14 -13 -6 -33 13 -33 13 0 20 7 20 20 0 19 -20 27 -33
13z"/>
<path d="M1441 6064 c-12 -15 -19 -29 -16 -32 3 -3 12 4 21 16 23 33 48 29 39
-5 -22 -89 -13 -143 24 -143 21 0 51 30 51 51 0 9 -7 5 -19 -10 -11 -15 -24
-22 -34 -18 -14 5 -14 11 1 57 15 46 15 54 1 78 -20 36 -43 38 -68 6z"/>
<path d="M30 5821 c0 -5 7 -11 15 -15 19 -7 19 -43 0 -76 -23 -40 -19 -103 7
-128 24 -21 78 -46 78 -35 0 3 -11 16 -25 29 -23 21 -25 31 -25 104 0 44 2 80
5 80 2 0 38 -45 79 -99 77 -101 108 -131 136 -131 10 0 7 6 -10 19 l-24 19 23
49 c15 32 21 62 19 88 -3 34 -8 43 -43 62 -57 32 -76 29 -37 -6 31 -29 32 -32
32 -110 0 -45 -2 -81 -4 -81 -2 0 -34 40 -71 90 -83 112 -155 177 -155 141z
m247 -118 c-3 -10 -5 -4 -5 12 0 17 2 24 5 18 2 -7 2 -21 0 -30z m20 0 c-3
-10 -5 -4 -5 12 0 17 2 24 5 18 2 -7 2 -21 0 -30z m-250 -60 c-3 -10 -5 -4 -5
12 0 17 2 24 5 18 2 -7 2 -21 0 -30z"/>
<path d="M2225 5290 c-4 -6 38 -10 120 -10 82 0 124 4 120 10 -4 6 -55 10
-120 10 -65 0 -116 -4 -120 -10z"/>
<path d="M4590 5290 c0 -6 47 -10 121 -10 77 0 118 4 114 10 -4 6 -55 10 -121
10 -69 0 -114 -4 -114 -10z"/>
<path d="M5060 5290 c0 -6 47 -10 121 -10 77 0 118 4 114 10 -4 6 -55 10 -121
10 -69 0 -114 -4 -114 -10z"/>
<path d="M5535 5290 c-4 -6 37 -10 114 -10 74 0 121 4 121 10 0 6 -45 10 -114
10 -66 0 -117 -4 -121 -10z"/>
<path d="M6005 5290 c-4 -6 37 -10 114 -10 74 0 121 4 121 10 0 6 -45 10 -114
10 -66 0 -117 -4 -121 -10z"/>
<path d="M6480 5290 c0 -6 47 -10 121 -10 77 0 118 4 114 10 -4 6 -55 10 -121
10 -69 0 -114 -4 -114 -10z"/>
<path d="M6950 5290 c0 -6 47 -10 121 -10 77 0 118 4 114 10 -4 6 -55 10 -121
10 -69 0 -114 -4 -114 -10z"/>
<path d="M7425 5290 c-4 -6 37 -10 114 -10 74 0 121 4 121 10 0 6 -45 10 -114
10 -66 0 -117 -4 -121 -10z"/>
<path d="M7895 5290 c-4 -6 37 -10 114 -10 74 0 121 4 121 10 0 6 -45 10 -114
10 -66 0 -117 -4 -121 -10z"/>
<path d="M8370 5290 c0 -6 47 -10 121 -10 77 0 118 4 114 10 -4 6 -55 10 -121
10 -69 0 -114 -4 -114 -10z"/>
<path d="M5441 4530 c-23 -72 -45 -130 -47 -127 -3 2 -22 55 -43 118 l-38 114
-34 2 c-19 1 -26 -1 -16 -3 15 -5 17 -21 17 -144 0 -124 -2 -139 -17 -143 -10
-3 2 -5 27 -5 25 0 37 2 28 5 -16 4 -18 18 -17 116 l1 112 43 -125 c25 -73 45
-119 49 -110 3 8 24 67 45 130 l39 115 1 -117 c1 -113 0 -117 -21 -121 -13 -2
2 -4 32 -4 30 -1 47 1 38 4 -16 4 -18 19 -18 143 0 124 2 139 18 143 11 3 7 5
-10 6 -14 0 -28 6 -30 11 -2 6 -23 -48 -47 -120z"/>
<path d="M3288 4633 c22 -4 22 -7 22 -143 0 -136 0 -139 -22 -143 -13 -2 28
-5 90 -6 l112 -1 0 45 c0 25 -4 45 -10 45 -5 0 -10 -11 -10 -24 0 -49 -8 -56
-71 -56 l-59 0 0 139 c0 124 2 140 18 144 9 3 -8 5 -38 4 -30 0 -45 -2 -32 -4z"/>
<path d="M4308 4633 c22 -4 22 -7 22 -143 0 -136 0 -139 -22 -143 -13 -2 4 -4
37 -4 33 0 50 2 38 4 -23 4 -23 7 -23 149 l0 144 -37 -1 c-24 -1 -29 -3 -15
-6z"/>
<path d="M4683 4633 c15 -4 17 -19 17 -143 0 -124 -2 -139 -17 -143 -10 -3 5
-5 32 -4 28 0 40 2 28 4 -22 4 -23 8 -23 126 l0 122 43 -65 c23 -36 62 -97 87
-135 l45 -70 3 152 c2 134 5 152 20 156 9 3 -3 5 -28 5 -25 0 -37 -2 -27 -5
15 -4 17 -18 17 -116 l-1 -112 -32 50 c-17 28 -51 81 -75 118 -38 61 -45 67
-75 66 -17 -1 -24 -3 -14 -6z"/>
<path d="M4980 4595 c0 -25 5 -45 10 -45 6 0 10 11 10 24 0 44 10 56 46 56
l34 0 0 -139 c0 -137 0 -140 -22 -144 -13 -2 2 -4 32 -4 30 -1 47 1 38 4 -16
4 -18 20 -18 144 l0 140 33 -3 c29 -3 32 -6 35 -40 4 -53 22 -47 22 7 l0 45
-110 0 -110 0 0 -45z"/>
<path d="M5608 4633 c22 -4 22 -7 22 -143 0 -136 0 -139 -22 -143 -13 -2 28
-5 90 -6 l112 -1 0 45 c0 56 -15 59 -24 5 l-6 -40 -60 0 -60 0 0 139 c0 124 2
140 18 144 9 3 -8 5 -38 4 -30 0 -45 -2 -32 -4z"/>
<path d="M3590 4532 c-44 -22 -62 -56 -56 -107 6 -54 43 -85 99 -85 43 0 87
22 87 42 0 6 -8 4 -18 -5 -10 -9 -32 -20 -50 -23 -26 -5 -36 -1 -62 24 -16 17
-30 40 -30 51 0 20 6 21 85 21 53 0 85 4 85 10 0 24 -30 67 -55 78 -34 16 -44
15 -85 -6z m92 -19 c10 -9 18 -24 18 -35 0 -16 -9 -18 -70 -18 -67 0 -70 1
-60 19 25 47 79 64 112 34z"/>
<path d="M3775 4540 c-3 -5 0 -10 7 -10 7 0 31 -43 52 -95 22 -53 44 -94 48
-93 5 2 27 45 50 96 24 55 46 92 55 92 8 0 11 5 8 10 -3 6 -24 10 -46 10 -21
0 -39 -4 -39 -10 0 -5 9 -10 21 -10 23 0 23 0 -14 -87 -12 -29 -25 -53 -28
-53 -6 0 -59 122 -59 135 0 3 7 5 16 5 8 0 12 5 9 10 -3 6 -21 10 -40 10 -19
0 -37 -4 -40 -10z"/>
<path d="M4100 4532 c-44 -22 -62 -56 -56 -107 6 -54 43 -85 99 -85 43 0 87
22 87 42 0 6 -8 4 -18 -5 -10 -9 -32 -20 -50 -23 -26 -5 -36 -1 -62 24 -16 17
-30 40 -30 51 0 20 6 21 85 21 47 0 85 4 85 9 0 27 -23 62 -49 76 -38 19 -48
19 -91 -3z m92 -19 c10 -9 18 -24 18 -35 0 -16 -9 -18 -70 -18 -67 0 -70 1
-60 19 25 47 79 64 112 34z"/>
<path d="M2225 3620 c4 -6 55 -10 120 -10 65 0 116 4 120 10 4 6 -38 10 -120
10 -82 0 -124 -4 -120 -10z"/>
<path d="M3170 3620 c0 -6 47 -10 120 -10 73 0 120 4 120 10 0 6 -47 10 -120
10 -73 0 -120 -4 -120 -10z"/>
<path d="M3645 3620 c4 -6 55 -10 121 -10 69 0 114 4 114 10 0 6 -47 10 -121
10 -77 0 -118 -4 -114 -10z"/>
<path d="M4115 3620 c4 -6 55 -10 121 -10 69 0 114 4 114 10 0 6 -47 10 -121
10 -77 0 -118 -4 -114 -10z"/>
<path d="M4590 3620 c0 -6 45 -10 114 -10 66 0 117 4 121 10 4 6 -37 10 -114
10 -74 0 -121 -4 -121 -10z"/>
<path d="M5060 3620 c0 -6 45 -10 114 -10 66 0 117 4 121 10 4 6 -37 10 -114
10 -74 0 -121 -4 -121 -10z"/>
<path d="M5535 3620 c4 -6 55 -10 121 -10 69 0 114 4 114 10 0 6 -47 10 -121
10 -77 0 -118 -4 -114 -10z"/>
<path d="M6005 3620 c4 -6 55 -10 121 -10 69 0 114 4 114 10 0 6 -47 10 -121
10 -77 0 -118 -4 -114 -10z"/>
<path d="M6480 3620 c0 -6 45 -10 114 -10 66 0 117 4 121 10 4 6 -37 10 -114
10 -74 0 -121 -4 -121 -10z"/>
<path d="M6950 3620 c0 -6 45 -10 114 -10 66 0 117 4 121 10 4 6 -37 10 -114
10 -74 0 -121 -4 -121 -10z"/>
<path d="M7425 3620 c4 -6 55 -10 121 -10 69 0 114 4 114 10 0 6 -47 10 -121
10 -77 0 -118 -4 -114 -10z"/>
<path d="M7895 3620 c4 -6 55 -10 121 -10 69 0 114 4 114 10 0 6 -47 10 -121
10 -77 0 -118 -4 -114 -10z"/>
<path d="M8370 3620 c0 -6 45 -10 114 -10 66 0 117 4 121 10 4 6 -37 10 -114
10 -74 0 -121 -4 -121 -10z"/>
<path d="M2283 2373 c37 -2 96 -2 130 0 34 2 4 3 -68 3 -71 0 -99 -1 -62 -3z"/>
<path d="M3228 2373 c34 -2 90 -2 125 0 34 2 6 3 -63 3 -69 0 -97 -1 -62 -3z"/>
<path d="M3698 2373 c34 -2 90 -2 125 0 34 2 6 3 -63 3 -69 0 -97 -1 -62 -3z"/>
<path d="M4168 2373 c34 -2 90 -2 125 0 34 2 6 3 -63 3 -69 0 -97 -1 -62 -3z"/>
<path d="M4648 2373 c34 -2 90 -2 125 0 34 2 6 3 -63 3 -69 0 -97 -1 -62 -3z"/>
<path d="M5118 2373 c34 -2 90 -2 125 0 34 2 6 3 -63 3 -69 0 -97 -1 -62 -3z"/>
<path d="M5588 2373 c34 -2 90 -2 125 0 34 2 6 3 -63 3 -69 0 -97 -1 -62 -3z"/>
<path d="M6058 2373 c34 -2 90 -2 125 0 34 2 6 3 -63 3 -69 0 -97 -1 -62 -3z"/>
<path d="M6538 2373 c34 -2 90 -2 125 0 34 2 6 3 -63 3 -69 0 -97 -1 -62 -3z"/>
<path d="M7008 2373 c34 -2 90 -2 125 0 34 2 6 3 -63 3 -69 0 -97 -1 -62 -3z"/>
<path d="M7478 2373 c34 -2 90 -2 125 0 34 2 6 3 -63 3 -69 0 -97 -1 -62 -3z"/>
<path d="M7948 2373 c34 -2 90 -2 125 0 34 2 6 3 -63 3 -69 0 -97 -1 -62 -3z"/>
<path d="M8428 2373 c34 -2 90 -2 125 0 34 2 6 3 -63 3 -69 0 -97 -1 -62 -3z"/>
<path d="M1311 2088 c-70 -24 -113 -147 -91 -264 17 -87 43 -124 102 -142 68
-22 114 -1 148 64 21 41 25 62 25 139 0 74 -4 98 -24 138 -31 64 -90 88 -160
65z m88 -23 c43 -22 56 -65 56 -185 0 -88 -3 -111 -20 -140 -27 -46 -81 -62
-120 -36 -77 50 -86 276 -15 348 32 31 58 35 99 13z"/>
<path d="M5050 569 c-54 -20 -107 -145 -117 -276 -6 -78 -5 -82 20 -107 30
-30 69 -34 121 -12 26 11 41 28 65 78 31 62 60 176 61 231 0 35 -24 82 -45 91
-23 9 -75 6 -105 -5z m94 -21 c16 -22 22 -111 10 -142 -5 -13 -23 -16 -91 -16
-97 0 -96 -2 -45 93 44 82 96 109 126 65z m-6 -215 c-11 -42 -49 -113 -74
-137 -8 -9 -28 -16 -44 -16 -43 0 -64 46 -56 118 4 30 9 59 12 63 3 5 43 9 89
9 l83 0 -10 -37z"/>
<path d="M5566 281 c-3 -5 0 -11 8 -14 10 -4 8 -24 -12 -101 -24 -90 -24 -97
-8 -121 9 -14 25 -25 35 -25 21 0 51 30 51 51 0 8 -11 1 -24 -16 -19 -23 -27
-27 -36 -18 -9 8 -5 37 19 122 17 62 31 116 31 121 0 13 -57 13 -64 1z"/>
<path d="M5286 179 c-22 -32 -9 -39 14 -9 15 20 21 23 31 12 10 -9 10 -19 1
-45 -15 -43 -15 -90 0 -105 23 -23 68 -14 99 19 43 46 66 149 34 149 -13 0
-15 -7 -10 -34 8 -40 -12 -84 -51 -115 -30 -23 -33 -24 -52 -13 -10 7 -9 18 5
55 13 35 15 53 7 74 -13 37 -55 44 -78 12z"/>
</g>
</svg>
