<?xml version="1.0" standalone="no"?>
<!DOCTYPE svg PUBLIC "-//W3C//DTD SVG 20010904//EN"
 "http://www.w3.org/TR/2001/REC-SVG-20010904/DTD/svg10.dtd">
<svg version="1.0" xmlns="http://www.w3.org/2000/svg"
 width="1073.000000pt" height="837.000000pt" viewBox="0 0 1073.000000 837.000000"
 preserveAspectRatio="xMidYMid meet">
<metadata>
Created by potrace 1.16, written by Peter Selinger 2001-2019
</metadata>
<g transform="translate(0.000000,837.000000) scale(0.100000,-0.100000)"
fill="#000000" stroke="none">
<path d="M1269 8349 c-5 -3 -9 -1546 -9 -3735 l0 -3729 4547 0 4548 0 3 3732
2 3733 -4541 2 c-2497 2 -4545 1 -4550 -3z m171 -39 c143 -23 153 -24 145 -10
-8 13 22 13 160 0 64 -6 113 -16 117 -23 6 -9 10 -9 16 0 23 36 1398 -129
2309 -277 1720 -280 2981 -641 3643 -1041 399 -242 585 -498 568 -782 -6 -85
-46 -223 -70 -238 -7 -5 -10 -9 -5 -9 11 0 -35 -86 -85 -157 -227 -324 -675
-671 -1413 -1095 -433 -249 -764 -423 -1630 -856 -1033 -516 -1622 -821 -2004
-1039 -90 -51 -169 -93 -177 -93 -22 0 -44 -12 -44 -24 0 -6 -53 -42 -118 -80
-674 -398 -1181 -814 -1409 -1156 -28 -41 -60 -94 -72 -117 -20 -40 -24 -43
-61 -43 l-40 0 0 180 0 180 46 0 c27 0 43 4 39 10 -3 6 -24 10 -46 10 l-39 0
0 175 0 175 39 0 c22 0 43 5 46 10 4 6 -12 10 -39 10 l-46 0 0 180 0 180 93 2
92 2 -92 3 -93 4 0 179 0 180 48 2 47 2 -47 3 -48 4 0 180 0 179 45 0 c25 0
45 5 45 10 0 6 -20 10 -45 10 l-45 0 0 175 0 175 39 0 c22 0 43 4 46 10 4 6
-12 10 -39 10 l-46 0 0 180 0 180 93 2 92 2 -92 3 -93 4 0 179 0 180 46 0 c27
0 43 4 39 10 -3 6 -24 10 -46 10 l-39 0 0 175 0 175 45 0 c25 0 45 5 45 10 0
6 -20 10 -45 10 l-45 0 0 175 0 175 39 0 c22 0 43 4 46 10 4 6 -12 10 -39 10
l-46 0 0 180 0 180 93 2 92 2 -92 3 -93 4 0 179 0 180 46 0 c27 0 43 4 39 10
-3 6 -24 10 -46 10 l-39 0 0 175 0 175 45 0 c25 0 45 5 45 10 0 6 -20 10 -45
10 l-45 0 0 175 0 175 39 0 c22 0 43 5 46 10 4 6 -12 10 -39 10 l-46 0 0 180
0 180 93 2 92 2 -92 3 -93 4 0 179 0 180 46 0 c27 0 43 4 39 10 -3 6 -24 10
-46 10 l-39 0 0 175 0 175 39 0 c22 0 43 5 46 10 4 6 -12 10 -39 10 l-46 0 0
175 0 175 39 0 c22 0 43 5 46 10 4 6 -12 10 -39 10 l-46 0 0 181 0 181 23 -6
c13 -3 79 -14 147 -26z m420 15 c0 -18 -22 -18 -215 -1 l-140 13 178 2 c151 1
177 -1 177 -14z m612 -22 l1 -38 4 38 4 37 295 0 294 0 0 -35 c0 -19 5 -35 10
-35 6 0 10 16 10 35 l0 35 295 0 295 0 0 -35 c0 -19 5 -35 10 -35 6 0 10 16
10 35 l0 35 290 0 290 0 0 -69 c0 -39 5 -73 10 -76 6 -4 10 22 10 69 l0 76
295 0 295 0 0 -35 c0 -19 5 -35 10 -35 6 0 10 16 10 35 l0 35 290 0 290 0 0
-35 c0 -19 5 -35 10 -35 6 0 10 16 10 35 l0 35 295 0 295 0 0 -35 c0 -19 5
-35 10 -35 6 0 10 16 10 35 l0 35 295 0 295 0 2 -37 1 -38 4 38 4 37 295 0
294 0 0 -70 c0 -40 4 -70 10 -70 6 0 10 30 10 70 l0 70 295 0 295 0 2 -37 1
-38 4 38 4 37 295 0 294 0 0 -35 c0 -19 5 -35 10 -35 6 0 10 16 10 35 l0 35
295 0 295 0 0 -35 c0 -19 5 -35 10 -35 6 0 10 16 10 35 l0 35 290 0 290 0 0
-35 c0 -19 5 -35 10 -35 6 0 10 16 10 35 l0 35 295 0 295 0 0 -180 0 -180 -46
0 c-27 0 -43 -4 -39 -10 3 -5 24 -10 46 -10 l39 0 0 -175 0 -175 -40 0 c-22 0
-40 -4 -40 -10 0 -5 18 -10 40 -10 l40 0 0 -175 0 -175 -39 0 c-22 0 -43 -4
-46 -10 -4 -6 12 -10 39 -10 l46 0 0 -180 0 -180 -92 -2 -93 -2 93 -3 92 -4 0
-179 0 -180 -46 0 c-27 0 -43 -4 -39 -10 3 -5 24 -10 46 -10 l39 0 0 -175 0
-175 -40 0 c-22 0 -40 -4 -40 -10 0 -5 18 -10 40 -10 l40 0 0 -175 0 -175 -39
0 c-22 0 -43 -4 -46 -10 -4 -6 12 -10 39 -10 l46 0 0 -180 0 -180 -92 -2 -93
-2 93 -3 92 -4 0 -179 0 -180 -46 0 c-27 0 -43 -4 -39 -10 3 -5 24 -10 46 -10
l39 0 0 -175 0 -175 -40 0 c-22 0 -40 -4 -40 -10 0 -5 18 -10 40 -10 l40 0 0
-175 0 -175 -39 0 c-22 0 -43 -4 -46 -10 -4 -6 12 -10 39 -10 l46 0 0 -180 0
-180 -92 -2 -93 -2 93 -3 92 -4 0 -179 0 -180 -40 0 c-22 0 -40 -4 -40 -10 0
-5 18 -10 40 -10 l40 0 0 -175 0 -175 -40 0 c-22 0 -40 -4 -40 -10 0 -5 18
-10 40 -10 l40 0 0 -180 0 -180 -47 -2 -48 -2 48 -3 47 -4 0 -180 0 -179 -92
-2 -93 -2 93 -3 92 -4 0 -179 0 -180 -40 0 c-22 0 -40 -4 -40 -10 0 -5 18 -10
40 -10 l40 0 0 -175 0 -175 -39 0 c-22 0 -43 -4 -46 -10 -4 -6 12 -10 39 -10
l46 0 0 -180 0 -180 -47 -2 -48 -2 48 -3 47 -4 0 -180 0 -179 -295 0 -295 0 0
35 c0 19 -4 35 -10 35 -5 0 -10 -16 -10 -35 l0 -35 -290 0 -290 0 0 35 c0 19
-4 35 -10 35 -5 0 -10 -16 -10 -35 l0 -35 -295 0 -295 0 0 35 c0 19 -4 35 -10
35 -5 0 -10 -16 -10 -35 l0 -35 -295 0 -295 0 -2 38 -1 37 -4 -37 -4 -38 -295
0 -294 0 0 70 c0 40 -4 70 -10 70 -6 0 -10 -30 -10 -70 l0 -70 -295 0 -295 0
-2 38 -1 37 -4 -37 -4 -38 -295 0 -294 0 0 35 c0 19 -4 35 -10 35 -5 0 -10
-16 -10 -35 l0 -35 -295 0 -295 0 0 35 c0 19 -4 35 -10 35 -5 0 -10 -16 -10
-35 l0 -35 -290 0 -290 0 0 35 c0 19 -4 35 -10 35 -5 0 -10 -16 -10 -35 l0
-35 -295 0 -295 0 0 70 c0 40 -4 70 -10 70 -6 0 -10 -30 -10 -70 l0 -70 -290
0 -290 0 0 35 c0 19 -4 35 -10 35 -5 0 -10 -16 -10 -35 l0 -35 -295 0 -295 0
0 35 c0 19 -4 35 -10 35 -5 0 -10 -16 -10 -35 l0 -35 -295 0 -295 0 -2 38 -1
37 -4 -37 -4 -38 -295 0 -294 0 0 35 c0 19 -4 35 -10 35 -5 0 -10 -16 -10 -35
l0 -35 -290 0 -290 0 0 48 c0 26 11 91 25 145 79 312 364 651 855 1017 235
175 758 509 945 603 33 17 62 33 65 37 6 9 229 132 525 290 127 68 714 367
1305 665 591 298 1174 595 1295 660 1054 564 1637 976 1927 1359 33 44 74 104
90 133 16 29 37 53 45 53 11 0 13 4 5 13 -6 8 -2 31 13 72 l23 60 12 -30 c7
-16 14 -65 17 -107 3 -43 10 -78 16 -78 15 0 2 127 -18 180 -10 25 -17 56 -16
70 8 168 3 227 -23 305 -123 360 -577 670 -1416 968 -991 351 -2596 670 -4410
876 -195 22 -428 46 -517 53 -146 11 -163 14 -163 30 0 17 18 18 295 18 l295
0 2 -37z m-925 11 c-3 -3 -12 -4 -19 -1 -8 3 -5 6 6 6 11 1 17 -2 13 -5z
m-207 -7057 c0 -17 -58 -156 -63 -151 -10 11 -8 114 2 114 5 0 11 9 14 20 3
12 14 20 26 20 12 0 21 -1 21 -3z"/>
<path d="M1820 8259 c0 -8 6 -10 145 -33 73 -13 96 -13 84 -2 -9 9 -229 43
-229 35z"/>
<path d="M1300 8240 c11 -20 30 -28 30 -12 0 11 -22 32 -32 32 -5 0 -4 -9 2
-20z"/>
<path d="M2280 8182 c0 -9 177 -42 221 -42 46 0 8 11 -102 30 -63 11 -115 20
-116 20 -2 0 -3 -4 -3 -8z"/>
<path d="M1420 8142 c0 -10 22 -32 32 -32 15 0 8 15 -12 28 -11 7 -20 9 -20 4z"/>
<path d="M2750 8101 c0 -6 6 -11 13 -11 6 0 58 -9 115 -19 56 -10 102 -15 102
-11 0 4 -42 15 -92 25 -51 9 -103 19 -115 22 -14 3 -23 1 -23 -6z"/>
<path d="M1564 8045 c22 -17 36 -19 36 -6 0 10 -24 21 -43 21 -7 0 -3 -7 7
-15z"/>
<path d="M3212 8015 c6 -6 201 -45 225 -45 38 0 -3 14 -89 31 -94 18 -146 23
-136 14z"/>
<path d="M1714 7975 c22 -17 36 -19 36 -6 0 10 -24 21 -43 21 -7 0 -3 -7 7
-15z"/>
<path d="M3680 7929 c0 -5 2 -9 4 -9 2 0 48 -9 101 -20 101 -21 133 -24 122
-14 -11 11 -227 52 -227 43z"/>
<path d="M1860 7920 c0 -8 24 -20 41 -20 6 0 8 4 5 9 -8 12 -46 21 -46 11z"/>
<path d="M2024 7856 c23 -18 36 -20 36 -6 0 6 -4 10 -9 10 -5 0 -18 3 -28 6
-16 5 -16 4 1 -10z"/>
<path d="M4143 7834 c3 -3 45 -14 94 -25 48 -11 98 -21 111 -24 12 -3 22 -2
22 3 0 5 -47 18 -103 30 -108 23 -135 26 -124 16z"/>
<path d="M2170 7810 c0 -8 24 -20 41 -20 6 0 8 4 5 9 -8 12 -46 21 -46 11z"/>
<path d="M2330 7750 c20 -13 43 -13 35 0 -3 6 -16 10 -28 10 -18 0 -19 -2 -7
-10z"/>
<path d="M4610 7731 c21 -12 212 -53 218 -46 6 6 -7 10 -111 35 -96 22 -133
26 -107 11z"/>
<path d="M2490 7700 c20 -13 43 -13 35 0 -3 6 -16 10 -28 10 -18 0 -19 -2 -7
-10z"/>
<path d="M2640 7662 c0 -10 41 -24 49 -17 6 7 0 11 -26 19 -13 4 -23 3 -23 -2z"/>
<path d="M5060 7632 c0 -10 220 -65 228 -57 6 6 -6 10 -108 35 -47 12 -93 23
-102 26 -10 3 -18 1 -18 -4z"/>
<path d="M2805 7610 c3 -5 16 -10 28 -10 18 0 19 2 7 10 -20 13 -43 13 -35 0z"/>
<path d="M2960 7569 c0 -5 4 -9 9 -9 5 0 16 -3 25 -6 9 -3 16 -2 16 4 0 5 -11
12 -25 14 -14 3 -25 1 -25 -3z"/>
<path d="M3130 7520 c20 -13 43 -13 35 0 -3 6 -16 10 -28 10 -18 0 -19 -2 -7
-10z"/>
<path d="M5530 7511 c23 -13 212 -62 218 -56 8 8 3 10 -105 38 -106 28 -140
33 -113 18z"/>
<path d="M3285 7480 c3 -5 16 -10 28 -10 18 0 19 2 7 10 -20 13 -43 13 -35 0z"/>
<path d="M3440 7440 c0 -5 12 -10 28 -9 24 0 25 1 7 9 -27 12 -35 12 -35 0z"/>
<path d="M3600 7399 c0 -5 4 -9 9 -9 5 0 16 -3 25 -6 9 -3 16 -2 16 4 0 5 -11
12 -25 14 -14 3 -25 1 -25 -3z"/>
<path d="M5980 7392 c0 -5 44 -22 98 -37 53 -15 103 -30 110 -32 6 -3 12 -1
12 3 0 5 -44 22 -98 38 -53 16 -103 31 -109 33 -7 3 -13 1 -13 -5z"/>
<path d="M3760 7360 c0 -8 25 -20 41 -20 20 0 7 18 -16 22 -14 3 -25 2 -25 -2z"/>
<path d="M3930 7310 c20 -13 43 -13 35 0 -3 6 -16 10 -28 10 -18 0 -19 -2 -7
-10z"/>
<path d="M4090 7270 c20 -13 43 -13 35 0 -3 6 -16 10 -28 10 -18 0 -19 -2 -7
-10z"/>
<path d="M6436 7251 c15 -14 203 -73 217 -68 6 2 -39 20 -100 41 -119 38 -133
41 -117 27z"/>
<path d="M4250 7230 c20 -13 43 -13 35 0 -3 6 -16 10 -28 10 -18 0 -19 -2 -7
-10z"/>
<path d="M4410 7190 c20 -13 43 -13 35 0 -3 6 -16 10 -28 10 -18 0 -19 -2 -7
-10z"/>
<path d="M4565 7150 c3 -5 15 -10 26 -10 11 0 17 5 14 10 -3 6 -15 10 -26 10
-11 0 -17 -4 -14 -10z"/>
<path d="M4725 7110 c3 -5 15 -10 26 -10 11 0 17 5 14 10 -3 6 -15 10 -26 10
-11 0 -17 -4 -14 -10z"/>
<path d="M6876 7103 c-3 -4 44 -26 105 -50 62 -24 114 -41 117 -38 7 7 4 9
-58 32 -30 12 -78 30 -106 41 -29 12 -55 18 -58 15z"/>
<path d="M4885 7070 c3 -5 16 -10 28 -10 18 0 19 2 7 10 -20 13 -43 13 -35 0z"/>
<path d="M5045 7030 c3 -5 16 -10 28 -10 18 0 19 2 7 10 -20 13 -43 13 -35 0z"/>
<path d="M5200 6992 c0 -5 11 -12 25 -14 14 -3 25 -1 25 3 0 5 -4 9 -9 9 -5 0
-16 3 -25 6 -9 3 -16 2 -16 -4z"/>
<path d="M5360 6952 c0 -5 11 -12 25 -14 14 -3 25 -1 25 3 0 5 -4 9 -9 9 -5 0
-16 3 -25 6 -9 3 -16 2 -16 -4z"/>
<path d="M7310 6925 c0 -6 206 -105 218 -105 16 0 -22 24 -94 59 -88 42 -124
56 -124 46z"/>
<path d="M5520 6912 c0 -10 41 -24 49 -17 6 7 0 11 -26 19 -13 4 -23 3 -23 -2z"/>
<path d="M5690 6860 c20 -13 43 -13 35 0 -3 6 -16 10 -28 10 -18 0 -19 -2 -7
-10z"/>
<path d="M5845 6820 c3 -5 16 -10 28 -10 18 0 19 2 7 10 -20 13 -43 13 -35 0z"/>
<path d="M6000 6782 c0 -10 41 -24 49 -17 6 7 0 11 -26 19 -13 4 -23 3 -23 -2z"/>
<path d="M6170 6730 c20 -13 43 -13 35 0 -3 6 -16 10 -28 10 -18 0 -19 -2 -7
-10z"/>
<path d="M7736 6710 c18 -18 199 -129 203 -124 6 6 -20 25 -115 84 -77 47
-111 63 -88 40z"/>
<path d="M6320 6692 c0 -5 11 -12 25 -14 14 -3 25 -1 25 3 0 5 -4 9 -9 9 -5 0
-16 3 -25 6 -9 3 -16 2 -16 -4z"/>
<path d="M6485 6640 c3 -5 16 -10 28 -10 18 0 19 2 7 10 -20 13 -43 13 -35 0z"/>
<path d="M6640 6600 c0 -7 24 -20 36 -20 13 0 1 19 -16 23 -11 3 -20 2 -20 -3z"/>
<path d="M6800 6550 c0 -7 24 -20 36 -20 13 0 1 19 -16 23 -11 3 -20 2 -20 -3z"/>
<path d="M6950 6502 c0 -10 41 -24 49 -17 6 7 0 11 -26 19 -13 4 -23 3 -23 -2z"/>
<path d="M7110 6450 c0 -8 24 -20 41 -20 6 0 8 4 5 9 -8 12 -46 21 -46 11z"/>
<path d="M8121 6442 c6 -17 161 -173 167 -168 6 7 -102 128 -140 156 -17 12
-29 18 -27 12z"/>
<path d="M7275 6390 c3 -5 16 -10 28 -10 18 0 19 2 7 10 -20 13 -43 13 -35 0z"/>
<path d="M7420 6342 c0 -10 41 -24 49 -17 6 7 0 11 -26 19 -13 4 -23 3 -23 -2z"/>
<path d="M7580 6281 c0 -5 9 -11 20 -14 24 -6 27 8 4 17 -21 8 -24 8 -24 -3z"/>
<path d="M7730 6220 c0 -5 4 -10 9 -10 5 0 18 -3 28 -6 16 -5 16 -4 -1 10 -23
18 -36 20 -36 6z"/>
<path d="M7900 6145 c14 -7 27 -11 30 -9 6 7 -22 24 -40 23 -9 0 -5 -6 10 -14z"/>
<path d="M8036 6091 c-3 -4 6 -13 19 -19 15 -7 25 -8 25 -2 0 13 -38 32 -44
21z"/>
<path d="M8194 6005 c11 -8 25 -15 30 -15 6 0 2 7 -8 15 -11 8 -25 15 -30 15
-6 0 -2 -7 8 -15z"/>
<path d="M2830 2610 c-24 -15 -7 -19 20 -5 15 8 19 14 10 14 -8 1 -22 -3 -30
-9z"/>
<path d="M2684 2546 c-10 -8 -16 -17 -13 -20 3 -3 14 1 25 8 10 8 16 17 13 20
-3 3 -14 -1 -25 -8z"/>
<path d="M2533 2473 c-14 -5 -18 -23 -5 -23 5 0 17 7 28 15 14 11 15 14 4 14
-8 0 -21 -3 -27 -6z"/>
<path d="M2386 2395 c-11 -8 -15 -15 -9 -15 19 0 43 12 43 21 0 13 -12 11 -34
-6z"/>
<path d="M2244 2315 c-10 -8 -14 -14 -9 -15 15 0 40 18 34 24 -3 3 -14 -1 -25
-9z"/>
<path d="M2106 2234 c-11 -7 -17 -16 -15 -19 3 -3 14 2 25 9 10 8 17 17 14 19
-3 3 -14 -1 -24 -9z"/>
<path d="M1966 2144 c-11 -7 -16 -17 -13 -21 4 -4 15 1 24 10 22 21 14 30 -11
11z"/>
<path d="M1827 2046 c-10 -8 -14 -17 -9 -20 5 -3 17 3 27 14 21 23 9 26 -18 6z"/>
<path d="M1706 1944 c-11 -7 -16 -17 -13 -21 4 -4 15 1 24 10 22 21 14 30 -11
11z"/>
<path d="M1580 1825 c-20 -24 -6 -28 15 -5 10 11 13 20 8 20 -6 0 -16 -7 -23
-15z"/>
<path d="M1477 1702 c-10 -10 -14 -22 -10 -25 3 -4 13 2 21 14 18 26 10 35
-11 11z"/>
<path d="M1386 1564 c-11 -28 -6 -39 9 -20 8 11 15 23 15 28 0 14 -18 9 -24
-8z"/>
<path d="M1317 1408 c-6 -21 -2 -36 7 -27 10 11 16 49 8 49 -5 0 -12 -10 -15
-22z"/>
<path d="M8460 5842 c0 -4 9 -13 20 -20 22 -13 27 -3 8 16 -14 14 -28 16 -28
4z"/>
<path d="M8605 5720 c10 -11 20 -18 23 -15 7 6 -18 35 -31 35 -5 0 -2 -9 8
-20z"/>
<path d="M8700 5612 c0 -10 22 -32 32 -32 5 0 3 9 -4 20 -13 20 -28 27 -28 12z"/>
<path d="M8355 5560 c-15 -30 -41 -74 -57 -98 -16 -23 -28 -48 -26 -54 2 -6
22 18 45 53 55 87 75 128 70 142 -2 7 -16 -13 -32 -43z"/>
<path d="M8780 5453 c0 -13 5 -23 10 -23 13 0 13 11 0 30 -8 12 -10 11 -10 -7z"/>
<path d="M8780 5283 c0 -22 2 -25 10 -13 13 20 13 40 0 40 -5 0 -10 -12 -10
-27z"/>
<path d="M8025 5145 c-49 -47 -85 -84 -80 -85 14 0 182 156 175 163 -3 3 -45
-32 -95 -78z"/>
<path d="M8720 5146 c-6 -9 -10 -21 -8 -28 3 -8 9 -4 17 10 15 28 9 39 -9 18z"/>
<path d="M8615 5010 c-10 -11 -13 -20 -8 -20 13 0 38 29 31 35 -3 3 -13 -4
-23 -15z"/>
<path d="M7657 4851 c-54 -38 -95 -71 -90 -74 9 -5 186 118 191 134 6 15 2 12
-101 -60z"/>
<path d="M8490 4895 c-7 -8 -8 -15 -2 -15 5 0 15 7 22 15 7 8 8 15 2 15 -5 0
-15 -7 -22 -15z"/>
<path d="M8354 4795 c-16 -12 -16 -14 -3 -15 9 0 22 7 29 15 16 19 0 19 -26 0z"/>
<path d="M8220 4710 c-8 -5 -12 -11 -9 -14 3 -3 14 1 25 9 21 16 8 20 -16 5z"/>
<path d="M7270 4600 c-52 -32 -96 -64 -99 -71 -3 -10 2 -9 20 2 13 8 59 37
102 63 42 27 77 52 77 57 0 12 9 16 -100 -51z"/>
<path d="M8074 4625 c-10 -8 -14 -15 -8 -15 5 0 19 7 30 15 10 8 14 15 8 15
-5 0 -19 -7 -30 -15z"/>
<path d="M7930 4550 c-8 -5 -12 -11 -9 -14 3 -3 14 1 25 9 21 16 8 20 -16 5z"/>
<path d="M7780 4480 c-8 -5 -12 -12 -9 -15 8 -8 39 5 39 16 0 11 -11 11 -30
-1z"/>
<path d="M6851 4360 c-57 -32 -99 -60 -95 -63 11 -6 197 97 202 112 5 14 13
18 -107 -49z"/>
<path d="M7630 4410 c-8 -5 -12 -12 -9 -15 8 -8 39 5 39 16 0 11 -11 11 -30
-1z"/>
<path d="M7480 4340 c-8 -5 -12 -11 -9 -14 3 -3 14 1 25 9 21 16 8 20 -16 5z"/>
<path d="M7333 4279 c-25 -9 -30 -19 -10 -19 15 0 43 17 37 23 -3 3 -15 1 -27
-4z"/>
<path d="M7170 4210 c-13 -9 -13 -10 0 -10 8 0 22 5 30 10 13 9 13 10 0 10 -8
0 -22 -5 -30 -10z"/>
<path d="M6425 4134 c-55 -29 -94 -54 -87 -54 14 0 212 98 212 105 0 13 -33
-1 -125 -51z"/>
<path d="M7015 4150 c-8 -13 15 -13 35 0 12 8 11 10 -7 10 -12 0 -25 -4 -28
-10z"/>
<path d="M6860 4090 c-13 -9 -13 -10 0 -10 8 0 22 5 30 10 13 9 13 10 0 10 -8
0 -22 -5 -30 -10z"/>
<path d="M6714 4035 c-10 -8 -14 -14 -9 -15 15 0 40 18 34 24 -3 3 -14 -1 -25
-9z"/>
<path d="M6558 3983 c-10 -2 -18 -9 -18 -15 0 -5 7 -7 16 -4 9 3 20 6 25 6 5
0 9 5 9 10 0 10 -3 11 -32 3z"/>
<path d="M6005 3928 c-55 -28 -95 -53 -88 -55 11 -4 213 93 213 102 0 12 -32
0 -125 -47z"/>
<path d="M6400 3920 c-24 -15 -7 -19 20 -5 15 8 19 14 10 14 -8 1 -22 -3 -30
-9z"/>
<path d="M6253 3869 c-25 -9 -30 -19 -10 -19 15 0 43 17 37 23 -3 3 -15 1 -27
-4z"/>
<path d="M6090 3810 c-8 -5 -12 -11 -9 -14 3 -3 14 1 25 9 21 16 8 20 -16 5z"/>
<path d="M5585 3726 c-60 -30 -104 -55 -96 -55 19 -1 211 90 211 101 0 11 10
15 -115 -46z"/>
<path d="M5938 3763 c-10 -3 -18 -9 -18 -14 0 -10 7 -11 34 0 23 9 9 19 -16
14z"/>
<path d="M5770 3700 c-12 -8 -11 -10 7 -10 12 0 25 5 28 10 8 13 -15 13 -35 0z"/>
<path d="M5628 3653 c-10 -2 -18 -8 -18 -13 0 -4 9 -6 20 -3 11 3 20 9 20 14
0 5 -1 8 -2 8 -2 -1 -11 -3 -20 -6z"/>
<path d="M5455 3590 c-8 -13 15 -13 35 0 12 8 11 10 -7 10 -12 0 -25 -4 -28
-10z"/>
<path d="M5155 3524 c-60 -30 -99 -52 -85 -49 38 7 200 84 200 95 0 12 14 18
-115 -46z"/>
<path d="M5307 3543 c-9 -2 -15 -8 -12 -13 6 -10 45 -1 45 11 0 9 -4 10 -33 2z"/>
<path d="M5158 3493 c-10 -3 -18 -9 -18 -14 0 -10 7 -11 34 0 23 9 9 19 -16
14z"/>
<path d="M8023 3438 c-40 -19 -28 -46 32 -74 54 -26 53 -49 -3 -49 -43 0 -54
-8 -26 -19 27 -10 61 -7 74 8 20 26 8 58 -27 70 -69 24 -69 62 1 53 37 -5 39
-4 22 9 -23 16 -42 17 -73 2z"/>
<path d="M4990 3430 c-13 -9 -13 -10 0 -10 8 0 22 5 30 10 13 9 13 10 0 10 -8
0 -22 -5 -30 -10z"/>
<path d="M8157 3382 c-35 -38 -9 -96 41 -90 38 4 37 23 0 23 -30 0 -33 3 -33
30 0 27 3 30 33 30 37 0 38 19 1 23 -15 2 -32 -5 -42 -16z"/>
<path d="M4795 3360 c-33 -16 -72 -29 -87 -30 -17 0 -31 -8 -38 -20 -6 -11
-17 -20 -25 -20 -8 0 -15 -5 -15 -11 0 -13 -4 -15 132 47 60 27 108 52 108 57
0 11 -11 8 -75 -23z"/>
<path d="M7497 3287 c-21 -57 -42 -109 -47 -116 -5 -9 -21 23 -46 88 -21 56
-42 101 -46 101 -5 0 -7 -53 -6 -117 l2 -118 5 95 6 95 39 -102 c22 -57 40
-103 41 -103 1 0 19 46 41 103 l39 102 6 -95 5 -95 2 133 c1 72 1 132 0 132
-2 0 -20 -47 -41 -103z"/>
<path d="M7112 3269 c-2 -119 11 -144 77 -144 69 0 85 26 89 140 3 64 0 95 -7
95 -7 0 -11 -31 -11 -88 0 -104 -13 -132 -64 -132 -60 0 -70 17 -77 127 l-6
98 -1 -96z"/>
<path d="M7790 3245 c0 -70 4 -115 10 -115 6 0 10 17 10 37 0 24 8 45 22 60
l21 23 45 -60 c24 -33 49 -60 54 -60 6 0 -1 15 -14 33 -13 17 -35 47 -48 65
l-24 32 49 50 c27 28 45 50 40 50 -5 0 -40 -30 -77 -67 l-68 -67 0 67 c0 38
-4 67 -10 67 -6 0 -10 -45 -10 -115z"/>
<path d="M4528 3273 c-10 -2 -18 -9 -18 -14 0 -13 13 -11 36 6 19 14 14 17
-18 8z"/>
<path d="M4365 3210 c-3 -5 1 -10 9 -10 8 0 18 5 21 10 3 6 -1 10 -9 10 -8 0
-18 -4 -21 -10z"/>
<path d="M4304 3133 c-115 -55 -109 -51 -102 -58 5 -5 195 78 207 90 2 3 2 7
-1 10 -2 3 -49 -16 -104 -42z"/>
<path d="M4218 3163 c-10 -2 -18 -8 -18 -13 0 -10 38 -1 46 11 5 9 1 10 -28 2z"/>
<path d="M6110 3130 c0 -6 138 -10 395 -10 257 0 395 4 395 10 0 6 -138 10
-395 10 -257 0 -395 -4 -395 -10z"/>
<path d="M4050 3100 c-12 -8 -11 -10 7 -10 12 0 25 5 28 10 8 13 -15 13 -35 0z"/>
<path d="M3913 3049 c-25 -9 -30 -19 -10 -19 15 0 43 17 37 23 -3 3 -15 1 -27
-4z"/>
<path d="M3758 2992 c-10 -2 -18 -8 -18 -13 0 -11 11 -11 30 1 18 11 11 18
-12 12z"/>
<path d="M3871 2928 c-56 -27 -100 -52 -97 -55 7 -7 216 89 216 100 0 11 -9 8
-119 -45z"/>
<path d="M3598 2933 c-10 -2 -18 -9 -18 -15 0 -5 7 -7 16 -4 9 3 20 6 25 6 5
0 9 5 9 10 0 10 -3 11 -32 3z"/>
<path d="M3443 2873 c-21 -8 -15 -22 7 -16 11 3 20 9 20 14 0 10 -8 10 -27 2z"/>
<path d="M8172 2838 c-25 -25 -13 -48 34 -68 33 -15 45 -25 42 -37 -3 -14 -13
-18 -47 -17 -39 1 -42 -1 -26 -13 22 -16 35 -16 69 -3 47 17 25 70 -36 85 -36
9 -44 33 -14 46 17 8 29 8 44 0 29 -15 37 -14 22 4 -15 18 -71 20 -88 3z"/>
<path d="M3284 2805 c-10 -8 -14 -15 -7 -15 19 0 43 11 43 21 0 13 -14 11 -36
-6z"/>
<path d="M8305 2776 c-30 -46 17 -102 65 -76 28 15 25 22 -5 14 -46 -11 -74
37 -39 67 12 10 20 10 35 1 26 -16 34 -15 19 3 -19 23 -57 18 -75 -9z"/>
<path d="M3445 2723 c-100 -50 -101 -51 -93 -59 6 -5 208 92 208 101 0 12 -31
1 -115 -42z"/>
<path d="M7087 2764 c-11 -11 -8 -222 3 -229 6 -3 10 34 12 96 l3 102 72 -109
73 -109 -2 130 -2 130 -3 -109 -4 -110 -66 100 c-76 116 -77 116 -86 108z"/>
<path d="M7948 2764 c-12 -11 -10 -222 2 -229 6 -4 10 9 10 33 0 28 7 45 24
61 l24 22 47 -61 c26 -34 49 -59 52 -56 3 3 -15 33 -41 68 l-46 62 45 46 c25
25 45 50 45 55 0 5 -34 -24 -75 -65 l-74 -74 -3 73 c-2 40 -6 69 -10 65z"/>
<path d="M7359 2685 c-60 -32 -54 -128 9 -154 25 -11 35 -10 61 3 17 9 31 21
31 26 0 15 -16 12 -30 -5 -19 -23 -56 -18 -79 11 -12 15 -21 31 -21 35 0 5 29
9 65 9 61 0 65 1 65 23 0 28 -9 41 -37 56 -27 14 -32 14 -64 -4z m73 -22 c29
-26 21 -33 -37 -33 -59 0 -64 4 -38 32 20 22 51 23 75 1z"/>
<path d="M7591 2648 c-21 -84 -26 -85 -46 -16 -10 34 -20 56 -22 48 -2 -8 7
-51 21 -95 l24 -80 10 40 c6 22 14 52 18 68 3 15 9 27 13 27 4 0 16 -30 27
-67 l19 -68 24 88 c28 101 23 130 -6 35 l-19 -63 -19 68 c-11 37 -22 67 -25
67 -4 0 -12 -24 -19 -52z"/>
<path d="M3030 2509 c-104 -56 -105 -57 -99 -64 6 -5 196 92 204 105 11 18 -9
10 -105 -41z"/>
<path d="M6136 2551 c-3 -5 1 -14 8 -20 16 -13 32 2 21 19 -8 12 -22 13 -29 1z"/>
<path d="M6246 2551 c-3 -5 1 -14 8 -20 16 -13 32 2 21 19 -8 12 -22 13 -29 1z"/>
<path d="M6356 2551 c-3 -5 1 -14 8 -20 16 -13 32 2 21 19 -8 12 -22 13 -29 1z"/>
<path d="M6466 2551 c-3 -5 1 -14 8 -20 16 -13 32 2 21 19 -8 12 -22 13 -29 1z"/>
<path d="M6580 2546 c0 -8 4 -17 9 -20 11 -7 33 18 24 27 -12 12 -33 7 -33 -7z"/>
<path d="M6686 2551 c-7 -11 18 -33 27 -24 4 3 7 12 7 20 0 15 -26 18 -34 4z"/>
<path d="M6805 2550 c-11 -17 5 -32 21 -19 7 6 11 15 8 20 -7 12 -21 11 -29
-1z"/>
<path d="M2612 2279 c-57 -34 -101 -63 -98 -66 7 -8 206 106 206 118 0 12 7
16 -108 -52z"/>
<path d="M9672 2249 c-38 -15 -25 -50 26 -74 32 -15 42 -25 40 -40 -4 -24 -42
-32 -64 -14 -16 13 -30 6 -19 -10 9 -16 81 -13 95 4 6 8 10 22 8 31 -3 17 -11
23 -62 46 -16 7 -31 18 -33 25 -6 17 46 28 69 14 10 -6 18 -7 18 -1 0 10 -33
30 -47 29 -4 0 -18 -4 -31 -10z"/>
<path d="M10037 2249 c-9 -6 -17 -16 -17 -24 0 -7 -6 -16 -12 -19 -10 -5 -10
-7 0 -12 6 -3 13 -26 14 -52 l1 -47 4 45 c3 24 10 48 16 52 9 6 8 11 -3 18
-13 9 -12 12 4 25 23 18 18 28 -7 14z"/>
<path d="M9943 2203 c-20 -4 -23 -10 -23 -54 0 -31 4 -48 10 -44 6 3 10 22 10
42 0 26 5 36 20 40 18 5 30 25 13 22 -5 -1 -18 -4 -30 -6z"/>
<path d="M9790 2163 c0 -53 10 -64 53 -61 l37 2 -1 51 -1 50 -8 -39 c-13 -68
-53 -74 -58 -8 -4 52 -22 56 -22 5z"/>
<path d="M8754 2170 c-37 -15 -54 -50 -54 -113 0 -89 26 -127 86 -127 74 0
109 150 52 222 -16 20 -57 29 -84 18z m71 -30 c23 -25 31 -98 15 -144 -14 -43
-47 -61 -84 -46 -47 17 -59 147 -18 193 20 23 65 22 87 -3z"/>
<path d="M9070 2168 c-29 -16 -38 -58 -17 -80 13 -12 12 -17 -4 -37 -11 -13
-19 -38 -19 -57 0 -47 34 -68 97 -61 73 8 96 59 50 113 -23 26 -23 28 -5 46
10 10 18 24 18 31 0 43 -72 69 -120 45z m88 -20 c35 -35 -13 -81 -65 -62 -62
22 -51 74 16 74 20 0 42 -5 49 -12z m2 -108 c48 -48 3 -112 -68 -94 -51 13
-66 53 -32 89 29 31 72 33 100 5z"/>
<path d="M7170 2055 c0 -70 4 -115 10 -115 6 0 10 45 10 115 0 70 -4 115 -10
115 -6 0 -10 -45 -10 -115z"/>
<path d="M8000 2136 c0 -19 -6 -37 -12 -39 -10 -4 -10 -8 -2 -14 6 -4 13 -36
16 -71 5 -66 15 -82 53 -82 17 0 17 2 -5 13 -22 11 -25 20 -28 75 -2 51 0 62
13 62 8 0 15 5 15 10 0 6 -7 10 -15 10 -10 0 -15 11 -15 35 0 19 -4 35 -10 35
-5 0 -10 -15 -10 -34z"/>
<path d="M8440 2123 c0 -37 -3 -44 -12 -35 -32 32 -104 -1 -114 -53 -13 -72
26 -112 101 -101 l45 7 0 115 c0 69 -4 114 -10 114 -5 0 -10 -21 -10 -47z
m-12 -55 c7 -7 12 -31 12 -55 0 -34 -5 -46 -25 -59 -31 -20 -61 -11 -80 26
-19 37 -19 42 6 74 22 28 66 35 87 14z"/>
<path d="M9430 2056 c0 -66 4 -117 10 -121 6 -4 10 9 10 33 0 28 7 45 25 62
14 13 26 22 28 19 2 -2 23 -30 47 -61 23 -32 44 -58 46 -58 12 0 -1 23 -40 76
l-45 59 46 47 c26 26 44 51 40 55 -4 4 -39 -24 -77 -62 l-70 -69 0 67 c0 38
-4 67 -10 67 -6 0 -10 -45 -10 -114z"/>
<path d="M7298 2083 c-11 -11 -18 -13 -18 -5 0 7 -4 12 -10 12 -6 0 -10 -34
-10 -81 0 -51 4 -78 10 -74 6 3 10 30 10 59 0 62 21 89 67 84 27 -3 28 -5 31
-70 2 -38 7 -68 12 -68 14 0 12 101 -3 130 -16 31 -64 39 -89 13z"/>
<path d="M7677 2089 c-30 -17 -50 -75 -36 -102 31 -60 88 -77 124 -37 21 23 9
26 -19 5 -28 -21 -43 -19 -71 10 -43 42 -34 55 40 55 62 0 65 1 65 24 0 44
-60 70 -103 45z m83 -28 c15 -30 14 -31 -45 -31 -41 0 -55 4 -55 15 0 35 82
48 100 16z"/>
<path d="M7883 2085 c-16 -12 -22 -12 -26 -2 -3 6 -5 -26 -5 -73 1 -84 1 -85
7 -22 6 66 24 92 63 92 10 0 18 5 18 10 0 15 -33 12 -57 -5z"/>
<path d="M8135 2068 c-22 -26 -26 -39 -21 -67 6 -41 37 -71 73 -71 29 0 63 17
63 31 0 6 -10 3 -22 -5 -12 -9 -30 -16 -40 -16 -24 0 -58 35 -58 60 0 18 7 20
65 20 56 0 65 2 65 18 0 26 -42 62 -72 62 -17 0 -36 -11 -53 -32z m93 0 c26
-26 13 -38 -43 -38 -59 0 -64 4 -38 32 18 20 63 24 81 6z"/>
<path d="M2201 2028 c-52 -34 -89 -64 -83 -66 5 -1 52 25 103 58 108 71 107
70 88 70 -8 -1 -56 -29 -108 -62z"/>
<path d="M7450 2086 c0 -2 12 -30 26 -62 14 -33 30 -70 36 -84 9 -23 12 -19
44 54 19 44 34 84 34 90 0 20 -18 -9 -43 -68 l-25 -59 -20 45 c-11 26 -23 56
-27 67 -5 17 -25 31 -25 17z"/>
<path d="M6188 2033 c28 -2 76 -2 105 0 28 2 5 3 -53 3 -58 0 -81 -1 -52 -3z"/>
<path d="M6478 2033 c28 -2 76 -2 105 0 28 2 5 3 -53 3 -58 0 -81 -1 -52 -3z"/>
<path d="M6763 2033 c32 -2 81 -2 110 0 29 2 3 3 -58 3 -60 0 -84 -1 -52 -3z"/>
<path d="M8932 1948 c5 -15 28 -18 29 -3 0 6 -7 12 -17 13 -10 3 -15 -1 -12
-10z"/>
<path d="M1831 1759 c-50 -40 -91 -76 -91 -81 0 -12 10 -5 105 70 72 59 96 82
82 82 -3 0 -46 -32 -96 -71z"/>
<path d="M1524 1472 c-73 -86 -106 -133 -100 -139 3 -4 7 -4 9 -2 49 66 78
102 110 135 21 23 35 44 30 47 -5 3 -27 -15 -49 -41z"/>
<path d="M686 8294 c-15 -14 -26 -28 -22 -31 3 -3 15 2 26 12 20 18 20 18 20
-88 0 -65 4 -107 10 -107 6 0 10 47 10 120 0 66 -3 120 -7 120 -5 0 -21 -12
-37 -26z"/>
<path d="M991 8303 c-39 -32 -49 -138 -19 -196 25 -49 108 -44 132 8 20 41 21
127 1 164 -21 42 -77 54 -114 24z m100 -30 c20 -38 17 -138 -6 -163 -18 -20
-60 -26 -82 -12 -33 21 -42 110 -19 167 13 31 19 35 54 35 32 0 41 -5 53 -27z"/>
<path d="M856 8101 c-3 -5 1 -14 8 -20 16 -13 32 2 21 19 -8 12 -22 13 -29 1z"/>
<path d="M675 6988 c-29 -17 -42 -38 -49 -80 -14 -89 18 -158 75 -158 43 0 65
15 78 51 26 74 3 171 -44 189 -32 12 -35 12 -60 -2z m69 -21 c34 -25 42 -138
12 -179 -20 -28 -59 -32 -87 -9 -21 17 -24 27 -24 89 0 55 4 74 19 91 22 24
54 27 80 8z"/>
<path d="M993 6988 c-31 -15 -38 -44 -18 -74 15 -23 15 -26 -5 -51 -43 -55
-12 -113 63 -113 58 0 87 22 87 66 0 21 -8 42 -20 54 -19 19 -19 22 -5 36 19
19 20 58 1 73 -21 17 -78 22 -103 9z m93 -22 c40 -31 -30 -81 -81 -58 -27 12
-33 40 -13 60 16 16 70 15 94 -2z m1 -110 c24 -21 26 -27 18 -52 -8 -22 -20
-31 -47 -38 -71 -18 -116 46 -68 94 27 27 63 25 97 -4z"/>
<path d="M855 6771 c-3 -5 -1 -12 5 -16 12 -7 30 2 30 16 0 12 -27 12 -35 0z"/>
<path d="M652 5479 c-11 -11 -22 -38 -26 -60 -9 -54 2 -114 26 -138 25 -27 81
-28 107 -2 37 37 40 145 7 196 -22 33 -86 35 -114 4z m96 -10 c33 -35 37 -131
8 -171 -20 -28 -59 -32 -87 -9 -21 17 -24 27 -24 91 0 63 3 74 24 91 30 25 55
24 79 -2z"/>
<path d="M1004 5492 c-23 -15 -38 -59 -38 -119 -1 -52 3 -65 23 -87 30 -32 69
-34 105 -5 46 36 32 108 -25 128 -25 9 -38 8 -61 -4 l-29 -14 6 32 c12 57 66
85 100 51 20 -20 33 -11 15 11 -13 16 -76 21 -96 7z m85 -118 c12 -15 21 -33
21 -41 0 -19 -45 -63 -65 -63 -23 0 -65 45 -65 70 0 27 35 60 64 60 15 0 33
-11 45 -26z"/>
<path d="M855 5281 c-3 -5 -1 -12 5 -16 12 -7 30 2 30 16 0 12 -27 12 -35 0z"/>
<path d="M297 4963 c-15 -4 -18 -12 -15 -38 4 -31 2 -34 -27 -38 -16 -2 6 -4
50 -4 62 -1 71 1 41 7 -68 13 -74 53 -8 58 23 2 42 7 42 13 0 9 -50 11 -83 2z"/>
<path d="M130 4760 c0 -33 4 -60 10 -60 6 0 10 23 10 50 l0 51 69 -55 c38 -30
71 -52 75 -49 10 11 7 123 -4 123 -5 0 -10 -23 -10 -51 l0 -51 -65 51 c-35 28
-69 51 -75 51 -6 0 -10 -26 -10 -60z"/>
<path d="M20 4642 c0 -12 350 -205 358 -197 7 7 13 3 -128 80 -69 37 -149 81
-177 97 -29 16 -53 25 -53 20z"/>
<path d="M130 4330 c0 -33 4 -60 10 -60 6 0 10 23 10 51 l0 50 67 -55 c37 -30
71 -52 75 -50 11 7 10 124 -1 124 -6 0 -11 -23 -13 -50 l-3 -50 -62 50 c-34
27 -67 50 -72 50 -7 0 -11 -25 -11 -60z"/>
<path d="M652 3989 c-11 -11 -22 -38 -26 -60 -9 -54 2 -114 26 -138 20 -22 67
-28 98 -11 52 28 52 192 0 220 -31 17 -78 11 -98 -11z m96 -10 c52 -55 25
-199 -37 -199 -10 0 -29 9 -42 19 -21 17 -24 28 -24 91 0 63 3 74 24 91 30 25
55 24 79 -2z"/>
<path d="M1007 3931 c-31 -44 -57 -82 -57 -85 0 -3 25 -6 55 -6 l55 0 0 -35
c0 -19 5 -35 10 -35 6 0 10 16 10 35 0 28 4 35 19 35 11 0 23 5 26 10 4 6 -5
10 -19 10 -26 0 -26 1 -26 75 0 41 -4 75 -8 75 -5 0 -34 -36 -65 -79z m50 -68
c-3 -2 -21 -3 -41 -1 l-36 3 38 54 37 53 3 -52 c2 -29 1 -54 -1 -57z"/>
<path d="M855 3791 c-7 -12 12 -24 25 -16 11 7 4 25 -10 25 -5 0 -11 -4 -15
-9z"/>
<path d="M652 2499 c-24 -24 -35 -84 -26 -138 9 -55 36 -81 84 -81 31 0 43 5
56 25 33 51 30 159 -7 196 -26 26 -82 25 -107 -2z m104 -17 c29 -40 25 -136
-8 -171 -24 -26 -49 -27 -79 -2 -21 17 -24 28 -24 91 0 64 3 74 24 91 28 23
67 19 87 -9z"/>
<path d="M988 2508 c-16 -13 -32 -48 -22 -48 4 0 15 11 26 25 11 14 30 25 44
25 23 0 64 -31 64 -48 0 -15 -33 -58 -94 -119 l-60 -63 89 2 90 2 -73 3 -74 4
66 70 c71 75 83 111 48 142 -22 20 -82 22 -104 5z"/>
<path d="M855 2300 c-3 -6 1 -13 10 -16 19 -8 30 0 20 15 -8 14 -22 14 -30 1z"/>
<path d="M651 1109 c-33 -36 -38 -126 -9 -186 27 -56 108 -49 133 12 27 64 13
165 -25 185 -31 17 -78 11 -99 -11z m105 -17 c46 -62 12 -192 -50 -192 -42 0
-61 34 -61 112 0 62 3 72 24 89 28 23 67 19 87 -9z"/>
<path d="M986 1111 c-37 -41 -44 -150 -12 -193 34 -47 107 -40 133 12 29 57 8
178 -32 194 -31 12 -72 6 -89 -13z m93 -10 c25 -25 35 -89 21 -140 -16 -61
-69 -81 -106 -40 -15 17 -19 36 -19 91 0 61 3 72 24 89 30 24 56 24 80 0z"/>
<path d="M856 911 c-3 -5 1 -14 8 -20 16 -13 32 2 21 19 -8 12 -22 13 -29 1z"/>
<path d="M10377 682 c-34 -35 -35 -49 -2 -28 l24 16 4 -107 3 -108 2 128 c1
70 1 127 -1 127 -2 0 -15 -13 -30 -28z"/>
<path d="M933 685 c-45 -31 -53 -152 -15 -203 27 -34 73 -39 107 -9 24 20 29
33 33 84 3 43 -1 70 -13 96 -22 47 -71 61 -112 32z m92 -25 c25 -28 26 -126 2
-163 -18 -27 -57 -36 -84 -19 -33 21 -44 123 -18 172 13 24 22 30 49 30 20 0
40 -8 51 -20z"/>
<path d="M1261 683 c-42 -34 -49 -145 -14 -200 29 -44 99 -40 126 7 34 56 15
187 -28 204 -29 11 -62 6 -84 -11z m100 -30 c21 -39 18 -137 -5 -162 -24 -27
-68 -27 -91 -1 -25 28 -31 106 -12 153 15 34 19 37 55 37 32 0 41 -5 53 -27z"/>
<path d="M1481 683 c-42 -34 -49 -145 -14 -200 30 -45 104 -39 130 10 32 62
12 184 -32 201 -29 11 -62 6 -84 -11z m100 -30 c21 -39 18 -137 -5 -162 -24
-27 -68 -27 -91 -1 -25 28 -31 106 -12 153 15 34 19 37 55 37 32 0 41 -5 53
-27z"/>
<path d="M3970 694 c-42 -13 -63 -123 -37 -187 25 -59 98 -73 132 -24 31 44
31 150 1 190 -14 18 -67 30 -96 21z m84 -36 c10 -14 16 -44 16 -83 0 -77 -18
-105 -65 -105 -44 0 -65 37 -65 112 0 69 19 98 65 98 24 0 39 -7 49 -22z"/>
<path d="M4285 676 c-41 -41 -42 -171 -1 -205 29 -24 72 -24 100 1 55 47 43
206 -17 222 -39 10 -58 6 -82 -18z m102 -23 c11 -16 17 -45 17 -78 0 -67 -23
-105 -64 -105 -53 0 -76 44 -68 130 6 61 21 80 64 80 25 0 38 -7 51 -27z"/>
<path d="M4490 663 c0 -21 -3 -48 -6 -60 -6 -22 -6 -22 25 -7 77 39 152 -34
101 -99 -27 -34 -80 -37 -110 -7 -14 14 -20 16 -20 6 0 -52 123 -57 150 -5 18
33 11 79 -16 105 -21 22 -32 25 -70 22 -45 -3 -48 0 -38 40 5 19 13 22 55 22
26 0 51 5 54 10 4 6 -18 10 -59 10 l-66 0 0 -37z"/>
<path d="M6998 693 c-30 -8 -51 -70 -46 -136 4 -51 9 -64 33 -84 29 -26 72
-26 101 -2 22 18 36 88 29 137 -11 71 -53 102 -117 85z m82 -28 c15 -18 25
-103 16 -139 -15 -60 -82 -77 -113 -29 -24 37 -23 135 2 163 22 24 77 27 95 5z"/>
<path d="M7348 677 c-35 -28 -37 -45 -3 -23 l24 16 4 -107 3 -108 2 123 c1 67
1 122 0 122 -2 -1 -15 -11 -30 -23z"/>
<path d="M7550 694 c-42 -13 -63 -123 -37 -187 25 -59 98 -73 132 -24 31 44
31 150 1 190 -14 18 -67 30 -96 21z m84 -36 c10 -14 16 -44 16 -83 0 -77 -18
-105 -65 -105 -44 0 -65 37 -65 112 0 69 19 98 65 98 24 0 39 -7 49 -22z"/>
<path d="M10022 693 c-41 -16 -57 -149 -25 -203 27 -47 97 -51 126 -7 35 55
28 166 -14 200 -20 16 -60 21 -87 10z m95 -50 c19 -47 13 -125 -12 -153 -23
-26 -67 -26 -90 0 -14 15 -19 37 -19 84 -1 77 18 106 71 106 30 0 36 -5 50
-37z"/>
<path d="M10546 663 c-3 -21 -6 -48 -6 -60 0 -21 1 -21 30 -6 36 18 86 9 100
-17 6 -10 10 -32 10 -49 0 -57 -81 -82 -127 -39 -13 12 -23 17 -23 12 1 -31
51 -58 95 -50 45 9 70 39 70 88 0 55 -32 81 -92 76 -43 -3 -43 -3 -43 29 l0
33 55 0 c30 0 55 5 55 10 0 6 -26 10 -59 10 l-58 0 -7 -37z"/>
<path d="M1126 481 c-3 -5 1 -14 8 -20 16 -13 32 2 21 19 -8 12 -22 13 -29 1z"/>
<path d="M4156 481 c-3 -5 1 -14 8 -20 16 -13 32 2 21 19 -8 12 -22 13 -29 1z"/>
<path d="M7184 479 c-3 -6 -1 -16 5 -22 9 -9 14 -8 21 3 9 15 4 30 -10 30 -5
0 -12 -5 -16 -11z"/>
<path d="M10215 480 c-11 -17 5 -32 21 -19 7 6 11 15 8 20 -7 12 -21 11 -29
-1z"/>
<path d="M4644 269 c-3 -6 -1 -16 5 -22 9 -9 14 -8 21 3 9 15 4 30 -10 30 -5
0 -12 -5 -16 -11z"/>
<path d="M5665 270 c-4 -6 -3 -16 3 -22 6 -6 12 -6 17 2 4 6 3 16 -3 22 -6 6
-12 6 -17 -2z"/>
<path d="M4420 146 l0 -126 51 0 c42 0 55 5 79 28 34 35 47 90 31 141 -16 54
-42 74 -106 79 l-55 4 0 -126z m125 79 c20 -20 25 -34 25 -78 0 -78 -25 -107
-91 -107 l-49 0 0 105 0 105 45 0 c35 0 52 -6 70 -25z"/>
<path d="M6170 145 c0 -70 4 -115 10 -115 6 0 10 45 10 115 0 70 -4 115 -10
115 -6 0 -10 -45 -10 -115z"/>
<path d="M7010 145 c0 -70 4 -115 10 -115 6 0 10 17 10 38 0 27 7 45 23 60
l23 22 48 -65 c26 -36 50 -65 53 -65 10 0 -7 31 -48 86 l-42 55 49 50 c26 27
44 49 39 49 -5 0 -40 -30 -77 -67 l-68 -67 0 67 c0 38 -4 67 -10 67 -6 0 -10
-45 -10 -115z"/>
<path d="M4743 110 c0 -76 1 -79 6 -29 7 68 23 89 66 89 39 0 45 -11 45 -86 0
-30 5 -54 10 -54 6 0 10 27 10 60 0 66 16 84 68 78 26 -3 27 -5 30 -70 2 -40
7 -68 14 -68 17 0 6 139 -12 150 -22 14 -63 12 -87 -5 -18 -13 -22 -13 -33 0
-16 19 -60 19 -87 0 -20 -14 -22 -13 -26 2 -3 10 -5 -20 -4 -67z"/>
<path d="M5085 165 c-51 -50 -17 -145 53 -145 27 0 72 34 60 45 -3 3 -11 -1
-18 -10 -13 -16 -57 -20 -76 -7 -11 7 -34 45 -34 56 0 3 32 6 70 6 61 0 70 2
70 18 0 27 -42 62 -74 62 -15 0 -37 -10 -51 -25z m93 -7 c26 -26 13 -38 -43
-38 -59 0 -60 1 -45 31 12 22 68 27 88 7z"/>
<path d="M5273 110 c0 -76 1 -79 6 -29 7 68 23 89 66 89 39 0 45 -11 45 -86 0
-30 5 -54 10 -54 14 0 12 100 -3 130 -15 30 -58 38 -92 16 -22 -14 -24 -14
-28 2 -3 9 -5 -21 -4 -68z"/>
<path d="M5488 179 c-21 -12 -24 -42 -5 -57 6 -6 29 -13 49 -17 43 -8 61 -25
52 -49 -7 -19 -74 -22 -92 -4 -13 13 -27 5 -18 -11 11 -17 75 -24 102 -12 20
9 25 17 22 38 -3 29 -30 47 -80 58 -19 4 -28 12 -28 25 0 17 7 20 44 20 26 0
46 -5 49 -12 2 -7 8 -9 13 -5 14 13 -26 37 -60 37 -17 0 -39 -5 -48 -11z"/>
<path d="M5667 183 c-11 -11 -8 -153 3 -153 6 0 10 33 10 80 0 80 -1 86 -13
73z"/>
<path d="M5770 165 c-72 -77 31 -195 105 -120 51 50 17 145 -53 145 -18 0 -38
-10 -52 -25z m101 -11 c20 -24 16 -84 -6 -100 -29 -21 -72 -17 -89 8 -34 48
-7 108 48 108 19 0 40 -7 47 -16z"/>
<path d="M5967 184 c-11 -11 -8 -154 3 -154 6 0 10 24 10 53 0 63 19 87 68 87
34 0 37 -8 45 -105 2 -24 4 -14 5 27 2 49 -2 71 -14 82 -20 21 -68 20 -85 0
-12 -15 -14 -15 -19 1 -3 9 -9 13 -13 9z"/>
<path d="M6279 171 c-35 -28 -34 -100 1 -130 14 -11 37 -20 51 -21 31 0 78 33
62 43 -6 4 -16 0 -23 -8 -28 -33 -100 -6 -100 38 0 14 11 17 65 17 58 0 65 2
65 20 0 52 -76 78 -121 41z m89 -13 c26 -26 13 -38 -43 -38 -59 0 -64 4 -38
32 18 20 63 24 81 6z"/>
<path d="M6466 174 c-19 -18 -19 -20 -6 -44 6 -11 26 -21 49 -25 44 -7 66 -27
57 -50 -7 -18 -76 -21 -94 -3 -14 14 -24 7 -13 -11 14 -23 83 -25 110 -4 43
35 15 69 -72 88 -20 4 -27 11 -25 23 4 21 72 29 94 11 11 -9 14 -8 14 4 0 28
-88 37 -114 11z"/>
<path d="M6658 179 c-21 -12 -24 -42 -5 -57 6 -6 29 -13 49 -17 43 -8 61 -25
52 -49 -8 -20 -90 -23 -97 -3 -2 6 -8 8 -13 4 -5 -5 -1 -15 10 -23 49 -35 140
1 116 47 -12 21 -35 33 -82 43 -19 5 -28 13 -28 26 0 17 7 20 43 20 24 0 48
-5 55 -12 9 -9 12 -9 12 0 0 28 -76 42 -112 21z"/>
<path d="M4650 105 c0 -43 4 -75 10 -75 6 0 10 32 10 75 0 43 -4 75 -10 75 -6
0 -10 -32 -10 -75z"/>
</g>
</svg>
