<?xml version="1.0" standalone="no"?>
<!DOCTYPE svg PUBLIC "-//W3C//DTD SVG 20010904//EN"
 "http://www.w3.org/TR/2001/REC-SVG-20010904/DTD/svg10.dtd">
<svg version="1.0" xmlns="http://www.w3.org/2000/svg"
 width="1656.000000pt" height="2306.000000pt" viewBox="0 0 1656.000000 2306.000000"
 preserveAspectRatio="xMidYMid meet">
<metadata>
Created by potrace 1.16, written by Peter Selinger 2001-2019
</metadata>
<g transform="translate(0.000000,2306.000000) scale(0.100000,-0.100000)"
fill="#000000" stroke="none">
<path d="M5999 23023 c-9 -10 -57 -91 -107 -181 -60 -107 -85 -162 -75 -160
18 3 207 331 201 349 -2 6 -10 3 -19 -8z"/>
<path d="M15524 23032 c-6 -4 -43 -65 -84 -137 -40 -71 -84 -149 -97 -172 -20
-34 -22 -43 -10 -43 9 0 54 69 112 171 89 157 107 200 79 181z"/>
<path d="M3799 22969 c-21 -21 -22 -50 -2 -57 18 -5 29 28 12 38 -10 7 -6 12
16 20 32 12 53 7 61 -15 9 -21 -23 -65 -46 -65 -26 0 -26 -16 0 -23 42 -11 38
-82 -5 -93 -36 -9 -81 4 -66 19 17 17 13 37 -9 37 -11 0 -20 -7 -20 -16 0 -52
60 -77 123 -50 31 13 37 20 37 46 0 17 -5 40 -11 52 -9 16 -7 23 10 35 23 16
28 62 9 81 -20 20 -85 15 -109 -9z"/>
<path d="M5147 22978 c-25 -19 -27 -61 -3 -66 16 -3 18 0 13 26 -5 26 -3 31
19 36 29 8 54 -8 54 -34 0 -19 -25 -43 -55 -54 -18 -7 -18 -8 5 -19 28 -14 37
-46 20 -77 -9 -17 -19 -20 -48 -18 -34 3 -37 5 -34 31 2 21 -1 27 -18 27 -25
0 -27 -31 -2 -53 67 -60 186 5 139 76 -14 21 -13 25 9 44 46 41 21 93 -45 93
-20 0 -45 -6 -54 -12z"/>
<path d="M5685 22959 c-47 -35 -55 -50 -24 -42 17 5 21 3 17 -8 -17 -48 -40
-150 -34 -156 15 -15 35 27 63 130 17 59 27 107 24 106 -3 0 -24 -14 -46 -30z"/>
<path d="M6117 22978 c-24 -19 -27 -61 -3 -66 16 -3 18 1 14 23 -4 21 -1 29
18 37 17 8 27 8 39 -2 30 -25 11 -66 -40 -84 -18 -7 -18 -8 5 -19 54 -27 27
-101 -34 -95 -27 3 -31 6 -28 31 2 21 -1 27 -18 27 -45 0 -7 -66 44 -75 71
-14 127 47 93 99 -15 22 -14 25 9 47 28 26 31 51 8 73 -19 19 -83 21 -107 4z"/>
<path d="M13322 22974 c-25 -18 -30 -64 -7 -64 20 0 31 30 15 40 -9 6 -7 11 8
19 31 16 50 13 62 -9 14 -27 -2 -58 -35 -66 -30 -7 -32 -20 -5 -27 15 -4 20
-14 20 -39 0 -39 -15 -58 -46 -58 -39 0 -51 9 -46 36 3 17 0 24 -12 24 -19 0
-22 -43 -3 -58 42 -35 132 -19 144 26 3 14 1 39 -5 55 -10 26 -9 32 8 44 22
16 27 62 8 81 -17 17 -79 15 -106 -4z"/>
<path d="M14659 22969 c-22 -22 -22 -54 1 -54 10 0 14 9 13 27 -1 20 4 28 24
33 28 7 53 -9 53 -35 0 -21 -31 -50 -53 -50 -24 0 -21 -14 6 -25 28 -13 34
-56 11 -79 -10 -11 -28 -16 -48 -14 -27 3 -31 6 -28 31 2 21 -1 27 -18 27 -44
0 -15 -66 34 -75 77 -15 138 45 102 100 -15 23 -15 25 9 49 14 14 25 32 25 40
0 46 -92 64 -131 25z"/>
<path d="M15230 22981 c0 -5 -16 -19 -35 -31 -38 -24 -46 -41 -15 -33 11 3 20
4 20 2 0 -2 -11 -40 -25 -84 -14 -44 -25 -81 -25 -82 0 -2 8 -3 18 -3 15 0 25
21 50 109 35 120 37 131 22 131 -5 0 -10 -4 -10 -9z"/>
<path d="M15629 22969 c-24 -24 -22 -52 5 -57 16 -3 18 0 13 26 -5 26 -3 31
20 37 17 4 31 1 41 -9 21 -21 2 -63 -35 -77 l-27 -10 24 -12 c54 -27 27 -101
-34 -95 -27 3 -31 6 -28 31 2 21 -1 27 -18 27 -11 0 -20 -7 -20 -16 0 -53 66
-79 126 -51 40 20 53 57 31 90 -13 21 -13 25 9 50 13 16 24 34 24 42 0 45 -93
62 -131 24z"/>
<path d="M2680 22718 c-69 -122 -140 -248 -157 -280 -28 -50 -30 -58 -15 -58
16 0 60 74 299 502 28 50 30 58 15 58 -12 0 -54 -65 -142 -222z"/>
<path d="M3079 22912 c-55 -36 -91 -78 -132 -156 -30 -57 -32 -68 -32 -161 1
-89 4 -107 29 -157 15 -32 32 -58 38 -58 6 0 7 7 3 18 -71 166 -15 410 116
500 36 26 49 42 31 42 -4 0 -28 -13 -53 -28z"/>
<path d="M5440 22936 c0 -2 9 -23 20 -47 39 -87 19 -266 -43 -371 -25 -44 -76
-95 -114 -116 -31 -18 -6 -24 27 -7 88 45 168 160 191 272 11 55 11 69 -9 142
-21 80 -46 131 -63 131 -5 0 -9 -2 -9 -4z"/>
<path d="M12166 22663 c-116 -208 -151 -279 -140 -281 9 -2 17 -2 18 0 2 1 73
128 159 281 121 216 151 277 137 277 -13 0 -59 -74 -174 -277z"/>
<path d="M12610 22919 c-88 -52 -159 -157 -181 -265 -11 -52 -10 -70 5 -129
19 -76 51 -145 67 -145 7 0 8 7 4 18 -32 74 -37 101 -32 182 8 145 57 252 144
315 62 45 57 63 -7 24z"/>
<path d="M14965 22923 c18 -41 35 -120 35 -158 0 -59 -26 -171 -51 -223 -23
-46 -89 -121 -124 -140 -11 -6 -17 -13 -13 -17 10 -11 94 43 128 81 16 19 45
63 63 97 30 58 32 69 32 162 0 89 -3 106 -28 158 -16 31 -33 57 -39 57 -6 0
-7 -7 -3 -17z"/>
<path d="M4150 22755 l0 -64 -67 -3 c-55 -2 -68 -6 -71 -20 -3 -16 5 -18 67
-18 l71 0 0 -71 c0 -52 3 -70 13 -67 7 3 13 29 15 71 l3 66 67 3 c52 2 67 6
67 18 0 12 -15 16 -67 18 l-68 3 0 64 c0 51 -3 65 -15 65 -12 0 -15 -14 -15
-65z"/>
<path d="M13670 22755 l0 -64 -67 -3 c-55 -2 -68 -6 -71 -20 -3 -16 5 -18 67
-18 l71 0 0 -71 c0 -52 3 -70 13 -67 7 3 13 29 15 71 l3 66 67 3 c52 2 67 6
67 18 0 12 -15 16 -67 18 l-68 3 0 64 c0 51 -3 65 -15 65 -12 0 -15 -14 -15
-65z"/>
<path d="M1751 22724 c-12 -15 -21 -34 -21 -42 0 -8 10 0 23 19 25 37 63 50
73 25 3 -9 -4 -44 -17 -79 -34 -96 -13 -147 62 -147 32 0 46 6 70 32 16 18 29
27 29 20 0 -25 40 -52 77 -52 69 0 143 112 143 217 0 27 -4 33 -21 33 -17 0
-19 -4 -13 -17 41 -85 -52 -239 -132 -219 -16 4 -24 13 -24 29 0 18 22 110 46
190 4 13 -1 17 -20 17 -21 0 -27 -7 -36 -42 -32 -126 -41 -147 -71 -172 -17
-14 -37 -26 -44 -26 -47 0 -57 32 -30 97 31 74 10 143 -45 143 -19 0 -35 -9
-49 -26z"/>
<path d="M3175 22719 c-35 -42 -24 -49 13 -8 50 56 80 21 47 -58 -36 -85 -9
-153 61 -153 29 0 44 8 75 39 27 27 39 34 39 22 0 -27 30 -61 54 -61 24 0 76
47 76 70 0 7 -15 -4 -33 -25 -23 -27 -39 -37 -50 -32 -23 9 -21 32 8 137 14
49 25 91 25 94 0 4 -11 6 -24 6 -21 0 -26 -8 -40 -67 -29 -117 -97 -190 -152
-164 -29 13 -30 26 -4 86 24 56 25 77 5 115 -22 42 -64 41 -100 -1z"/>
<path d="M4415 22719 c-14 -17 -23 -34 -20 -37 3 -3 18 9 33 28 50 59 80 22
47 -57 -21 -51 -19 -109 5 -133 28 -28 81 -26 118 5 34 29 42 31 42 10 0 -19
31 -35 69 -35 39 0 98 51 122 105 23 51 26 145 4 145 -18 0 -19 -14 -5 -40 18
-34 -8 -107 -55 -156 -43 -46 -68 -53 -99 -31 -18 13 -17 18 11 121 l30 107
-25 -3 c-23 -3 -28 -12 -51 -98 -23 -83 -30 -97 -60 -117 -40 -27 -50 -28 -77
-9 -19 14 -19 15 0 63 27 71 30 97 12 132 -23 43 -64 43 -101 0z m62 -141 c-3
-7 -5 -2 -5 12 0 14 2 19 5 13 2 -7 2 -19 0 -25z"/>
<path d="M11131 22724 c-12 -15 -21 -32 -21 -38 0 -6 12 4 26 22 26 33 61 42
70 18 3 -7 -4 -37 -15 -67 -12 -30 -21 -64 -21 -77 0 -26 17 -63 34 -74 24
-16 75 -8 105 17 l30 26 25 -26 c18 -18 36 -25 62 -25 70 0 144 112 144 217 0
27 -4 33 -21 33 -17 0 -19 -4 -12 -22 17 -47 7 -108 -24 -146 -45 -55 -77 -76
-107 -68 -20 5 -26 13 -26 34 0 23 19 100 45 181 5 18 2 21 -19 21 -21 0 -27
-7 -36 -42 -32 -126 -41 -147 -71 -172 -17 -14 -37 -26 -44 -26 -47 0 -57 32
-30 97 31 74 10 143 -45 143 -19 0 -35 -9 -49 -26z"/>
<path d="M12691 22724 c-39 -50 -25 -60 18 -12 49 55 78 21 46 -55 -36 -87 -9
-157 62 -157 29 0 43 8 75 40 29 31 38 36 38 23 0 -30 29 -63 55 -63 23 0 75
50 75 72 0 6 -15 -6 -33 -27 -37 -42 -67 -43 -67 -3 0 19 22 110 46 191 4 13
0 17 -19 17 -22 0 -26 -7 -41 -67 -28 -111 -93 -183 -152 -169 -28 7 -31 31
-9 83 19 46 19 103 -1 131 -22 31 -67 29 -93 -4z"/>
<path d="M13935 22725 c-23 -22 -33 -45 -20 -45 3 0 18 14 34 32 49 55 78 21
46 -55 -22 -52 -19 -113 5 -137 28 -28 82 -26 117 4 l28 24 22 -24 c16 -17 33
-24 59 -24 31 0 45 7 80 45 46 47 64 94 64 163 0 30 -4 42 -15 42 -12 0 -14
-11 -9 -57 5 -53 3 -62 -25 -105 -37 -58 -83 -85 -117 -69 -13 6 -24 15 -24
20 0 5 11 52 25 105 14 53 25 98 25 101 0 3 -10 5 -23 5 -20 0 -25 -8 -40 -70
-9 -39 -23 -85 -31 -104 -17 -40 -67 -70 -102 -62 -28 7 -30 28 -9 79 45 109
-20 203 -90 132z m232 -147 c-3 -8 -6 -5 -6 6 -1 11 2 17 5 13 3 -3 4 -12 1
-19z"/>
<path d="M3625 22581 c-3 -12 -3 -26 0 -32 4 -6 -2 -5 -13 2 -26 16 -44 2 -20
-15 16 -12 15 -14 -5 -31 -25 -22 -9 -32 24 -15 15 8 19 9 15 1 -4 -6 -4 -20
-1 -32 5 -16 9 -18 21 -8 9 7 12 20 8 33 -6 18 -5 19 9 8 9 -8 24 -12 34 -10
16 3 16 5 -4 23 -20 17 -21 19 -5 31 23 17 6 31 -19 15 -19 -11 -20 -10 -15 7
4 11 0 24 -8 31 -12 10 -16 8 -21 -8z"/>
<path d="M4969 22589 c-1 -8 -1 -20 0 -27 2 -9 -6 -11 -23 -6 -30 7 -35 -10
-9 -25 16 -8 15 -11 -7 -30 -24 -19 -24 -20 -4 -21 11 0 25 5 32 12 9 9 12 6
12 -15 0 -31 19 -36 27 -7 4 15 11 18 29 14 30 -8 30 -1 2 26 -18 17 -19 20
-5 20 9 0 17 7 17 16 0 11 -6 15 -20 11 -12 -3 -20 0 -20 8 0 7 -7 18 -15 25
-12 10 -15 10 -16 -1z"/>
<path d="M13145 22577 c-5 -18 -12 -23 -26 -20 -13 4 -19 0 -19 -11 0 -9 8
-16 17 -16 14 0 13 -3 -5 -20 -28 -27 -28 -34 2 -26 20 5 25 1 30 -19 8 -32
26 -23 26 13 0 20 3 23 12 14 18 -18 49 -15 42 3 -4 8 -12 15 -20 15 -19 0
-18 10 3 26 25 17 7 31 -19 15 -19 -12 -20 -11 -15 8 3 11 -1 25 -9 32 -10 8
-15 5 -19 -14z"/>
<path d="M14486 22585 c-3 -8 -3 -22 1 -31 5 -14 3 -14 -15 -3 -26 16 -44 2
-20 -15 16 -12 15 -14 -5 -31 -20 -18 -20 -20 -4 -23 10 -2 25 2 33 8 12 11
14 9 12 -10 -4 -29 22 -39 29 -11 4 16 11 19 29 15 29 -8 30 -1 3 24 -17 17
-18 20 -5 25 24 9 20 30 -4 24 -12 -3 -20 0 -20 8 0 7 -6 18 -14 24 -10 9 -15
8 -20 -4z"/>
<path d="M2289 22581 c12 -8 10 -26 -14 -115 -15 -59 -25 -110 -21 -113 11
-12 30 16 51 75 15 44 26 59 47 66 38 13 43 4 28 -49 -11 -39 -10 -48 4 -70 9
-14 22 -25 30 -25 18 0 49 36 44 52 -3 8 -9 5 -17 -10 -12 -23 -41 -30 -41
-10 0 6 5 26 11 43 24 64 -17 114 -70 86 -20 -11 -20 -10 -7 34 l14 45 -36 0
c-26 0 -33 -3 -23 -9z"/>
<path d="M11637 22502 c-10 -10 -17 -25 -17 -33 0 -8 6 -5 16 9 13 19 44 31
44 17 0 -3 -7 -35 -16 -71 -9 -36 -14 -67 -11 -71 12 -11 35 18 41 52 8 42 51
95 76 95 27 0 29 -9 12 -78 -8 -34 -12 -65 -9 -68 12 -12 27 9 38 51 13 51 49
95 79 95 23 0 24 -5 8 -64 -11 -40 -10 -47 7 -66 23 -25 30 -25 55 0 29 29 25
48 -5 20 -32 -30 -41 -20 -25 29 26 80 -20 127 -80 83 -23 -17 -29 -19 -34 -7
-9 26 -55 30 -85 7 -27 -20 -28 -20 -39 -1 -15 24 -34 24 -55 1z"/>
<path d="M827 22333 c-4 -3 -7 -2103 -7 -4665 l0 -4658 3030 0 3030 0 0 4665
0 4665 -3023 0 c-1663 0 -3027 -3 -3030 -7z m293 -53 c0 -22 5 -40 10 -40 6 0
10 18 10 40 l0 40 145 0 145 0 2 -42 1 -43 4 43 4 42 145 0 144 0 2 -42 1 -43
4 43 4 42 145 0 144 0 0 -40 c0 -22 5 -40 10 -40 6 0 10 18 10 40 l0 40 140 0
140 0 0 -85 c0 -50 4 -85 10 -85 6 0 10 35 10 85 l0 85 140 0 140 0 0 -40 c0
-22 5 -40 10 -40 6 0 10 18 10 40 l0 40 145 0 145 0 2 -42 1 -43 4 43 4 42
145 0 144 0 0 -40 c0 -22 5 -40 10 -40 6 0 10 18 10 40 l0 40 140 0 140 0 0
-40 c0 -22 5 -40 10 -40 6 0 10 18 10 40 l0 40 140 0 140 0 0 -85 c0 -50 4
-85 10 -85 6 0 10 35 10 85 l0 85 140 0 140 0 0 -40 c0 -22 5 -40 10 -40 6 0
10 18 10 40 l0 40 145 0 145 0 2 -42 1 -43 4 43 4 42 145 0 144 0 2 -42 1 -43
4 43 4 42 145 0 144 0 0 -40 c0 -22 5 -40 10 -40 6 0 10 18 10 40 l0 40 140 0
140 0 0 -85 c0 -50 4 -85 10 -85 6 0 10 35 10 85 l0 85 140 0 140 0 0 -40 c0
-22 5 -40 10 -40 6 0 10 18 10 40 l0 40 145 0 145 0 2 -42 1 -43 4 43 4 42
145 0 144 0 0 -40 c0 -22 5 -40 10 -40 6 0 10 18 10 40 l0 40 140 0 140 0 0
-40 c0 -22 5 -40 10 -40 6 0 10 18 10 40 l0 40 140 0 140 0 0 -225 0 -225 -27
-1 -28 -2 28 -4 27 -4 0 -225 0 -224 -25 0 c-14 0 -25 -4 -25 -10 0 -5 11 -10
25 -10 l25 0 0 -225 0 -225 -27 -1 -28 -2 28 -4 27 -4 0 -225 0 -224 -25 0
c-14 0 -25 -4 -25 -10 0 -5 11 -10 25 -10 l25 0 0 -225 0 -225 -55 0 c-30 0
-55 -4 -55 -10 0 -5 25 -10 55 -10 l55 0 0 -220 0 -220 -25 0 c-14 0 -25 -4
-25 -10 0 -5 11 -10 25 -10 l25 0 0 -225 0 -225 -25 0 c-14 0 -25 -4 -25 -10
0 -5 11 -10 25 -10 l25 0 0 -225 0 -225 -27 -1 -28 -2 28 -4 27 -4 0 -225 0
-224 -25 0 c-14 0 -25 -4 -25 -10 0 -5 11 -10 25 -10 l25 0 0 -205 0 -205 -85
0 c-50 0 -85 -4 -85 -10 0 -6 35 -10 85 -10 96 0 119 -19 28 -22 l-58 -2 58
-3 57 -4 0 -134 0 -134 -52 -5 c-29 -3 -118 -10 -198 -16 -1283 -89 -2351
-189 -3190 -301 -734 -98 -1292 -201 -1965 -364 -190 -46 -358 -67 -419 -51
-41 10 -101 71 -125 125 -11 28 -28 94 -36 148 -9 54 -20 122 -25 152 -17 91
-14 111 15 111 14 0 25 5 25 10 0 6 -11 10 -25 10 l-25 0 0 225 0 225 58 2 57
2 -57 3 -58 4 0 224 0 225 25 0 c14 0 25 5 25 10 0 6 -11 10 -25 10 l-25 0 0
225 0 225 28 1 27 2 -27 4 -28 4 1 217 c1 202 2 212 13 140 6 -42 15 -80 20
-85 8 -7 4 42 -11 140 -4 30 -2 37 11 37 9 0 16 5 16 10 0 6 -7 10 -15 10 -28
0 -35 50 -35 251 l0 199 25 0 c14 0 25 5 25 10 0 6 -11 10 -25 10 l-25 0 0
220 0 220 55 0 c30 0 55 5 55 10 0 6 -25 10 -55 10 l-55 0 0 225 0 225 25 0
c14 0 25 5 25 10 0 6 -11 10 -25 10 l-25 0 0 225 0 225 28 1 27 2 -27 4 -28 4
0 225 0 224 25 0 c14 0 25 5 25 10 0 6 -11 10 -25 10 l-25 0 0 225 0 225 28 1
27 2 -27 4 -28 4 0 225 0 224 140 0 140 0 0 -40z m5740 -4980 c0 -79 0 -80
-25 -80 -14 0 -25 -4 -25 -10 0 -5 11 -10 25 -10 l25 0 0 -225 0 -225 -25 0
c-14 0 -25 -4 -25 -10 0 -5 11 -10 25 -10 l25 0 0 -225 0 -225 -27 -1 -28 -2
28 -4 27 -4 0 -225 0 -224 -25 0 c-14 0 -25 -4 -25 -10 0 -5 11 -10 25 -10
l25 0 0 -225 0 -225 -57 -2 -58 -2 58 -3 57 -4 0 -224 0 -225 -25 0 c-14 0
-25 -4 -25 -10 0 -5 11 -10 25 -10 l25 0 0 -225 0 -225 -25 0 c-14 0 -25 -4
-25 -10 0 -5 11 -10 25 -10 l25 0 0 -220 0 -220 -25 0 c-14 0 -25 -4 -25 -10
0 -5 11 -10 25 -10 l25 0 0 -225 0 -225 -25 0 c-14 0 -25 -4 -25 -10 0 -5 11
-10 25 -10 l25 0 0 -225 0 -225 -140 0 -140 0 0 45 c0 25 -4 45 -10 45 -5 0
-10 -20 -10 -45 l0 -45 -140 0 -140 0 0 45 c0 25 -4 45 -10 45 -5 0 -10 -20
-10 -45 l0 -45 -145 0 -145 0 -2 48 -2 47 -3 -47 -4 -48 -145 0 -144 0 0 45
c0 25 -4 45 -10 45 -5 0 -10 -20 -10 -45 l0 -45 -140 0 -140 0 0 90 c0 53 -4
90 -10 90 -6 0 -10 -37 -10 -90 l0 -90 -140 0 -140 0 0 45 c0 25 -4 45 -10 45
-5 0 -10 -20 -10 -45 l0 -45 -145 0 -145 0 -2 48 -2 47 -3 -47 -4 -48 -145 0
-144 0 -2 48 -2 47 -3 -47 -4 -48 -145 0 -144 0 0 45 c0 25 -4 45 -10 45 -5 0
-10 -20 -10 -45 l0 -45 -140 0 -140 0 0 90 c0 53 -4 90 -10 90 -6 0 -10 -37
-10 -90 l0 -90 -140 0 -140 0 0 45 c0 25 -4 45 -10 45 -5 0 -10 -20 -10 -45
l0 -45 -140 0 -140 0 0 45 c0 25 -4 45 -10 45 -5 0 -10 -20 -10 -45 l0 -45
-145 0 -145 0 -2 48 -2 47 -3 -47 -4 -48 -145 0 -144 0 0 45 c0 25 -4 45 -10
45 -5 0 -10 -20 -10 -45 l0 -45 -140 0 -140 0 0 90 c0 53 -4 90 -10 90 -6 0
-10 -37 -10 -90 l0 -90 -140 0 -140 0 0 45 c0 25 -4 45 -10 45 -5 0 -10 -20
-10 -45 l0 -45 -145 0 -145 0 -2 48 -2 47 -3 -47 -4 -48 -145 0 -144 0 -2 48
-2 47 -3 -47 -4 -48 -145 0 -144 0 0 45 c0 25 -4 45 -10 45 -5 0 -10 -20 -10
-45 l0 -45 -140 0 -140 0 0 225 0 225 25 0 c14 0 25 5 25 10 0 6 -11 10 -25
10 l-25 0 0 225 0 225 25 0 c14 0 25 5 25 10 0 6 -11 10 -25 10 l-25 0 0 220
0 220 25 0 c14 0 25 5 25 10 0 6 -11 10 -25 10 l-25 0 0 225 0 225 25 0 c14 0
25 5 25 10 0 6 -11 10 -25 10 l-25 0 0 225 0 225 58 2 57 2 -57 3 -58 4 0 224
0 225 25 0 c14 0 25 5 25 10 0 6 -11 10 -25 10 l-25 0 0 225 0 225 28 1 27 2
-27 4 -28 4 0 225 0 224 25 0 c14 0 25 5 25 10 0 6 -11 10 -25 10 l-25 0 1
138 1 137 13 -77 c38 -223 109 -308 259 -308 74 0 172 19 531 104 560 131
1007 213 1675 306 697 96 1757 201 2880 285 190 14 395 29 455 34 61 4 131 9
158 10 l47 1 0 -80z"/>
<path d="M6775 20290 c3 -5 12 -10 20 -10 8 0 17 5 20 10 4 6 -5 10 -20 10
-15 0 -24 -4 -20 -10z"/>
<path d="M6633 20282 c-13 -2 -23 -8 -23 -13 0 -9 37 -3 49 7 8 7 -4 10 -26 6z"/>
<path d="M6460 20260 l-25 -8 28 -1 c15 -1 27 4 27 9 0 6 -1 10 -2 9 -2 -1
-14 -5 -28 -9z"/>
<path d="M6295 20240 c-18 -8 -17 -9 8 -9 15 -1 27 4 27 9 0 12 -8 12 -35 0z"/>
<path d="M6135 20220 c-18 -8 -17 -9 8 -9 16 -1 26 3 22 9 -3 6 -7 10 -8 9 -1
0 -11 -4 -22 -9z"/>
<path d="M5954 20191 c3 -5 15 -7 26 -4 28 7 25 13 -6 13 -14 0 -23 -4 -20 -9z"/>
<path d="M5790 20170 c0 -5 9 -10 19 -10 11 0 23 5 26 10 4 6 -5 10 -19 10
-14 0 -26 -4 -26 -10z"/>
<path d="M5640 20150 c-12 -8 -9 -10 13 -10 16 0 26 4 22 10 -8 12 -16 12 -35
0z"/>
<path d="M5465 20120 c-3 -5 3 -10 14 -10 11 0 23 5 26 10 3 6 -3 10 -14 10
-11 0 -23 -4 -26 -10z"/>
<path d="M5323 20102 c-13 -2 -23 -8 -23 -13 0 -9 37 -3 49 7 8 7 -4 10 -26 6z"/>
<path d="M5140 20061 c0 -4 11 -6 25 -3 14 2 25 6 25 8 0 2 -11 4 -25 4 -14 0
-25 -4 -25 -9z"/>
<path d="M4980 20030 c0 -12 8 -12 35 0 18 8 17 9 -7 9 -16 1 -28 -3 -28 -9z"/>
<path d="M4815 20000 c-8 -13 15 -13 35 0 12 8 11 10 -7 10 -12 0 -25 -4 -28
-10z"/>
<path d="M4665 19970 c-18 -8 -17 -9 8 -9 15 -1 27 4 27 9 0 12 -8 12 -35 0z"/>
<path d="M4495 19930 c-3 -5 3 -10 14 -10 11 0 23 5 26 10 3 6 -3 10 -14 10
-11 0 -23 -4 -26 -10z"/>
<path d="M4335 19890 c-8 -13 15 -13 35 0 12 8 11 10 -7 10 -12 0 -25 -4 -28
-10z"/>
<path d="M4175 19850 c-3 -5 3 -10 14 -10 11 0 23 5 26 10 3 6 -3 10 -14 10
-11 0 -23 -4 -26 -10z"/>
<path d="M4033 19812 c-13 -2 -23 -8 -23 -13 0 -9 37 -3 49 7 8 7 -4 10 -26 6z"/>
<path d="M3865 19760 c-18 -8 -17 -9 8 -9 15 -1 27 4 27 9 0 12 -8 12 -35 0z"/>
<path d="M3713 19713 c-21 -8 -15 -22 7 -16 11 3 20 9 20 14 0 10 -8 10 -27 2z"/>
<path d="M3563 19659 c-25 -9 -30 -19 -10 -19 15 0 43 17 37 23 -3 3 -15 1
-27 -4z"/>
<path d="M3403 19603 c-21 -8 -15 -22 7 -16 11 3 20 9 20 14 0 10 -8 10 -27 2z"/>
<path d="M3244 19534 c-17 -14 -17 -15 -1 -10 10 3 23 6 28 6 5 0 9 5 9 10 0
14 -13 12 -36 -6z"/>
<path d="M3093 19473 c-7 -2 -13 -8 -13 -13 0 -10 38 -1 46 11 6 10 -13 11
-33 2z"/>
<path d="M2940 19400 c-24 -15 -7 -19 20 -5 15 8 19 14 10 14 -8 1 -22 -3 -30
-9z"/>
<path d="M2790 19325 c-16 -19 0 -19 26 0 16 12 16 14 3 15 -9 0 -22 -7 -29
-15z"/>
<path d="M2654 19256 c-10 -8 -16 -17 -13 -20 3 -3 14 1 25 8 10 8 16 17 13
20 -3 3 -14 -1 -25 -8z"/>
<path d="M2500 19165 c-16 -19 0 -19 26 0 16 12 16 14 3 15 -9 0 -22 -7 -29
-15z"/>
<path d="M2364 19085 c-16 -12 -16 -14 -3 -15 9 0 22 7 29 15 16 19 0 19 -26
0z"/>
<path d="M2224 18995 c-16 -12 -16 -14 -3 -15 9 0 22 7 29 15 16 19 0 19 -26
0z"/>
<path d="M2094 18906 c-10 -8 -16 -17 -13 -20 3 -3 14 1 25 8 10 8 16 17 13
20 -3 3 -14 -1 -25 -8z"/>
<path d="M1950 18805 c-16 -19 0 -19 26 0 16 12 16 14 3 15 -9 0 -22 -7 -29
-15z"/>
<path d="M881 18773 c0 -5 4 -17 9 -28 8 -18 9 -17 9 8 1 15 -3 27 -9 27 -5 0
-10 -3 -9 -7z"/>
<path d="M1826 18714 c-11 -7 -16 -17 -13 -21 4 -4 15 1 24 10 22 21 14 30
-11 11z"/>
<path d="M920 18633 c0 -28 71 -213 81 -213 13 0 11 23 -5 45 -7 11 -24 54
-37 95 -25 80 -39 107 -39 73z"/>
<path d="M1694 18616 c-10 -8 -16 -17 -13 -20 3 -3 14 1 25 8 10 8 16 17 13
20 -3 3 -14 -1 -25 -8z"/>
<path d="M1556 18515 c-16 -12 -17 -15 -4 -15 8 0 21 7 28 15 16 19 1 19 -24
0z"/>
<path d="M1424 18426 c-10 -8 -17 -17 -14 -19 3 -3 14 1 24 9 11 7 17 16 15
19 -3 3 -14 -2 -25 -9z"/>
<path d="M1273 18353 c-21 -8 -15 -22 7 -16 11 3 20 9 20 14 0 10 -8 10 -27 2z"/>
<path d="M1104 18336 c23 -18 36 -20 36 -6 0 6 -4 10 -9 10 -5 0 -18 3 -28 6
-16 5 -16 4 1 -10z"/>
<path d="M1120 18223 c0 -13 118 -126 148 -142 34 -18 38 -7 5 14 -15 10 -56
45 -90 78 -35 33 -63 56 -63 50z"/>
<path d="M1510 17970 c0 -9 129 -51 199 -65 58 -12 26 11 -35 24 -31 7 -81 21
-110 32 -30 10 -54 14 -54 9z"/>
<path d="M1970 17862 c0 -8 168 -32 219 -32 54 0 6 12 -101 26 -62 7 -114 14
-115 14 -2 0 -3 -4 -3 -8z"/>
<path d="M2440 17811 c0 -8 134 -22 205 -20 34 1 36 2 15 8 -38 12 -220 22
-220 12z"/>
<path d="M2910 17782 c0 -9 231 -24 239 -16 9 9 -9 12 -121 18 -69 4 -118 3
-118 -2z"/>
<path d="M3380 17760 c0 -6 47 -9 123 -9 101 2 113 3 67 9 -82 12 -190 12
-190 0z"/>
<path d="M3855 17750 c-2 -4 48 -10 113 -13 107 -5 133 -4 121 7 -8 7 -230 13
-234 6z"/>
<path d="M4326 17741 c-4 -6 36 -11 114 -13 66 -2 120 0 120 5 0 4 -45 7 -99
7 -55 0 -106 3 -114 6 -8 3 -18 1 -21 -5z"/>
<path d="M4800 17730 c0 -6 47 -10 123 -9 77 0 115 4 102 9 -29 12 -225 12
-225 0z"/>
<path d="M5270 17720 c0 -6 47 -10 120 -10 73 0 120 4 120 10 0 6 -47 10 -120
10 -73 0 -120 -4 -120 -10z"/>
<path d="M5740 17721 c0 -7 42 -11 122 -11 67 0 119 2 117 4 -2 2 -57 7 -121
10 -82 5 -118 4 -118 -3z"/>
<path d="M6225 17710 c29 -12 225 -12 225 0 0 6 -47 10 -122 9 -78 0 -116 -4
-103 -9z"/>
<path d="M10270 17675 l0 -4665 3028 2 3027 3 0 4660 0 4660 -3027 3 -3028 2
0 -4665z m300 4605 c0 -22 5 -40 10 -40 6 0 10 18 10 40 l0 40 140 0 140 0 0
-40 c0 -22 5 -40 10 -40 6 0 10 18 10 40 l0 40 145 0 145 0 2 -42 1 -43 4 43
4 42 145 0 144 0 0 -40 c0 -22 5 -40 10 -40 6 0 10 18 10 40 l0 40 140 0 140
0 0 -85 c0 -50 4 -85 10 -85 6 0 10 35 10 85 l0 85 140 0 140 0 0 -40 c0 -22
5 -40 10 -40 6 0 10 18 10 40 l0 40 140 0 140 0 0 -40 c0 -22 5 -40 10 -40 6
0 10 18 10 40 l0 40 145 0 145 0 2 -42 1 -43 4 43 4 42 145 0 144 0 0 -40 c0
-22 5 -40 10 -40 6 0 10 18 10 40 l0 40 140 0 140 0 0 -85 c0 -50 4 -85 10
-85 6 0 10 35 10 85 l0 85 140 0 140 0 0 -40 c0 -22 5 -40 10 -40 6 0 10 18
10 40 l0 40 140 0 140 0 0 -40 c0 -22 5 -40 10 -40 6 0 10 18 10 40 l0 40 145
0 145 0 2 -42 1 -43 4 43 4 42 145 0 144 0 0 -40 c0 -22 5 -40 10 -40 6 0 10
18 10 40 l0 40 140 0 140 0 0 -85 c0 -50 4 -85 10 -85 6 0 10 35 10 85 l0 85
140 0 140 0 0 -40 c0 -22 5 -40 10 -40 6 0 10 18 10 40 l0 40 140 0 140 0 0
-40 c0 -22 5 -40 10 -40 6 0 10 18 10 40 l0 40 145 0 145 0 2 -42 1 -43 4 43
4 42 145 0 144 0 0 -40 c0 -22 5 -40 10 -40 6 0 10 18 10 40 l0 40 140 0 140
0 0 -225 0 -225 -27 -1 -28 -2 28 -4 27 -4 0 -225 0 -224 -25 0 c-14 0 -25 -4
-25 -10 0 -5 11 -10 25 -10 l25 0 0 -225 0 -225 -27 -1 -28 -1 30 -8 c70 -18
-1961 -5 -3055 20 -1747 39 -2290 112 -2582 344 -165 132 -261 350 -324 742
-14 87 -28 187 -31 222 l-6 62 142 0 141 0 0 -40z m-273 -317 c-3 -10 -5 -2
-5 17 0 19 2 27 5 18 2 -10 2 -26 0 -35z m19 -46 c12 16 13 15 14 -14 0 -26
-4 -33 -20 -33 -16 0 -20 6 -19 33 1 18 3 24 6 14 5 -18 5 -18 19 0z m49 -159
c117 -425 309 -589 804 -688 522 -105 1534 -144 4304 -166 l837 -7 0 -209 0
-208 -55 0 c-30 0 -55 -4 -55 -10 0 -5 25 -10 55 -10 l55 0 0 -225 0 -225 -25
0 c-14 0 -25 -4 -25 -10 0 -5 11 -10 25 -10 l25 0 0 -220 0 -220 -25 0 c-14 0
-25 -4 -25 -10 0 -5 11 -10 25 -10 l25 0 0 -225 0 -225 -25 0 c-14 0 -25 -4
-25 -10 0 -5 11 -10 25 -10 l25 0 0 -225 0 -225 -57 -2 -58 -2 58 -3 57 -4 0
-224 0 -225 -25 0 c-14 0 -25 -4 -25 -10 0 -5 11 -10 25 -10 l25 0 0 -225 0
-225 -27 -1 -28 -2 28 -4 27 -4 0 -225 0 -224 -25 0 c-14 0 -25 -4 -25 -10 0
-5 11 -10 25 -10 l25 0 0 -225 0 -225 -55 0 c-30 0 -55 -4 -55 -10 0 -5 25
-10 55 -10 l55 0 0 -225 0 -225 -27 -1 -28 -2 28 -4 27 -4 0 -225 0 -224 -25
0 c-14 0 -25 -4 -25 -10 0 -5 11 -10 25 -10 l25 0 0 -225 0 -225 -27 -1 -28
-2 28 -4 27 -4 0 -225 0 -224 -55 0 c-30 0 -55 -4 -55 -10 0 -5 25 -10 55 -10
l55 0 0 -225 0 -225 -25 0 c-14 0 -25 -4 -25 -10 0 -5 11 -10 25 -10 l25 0 0
-220 0 -220 -25 0 c-14 0 -25 -4 -25 -10 0 -5 11 -10 25 -10 l25 0 0 -225 0
-225 -25 0 c-14 0 -25 -4 -25 -10 0 -5 11 -10 25 -10 l25 0 0 -225 0 -225
-140 0 -140 0 0 45 c0 25 -4 45 -10 45 -5 0 -10 -20 -10 -45 l0 -45 -145 0
-145 0 -2 48 -2 47 -3 -47 -4 -48 -145 0 -144 0 0 45 c0 25 -4 45 -10 45 -5 0
-10 -20 -10 -45 l0 -45 -140 0 -140 0 0 45 c0 25 -4 45 -10 45 -5 0 -10 -20
-10 -45 l0 -45 -140 0 -140 0 0 90 c0 53 -4 90 -10 90 -6 0 -10 -37 -10 -90
l0 -90 -140 0 -140 0 0 45 c0 25 -4 45 -10 45 -5 0 -10 -20 -10 -45 l0 -45
-145 0 -145 0 -2 48 -2 47 -3 -47 -4 -48 -145 0 -144 0 0 45 c0 25 -4 45 -10
45 -5 0 -10 -20 -10 -45 l0 -45 -140 0 -140 0 0 45 c0 25 -4 45 -10 45 -5 0
-10 -20 -10 -45 l0 -45 -140 0 -140 0 0 90 c0 53 -4 90 -10 90 -6 0 -10 -37
-10 -90 l0 -90 -140 0 -140 0 0 45 c0 25 -4 45 -10 45 -5 0 -10 -20 -10 -45
l0 -45 -145 0 -145 0 -2 48 -2 47 -3 -47 -4 -48 -145 0 -144 0 0 45 c0 25 -4
45 -10 45 -5 0 -10 -20 -10 -45 l0 -45 -140 0 -140 0 0 45 c0 25 -4 45 -10 45
-5 0 -10 -20 -10 -45 l0 -45 -140 0 -140 0 0 90 c0 53 -4 90 -10 90 -6 0 -10
-37 -10 -90 l0 -90 -140 0 -140 0 0 45 c0 25 -4 45 -10 45 -5 0 -10 -20 -10
-45 l0 -45 -145 0 -145 0 -2 48 -2 47 -3 -47 -4 -48 -145 0 -144 0 0 45 c0 25
-4 45 -10 45 -5 0 -10 -20 -10 -45 l0 -45 -140 0 -140 0 0 45 c0 25 -4 45 -10
45 -5 0 -10 -20 -10 -45 l0 -45 -140 0 -140 0 0 225 0 225 25 0 c14 0 25 5 25
10 0 6 -11 10 -25 10 l-25 0 0 225 0 225 25 0 c14 0 25 5 25 10 0 6 -11 10
-25 10 l-25 0 0 220 0 220 25 0 c14 0 25 5 25 10 0 6 -11 10 -25 10 l-25 0 0
225 0 225 55 0 c30 0 55 5 55 10 0 6 -25 10 -55 10 l-55 0 0 225 0 225 28 1
27 2 -27 4 -28 4 0 225 0 224 25 0 c14 0 25 5 25 10 0 6 -11 10 -25 10 l-25 0
0 225 0 225 28 1 27 2 -27 4 -28 4 0 225 0 224 55 0 c30 0 55 5 55 10 0 6 -25
10 -55 10 l-55 0 0 225 0 225 25 0 c14 0 25 5 25 10 0 6 -11 10 -25 10 l-25 0
0 225 0 225 28 1 27 2 -27 4 -28 4 0 225 0 224 25 0 c14 0 25 5 25 10 0 6 -11
10 -25 10 l-25 0 0 225 0 225 58 2 57 2 -57 3 -58 4 0 224 0 225 25 0 c14 0
25 5 25 10 0 6 -11 10 -25 10 l-25 0 0 225 0 225 25 0 c14 0 25 5 25 10 0 6
-11 10 -25 10 l-25 0 0 220 0 220 25 0 c14 0 25 5 25 10 0 6 -11 10 -25 10
l-25 0 0 225 0 225 55 0 c30 0 55 5 55 10 0 6 -25 10 -55 10 l-55 0 0 225 0
225 28 1 27 2 -27 4 -28 4 0 225 0 224 24 0 c13 0 27 7 30 16 9 24 7 56 -3 50
-5 -3 -7 -15 -4 -26 4 -16 0 -20 -21 -20 l-26 0 0 225 0 225 23 0 c21 0 26
-10 52 -102z"/>
<path d="M10310 21765 c0 -14 4 -25 9 -25 4 0 6 11 3 25 -2 14 -6 25 -8 25 -2
0 -4 -11 -4 -25z"/>
<path d="M10326 21634 c-4 -35 -3 -60 3 -64 6 -3 13 -26 17 -50 8 -52 23 -88
23 -55 0 29 -27 216 -32 221 -2 3 -7 -21 -11 -52z"/>
<path d="M10350 21278 c0 -7 5 -20 10 -28 8 -12 10 -9 10 13 0 15 -4 27 -10
27 -5 0 -10 -6 -10 -12z"/>
<path d="M10400 21209 c0 -32 44 -219 52 -219 10 0 12 -12 -17 114 -22 102
-35 138 -35 105z"/>
<path d="M10370 21118 c0 -7 5 -20 10 -28 8 -12 10 -9 10 13 0 15 -4 27 -10
27 -5 0 -10 -6 -10 -12z"/>
<path d="M10401 20948 c-1 -16 4 -28 9 -28 12 0 12 8 0 35 -8 18 -9 17 -9 -7z"/>
<path d="M10421 20793 c0 -5 4 -17 9 -28 8 -18 9 -17 9 8 1 15 -3 27 -9 27 -5
0 -10 -3 -9 -7z"/>
<path d="M10536 20693 c14 -38 33 -87 42 -110 9 -24 20 -43 25 -43 5 0 7 4 5
8 -1 5 -21 54 -42 110 -22 56 -43 102 -48 102 -4 0 4 -30 18 -67z"/>
<path d="M10460 20618 c0 -16 5 -28 10 -28 13 0 13 20 0 40 -8 12 -10 9 -10
-12z"/>
<path d="M10500 20463 c0 -12 5 -25 10 -28 13 -8 13 15 0 35 -8 12 -10 11 -10
-7z"/>
<path d="M10710 20325 c0 -10 119 -183 130 -190 21 -13 9 13 -31 66 -22 30
-50 71 -61 92 -19 32 -38 48 -38 32z"/>
<path d="M10547 20300 c6 -22 23 -38 23 -21 0 17 -12 41 -20 41 -5 0 -6 -9 -3
-20z"/>
<path d="M10600 20164 c0 -5 7 -19 15 -30 8 -10 15 -14 15 -8 0 5 -7 19 -15
30 -8 10 -15 14 -15 8z"/>
<path d="M10682 19995 c6 -14 13 -23 16 -21 7 7 -9 46 -18 46 -5 0 -4 -11 2
-25z"/>
<path d="M11016 19939 c36 -41 156 -140 162 -134 3 3 -12 20 -34 38 -21 17
-60 51 -85 74 -48 45 -76 59 -43 22z"/>
<path d="M10760 19872 c0 -10 22 -32 32 -32 5 0 3 9 -4 20 -13 20 -28 27 -28
12z"/>
<path d="M10870 19743 c0 -13 29 -38 35 -31 3 3 -4 13 -15 23 -11 10 -20 13
-20 8z"/>
<path d="M11370 19665 c0 -6 55 -41 143 -89 37 -21 67 -33 67 -28 0 5 -45 35
-100 66 -100 56 -110 60 -110 51z"/>
<path d="M10990 19632 c0 -4 9 -13 20 -20 22 -13 27 -3 8 16 -14 14 -28 16
-28 4z"/>
<path d="M11138 19524 c13 -9 26 -13 30 -9 8 8 -17 25 -38 25 -9 0 -6 -6 8
-16z"/>
<path d="M11270 19461 c0 -10 24 -21 43 -21 7 0 3 7 -7 15 -22 17 -36 19 -36
6z"/>
<path d="M11790 19450 c0 -8 198 -90 216 -90 5 0 4 4 -1 9 -16 15 -215 90
-215 81z"/>
<path d="M11430 19390 c20 -13 43 -13 35 0 -3 6 -16 10 -28 10 -18 0 -19 -2
-7 -10z"/>
<path d="M11585 19340 c3 -5 16 -10 28 -10 18 0 19 2 7 10 -20 13 -43 13 -35
0z"/>
<path d="M11740 19300 c0 -5 12 -10 28 -9 24 0 25 1 7 9 -27 12 -35 12 -35 0z"/>
<path d="M12240 19290 c0 -10 212 -69 225 -62 5 3 -4 9 -20 14 -17 4 -69 19
-117 32 -49 13 -88 21 -88 16z"/>
<path d="M11910 19260 c20 -13 40 -13 40 0 0 6 -12 10 -27 10 -22 0 -25 -2
-13 -10z"/>
<path d="M12070 19230 c20 -13 40 -13 40 0 0 6 -12 10 -27 10 -22 0 -25 -2
-13 -10z"/>
<path d="M12230 19209 c0 -5 11 -9 25 -9 14 0 25 2 25 4 0 2 -11 6 -25 8 -14
3 -25 1 -25 -3z"/>
<path d="M12405 19180 c27 -12 35 -12 35 0 0 6 -12 10 -27 9 -25 0 -26 -1 -8
-9z"/>
<path d="M12708 19160 c17 -16 31 -21 51 -17 16 3 55 0 87 -8 69 -17 84 -18
84 -7 0 7 -55 19 -215 49 l-30 6 23 -23z"/>
<path d="M12565 19160 c27 -12 35 -12 35 0 0 6 -12 10 -27 9 -25 0 -26 -1 -8
-9z"/>
<path d="M13050 19120 c0 -5 12 -10 26 -10 14 0 23 4 19 10 -3 6 -15 10 -26
10 -10 0 -19 -4 -19 -10z"/>
<path d="M13214 19109 c-3 -5 6 -9 20 -9 31 0 34 6 6 13 -11 3 -23 1 -26 -4z"/>
<path d="M13383 19093 c9 -2 25 -2 35 0 9 3 1 5 -18 5 -19 0 -27 -2 -17 -5z"/>
<path d="M13162 19084 c10 -9 228 -41 228 -33 0 5 -15 10 -32 13 -18 3 -60 10
-92 16 -66 11 -112 13 -104 4z"/>
<path d="M13553 19083 c9 -2 23 -2 30 0 6 3 -1 5 -18 5 -16 0 -22 -2 -12 -5z"/>
<path d="M13705 19080 c-4 -6 7 -10 27 -9 27 0 30 2 13 9 -27 12 -33 12 -40 0z"/>
<path d="M13870 19070 c0 -5 11 -10 25 -10 14 0 25 5 25 10 0 6 -11 10 -25 10
-14 0 -25 -4 -25 -10z"/>
<path d="M14040 19060 c0 -5 9 -10 20 -10 11 0 20 5 20 10 0 6 -9 10 -20 10
-11 0 -20 -4 -20 -10z"/>
<path d="M14215 19050 c27 -12 35 -12 35 0 0 6 -12 10 -27 9 -25 0 -26 -1 -8
-9z"/>
<path d="M14370 19050 c0 -5 12 -10 26 -10 14 0 23 4 19 10 -3 6 -15 10 -26
10 -10 0 -19 -4 -19 -10z"/>
<path d="M14530 19040 c0 -5 11 -10 25 -10 14 0 25 5 25 10 0 6 -11 10 -25 10
-14 0 -25 -4 -25 -10z"/>
<path d="M14694 19039 c-3 -5 9 -9 25 -9 17 0 31 2 31 4 0 8 -51 13 -56 5z"/>
<path d="M14860 19030 c0 -5 11 -10 25 -10 14 0 25 5 25 10 0 6 -11 10 -25 10
-14 0 -25 -4 -25 -10z"/>
<path d="M13625 19021 c-3 -6 2 -11 12 -11 10 -1 64 -6 121 -13 56 -7 102 -10
102 -6 0 9 -33 16 -115 24 -33 3 -72 8 -87 11 -14 3 -29 0 -33 -5z"/>
<path d="M15043 19023 c9 -2 23 -2 30 0 6 3 -1 5 -18 5 -16 0 -22 -2 -12 -5z"/>
<path d="M15195 19020 c3 -5 15 -10 26 -10 10 0 19 5 19 10 0 6 -12 10 -26 10
-14 0 -23 -4 -19 -10z"/>
<path d="M15360 19020 c0 -5 12 -10 28 -10 21 0 24 2 12 10 -20 13 -40 13 -40
0z"/>
<path d="M15525 19010 c3 -5 15 -10 26 -10 10 0 19 5 19 10 0 6 -12 10 -26 10
-14 0 -23 -4 -19 -10z"/>
<path d="M15690 19010 c0 -5 11 -10 25 -10 14 0 25 5 25 10 0 6 -11 10 -25 10
-14 0 -25 -4 -25 -10z"/>
<path d="M15863 19003 c9 -2 23 -2 30 0 6 3 -1 5 -18 5 -16 0 -22 -2 -12 -5z"/>
<path d="M16020 19000 c0 -5 9 -10 19 -10 11 0 23 5 26 10 4 6 -5 10 -19 10
-14 0 -26 -4 -26 -10z"/>
<path d="M16180 19000 c0 -5 11 -10 25 -10 14 0 25 5 25 10 0 6 -11 10 -25 10
-14 0 -25 -4 -25 -10z"/>
<path d="M14094 18969 c-4 -8 44 -15 161 -25 44 -3 76 -3 72 2 -10 11 -227 32
-233 23z"/>
<path d="M14575 18922 c32 -14 225 -25 225 -12 0 5 -17 10 -37 10 -21 0 -76 2
-123 5 -53 4 -77 2 -65 -3z"/>
<path d="M15035 18889 c-4 -5 7 -9 23 -9 16 0 71 -3 123 -6 63 -4 91 -3 84 3
-13 14 -223 25 -230 12z"/>
<path d="M15505 18863 c14 -14 235 -26 235 -13 0 6 -17 10 -37 10 -21 0 -76 3
-123 6 -57 4 -82 3 -75 -3z"/>
<path d="M15974 18839 c-2 -3 34 -9 79 -12 116 -10 173 -9 162 2 -11 10 -235
20 -241 10z"/>
<path d="M73 22286 c-35 -16 -54 -59 -34 -79 17 -17 38 7 22 27 -17 20 22 46
71 46 64 0 100 -56 62 -95 -9 -9 -42 -29 -73 -45 -32 -15 -63 -35 -70 -44 -17
-21 -27 -96 -12 -96 6 0 11 7 11 15 0 21 29 19 65 -5 41 -27 90 -26 109 2 18
25 21 58 6 58 -5 0 -10 -7 -10 -15 0 -9 -12 -21 -26 -27 -20 -10 -36 -8 -82 7
-31 10 -58 20 -60 20 -1 1 1 10 4 20 4 10 40 32 79 51 104 47 127 87 82 139
-28 33 -96 43 -144 21z"/>
<path d="M510 22289 c-42 -16 -63 -63 -64 -144 -1 -90 23 -136 77 -149 71 -18
115 25 124 121 6 67 -9 132 -35 156 -24 21 -70 29 -102 16z m70 -19 c52 -28
52 -222 0 -250 -51 -27 -94 8 -105 88 -16 116 37 198 105 162z"/>
<path d="M9556 22264 c-22 -19 -33 -34 -25 -34 8 0 20 5 27 12 9 9 12 -15 12
-110 0 -115 -1 -122 -20 -122 -11 0 -20 -4 -20 -10 0 -6 27 -10 60 -10 33 0
60 4 60 10 0 6 -11 10 -25 10 l-24 0 -3 144 -3 144 -39 -34z"/>
<path d="M9954 22286 c-66 -30 -84 -192 -29 -262 20 -25 30 -29 70 -29 38 0
51 5 70 27 28 33 39 92 31 162 -12 91 -71 134 -142 102z m76 -16 c36 -19 51
-125 29 -203 -11 -42 -43 -63 -82 -54 -59 15 -76 177 -26 241 22 27 48 33 79
16z"/>
<path d="M324 22019 c-10 -17 13 -36 27 -22 12 12 4 33 -11 33 -5 0 -12 -5
-16 -11z"/>
<path d="M9774 22019 c-3 -6 -2 -15 2 -19 12 -12 38 5 30 19 -9 14 -23 14 -32
0z"/>
<path d="M9538 20633 c-63 -16 -79 -206 -23 -267 26 -28 79 -35 116 -16 71 39
71 241 0 280 -20 10 -61 12 -93 3z m73 -13 c14 0 37 -52 43 -100 15 -106 -38
-192 -98 -160 -79 42 -48 293 32 265 8 -3 18 -5 23 -5z"/>
<path d="M9938 20633 c-9 -2 -22 -18 -29 -35 -11 -27 -10 -35 4 -60 16 -28 16
-31 -3 -55 -28 -36 -26 -88 5 -118 20 -21 34 -25 80 -25 46 0 60 4 80 25 32
31 34 96 5 125 -19 19 -19 22 -5 36 21 22 19 70 -5 94 -19 19 -84 26 -132 13z
m102 -23 c38 -38 18 -90 -35 -90 -55 0 -65 8 -65 51 0 26 6 41 18 48 27 16 60
13 82 -9z m10 -130 c22 -22 26 -69 10 -100 -13 -25 -71 -36 -101 -19 -32 16
-39 28 -39 67 0 43 30 72 75 72 22 0 43 -8 55 -20z"/>
<path d="M9774 20369 c-10 -17 13 -36 27 -22 12 12 4 33 -11 33 -5 0 -12 -5
-16 -11z"/>
<path d="M112 20149 c-36 -32 -37 -48 -3 -29 21 11 21 9 21 -110 l0 -120 -25
0 c-14 0 -25 -4 -25 -10 0 -6 27 -10 60 -10 33 0 60 4 60 10 0 6 -9 10 -20 10
-19 0 -20 7 -20 145 0 80 -3 145 -7 145 -5 0 -23 -14 -41 -31z"/>
<path d="M476 20171 c-5 -8 -36 -144 -36 -158 0 -2 14 7 31 21 43 36 100 36
128 0 27 -34 27 -84 0 -118 -16 -21 -29 -26 -64 -26 -48 0 -75 21 -56 44 8 10
8 16 -3 25 -10 9 -16 8 -25 -3 -21 -25 12 -74 54 -82 92 -17 140 19 140 103 0
46 -4 58 -24 74 -33 27 -68 34 -113 22 -42 -11 -43 -10 -32 46 6 29 9 31 53
31 54 0 91 9 91 21 0 12 -137 12 -144 0z"/>
<path d="M324 19899 c-10 -17 13 -36 27 -22 12 12 4 33 -11 33 -5 0 -12 -5
-16 -11z"/>
<path d="M9543 18770 c-42 -17 -58 -57 -58 -146 0 -94 19 -132 73 -148 76 -21
127 41 126 155 0 115 -58 172 -141 139z m80 -27 c28 -32 40 -105 28 -164 -17
-80 -51 -106 -101 -79 -51 27 -52 220 -2 249 26 16 57 13 75 -6z"/>
<path d="M9958 18764 c-38 -20 -60 -67 -65 -139 -6 -74 7 -109 49 -135 67 -42
153 2 153 79 0 77 -67 117 -137 82 l-40 -19 6 21 c3 12 6 27 6 34 0 6 12 25
26 42 19 23 34 31 59 31 38 0 66 -24 39 -34 -13 -5 -14 -9 -4 -21 14 -17 40
-3 40 21 0 46 -77 68 -132 38z m87 -139 c16 -15 25 -36 25 -55 0 -37 -39 -80
-72 -80 -41 1 -73 37 -73 82 0 71 71 103 120 53z"/>
<path d="M9775 18500 c-11 -17 5 -32 21 -19 7 6 11 15 8 20 -7 12 -21 11 -29
-1z"/>
<path d="M112 17819 c-19 -17 -31 -33 -28 -37 4 -3 12 0 18 6 7 7 16 12 20 12
4 0 8 -54 8 -120 l0 -120 -25 0 c-14 0 -25 -4 -25 -10 0 -6 27 -10 60 -10 33
0 60 4 60 10 0 6 -9 10 -20 10 -19 0 -20 7 -20 145 0 80 -3 145 -7 145 -5 0
-23 -14 -41 -31z"/>
<path d="M510 17839 c-42 -16 -63 -63 -64 -144 -1 -90 23 -136 77 -149 71 -18
115 25 124 121 6 67 -9 132 -35 156 -24 21 -70 29 -102 16z m79 -28 c37 -37
40 -176 6 -228 -21 -32 -67 -31 -93 2 -39 50 -37 181 4 226 22 24 59 24 83 0z"/>
<path d="M324 17569 c-10 -17 13 -36 27 -22 12 12 4 33 -11 33 -5 0 -12 -5
-16 -11z"/>
<path d="M9545 16906 c-45 -20 -60 -57 -60 -150 0 -98 18 -132 72 -142 82 -15
127 37 127 145 0 83 -23 135 -66 150 -37 13 -36 13 -73 -3z m72 -21 c26 -18
48 -109 38 -158 -16 -79 -40 -105 -92 -95 -43 8 -67 123 -43 210 16 55 55 73
97 43z"/>
<path d="M9951 16803 l-79 -108 74 -3 74 -3 0 -29 c0 -20 -5 -30 -14 -30 -8 0
-18 -4 -21 -10 -4 -6 13 -10 44 -10 28 0 51 5 51 10 0 6 -7 10 -15 10 -10 0
-15 10 -15 30 0 27 3 30 30 30 17 0 30 5 30 10 0 6 -13 10 -30 10 l-30 0 0
100 c0 57 -4 100 -10 100 -5 0 -45 -48 -89 -107z m69 -18 l0 -75 -55 0 c-30 0
-55 2 -55 5 0 6 101 145 106 145 2 0 4 -34 4 -75z"/>
<path d="M9774 16639 c-10 -17 13 -36 27 -22 12 12 4 33 -11 33 -5 0 -12 -5
-16 -11z"/>
<path d="M93 15510 c-42 -17 -58 -57 -58 -146 0 -96 19 -133 76 -147 79 -20
123 33 123 148 0 122 -55 179 -141 145z m81 -26 c33 -32 42 -151 17 -212 -26
-62 -102 -53 -120 15 -21 75 -7 183 27 202 25 15 59 13 76 -5z"/>
<path d="M476 15511 c-8 -12 -37 -153 -33 -157 2 -2 14 7 27 21 34 36 100 35
129 -1 64 -82 -33 -187 -117 -128 -21 14 -22 17 -7 28 15 10 15 14 2 24 -11
10 -17 9 -27 -3 -16 -19 10 -62 46 -75 50 -19 84 -12 121 25 33 33 35 39 30
81 -7 70 -32 89 -113 89 l-66 0 6 29 c3 15 6 32 6 37 0 5 17 9 39 9 51 0 101
10 101 21 0 12 -137 12 -144 0z"/>
<path d="M324 15239 c-10 -17 13 -36 27 -22 12 12 4 33 -11 33 -5 0 -12 -5
-16 -11z"/>
<path d="M9538 15043 c-63 -16 -79 -206 -23 -267 26 -28 79 -35 116 -16 71 39
71 241 0 280 -20 10 -61 12 -93 3z m73 -13 c14 0 37 -52 43 -100 15 -106 -38
-192 -98 -160 -79 42 -48 293 32 265 8 -3 18 -5 23 -5z"/>
<path d="M9932 15040 c-33 -14 -50 -56 -30 -76 13 -13 16 -13 27 0 11 13 10
17 -3 22 -26 10 -1 41 40 49 48 9 92 -10 101 -43 9 -35 -5 -53 -71 -88 -31
-17 -66 -39 -76 -50 -22 -22 -39 -104 -21 -104 6 0 11 9 11 20 0 25 16 25 58
0 44 -27 108 -27 122 1 6 11 10 30 7 42 -3 21 -4 21 -15 -5 -13 -32 -41 -36
-119 -16 -60 15 -57 12 -44 37 7 11 45 36 85 55 99 45 122 91 71 141 -19 20
-34 25 -72 24 -26 0 -58 -4 -71 -9z"/>
<path d="M9774 14779 c-10 -17 13 -36 27 -22 12 12 4 33 -11 33 -5 0 -12 -5
-16 -11z"/>
<path d="M65 13284 c-41 -44 -45 -166 -9 -236 16 -31 71 -47 112 -32 48 17 67
57 67 142 -1 85 -21 136 -59 146 -48 13 -87 6 -111 -20z m110 -8 c52 -52 40
-216 -18 -244 -24 -12 -32 -11 -52 2 -58 38 -59 211 -2 251 30 21 44 19 72 -9z"/>
<path d="M487 13290 c-63 -49 -54 -234 12 -270 36 -19 90 -12 115 15 50 53 50
197 0 250 -29 32 -90 34 -127 5z m98 -13 c52 -44 45 -207 -10 -243 -55 -36
-99 20 -99 126 0 117 49 169 109 117z"/>
<path d="M9515 13284 c-41 -44 -47 -182 -10 -238 19 -29 74 -44 113 -30 82 29
91 242 13 284 -37 19 -90 12 -116 -16z m90 10 c44 -17 66 -151 36 -222 -16
-39 -53 -57 -83 -41 -61 33 -65 228 -5 257 27 13 31 14 52 6z"/>
<path d="M9949 13303 c-33 -8 -53 -64 -54 -145 0 -85 19 -125 67 -142 91 -32
151 52 134 188 -12 89 -61 123 -147 99z m86 -27 c62 -63 33 -256 -40 -256 -29
0 -62 44 -69 93 -10 67 2 136 30 164 29 29 49 29 79 -1z"/>
<path d="M324 13039 c-10 -17 13 -36 27 -22 12 12 4 33 -11 33 -5 0 -12 -5
-16 -11z"/>
<path d="M9774 13039 c-10 -17 13 -36 27 -22 12 12 4 33 -11 33 -5 0 -12 -5
-16 -11z"/>
<path d="M3678 12744 c-44 -39 -50 -54 -13 -30 l25 16 0 -124 0 -125 -27 -4
c-16 -2 4 -4 42 -4 39 0 58 2 43 4 l-27 4 -3 149 -3 149 -37 -35z"/>
<path d="M5188 12744 c-21 -19 -32 -34 -25 -34 7 0 18 5 25 12 9 9 12 -16 12
-114 l0 -127 -27 -4 c-16 -2 4 -4 42 -4 39 0 58 2 43 4 l-27 4 -3 149 -3 149
-37 -35z"/>
<path d="M13128 12745 c-43 -36 -51 -56 -13 -31 l25 16 0 -124 0 -125 -27 -4
c-16 -2 4 -4 42 -4 39 0 58 2 43 4 l-27 4 -3 149 -3 148 -37 -33z"/>
<path d="M14638 12745 c-43 -36 -51 -56 -13 -31 l25 16 0 -124 0 -125 -27 -4
c-16 -2 4 -4 42 -4 39 0 58 2 43 4 l-27 4 -3 149 -3 148 -37 -33z"/>
<path d="M751 12742 c-52 -52 -50 -203 4 -249 37 -33 98 -31 130 3 28 30 40
101 30 173 -9 68 -40 101 -95 101 -32 0 -48 -6 -69 -28z m91 7 c61 -33 64
-215 3 -255 -29 -19 -60 -11 -79 19 -36 56 -30 184 10 224 26 26 36 28 66 12z"/>
<path d="M2240 12713 c-6 -32 -14 -69 -17 -83 l-6 -25 32 28 c63 53 137 28
148 -50 5 -37 2 -45 -26 -74 -28 -27 -36 -30 -69 -24 -46 8 -69 33 -46 50 14
10 14 13 1 23 -11 10 -17 9 -27 -3 -18 -21 2 -62 36 -75 79 -30 151 3 160 75
6 50 -11 83 -55 109 -29 17 -39 18 -75 8 -22 -6 -43 -9 -45 -7 -2 2 -1 19 3
38 6 34 7 34 68 41 94 9 97 26 6 26 l-77 0 -11 -57z"/>
<path d="M3929 12763 c-33 -8 -54 -64 -54 -143 0 -118 39 -163 129 -146 49 9
70 54 70 146 0 124 -46 170 -145 143z m85 -26 c62 -62 33 -257 -39 -257 -73 0
-102 193 -40 256 30 30 50 30 79 1z"/>
<path d="M5405 12748 c-32 -144 -32 -146 6 -114 41 35 83 34 120 -3 40 -40 39
-82 -1 -123 -27 -26 -36 -30 -68 -24 -40 6 -71 35 -51 47 7 4 9 15 5 24 -5 14
-9 15 -21 5 -21 -18 -19 -37 10 -65 26 -27 82 -33 129 -15 38 14 62 70 50 117
-17 68 -91 98 -167 68 -12 -5 -16 -3 -13 6 2 8 7 26 10 40 5 24 11 27 68 33
94 9 97 26 5 26 -71 0 -77 -2 -82 -22z"/>
<path d="M6657 12763 c-26 -7 -51 -61 -36 -79 9 -11 15 -12 26 -3 10 9 11 15
3 23 -17 17 -12 32 15 44 60 28 125 3 125 -47 0 -33 -17 -50 -87 -85 -29 -14
-59 -36 -68 -49 -20 -32 -30 -83 -16 -91 7 -4 11 1 11 13 0 26 20 27 62 1 43
-26 104 -27 118 -1 5 11 10 30 10 43 l0 23 -13 -25 c-9 -18 -22 -26 -45 -28
-43 -4 -123 28 -120 48 2 8 35 31 74 50 40 19 79 41 88 49 16 14 22 67 8 87
-19 29 -95 43 -155 27z"/>
<path d="M6949 12763 c-33 -8 -54 -64 -54 -143 0 -118 39 -163 129 -146 49 9
70 54 70 146 0 124 -46 170 -145 143z m85 -26 c62 -62 33 -257 -39 -257 -29 0
-63 45 -70 94 -10 67 2 134 30 162 30 30 50 30 79 1z"/>
<path d="M10219 12764 c-52 -16 -75 -183 -34 -251 33 -56 126 -58 159 -3 35
60 31 183 -9 234 -14 18 -82 30 -116 20z m86 -28 c62 -63 33 -256 -40 -256
-29 0 -62 44 -69 93 -10 67 2 136 30 164 29 29 49 29 79 -1z"/>
<path d="M11695 12748 c-32 -144 -32 -146 6 -114 44 37 90 35 123 -5 36 -42
34 -82 -4 -121 -27 -26 -36 -30 -68 -24 -40 6 -71 35 -51 47 7 4 9 15 5 24 -5
14 -9 15 -21 5 -22 -18 -18 -37 11 -67 23 -23 32 -25 80 -21 64 6 92 27 100
79 15 93 -73 153 -169 114 -12 -5 -16 -3 -13 6 2 8 7 26 10 40 5 24 11 27 68
33 94 9 97 26 5 26 -71 0 -77 -2 -82 -22z"/>
<path d="M13380 12763 c-44 -18 -68 -99 -55 -191 9 -67 32 -93 86 -99 35 -4
50 0 71 16 59 47 59 215 1 261 -25 19 -71 25 -103 13z m79 -20 c28 -23 44 -93
35 -160 -11 -88 -62 -126 -108 -80 -46 46 -47 187 -1 233 29 29 45 30 74 7z"/>
<path d="M14855 12758 c-7 -23 -25 -119 -25 -134 0 -12 8 -9 31 10 42 36 82
34 121 -4 26 -27 30 -36 25 -67 -9 -51 -38 -78 -87 -78 -44 0 -86 29 -62 44 7
4 10 15 6 25 -5 13 -9 14 -20 5 -20 -17 -17 -37 11 -64 18 -19 35 -25 67 -25
62 0 91 18 108 67 13 38 12 46 -3 78 -24 50 -74 73 -130 58 -23 -6 -43 -11
-44 -10 -1 1 2 18 6 37 7 34 8 35 73 45 93 14 95 25 4 25 -52 0 -78 -4 -81
-12z"/>
<path d="M16102 12760 c-29 -12 -47 -57 -31 -76 9 -11 15 -12 26 -3 10 9 11
15 3 23 -18 18 -11 33 21 46 46 19 101 3 113 -33 14 -39 1 -55 -75 -97 -46
-25 -69 -45 -81 -70 -20 -39 -23 -70 -8 -70 6 0 10 7 10 15 0 20 13 19 60 -5
76 -39 130 -21 130 42 l0 23 -13 -25 c-11 -21 -19 -25 -57 -24 -25 1 -61 8
-82 15 -30 12 -35 18 -26 33 5 9 43 32 83 51 75 34 95 55 95 99 0 53 -95 85
-168 56z"/>
<path d="M16400 12763 c-44 -18 -68 -99 -55 -191 9 -67 32 -93 86 -99 35 -4
50 0 71 16 59 47 59 215 1 261 -25 19 -71 25 -103 13z m79 -20 c28 -23 44 -93
35 -160 -11 -88 -62 -126 -108 -80 -46 46 -47 187 -1 233 29 29 45 30 74 7z"/>
<path d="M4112 12080 c-113 -201 -136 -252 -106 -232 6 4 68 107 137 230 93
164 121 222 109 222 -12 0 -56 -70 -140 -220z"/>
<path d="M13559 12078 c-69 -123 -124 -226 -122 -230 2 -4 9 -5 16 -2 11 4
257 433 257 448 0 3 -6 6 -13 6 -7 0 -69 -100 -138 -222z"/>
<path d="M4365 12240 c-3 -5 1 -10 9 -10 21 0 21 -4 -15 -133 -24 -85 -38
-117 -58 -134 l-26 -23 110 0 110 0 16 45 c19 52 7 70 -16 26 -19 -37 -43 -51
-89 -51 -44 0 -44 1 -2 145 24 85 37 112 54 121 12 6 19 14 15 17 -10 11 -101
8 -108 -3z"/>
<path d="M13815 12240 c-3 -5 1 -10 9 -10 21 0 20 -8 -18 -140 -25 -90 -37
-117 -54 -125 -42 -19 -21 -25 83 -25 l105 0 15 37 c21 50 15 78 -8 36 -21
-39 -44 -53 -91 -53 -45 0 -45 3 -3 145 25 85 37 112 55 121 12 6 19 14 15 17
-10 11 -101 8 -108 -3z"/>
<path d="M3578 12133 c-17 -19 -33 -63 -24 -63 3 0 15 9 26 20 15 15 33 20 70
20 28 0 50 -2 50 -4 0 -3 -28 -26 -62 -52 -66 -49 -98 -80 -98 -95 0 -5 8 -4
18 2 14 9 25 8 50 -5 58 -30 99 -15 116 42 9 27 2 28 -24 2 -15 -15 -33 -20
-72 -19 l-53 0 40 32 c77 62 130 116 122 123 -5 5 -12 3 -16 -5 -7 -10 -15 -9
-46 3 -49 21 -78 20 -97 -1z"/>
<path d="M13021 12124 c-19 -25 -28 -54 -16 -54 3 0 14 9 25 20 15 15 33 20
70 20 28 0 50 -2 50 -5 0 -3 -32 -28 -70 -56 -63 -45 -90 -74 -90 -95 0 -3 6
-1 14 5 11 9 23 8 54 -4 55 -22 82 -16 105 23 23 40 17 52 -12 23 -15 -15 -34
-21 -64 -21 -24 0 -47 3 -50 6 -4 4 22 28 56 54 72 55 103 87 93 97 -4 4 -11
1 -16 -7 -8 -12 -14 -12 -45 3 -51 24 -80 21 -104 -9z"/>
<path d="M3185 12060 c-4 -6 38 -10 119 -10 77 0 126 4 126 10 0 6 -46 10
-119 10 -69 0 -122 -4 -126 -10z"/>
<path d="M12635 12060 c-4 -6 38 -10 119 -10 77 0 126 4 126 10 0 6 -46 10
-119 10 -69 0 -122 -4 -126 -10z"/>
<path d="M3824 12002 c3 -9 -3 -49 -14 -87 -11 -39 -20 -76 -20 -82 0 -23 20
-14 31 15 34 85 39 92 64 92 22 0 24 -2 15 -26 -14 -37 -12 -70 5 -84 13 -10
19 -10 35 5 11 10 20 23 20 28 0 6 -8 3 -18 -6 -26 -23 -31 -14 -19 32 14 50
-3 75 -45 67 -26 -5 -27 -4 -18 20 15 38 12 44 -16 44 -20 0 -24 -4 -20 -18z"/>
<path d="M13274 12003 c3 -10 -3 -47 -14 -83 -11 -36 -20 -73 -20 -83 0 -34
21 -12 43 43 16 41 28 56 44 58 21 3 22 0 16 -45 -4 -38 -2 -52 11 -62 14 -12
19 -11 36 4 11 10 20 23 20 28 0 6 -9 2 -20 -8 -27 -24 -31 -18 -17 32 14 52
-2 78 -44 69 -27 -5 -27 -4 -18 27 5 17 9 33 9 34 0 2 -12 3 -26 3 -20 0 -24
-4 -20 -17z"/>
<path d="M3755 11047 c19 -14 18 -18 -25 -172 -41 -148 -46 -157 -74 -170 -30
-13 -27 -13 44 -14 67 0 73 1 56 14 -19 14 -19 16 0 82 l20 68 88 6 c80 6 90
9 118 36 36 37 49 106 25 138 -14 18 -29 20 -144 23 -114 3 -126 2 -108 -11z
m200 -14 c26 -26 15 -101 -20 -130 -21 -19 -38 -23 -89 -23 l-63 0 19 73 c11
39 27 78 36 85 23 18 97 15 117 -5z"/>
<path d="M13518 11050 c12 -5 22 -14 22 -20 0 -14 -38 -152 -44 -157 -2 -2 -7
9 -11 26 -8 36 -35 47 -93 38 -62 -10 -111 -92 -97 -164 15 -82 99 -111 156
-54 l29 29 12 -26 c19 -39 68 -42 97 -6 11 15 21 34 21 42 0 8 -10 0 -23 -19
-26 -39 -62 -50 -71 -21 -5 14 34 171 80 325 5 15 -2 17 -48 16 -42 0 -48 -2
-30 -9z m-58 -140 c44 -44 7 -184 -53 -204 -36 -13 -57 7 -64 63 -10 71 38
161 84 161 7 0 22 -9 33 -20z"/>
<path d="M4065 10909 c-14 -17 -23 -34 -20 -37 3 -4 17 8 31 26 14 18 34 32
45 32 27 0 25 -43 -5 -153 l-24 -88 25 3 c23 3 29 11 43 63 23 81 43 117 82
150 l33 28 3 -26 c3 -21 9 -27 28 -27 22 0 25 4 22 28 -2 23 -8 28 -36 30 -39
4 -78 -18 -94 -54 -11 -24 -11 -24 -29 16 -15 34 -23 40 -48 40 -20 0 -37 -9
-56 -31z"/>
<path d="M827 10523 c-4 -3 -7 -2103 -7 -4665 l0 -4658 3030 0 3030 0 0 4665
0 4665 -3023 0 c-1663 0 -3027 -3 -3030 -7z m293 -53 c0 -22 5 -40 10 -40 6 0
10 18 10 40 l0 40 145 0 145 0 2 -42 1 -43 4 43 4 42 145 0 144 0 2 -42 1 -43
4 43 4 42 145 0 144 0 0 -40 c0 -22 5 -40 10 -40 6 0 10 18 10 40 l0 40 140 0
140 0 0 -84 c0 -47 5 -88 10 -91 6 -4 10 27 10 84 l0 91 140 0 140 0 0 -40 c0
-22 5 -40 10 -40 6 0 10 18 10 40 l0 40 145 0 145 0 2 -42 1 -43 4 43 4 42
145 0 144 0 0 -40 c0 -22 5 -40 10 -40 6 0 10 18 10 40 l0 40 140 0 140 0 0
-40 c0 -22 5 -40 10 -40 6 0 10 18 10 40 l0 40 140 0 140 0 0 -90 c0 -53 4
-90 10 -90 6 0 10 37 10 90 l0 90 140 0 140 0 0 -40 c0 -22 5 -40 10 -40 6 0
10 18 10 40 l0 40 145 0 145 0 2 -42 1 -43 4 43 4 42 145 0 144 0 2 -42 1 -43
4 43 4 42 145 0 144 0 0 -40 c0 -22 5 -40 10 -40 6 0 10 18 10 40 l0 40 140 0
140 0 0 -84 c0 -47 4 -88 10 -91 6 -4 10 27 10 84 l0 91 140 0 140 0 0 -40 c0
-22 5 -40 10 -40 6 0 10 18 10 40 l0 40 145 0 145 0 2 -42 1 -43 4 43 4 42
145 0 144 0 0 -40 c0 -22 5 -40 10 -40 6 0 10 18 10 40 l0 40 140 0 140 0 0
-40 c0 -22 5 -40 10 -40 6 0 10 18 10 40 l0 40 140 0 140 0 0 -185 0 -185 -25
0 c-14 0 -25 -4 -25 -10 0 -5 11 -10 25 -10 l25 0 0 -185 0 -185 -27 -1 -28
-2 28 -4 27 -4 0 -190 0 -189 -27 -1 -28 -2 28 -4 27 -4 0 -185 0 -184 -55 0
c-30 0 -55 -4 -55 -10 0 -5 25 -10 55 -10 l55 0 0 -185 0 -185 -25 0 c-14 0
-25 -4 -25 -10 0 -5 11 -10 25 -10 l25 0 0 -175 c0 -173 0 -175 -22 -175 -27
0 -441 50 -753 91 -2194 287 -3505 650 -4290 1187 -258 176 -457 364 -682 642
-66 82 -156 170 -173 170 -39 0 -80 -76 -80 -147 0 -13 -4 -23 -10 -23 -6 0
-10 68 -10 185 l0 185 140 0 140 0 0 -40z m-129 -217 c23 -21 77 -81 119 -134
201 -247 379 -419 603 -583 802 -584 2195 -969 4598 -1270 196 -25 390 -48
432 -52 58 -5 74 -10 70 -20 -4 -10 3 -14 21 -14 l26 0 0 -185 0 -185 -25 0
c-14 0 -25 -4 -25 -10 0 -5 11 -10 25 -10 l25 0 0 -185 0 -185 -57 -2 -58 -2
58 -3 57 -4 0 -184 0 -185 -25 0 c-14 0 -25 -4 -25 -10 0 -5 11 -10 25 -10
l25 0 0 -185 0 -185 -25 0 c-14 0 -25 -4 -25 -10 0 -5 11 -10 25 -10 l25 0 0
-185 0 -185 -25 0 c-14 0 -25 -4 -25 -10 0 -5 11 -10 25 -10 l25 0 0 -110 c0
-91 -3 -110 -15 -110 -8 0 -15 -4 -15 -10 0 -5 7 -10 15 -10 12 0 15 -14 15
-65 l0 -65 -55 0 c-30 0 -55 -4 -55 -10 0 -5 25 -10 55 -10 l55 0 0 -185 0
-185 -27 -1 -28 -2 28 -4 27 -4 0 -185 0 -184 -25 0 c-14 0 -25 -4 -25 -10 0
-5 11 -10 25 -10 l25 0 0 -185 0 -185 -25 0 c-14 0 -25 -4 -25 -10 0 -5 11
-10 25 -10 l25 0 0 -145 0 -145 -27 -1 -28 -2 28 -4 c23 -4 27 -9 27 -39 l0
-34 -55 0 c-30 0 -55 -4 -55 -10 0 -5 25 -10 55 -10 l55 0 0 -185 0 -185 -25
0 c-14 0 -25 -4 -25 -10 0 -5 11 -10 25 -10 l25 0 0 -185 0 -185 -27 -1 -28
-2 28 -4 27 -4 0 -190 0 -189 -27 -1 -28 -2 28 -4 27 -4 0 -185 0 -184 -55 0
c-30 0 -55 -4 -55 -10 0 -5 25 -10 55 -10 l55 0 0 -185 0 -185 -25 0 c-14 0
-25 -4 -25 -10 0 -5 11 -10 25 -10 l25 0 0 -185 0 -185 -25 0 c-14 0 -25 -4
-25 -10 0 -5 11 -10 25 -10 l25 0 0 -185 0 -185 -25 0 c-14 0 -25 -4 -25 -10
0 -5 11 -10 25 -10 l25 0 0 -185 0 -185 -140 0 -140 0 0 45 c0 25 -4 45 -10
45 -5 0 -10 -20 -10 -45 l0 -45 -140 0 -140 0 0 45 c0 25 -4 45 -10 45 -5 0
-10 -20 -10 -45 l0 -45 -145 0 -145 0 -2 48 -2 47 -3 -47 -4 -48 -145 0 -144
0 0 45 c0 25 -4 45 -10 45 -5 0 -10 -20 -10 -45 l0 -45 -140 0 -140 0 0 90 c0
53 -4 90 -10 90 -6 0 -10 -37 -10 -90 l0 -90 -140 0 -140 0 0 45 c0 25 -4 45
-10 45 -5 0 -10 -20 -10 -45 l0 -45 -145 0 -145 0 -2 48 -2 47 -3 -47 -4 -48
-145 0 -144 0 -2 48 -2 47 -3 -47 -4 -48 -145 0 -144 0 0 45 c0 25 -4 45 -10
45 -5 0 -10 -20 -10 -45 l0 -45 -140 0 -140 0 0 90 c0 53 -4 90 -10 90 -6 0
-10 -37 -10 -90 l0 -90 -140 0 -140 0 0 45 c0 25 -4 45 -10 45 -5 0 -10 -20
-10 -45 l0 -45 -140 0 -140 0 0 45 c0 25 -4 45 -10 45 -5 0 -10 -20 -10 -45
l0 -45 -145 0 -145 0 -2 48 -2 47 -3 -48 -4 -47 -145 0 -144 0 0 45 c0 25 -4
45 -10 45 -5 0 -10 -20 -10 -45 l0 -45 -140 0 -140 0 0 90 c0 53 -4 90 -10 90
-6 0 -10 -37 -10 -90 l0 -90 -140 0 -140 0 0 45 c0 25 -4 45 -10 45 -5 0 -10
-20 -10 -45 l0 -45 -145 0 -145 0 -2 48 -2 47 -3 -47 -4 -48 -145 0 -144 0 -2
48 -2 47 -3 -48 -4 -47 -145 0 -144 0 0 45 c0 25 -4 45 -10 45 -5 0 -10 -20
-10 -45 l0 -45 -140 0 -140 0 0 185 0 185 25 0 c14 0 25 5 25 10 0 6 -11 10
-25 10 l-25 0 0 185 0 185 25 0 c14 0 25 5 25 10 0 6 -11 10 -25 10 l-25 0 0
185 0 185 25 0 c14 0 25 5 25 10 0 6 -11 10 -25 10 l-25 0 0 185 0 185 55 0
c30 0 55 5 55 10 0 6 -25 10 -55 10 l-55 0 0 185 0 185 28 1 27 2 -27 4 -28 4
0 190 0 189 28 1 27 2 -27 4 -28 4 0 185 0 184 25 0 c14 0 25 5 25 10 0 6 -11
10 -25 10 l-25 0 0 185 0 185 55 0 c30 0 55 5 55 10 0 6 -25 10 -55 10 l-55 0
0 185 0 185 25 0 c14 0 25 5 25 10 0 6 -11 10 -25 10 l-25 0 0 185 0 185 25 0
c14 0 25 5 25 10 0 6 -11 10 -25 10 l-25 0 0 185 0 185 28 1 27 2 -27 4 -28 4
0 185 0 184 55 0 c30 0 55 5 55 10 0 6 -25 10 -55 10 l-55 0 0 185 0 185 25 0
c14 0 25 5 25 10 0 6 -11 10 -25 10 l-25 0 0 185 0 185 25 0 c14 0 25 5 25 10
0 6 -11 10 -25 10 l-25 0 0 168 c0 107 4 162 10 152 14 -22 23 -5 10 20 -9 18
6 12 83 -29 51 -28 97 -51 101 -51 21 0 -15 25 -92 65 -48 24 -81 44 -74 44
24 1 12 21 -13 21 l-25 0 0 185 0 185 58 2 57 2 -57 3 -58 4 0 184 0 185 25 0
c14 0 25 5 25 10 0 6 -11 10 -25 10 l-25 0 0 185 0 185 25 0 c14 0 25 5 25 10
0 6 -11 10 -25 10 l-25 0 0 185 0 185 25 0 c14 0 25 5 25 10 0 6 -11 10 -25
10 l-25 0 0 185 0 185 55 0 c30 0 55 5 55 10 0 6 -25 10 -55 10 l-55 0 0 185
0 185 28 1 27 2 -27 4 -28 4 0 190 0 189 28 1 27 2 -29 4 -29 5 7 101 c15 213
21 258 36 267 12 8 12 12 2 18 -15 10 0 93 24 130 20 31 38 28 85 -15z m-144
-180 c-3 -10 -5 -2 -5 17 0 19 2 27 5 18 2 -10 2 -26 0 -35z"/>
<path d="M922 6835 c6 -13 15 -22 19 -19 9 5 -11 44 -23 44 -4 0 -3 -11 4 -25z"/>
<path d="M1262 6799 c2 -6 50 -33 107 -60 56 -26 101 -44 99 -39 -2 5 -50 32
-106 60 -57 28 -102 45 -100 39z"/>
<path d="M1000 6689 c7 -11 14 -19 16 -16 7 7 -7 37 -17 37 -6 0 -5 -9 1 -21z"/>
<path d="M1696 6601 c13 -12 207 -81 213 -76 7 7 3 9 -105 48 -104 38 -125 44
-108 28z"/>
<path d="M1082 6545 c6 -13 15 -22 19 -19 9 5 -11 44 -23 44 -4 0 -3 -11 4
-25z"/>
<path d="M2132 6455 c5 -5 223 -65 236 -65 3 0 2 4 -3 9 -6 5 -54 21 -108 35
-96 25 -136 32 -125 21z"/>
<path d="M1160 6419 c0 -9 7 -22 15 -29 19 -16 19 0 0 26 -12 16 -14 16 -15 3z"/>
<path d="M2592 6345 c6 -6 195 -45 221 -45 39 0 10 10 -87 30 -96 19 -144 25
-134 15z"/>
<path d="M1250 6279 c0 -9 7 -22 15 -29 19 -16 19 0 0 26 -12 16 -14 16 -15 3z"/>
<path d="M3065 6263 c6 -6 53 -16 105 -23 52 -6 100 -13 107 -15 7 -2 15 0 18
4 2 5 -32 14 -78 20 -45 7 -100 15 -122 18 -26 4 -37 2 -30 -4z"/>
<path d="M3530 6203 c0 -6 27 -13 60 -17 33 -3 88 -9 121 -12 41 -5 60 -3 56
3 -4 6 -41 13 -84 17 -43 4 -95 10 -115 13 -23 3 -38 1 -38 -4z"/>
<path d="M4005 6151 c6 -5 62 -12 125 -15 138 -7 109 8 -35 18 -63 4 -96 3
-90 -3z"/>
<path d="M1340 6142 c0 -10 22 -32 32 -32 5 0 3 9 -4 20 -13 20 -28 27 -28 12z"/>
<path d="M4485 6111 c28 -11 215 -21 215 -12 0 9 -125 21 -194 20 -31 0 -36
-2 -21 -8z"/>
<path d="M4965 6080 c17 -4 73 -8 125 -7 82 0 88 1 45 7 -67 11 -211 11 -170
0z"/>
<path d="M5410 6062 c0 -9 231 -24 239 -16 9 9 -9 12 -121 18 -69 4 -118 3
-118 -2z"/>
<path d="M5885 6042 c12 -12 235 -22 235 -10 0 4 -20 8 -43 8 -24 0 -80 3
-123 6 -54 5 -76 3 -69 -4z"/>
<path d="M6370 6020 c38 -12 222 -12 215 0 -4 6 -55 10 -123 9 -74 -1 -108 -4
-92 -9z"/>
<path d="M1440 6013 c0 -13 29 -38 35 -31 3 3 -4 13 -15 23 -11 10 -20 13 -20
8z"/>
<path d="M1555 5870 c10 -11 20 -18 23 -15 7 6 -18 35 -31 35 -5 0 -2 -9 8
-20z"/>
<path d="M1665 5750 c10 -11 23 -20 28 -20 6 0 2 9 -8 20 -10 11 -23 20 -28
20 -6 0 -2 -9 8 -20z"/>
<path d="M1785 5630 c10 -11 20 -18 23 -15 7 6 -18 35 -31 35 -5 0 -2 -9 8
-20z"/>
<path d="M1904 5525 c26 -19 42 -19 26 0 -7 8 -20 15 -29 15 -13 -1 -13 -3 3
-15z"/>
<path d="M2030 5431 c0 -5 7 -12 16 -15 24 -9 28 -7 14 9 -14 17 -30 20 -30 6z"/>
<path d="M2160 5342 c0 -4 9 -13 20 -20 22 -13 27 -3 8 16 -14 14 -28 16 -28
4z"/>
<path d="M2310 5245 c7 -8 20 -15 29 -15 13 1 13 3 -3 15 -26 19 -42 19 -26 0z"/>
<path d="M2450 5171 c0 -11 31 -24 39 -16 3 3 -1 10 -9 15 -19 12 -30 12 -30
1z"/>
<path d="M2600 5100 c0 -12 28 -25 36 -17 3 3 -4 10 -15 17 -15 7 -21 7 -21 0z"/>
<path d="M2750 5031 c0 -5 9 -11 20 -14 24 -6 27 8 4 17 -21 8 -24 8 -24 -3z"/>
<path d="M2914 4965 c22 -17 36 -19 36 -6 0 10 -24 21 -43 21 -7 0 -3 -7 7
-15z"/>
<path d="M3060 4920 c0 -7 24 -20 36 -20 13 0 1 19 -16 23 -11 3 -20 2 -20 -3z"/>
<path d="M3214 4869 c-3 -5 -1 -9 5 -9 5 0 16 -3 25 -6 9 -3 16 -2 16 4 0 13
-38 23 -46 11z"/>
<path d="M3375 4820 c3 -5 15 -10 26 -10 11 0 17 5 14 10 -3 6 -15 10 -26 10
-11 0 -17 -4 -14 -10z"/>
<path d="M3535 4780 c3 -5 16 -10 28 -10 18 0 19 2 7 10 -20 13 -43 13 -35 0z"/>
<path d="M3700 4740 c20 -13 40 -13 40 0 0 6 -12 10 -27 10 -22 0 -25 -2 -13
-10z"/>
<path d="M3860 4710 c0 -5 12 -10 28 -9 24 0 25 1 7 9 -27 12 -35 12 -35 0z"/>
<path d="M4020 4680 c0 -5 12 -10 28 -9 24 0 25 1 7 9 -27 12 -35 12 -35 0z"/>
<path d="M4180 4650 c0 -5 12 -10 26 -10 14 0 23 4 19 10 -3 6 -15 10 -26 10
-10 0 -19 -4 -19 -10z"/>
<path d="M4355 4620 c27 -12 35 -12 35 0 0 6 -12 10 -27 9 -25 0 -26 -1 -8 -9z"/>
<path d="M4510 4600 c0 -5 12 -10 28 -10 21 0 24 2 12 10 -20 13 -40 13 -40 0z"/>
<path d="M4670 4580 c0 -5 12 -10 28 -9 24 0 25 1 7 9 -27 12 -35 12 -35 0z"/>
<path d="M4834 4559 c-3 -5 6 -9 20 -9 31 0 34 6 6 13 -11 3 -23 1 -26 -4z"/>
<path d="M5000 4540 c0 -5 12 -10 28 -10 21 0 24 2 12 10 -20 13 -40 13 -40 0z"/>
<path d="M5165 4520 c3 -5 15 -10 26 -10 10 0 19 5 19 10 0 6 -12 10 -26 10
-14 0 -23 -4 -19 -10z"/>
<path d="M5340 4500 c20 -13 40 -13 40 0 0 6 -12 10 -27 10 -22 0 -25 -2 -13
-10z"/>
<path d="M5495 4490 c-4 -6 5 -10 20 -10 15 0 24 4 20 10 -3 6 -12 10 -20 10
-8 0 -17 -4 -20 -10z"/>
<path d="M5673 4469 c14 -8 22 -8 30 0 8 8 3 11 -18 11 -26 -1 -28 -2 -12 -11z"/>
<path d="M5820 4460 c0 -5 11 -10 25 -10 14 0 25 5 25 10 0 6 -11 10 -25 10
-14 0 -25 -4 -25 -10z"/>
<path d="M5990 4450 c0 -5 12 -10 28 -10 21 0 24 2 12 10 -20 13 -40 13 -40 0z"/>
<path d="M6163 4433 c9 -2 23 -2 30 0 6 3 -1 5 -18 5 -16 0 -22 -2 -12 -5z"/>
<path d="M6310 4426 c0 -8 51 -13 56 -5 3 5 -9 9 -25 9 -17 0 -31 -2 -31 -4z"/>
<path d="M6495 4410 c27 -12 35 -12 35 0 0 6 -12 10 -27 9 -25 0 -26 -1 -8 -9z"/>
<path d="M6659 4399 c16 -6 28 -6 35 1 7 7 -1 10 -24 9 -33 0 -34 -1 -11 -10z"/>
<path d="M10270 5865 l0 -4665 3030 0 3030 0 -2 4663 -3 4662 -3027 3 -3028 2
0 -4665z m300 4605 c0 -22 5 -40 10 -40 6 0 10 18 10 40 l0 40 140 0 140 0 0
-40 c0 -22 5 -40 10 -40 6 0 10 18 10 40 l0 40 145 0 145 0 2 -42 1 -43 4 43
4 42 145 0 144 0 0 -40 c0 -22 5 -40 10 -40 6 0 10 18 10 40 l0 40 140 0 140
0 0 -90 c0 -53 4 -90 10 -90 6 0 10 37 10 90 l0 90 140 0 140 0 0 -40 c0 -22
5 -40 10 -40 6 0 10 18 10 40 l0 40 140 0 140 0 0 -40 c0 -22 5 -40 10 -40 6
0 10 18 10 40 l0 40 145 0 145 0 2 -42 1 -43 4 43 4 42 145 0 144 0 0 -40 c0
-22 5 -40 10 -40 6 0 10 18 10 40 l0 40 140 0 140 0 0 -91 c0 -57 4 -88 10
-84 6 3 10 44 10 91 l0 84 140 0 140 0 0 -40 c0 -22 5 -40 10 -40 6 0 10 18
10 40 l0 40 140 0 140 0 0 -40 c0 -22 5 -40 10 -40 6 0 10 18 10 40 l0 40 145
0 145 0 2 -42 1 -43 4 43 4 42 145 0 144 0 0 -40 c0 -22 5 -40 10 -40 6 0 10
18 10 40 l0 40 140 0 140 0 0 -90 c0 -53 4 -90 10 -90 6 0 10 37 10 90 l0 90
140 0 140 0 0 -40 c0 -22 5 -40 10 -40 6 0 10 18 10 40 l0 40 140 0 140 0 0
-40 c0 -22 5 -40 10 -40 6 0 10 18 10 40 l0 40 145 0 145 0 2 -42 1 -43 4 43
4 42 145 0 144 0 0 -40 c0 -22 5 -40 10 -40 6 0 10 18 10 40 l0 40 140 0 140
0 0 -200 0 -200 -25 0 c-14 0 -25 -4 -25 -10 0 -5 11 -10 25 -10 l25 0 0 -205
0 -205 -57 -2 -58 -2 58 -3 57 -4 0 -34 c0 -30 -4 -35 -22 -35 -13 0 -207 -7
-433 -15 -727 -27 -1319 -57 -1780 -90 -115 -9 -266 -20 -335 -25 -69 -5 -177
-15 -240 -23 -63 -7 -117 -10 -120 -6 -3 4 -48 4 -100 -1 -52 -5 -105 -10
-117 -10 -14 0 -23 -6 -23 -15 0 -10 -10 -15 -27 -15 -42 0 -474 -68 -608 -96
-638 -133 -1014 -299 -1299 -574 -156 -151 -254 -290 -360 -511 -91 -189 -209
-565 -252 -804 -8 -43 -20 -82 -26 -86 -6 -4 -8 -19 -6 -33 6 -30 -8 -117 -20
-125 -15 -10 -23 -44 -12 -51 6 -4 0 -77 -20 -216 -65 -463 -117 -1109 -156
-1937 -12 -249 -21 -367 -29 -367 -15 0 -19 212 -4 221 6 3 9 17 7 30 -4 23
-5 23 -12 4 -23 -60 -25 -56 -25 48 -1 89 2 107 14 107 8 0 15 -7 15 -16 0 -8
5 -12 10 -9 6 3 10 15 10 26 0 16 -5 18 -25 13 l-25 -6 0 206 0 206 25 0 c14
0 25 5 25 10 0 6 -11 10 -25 10 l-25 0 0 200 0 200 25 0 c14 0 25 5 25 10 0 6
-11 10 -25 10 l-25 0 0 205 0 205 55 0 c30 0 55 5 55 10 0 6 -25 10 -55 10
l-55 0 0 200 0 200 25 0 c14 0 25 5 25 10 0 6 -11 10 -25 10 l-25 0 0 205 0
205 28 1 27 2 -27 4 -28 4 0 205 0 204 28 1 27 2 -27 4 -28 4 0 205 0 204 55
0 c30 0 55 5 55 10 0 6 -25 10 -55 10 l-55 0 0 200 0 200 25 0 c14 0 25 5 25
10 0 6 -11 10 -25 10 l-25 0 0 205 0 205 25 0 c14 0 25 5 25 10 0 6 -11 10
-25 10 l-25 0 0 200 0 200 25 0 c14 0 25 5 25 10 0 6 -11 10 -25 10 l-25 0 0
205 0 205 58 2 57 2 -57 3 -58 4 0 204 0 205 25 0 c14 0 25 5 25 10 0 6 -11
10 -25 10 l-25 0 0 200 0 200 140 0 140 0 0 -40z m5740 -1050 l0 -160 -25 0
c-14 0 -25 -4 -25 -10 0 -5 11 -10 25 -10 l25 0 0 -200 0 -200 -25 0 c-14 0
-25 -4 -25 -10 0 -5 11 -10 25 -10 l25 0 0 -205 0 -205 -25 0 c-14 0 -25 -4
-25 -10 0 -5 11 -10 25 -10 l25 0 0 -200 0 -200 -55 0 c-30 0 -55 -4 -55 -10
0 -5 25 -10 55 -10 l55 0 0 -205 0 -205 -27 -1 -28 -2 28 -4 27 -4 0 -205 0
-204 -27 -1 -28 -2 28 -4 27 -4 0 -205 0 -204 -25 0 c-14 0 -25 -4 -25 -10 0
-5 11 -10 25 -10 l25 0 0 -200 0 -200 -55 0 c-30 0 -55 -4 -55 -10 0 -5 25
-10 55 -10 l55 0 0 -205 0 -205 -25 0 c-14 0 -25 -4 -25 -10 0 -5 11 -10 25
-10 l25 0 0 -200 0 -200 -25 0 c-14 0 -25 -4 -25 -10 0 -5 11 -10 25 -10 l25
0 0 -205 0 -205 -27 -1 -28 -2 28 -4 27 -4 0 -205 0 -204 -55 0 c-30 0 -55 -4
-55 -10 0 -5 25 -10 55 -10 l55 0 0 -200 0 -200 -25 0 c-14 0 -25 -4 -25 -10
0 -5 11 -10 25 -10 l25 0 0 -205 0 -205 -27 -1 -28 -2 28 -4 27 -4 0 -205 0
-204 -25 0 c-14 0 -25 -4 -25 -10 0 -5 11 -10 25 -10 l25 0 0 -200 0 -200 -55
0 c-30 0 -55 -4 -55 -10 0 -5 25 -10 55 -10 l55 0 0 -205 0 -205 -27 -1 -28
-2 28 -4 27 -4 0 -205 0 -204 -25 0 c-14 0 -25 -4 -25 -10 0 -5 11 -10 25 -10
l25 0 0 -200 0 -200 -25 0 c-14 0 -25 -4 -25 -10 0 -5 11 -10 25 -10 l25 0 0
-205 0 -205 -140 0 -140 0 0 45 c0 25 -4 45 -10 45 -5 0 -10 -20 -10 -45 l0
-45 -145 0 -145 0 -2 48 -2 47 -3 -47 -4 -48 -145 0 -144 0 0 45 c0 25 -4 45
-10 45 -5 0 -10 -20 -10 -45 l0 -45 -140 0 -140 0 0 45 c0 25 -4 45 -10 45 -5
0 -10 -20 -10 -45 l0 -45 -140 0 -140 0 0 90 c0 53 -4 90 -10 90 -6 0 -10 -37
-10 -90 l0 -90 -140 0 -140 0 0 45 c0 25 -4 45 -10 45 -5 0 -10 -20 -10 -45
l0 -45 -145 0 -145 0 -2 48 -2 47 -3 -47 -4 -48 -145 0 -144 0 0 45 c0 25 -4
45 -10 45 -5 0 -10 -20 -10 -45 l0 -45 -140 0 -140 0 0 45 c0 25 -4 45 -10 45
-5 0 -10 -20 -10 -45 l0 -45 -140 0 -140 0 0 90 c0 53 -4 90 -10 90 -6 0 -10
-37 -10 -90 l0 -90 -140 0 -140 0 0 45 c0 25 -4 45 -10 45 -5 0 -10 -20 -10
-45 l0 -45 -145 0 -145 0 -2 48 -2 47 -3 -48 -4 -47 -145 0 -144 0 0 45 c0 25
-4 45 -10 45 -5 0 -10 -20 -10 -45 l0 -45 -140 0 -140 0 0 45 c0 25 -4 45 -10
45 -5 0 -10 -20 -10 -45 l0 -45 -140 0 -140 0 0 90 c0 53 -4 90 -10 90 -6 0
-10 -37 -10 -90 l0 -90 -140 0 -140 0 0 45 c0 25 -4 45 -10 45 -5 0 -10 -20
-10 -45 l0 -45 -145 0 -145 0 -2 48 -2 47 -3 -47 -4 -48 -145 0 -144 0 0 45
c0 25 -4 45 -10 45 -5 0 -10 -20 -10 -45 l0 -45 -140 0 -140 0 0 45 c0 25 -4
45 -10 45 -5 0 -10 -20 -10 -45 l0 -45 -140 0 -140 0 0 205 0 205 25 0 c14 0
25 5 25 10 0 6 -11 10 -25 10 l-25 0 0 200 0 200 25 0 c14 0 25 5 25 10 0 6
-11 10 -24 10 l-25 0 2 205 2 205 25 1 c23 2 23 2 3 6 -22 4 -22 5 -19 171 3
92 7 184 11 205 7 35 9 37 46 37 22 0 39 5 39 10 0 6 -18 10 -39 10 l-39 0 -5
58 c-10 102 -6 286 5 300 12 14 13 58 3 235 -5 83 -4 117 4 117 6 0 11 14 11
30 0 17 -5 30 -11 30 -5 0 -7 5 -4 10 4 6 7 32 7 58 0 26 4 49 8 52 8 5 15
207 9 235 -1 6 -5 -12 -9 -40 -5 -30 -6 -11 -3 50 3 55 9 102 14 103 5 2 8 18
8 35 l-1 32 -9 -30 c-5 -18 -7 27 -4 115 3 80 5 175 5 213 0 65 1 67 25 67 14
0 25 5 25 10 0 6 -10 10 -23 10 -22 0 -23 3 -21 53 2 28 8 162 14 297 44 1006
115 1774 216 2335 32 176 103 468 115 476 6 3 12 26 14 51 9 90 120 369 216
538 84 148 146 228 274 356 365 364 925 558 1985 688 303 38 732 76 920 82 91
3 180 10 199 16 19 6 123 10 240 10 155 -1 217 3 249 13 45 16 228 21 234 8 2
-5 54 -6 116 -5 86 3 112 7 109 16 -4 10 81 15 381 25 213 7 396 14 407 15 11
2 75 4 143 5 l122 1 0 -160z m-1173 113 c-20 -2 -52 -2 -70 0 -17 2 0 4 38 4
39 0 53 -2 32 -4z m-1924 -120 c-7 -2 -21 -2 -30 0 -10 3 -4 5 12 5 17 0 24
-2 18 -5z m-2880 -4960 c-2 -71 -6 -162 -9 -203 -5 -63 -8 -71 -16 -50 -6 14
-7 59 -4 100 4 50 3 70 -4 60 -7 -10 -10 23 -10 103 0 115 0 117 23 117 23 0
23 0 20 -127z m-13 -361 c0 -119 -13 -342 -20 -342 -3 0 -7 54 -7 120 -1 68 2
120 8 120 13 0 11 48 -2 52 -14 5 -3 118 12 118 5 0 9 -31 9 -68z m-15 -554
c-4 -112 -9 -205 -12 -208 -2 -3 -3 89 -2 203 2 115 7 207 12 207 5 0 6 -83 2
-202z m-8 -370 c-2 -29 -3 -8 -3 47 0 55 1 79 3 53 2 -26 2 -71 0 -100z"/>
<path d="M12786 9394 c-127 -15 -157 -30 -41 -20 119 10 165 17 165 27 0 5 -3
8 -7 8 -5 -1 -57 -7 -117 -15z"/>
<path d="M12311 9329 c-101 -17 -137 -29 -92 -29 44 0 221 33 221 42 0 10 -2
10 -129 -13z"/>
<path d="M11850 9233 c-97 -26 -107 -30 -99 -37 6 -6 217 48 226 57 12 13 -31
6 -127 -20z"/>
<path d="M11403 9075 c-51 -24 -93 -48 -93 -54 0 -5 48 13 108 41 122 58 122
58 96 58 -10 -1 -61 -21 -111 -45z"/>
<path d="M11016 8811 c-44 -44 -78 -82 -76 -84 3 -3 45 33 93 79 48 46 83 84
76 84 -6 0 -48 -36 -93 -79z"/>
<path d="M10739 8435 c-29 -57 -50 -107 -47 -111 5 -5 82 133 116 209 2 4 -1
7 -6 7 -5 0 -34 -47 -63 -105z"/>
<path d="M10607 8103 c-12 -19 -58 -205 -55 -221 2 -9 18 36 36 102 29 104 35
146 19 119z"/>
<path d="M10496 7639 c-8 -23 -36 -192 -35 -214 l0 -20 9 20 c12 27 42 216 36
223 -3 3 -8 -1 -10 -9z"/>
<path d="M10427 7173 c-2 -4 -8 -39 -11 -78 -4 -38 -9 -90 -13 -115 -3 -31 -2
-42 5 -35 6 6 15 59 22 119 10 100 10 130 -3 109z"/>
<path d="M10498 6990 c-7 -24 -3 -38 8 -28 3 4 4 17 2 30 l-3 23 -7 -25z"/>
<path d="M10470 6813 c0 -22 2 -25 10 -13 13 20 13 40 0 40 -5 0 -10 -12 -10
-27z"/>
<path d="M10376 6658 c-15 -146 -16 -188 -6 -188 5 0 10 17 11 38 0 20 4 74 7
120 8 89 -3 116 -12 30z"/>
<path d="M10448 6660 c-7 -24 -3 -38 8 -28 3 4 4 17 2 30 l-3 23 -7 -25z"/>
<path d="M10428 6495 c-3 -14 -1 -25 3 -25 5 0 9 11 9 25 0 14 -2 25 -4 25 -2
0 -6 -11 -8 -25z"/>
<path d="M10411 6323 c0 -25 1 -26 9 -8 12 27 12 35 0 35 -5 0 -10 -12 -9 -27z"/>
<path d="M10347 6210 c-9 -49 -13 -210 -5 -210 8 0 21 175 16 215 l-4 30 -7
-35z"/>
<path d="M10397 6183 c-11 -10 -8 -43 3 -43 6 0 10 11 10 25 0 26 -2 29 -13
18z"/>
<path d="M10380 5995 c0 -14 2 -25 4 -25 2 0 6 11 8 25 3 14 1 25 -3 25 -5 0
-9 -11 -9 -25z"/>
<path d="M10368 5840 c-7 -24 -3 -38 8 -28 3 4 4 17 2 30 l-3 23 -7 -25z"/>
<path d="M10328 5764 c-5 -4 -7 -59 -7 -123 l2 -116 9 75 c9 83 7 176 -4 164z"/>
<path d="M10357 5683 c-11 -10 -8 -43 3 -43 6 0 10 11 10 25 0 26 -2 29 -13
18z"/>
<path d="M10347 5523 c-11 -10 -8 -43 3 -43 6 0 10 11 10 25 0 26 -2 29 -13
18z"/>
<path d="M10333 5344 c-3 -8 -1 -20 6 -27 8 -8 11 -4 11 16 0 30 -7 35 -17 11z"/>
<path d="M10306 5223 c-9 -108 -8 -163 4 -163 6 0 10 47 10 120 0 66 -2 120
-4 120 -1 0 -6 -34 -10 -77z"/>
<path d="M10332 5175 c0 -16 2 -22 5 -12 2 9 2 23 0 30 -3 6 -5 -1 -5 -18z"/>
<path d="M15970 9550 c0 -12 183 -12 220 0 16 5 -21 8 -97 9 -76 1 -123 -3
-123 -9z"/>
<path d="M15505 9540 c-4 -6 35 -10 109 -10 66 0 117 4 121 10 4 6 -35 10
-109 10 -66 0 -117 -4 -121 -10z"/>
<path d="M16205 9460 c-3 -5 1 -10 10 -10 9 0 13 -4 10 -10 -4 -6 8 -10 30
-10 22 0 34 4 30 10 -3 6 -13 10 -21 10 -8 0 -14 5 -14 10 0 6 -9 10 -19 10
-11 0 -23 -4 -26 -10z"/>
<path d="M16038 9448 c-3 -8 -33 -14 -86 -16 -47 -3 -82 -8 -82 -14 0 -7 19
-9 53 -4 28 3 82 6 120 6 38 0 67 4 67 10 0 6 -7 10 -16 10 -8 0 -12 5 -9 10
3 6 -5 10 -19 10 -13 0 -26 -6 -28 -12z"/>
<path d="M15705 9440 c-4 -6 5 -10 19 -10 14 0 26 5 26 10 0 6 -9 10 -19 10
-11 0 -23 -4 -26 -10z"/>
<path d="M15883 9443 c9 -2 23 -2 30 0 6 3 -1 5 -18 5 -16 0 -22 -2 -12 -5z"/>
<path d="M15540 9430 c0 -5 11 -10 25 -10 14 0 25 5 25 10 0 6 -11 10 -25 10
-14 0 -25 -4 -25 -10z"/>
<path d="M15383 9423 c9 -2 25 -2 35 0 9 3 1 5 -18 5 -19 0 -27 -2 -17 -5z"/>
<path d="M15045 9410 c-4 -6 5 -10 19 -10 14 0 26 5 26 10 0 6 -9 10 -19 10
-11 0 -23 -4 -26 -10z"/>
<path d="M15223 9413 c9 -2 23 -2 30 0 6 3 -1 5 -18 5 -16 0 -22 -2 -12 -5z"/>
<path d="M15700 9410 c0 -13 30 -13 50 0 11 7 7 10 -17 10 -18 0 -33 -4 -33
-10z"/>
<path d="M14880 9400 c0 -5 11 -10 25 -10 14 0 25 5 25 10 0 6 -11 10 -25 10
-14 0 -25 -4 -25 -10z"/>
<path d="M15375 9400 c-22 -4 -35 -8 -30 -10 23 -5 187 2 212 10 35 10 -123
11 -182 0z"/>
<path d="M14715 9390 c-4 -6 5 -10 19 -10 14 0 26 5 26 10 0 6 -9 10 -19 10
-11 0 -23 -4 -26 -10z"/>
<path d="M14550 9380 c0 -5 11 -10 25 -10 14 0 25 5 25 10 0 6 -11 10 -25 10
-14 0 -25 -4 -25 -10z"/>
<path d="M15166 9380 c6 -6 21 -6 39 -1 30 9 30 9 -9 10 -26 1 -37 -2 -30 -9z"/>
<path d="M14390 9370 c-12 -8 -9 -10 13 -10 15 0 27 5 27 10 0 13 -20 13 -40
0z"/>
<path d="M14885 9373 c-33 -2 -64 -8 -70 -14 -12 -12 216 0 230 12 9 9 -35 9
-160 2z"/>
<path d="M14240 9360 l-25 -8 28 -1 c15 -1 27 4 27 9 0 6 -1 10 -2 9 -2 -1
-14 -5 -28 -9z"/>
<path d="M14645 9350 c-16 -7 -13 -9 18 -9 20 -1 37 4 37 9 0 12 -27 12 -55 0z"/>
<path d="M14056 9340 c7 -7 19 -7 35 -1 23 9 22 10 -10 10 -24 1 -32 -2 -25
-9z"/>
<path d="M13890 9330 c0 -5 11 -10 25 -10 14 0 25 5 25 10 0 6 -11 10 -25 10
-14 0 -25 -4 -25 -10z"/>
<path d="M14355 9333 c-33 -2 -64 -9 -70 -14 -12 -12 187 -1 220 12 21 8 -33
9 -150 2z"/>
<path d="M13730 9311 c0 -4 11 -6 25 -3 14 2 25 6 25 8 0 2 -11 4 -25 4 -14 0
-25 -4 -25 -9z"/>
<path d="M13565 9300 c-4 -6 5 -10 19 -10 14 0 26 5 26 10 0 6 -9 10 -19 10
-11 0 -23 -4 -26 -10z"/>
<path d="M14110 9300 c0 -5 11 -10 24 -10 14 0 28 5 31 10 4 6 -7 10 -24 10
-17 0 -31 -4 -31 -10z"/>
<path d="M13400 9280 c0 -5 9 -10 19 -10 11 0 23 5 26 10 4 6 -5 10 -19 10
-14 0 -26 -4 -26 -10z"/>
<path d="M13890 9284 c-8 -1 -41 -6 -72 -9 -32 -4 -58 -10 -58 -14 0 -8 219
15 228 24 6 5 -72 5 -98 -1z"/>
<path d="M13235 9260 c-4 -6 5 -10 19 -10 14 0 26 5 26 10 0 6 -9 10 -19 10
-11 0 -23 -4 -26 -10z"/>
<path d="M13075 9240 c-4 -6 5 -10 19 -10 14 0 26 5 26 10 0 6 -9 10 -19 10
-11 0 -23 -4 -26 -10z"/>
<path d="M13580 9240 c0 -12 17 -12 45 0 17 7 15 9 -12 9 -18 1 -33 -3 -33 -9z"/>
<path d="M12928 9223 c-10 -2 -18 -8 -18 -13 0 -4 9 -6 20 -3 11 3 20 9 20 14
0 5 -1 8 -2 8 -2 -1 -11 -3 -20 -6z"/>
<path d="M13330 9213 c-92 -14 -108 -18 -99 -27 6 -7 226 28 235 37 10 10 -24
7 -136 -10z"/>
<path d="M12750 9190 c-12 -8 -9 -10 13 -10 15 0 27 5 27 10 0 13 -20 13 -40
0z"/>
<path d="M13075 9171 c-16 -3 -25 -9 -19 -13 13 -9 54 1 54 13 0 5 -1 8 -2 8
-2 -1 -16 -4 -33 -8z"/>
<path d="M12590 9160 c-12 -8 -9 -10 13 -10 15 0 27 5 27 10 0 13 -20 13 -40
0z"/>
<path d="M12443 9132 c-13 -2 -23 -8 -23 -13 0 -9 37 -3 49 7 8 7 -4 10 -26 6z"/>
<path d="M12803 9118 c-51 -11 -93 -25 -93 -30 0 -5 8 -7 18 -4 9 3 59 14 110
25 92 18 128 32 81 30 -13 0 -66 -10 -116 -21z"/>
<path d="M12278 9093 c-28 -7 -21 -21 7 -15 14 2 25 8 25 13 0 9 -4 10 -32 2z"/>
<path d="M12565 9062 c-11 -2 -24 -9 -30 -14 -7 -7 -1 -8 20 -3 44 10 53 26
10 17z"/>
<path d="M12105 9040 c-8 -13 15 -13 35 0 12 8 11 10 -7 10 -12 0 -25 -4 -28
-10z"/>
<path d="M12310 8989 c-115 -39 -114 -39 -108 -44 6 -7 199 54 213 66 16 16
-17 9 -105 -22z"/>
<path d="M11963 8999 c-25 -9 -30 -19 -10 -19 15 0 43 17 37 23 -3 3 -15 1
-27 -4z"/>
<path d="M11800 8940 c-8 -5 -12 -12 -9 -15 8 -8 39 5 39 16 0 11 -11 11 -30
-1z"/>
<path d="M12050 8894 l-25 -15 25 5 c14 3 28 6 33 6 4 0 7 5 7 10 0 14 -10 12
-40 -6z"/>
<path d="M11650 8870 c-8 -5 -12 -11 -9 -14 3 -3 14 1 25 9 21 16 8 20 -16 5z"/>
<path d="M11815 8789 c-109 -55 -111 -57 -103 -64 5 -6 218 103 218 111 0 10
-20 1 -115 -47z"/>
<path d="M11504 8795 c-10 -8 -14 -15 -7 -15 19 0 43 11 43 21 0 13 -14 11
-36 -6z"/>
<path d="M11364 8705 c-16 -12 -16 -14 -3 -15 9 0 22 7 29 15 16 19 0 19 -26
0z"/>
<path d="M11580 8650 c-18 -14 -21 -20 -9 -20 9 0 24 9 34 20 23 26 8 26 -25
0z"/>
<path d="M11234 8606 c-10 -8 -15 -18 -11 -22 4 -4 17 2 30 14 24 25 12 30
-19 8z"/>
<path d="M11370 8480 c-47 -43 -80 -79 -75 -79 13 0 183 158 170 159 -6 0 -49
-36 -95 -80z"/>
<path d="M11115 8490 c-10 -11 -13 -20 -8 -20 13 0 38 29 31 35 -3 3 -13 -4
-23 -15z"/>
<path d="M11011 8372 c-7 -13 -11 -26 -8 -28 8 -8 29 25 25 38 -3 8 -9 4 -17
-10z"/>
<path d="M11196 8301 c-10 -11 -16 -25 -14 -32 2 -7 12 0 22 16 21 32 16 43
-8 16z"/>
<path d="M10910 8230 c-7 -13 -7 -20 -1 -20 6 0 15 9 21 20 7 13 7 20 1 20 -6
0 -15 -9 -21 -20z"/>
<path d="M11064 8117 c-50 -77 -87 -147 -77 -147 11 1 124 191 121 202 -2 5
-22 -20 -44 -55z"/>
<path d="M10830 8089 c-13 -24 -4 -41 10 -19 10 16 13 40 5 40 -2 0 -9 -9 -15
-21z"/>
<path d="M10760 7940 c-6 -12 -9 -24 -7 -27 3 -2 11 5 17 17 6 12 9 24 7 27
-3 2 -11 -5 -17 -17z"/>
<path d="M10912 7845 c-14 -31 -15 -35 -4 -35 8 0 32 43 32 55 0 15 -19 1 -28
-20z"/>
<path d="M10835 7658 c-35 -87 -64 -178 -55 -178 5 0 18 30 31 68 12 37 30 86
40 110 10 23 14 42 10 42 -5 0 -17 -19 -26 -42z"/>
<path d="M10730 7346 c-12 -33 -12 -36 -1 -36 10 0 25 50 17 58 -3 2 -10 -7
-16 -22z"/>
<path d="M10681 7164 c-36 -135 -48 -206 -33 -188 12 12 56 213 49 220 -3 4
-10 -11 -16 -32z"/>
<path d="M10606 6828 c-8 -32 -7 -40 3 -34 11 7 21 56 11 56 -4 0 -10 -10 -14
-22z"/>
<path d="M10575 6649 c-26 -149 -32 -195 -26 -202 4 -4 15 45 25 108 10 64 16
118 13 121 -3 4 -8 -9 -12 -27z"/>
<path d="M10520 6299 c0 -17 4 -28 10 -24 6 3 10 17 10 31 0 13 -4 24 -10 24
-5 0 -10 -14 -10 -31z"/>
<path d="M10500 6143 c-1 -5 -7 -56 -14 -115 -6 -60 -9 -108 -4 -108 4 0 8 3
8 8 1 4 7 55 14 115 6 59 9 107 4 107 -4 0 -8 -3 -8 -7z"/>
<path d="M10460 5768 c0 -36 4 -35 14 5 4 16 2 27 -4 27 -5 0 -10 -14 -10 -32z"/>
<path d="M10435 5523 c-4 -54 -9 -106 -11 -115 -3 -10 -1 -18 4 -18 5 0 13 30
16 68 4 37 9 88 12 115 4 28 2 47 -4 47 -6 0 -13 -44 -17 -97z"/>
<path d="M10410 5240 c0 -16 5 -30 10 -30 6 0 10 14 10 30 0 17 -4 30 -10 30
-5 0 -10 -13 -10 -30z"/>
<path d="M10396 5013 c-4 -49 -8 -103 -11 -120 -2 -18 0 -33 5 -33 4 0 11 35
14 78 4 42 8 94 10 114 2 21 0 40 -4 43 -5 3 -11 -34 -14 -82z"/>
<path d="M10375 4719 c-4 -12 -2 -26 4 -32 8 -8 11 -2 11 21 0 37 -6 41 -15
11z"/>
<path d="M10367 4540 c-9 -49 -13 -210 -5 -210 8 0 21 175 16 215 l-4 30 -7
-35z"/>
<path d="M10300 4510 c0 -11 5 -20 10 -20 6 0 10 9 10 20 0 11 -4 20 -10 20
-5 0 -10 -9 -10 -20z"/>
<path d="M112 10459 c-36 -32 -37 -48 -3 -29 21 11 21 9 21 -110 l0 -120 -25
0 c-14 0 -25 -4 -25 -10 0 -6 27 -10 60 -10 33 0 60 4 60 10 0 6 -9 10 -20 10
-19 0 -20 7 -20 145 0 80 -3 145 -7 145 -5 0 -23 -14 -41 -31z"/>
<path d="M493 10475 c-17 -7 -36 -22 -42 -33 -14 -26 -3 -55 16 -48 8 3 17 6
19 6 2 0 -1 9 -8 21 -11 17 -10 22 6 35 26 19 86 18 114 -2 14 -10 22 -26 22
-44 0 -31 -24 -53 -91 -84 -20 -9 -46 -27 -58 -40 -24 -26 -41 -96 -22 -96 6
0 11 7 11 15 0 21 29 19 68 -5 61 -37 123 -16 121 41 0 24 0 24 -9 2 -12 -29
-55 -40 -94 -24 -17 7 -44 16 -59 20 l-29 6 21 27 c11 14 44 34 72 44 84 31
114 72 93 129 -9 21 -56 45 -91 45 -15 -1 -42 -7 -60 -15z"/>
<path d="M324 10209 c-10 -17 13 -36 27 -22 12 12 4 33 -11 33 -5 0 -12 -5
-16 -11z"/>
<path d="M9696 9814 c-39 -34 -41 -43 -5 -24 18 10 19 6 19 -110 0 -112 -1
-120 -19 -120 -11 0 -23 -4 -26 -10 -4 -6 18 -10 59 -10 37 0 66 4 66 10 0 6
-11 10 -25 10 l-24 0 -3 144 -3 144 -39 -34z"/>
<path d="M9954 9836 c-66 -30 -84 -192 -29 -262 20 -25 30 -29 70 -29 58 0 89
31 100 100 21 142 -47 233 -141 191z m76 -16 c36 -19 51 -125 29 -203 -11 -42
-43 -63 -82 -54 -59 15 -76 177 -26 241 22 27 48 33 79 16z"/>
<path d="M113 9111 c-39 -32 -44 -50 -8 -27 l25 16 0 -124 0 -125 -27 -4 c-16
-2 1 -4 37 -4 36 0 55 2 43 4 -23 4 -23 7 -23 149 0 79 -3 144 -7 144 -5 -1
-23 -13 -40 -29z"/>
<path d="M497 9130 c-65 -40 -72 -221 -10 -270 38 -30 98 -27 128 6 42 45 46
190 6 243 -20 26 -94 39 -124 21z m100 -36 c21 -33 29 -126 14 -180 -14 -53
-57 -76 -95 -51 -46 31 -57 156 -20 230 20 38 76 39 101 1z"/>
<path d="M324 8869 c-10 -17 13 -36 27 -22 12 12 4 33 -11 33 -5 0 -12 -5 -16
-11z"/>
<path d="M9928 8140 c-26 -15 -33 -66 -13 -96 15 -24 15 -26 0 -38 -10 -7 -19
-32 -22 -58 -5 -40 -2 -50 20 -72 22 -22 35 -26 82 -26 46 0 60 4 80 25 31 30
34 91 6 126 -17 22 -17 27 -5 44 20 27 17 62 -6 85 -15 15 -33 20 -72 20 -29
0 -61 -5 -70 -10z m110 -16 c45 -31 18 -94 -42 -94 -41 0 -56 15 -56 57 0 50
52 70 98 37z m14 -131 c18 -16 25 -77 10 -99 -11 -16 -48 -34 -72 -34 -30 0
-70 44 -70 77 0 48 25 73 72 73 25 0 49 -7 60 -17z"/>
<path d="M93 7580 c-42 -17 -58 -57 -58 -145 0 -67 4 -85 23 -112 43 -61 134
-51 163 19 19 46 17 155 -5 196 -24 46 -72 62 -123 42z m73 -18 c25 -16 38
-60 38 -129 0 -58 -4 -78 -20 -100 -38 -51 -96 -39 -114 25 -20 75 -6 182 28
201 20 12 53 14 68 3z"/>
<path d="M490 7578 c-19 -11 -26 -23 -28 -55 -2 -25 2 -46 10 -54 12 -10 10
-16 -9 -35 -30 -31 -31 -84 0 -119 38 -44 126 -46 167 -5 27 27 28 102 2 128
-16 16 -17 22 -5 37 17 24 17 66 0 89 -17 24 -102 32 -137 14z m110 -29 c27
-50 -21 -103 -77 -83 -22 7 -29 17 -31 42 -4 44 12 62 59 62 28 0 41 -5 49
-21z m0 -119 c29 -29 27 -94 -2 -114 -54 -38 -128 -6 -128 54 0 66 85 105 130
60z"/>
<path d="M326 7312 c-8 -13 11 -35 23 -28 16 10 14 36 -3 36 -8 0 -17 -4 -20
-8z"/>
<path d="M9961 6447 c-39 -19 -63 -71 -68 -145 -5 -80 8 -109 58 -136 61 -33
134 5 146 76 5 33 2 41 -30 73 -40 40 -67 44 -116 14 l-34 -20 7 23 c3 13 6
28 6 35 0 6 12 25 26 42 19 23 34 31 59 31 38 0 66 -24 39 -34 -13 -5 -14 -9
-4 -21 14 -17 40 -3 40 21 0 44 -76 68 -129 41z m86 -143 c21 -21 24 -32 19
-62 -6 -40 -36 -72 -68 -72 -11 0 -33 14 -50 30 -25 26 -29 36 -24 63 12 65
77 87 123 41z"/>
<path d="M95 6026 c-44 -19 -60 -57 -60 -145 0 -95 21 -138 74 -147 81 -16
125 37 125 151 0 78 -20 125 -61 144 -30 14 -41 13 -78 -3z m79 -29 c38 -38
45 -150 13 -212 -13 -27 -27 -35 -59 -35 -50 0 -76 74 -63 176 11 88 60 120
109 71z"/>
<path d="M530 6033 c-86 -31 -121 -211 -54 -274 35 -32 113 -34 144 -3 33 32
37 93 10 127 -35 44 -65 51 -113 28 -23 -11 -43 -18 -45 -16 -10 9 31 96 51
110 27 19 71 19 86 1 9 -11 8 -15 -5 -20 -13 -5 -14 -9 -3 -22 11 -13 14 -13
27 -1 38 39 -37 92 -98 70z m65 -148 c61 -60 -1 -159 -80 -129 -24 10 -46 60
-39 89 7 30 49 65 76 65 10 0 30 -11 43 -25z"/>
<path d="M324 5759 c-10 -17 13 -36 27 -22 12 12 4 33 -11 33 -5 0 -12 -5 -16
-11z"/>
<path d="M9951 4653 l-79 -108 74 -3 74 -3 0 -29 c0 -20 -5 -30 -14 -30 -8 0
-18 -4 -21 -10 -4 -6 13 -10 44 -10 28 0 51 5 51 10 0 6 -7 10 -15 10 -10 0
-15 10 -15 30 0 27 3 30 30 30 17 0 30 5 30 10 0 6 -13 10 -30 10 l-30 0 0
100 c0 60 -4 100 -10 100 -5 0 -46 -48 -89 -107z m69 -18 l0 -75 -55 0 c-30 0
-55 2 -55 5 0 6 101 145 106 145 2 0 4 -34 4 -75z"/>
<path d="M65 4454 c-41 -45 -45 -171 -7 -236 25 -43 92 -52 135 -18 32 25 52
103 42 168 -13 84 -38 112 -101 112 -35 0 -50 -5 -69 -26z m102 1 c33 -23 49
-110 34 -179 -13 -57 -21 -69 -58 -80 -76 -24 -115 183 -48 250 28 28 42 30
72 9z"/>
<path d="M506 4376 c-42 -57 -76 -107 -76 -110 0 -3 32 -6 70 -6 l70 0 0 -34
c0 -28 -4 -35 -22 -39 -13 -2 2 -4 32 -4 30 -1 47 1 38 4 -13 3 -18 15 -18 39
0 31 3 34 30 34 17 0 30 5 30 10 0 6 -13 10 -30 10 l-30 0 0 100 c0 55 -4 100
-9 100 -4 0 -43 -47 -85 -104z m61 -93 c-3 -2 -28 -3 -56 -1 l-51 3 52 73 53
73 3 -72 c2 -39 1 -73 -1 -76z"/>
<path d="M324 4209 c-10 -17 13 -36 27 -22 12 12 4 33 -11 33 -5 0 -12 -5 -16
-11z"/>
<path d="M9932 3060 c-31 -13 -49 -54 -32 -75 10 -12 16 -13 27 -3 13 10 13
13 -1 24 -15 11 -15 13 -1 27 40 40 130 27 142 -21 9 -35 -5 -53 -71 -88 -31
-17 -66 -40 -77 -51 -23 -23 -39 -103 -20 -103 6 0 11 9 11 20 0 25 16 25 58
0 44 -27 108 -27 122 1 6 11 10 30 7 42 -3 21 -4 21 -15 -5 -13 -32 -41 -36
-119 -16 -60 15 -57 12 -44 37 7 11 45 36 85 55 99 45 122 91 71 141 -19 20
-34 25 -72 24 -26 0 -58 -4 -71 -9z"/>
<path d="M89 2923 c-34 -9 -54 -64 -54 -148 1 -94 17 -128 71 -145 78 -26 128
31 128 145 0 124 -49 174 -145 148z m85 -29 c21 -20 31 -58 31 -119 0 -69 -11
-102 -40 -121 -35 -23 -69 -11 -86 28 -21 49 -18 167 4 201 20 31 66 37 91 11z"/>
<path d="M487 2923 c-9 -2 -24 -18 -33 -35 -14 -26 -14 -32 -2 -45 13 -12 16
-12 27 1 11 13 10 17 -3 22 -16 6 -16 8 0 25 22 24 105 26 128 3 17 -16 21
-51 8 -71 -4 -7 -39 -29 -77 -50 -56 -31 -72 -45 -83 -75 -8 -21 -11 -45 -7
-55 6 -16 8 -16 16 5 10 27 14 27 64 -3 22 -14 52 -25 67 -25 30 0 58 32 58
64 0 19 -1 19 -16 -2 -18 -25 -53 -28 -126 -9 -45 12 -47 14 -35 37 7 14 32
32 64 45 80 32 113 60 113 96 0 48 -39 79 -97 78 -26 -1 -56 -3 -66 -6z"/>
<path d="M330 2660 c-12 -7 -12 -12 -2 -22 9 -9 15 -9 24 0 16 16 -2 34 -22
22z"/>
<path d="M85 1491 c-35 -15 -50 -58 -50 -145 1 -94 18 -131 67 -141 51 -12 92
2 113 38 27 45 27 169 0 214 -24 41 -77 55 -130 34z m82 -16 c33 -23 49 -110
34 -180 -18 -81 -61 -106 -106 -61 -45 45 -45 187 0 232 28 28 42 30 72 9z"/>
<path d="M497 1489 c-64 -38 -72 -220 -10 -269 37 -29 98 -27 127 5 50 53 50
197 0 250 -25 27 -83 34 -117 14z m75 -10 c64 -34 63 -224 -2 -259 -53 -28
-94 28 -94 130 0 106 40 159 96 129z"/>
<path d="M9932 1473 c-47 -46 -54 -166 -14 -235 17 -28 38 -38 89 -38 66 0
104 84 88 198 -9 65 -34 93 -90 99 -39 5 -48 2 -73 -24z m103 -7 c62 -63 33
-256 -40 -256 -29 0 -62 44 -69 93 -10 67 2 136 30 164 29 29 49 29 79 -1z"/>
<path d="M324 1229 c-10 -17 13 -36 27 -22 12 12 4 33 -11 33 -5 0 -12 -5 -16
-11z"/>
<path d="M3678 934 c-44 -39 -50 -54 -13 -30 l25 16 0 -124 0 -125 -27 -4
c-16 -2 4 -4 42 -4 39 0 58 2 43 4 l-27 4 -3 149 -3 149 -37 -35z"/>
<path d="M5188 934 c-44 -39 -50 -54 -13 -30 l25 16 0 -124 0 -125 -27 -4
c-16 -2 4 -4 42 -4 39 0 58 2 43 4 l-27 4 -3 149 -3 149 -37 -35z"/>
<path d="M13128 934 c-44 -39 -50 -54 -13 -30 l25 16 0 -124 0 -125 -27 -4
c-16 -2 4 -4 42 -4 39 0 58 2 43 4 l-27 4 -3 149 -3 149 -37 -35z"/>
<path d="M14638 934 c-44 -39 -50 -54 -13 -30 l25 16 0 -124 0 -125 -27 -4
c-16 -2 4 -4 42 -4 39 0 58 2 43 4 l-27 4 -3 149 -3 149 -37 -35z"/>
<path d="M752 932 c-46 -49 -53 -167 -14 -234 17 -29 38 -38 90 -38 66 0 103
83 87 198 -9 65 -34 93 -90 100 -40 4 -48 1 -73 -26z m95 3 c41 -29 56 -144
29 -210 -25 -58 -80 -70 -110 -22 -36 56 -30 184 10 224 27 27 42 29 71 8z"/>
<path d="M2240 903 c-6 -32 -14 -69 -17 -83 l-6 -25 27 25 c21 19 39 25 71 25
54 0 75 -18 82 -73 5 -36 2 -45 -26 -73 -28 -27 -37 -31 -69 -25 -44 7 -71 35
-47 49 13 7 14 12 4 23 -9 11 -15 12 -25 3 -20 -17 -17 -37 11 -64 19 -20 34
-25 74 -25 65 0 100 28 107 85 6 50 -11 83 -55 109 -29 17 -39 18 -75 8 -22
-6 -43 -9 -45 -7 -2 2 -1 19 3 38 6 34 7 34 68 41 94 9 97 26 6 26 l-77 0 -11
-57z"/>
<path d="M3929 953 c-42 -11 -71 -132 -50 -208 16 -56 33 -75 74 -82 86 -14
121 29 121 147 0 124 -46 170 -145 143z m85 -26 c62 -62 33 -257 -39 -257 -73
0 -102 193 -40 256 30 30 50 30 79 1z"/>
<path d="M5405 938 c-32 -144 -32 -146 6 -114 41 35 83 34 120 -3 40 -40 39
-82 -1 -123 -27 -26 -36 -30 -67 -25 -45 8 -75 33 -54 46 8 5 11 16 7 26 -5
14 -9 15 -21 5 -21 -18 -19 -37 10 -65 33 -34 112 -35 150 -2 51 44 42 130
-17 167 -32 20 -57 21 -116 4 -16 -5 -21 -3 -18 7 2 8 7 26 10 40 5 24 11 27
68 33 94 9 97 26 5 26 -71 0 -77 -2 -82 -22z"/>
<path d="M6657 953 c-26 -7 -51 -61 -36 -79 9 -11 15 -12 26 -3 10 9 11 15 3
23 -19 19 -10 34 25 46 46 15 94 4 107 -25 18 -41 3 -71 -49 -96 -27 -12 -60
-31 -75 -41 -33 -23 -58 -92 -40 -110 9 -9 12 -8 12 4 0 28 17 30 59 8 77 -39
131 -22 131 42 l0 23 -13 -25 c-11 -21 -19 -25 -57 -23 -82 3 -111 13 -108 37
2 15 23 31 75 56 92 45 103 55 103 95 0 47 -38 75 -99 74 -25 -1 -54 -3 -64
-6z"/>
<path d="M6949 953 c-42 -11 -71 -132 -50 -208 16 -56 33 -75 74 -82 86 -14
121 29 121 147 0 124 -46 170 -145 143z m85 -26 c62 -62 33 -257 -39 -257 -29
0 -63 45 -70 94 -10 67 2 134 30 162 30 30 50 30 79 1z"/>
<path d="M10202 933 c-63 -62 -47 -248 22 -267 45 -12 85 -6 106 16 37 40 50
127 30 198 -16 55 -34 72 -84 77 -40 5 -48 2 -74 -24z m103 -7 c62 -63 33
-256 -40 -256 -29 0 -62 44 -69 93 -10 67 2 136 30 164 29 29 49 29 79 -1z"/>
<path d="M11695 938 c-32 -144 -32 -146 6 -114 41 35 83 34 120 -3 20 -20 29
-39 29 -61 0 -22 -9 -41 -29 -61 -31 -31 -53 -35 -96 -19 -23 9 -26 15 -21 36
9 32 -1 49 -20 33 -20 -17 -17 -37 11 -64 33 -34 112 -35 150 -2 51 44 42 130
-17 167 -32 20 -57 21 -116 4 -16 -5 -21 -3 -18 7 2 8 7 26 10 40 5 24 11 27
68 33 94 9 97 26 5 26 -71 0 -77 -2 -82 -22z"/>
<path d="M13379 953 c-61 -16 -79 -208 -24 -267 32 -34 104 -37 134 -5 57 61
45 235 -18 269 -19 10 -61 12 -92 3z m92 -33 c22 -25 32 -115 20 -171 -10 -44
-40 -79 -68 -79 -27 0 -61 46 -68 94 -21 135 51 231 116 156z"/>
<path d="M14855 948 c-7 -23 -25 -119 -25 -134 0 -12 8 -9 31 10 38 33 79 33
116 2 64 -55 16 -166 -66 -152 -19 3 -42 12 -50 21 -14 14 -14 17 -1 25 11 7
12 12 3 21 -14 14 -33 4 -33 -17 0 -8 11 -26 25 -39 18 -19 35 -25 67 -25 61
0 91 19 107 66 13 37 12 44 -5 80 -25 51 -79 74 -131 55 -19 -7 -36 -11 -38
-9 -2 2 0 19 4 38 7 35 8 35 71 43 95 12 99 27 7 27 -53 0 -79 -4 -82 -12z"/>
<path d="M16102 950 c-29 -12 -47 -57 -31 -76 9 -11 15 -12 26 -2 13 10 13 13
-1 24 -15 11 -15 13 -1 27 40 40 130 27 142 -21 8 -35 -5 -52 -69 -87 -75 -41
-86 -51 -100 -97 -9 -29 -9 -41 0 -50 9 -9 12 -7 12 10 0 27 10 27 60 2 76
-39 130 -21 130 42 l0 23 -13 -25 c-11 -22 -19 -25 -57 -23 -52 2 -120 13
-120 20 0 22 32 48 94 77 99 45 122 91 71 141 -19 20 -34 25 -72 24 -26 0 -58
-4 -71 -9z"/>
<path d="M16399 953 c-61 -16 -79 -208 -24 -267 32 -34 104 -37 134 -5 57 61
45 235 -18 269 -19 10 -61 12 -92 3z m92 -33 c22 -25 32 -115 20 -171 -10 -44
-40 -79 -68 -79 -27 0 -61 46 -68 94 -21 135 51 231 116 156z"/>
<path d="M4112 270 c-68 -122 -122 -225 -120 -230 6 -19 27 8 90 120 36 63 93
163 126 223 48 83 57 107 44 107 -12 0 -55 -69 -140 -220z"/>
<path d="M13558 265 c-113 -202 -134 -249 -102 -227 10 7 238 403 250 436 4
10 1 16 -7 16 -8 0 -71 -101 -141 -225z"/>
<path d="M4365 430 c-3 -5 1 -10 9 -10 21 0 21 -7 -15 -135 -24 -85 -37 -115
-57 -132 l-27 -23 110 0 110 0 16 45 c17 46 7 76 -10 32 -14 -35 -49 -57 -93
-57 -47 0 -47 0 -4 145 24 85 37 112 54 121 12 6 19 14 15 17 -10 11 -101 8
-108 -3z"/>
<path d="M13815 430 c-3 -5 1 -10 9 -10 21 0 20 -8 -18 -140 -25 -90 -37 -117
-54 -125 -42 -19 -21 -25 84 -25 l105 0 15 36 c21 50 14 80 -9 37 -21 -39 -44
-53 -91 -53 -45 0 -45 3 -3 145 25 85 37 112 55 121 12 6 19 14 15 17 -10 11
-101 8 -108 -3z"/>
<path d="M3578 323 c-17 -19 -33 -63 -24 -63 3 0 15 9 26 20 15 15 33 20 73
20 l52 -1 -30 -25 c-101 -84 -135 -116 -135 -126 0 -7 5 -6 14 1 11 9 23 8 51
-4 66 -27 102 -14 119 43 9 27 2 28 -24 2 -15 -15 -33 -20 -71 -20 -60 0 -58
5 23 64 57 41 94 83 83 94 -3 3 -10 0 -15 -8 -8 -12 -14 -12 -45 3 -46 22 -78
22 -97 0z"/>
<path d="M13021 314 c-19 -25 -28 -54 -16 -54 3 0 14 9 25 20 16 16 32 20 70
19 28 -2 50 -4 50 -5 0 -2 -28 -24 -62 -50 -35 -26 -71 -56 -80 -66 -22 -24
-24 -46 -4 -29 11 9 23 8 51 -4 66 -27 102 -14 119 43 9 27 2 28 -24 2 -15
-15 -33 -20 -72 -19 l-53 0 40 32 c77 62 130 116 122 123 -5 5 -12 2 -17 -6
-8 -12 -14 -12 -45 3 -51 24 -80 21 -104 -9z"/>
<path d="M3185 250 c-4 -6 38 -10 119 -10 77 0 126 4 126 10 0 6 -46 10 -119
10 -69 0 -122 -4 -126 -10z"/>
<path d="M12635 250 c-4 -6 38 -10 119 -10 77 0 126 4 126 10 0 6 -46 10 -119
10 -69 0 -122 -4 -126 -10z"/>
<path d="M3824 192 c3 -9 -3 -49 -14 -87 -11 -39 -20 -76 -20 -82 0 -23 20
-14 31 15 34 85 39 92 64 92 22 0 24 -2 15 -26 -14 -37 -12 -70 5 -84 13 -10
19 -10 35 5 11 10 20 23 20 28 0 6 -9 2 -20 -8 -27 -24 -31 -18 -17 32 14 53
-2 78 -45 69 -26 -5 -27 -4 -18 20 15 38 12 44 -16 44 -20 0 -24 -4 -20 -18z"/>
<path d="M13274 193 c3 -10 -3 -47 -14 -83 -11 -36 -20 -73 -20 -83 0 -34 21
-12 43 43 17 42 28 56 45 58 22 3 23 1 16 -45 -5 -38 -3 -52 10 -62 14 -12 19
-11 36 4 11 10 20 23 20 28 0 6 -9 2 -20 -8 -27 -24 -31 -18 -17 32 14 52 -2
78 -44 69 -27 -5 -27 -4 -18 27 5 17 9 33 9 34 0 2 -12 3 -26 3 -20 0 -24 -4
-20 -17z"/>
</g>
</svg>
