<?xml version="1.0" standalone="no"?>
<!DOCTYPE svg PUBLIC "-//W3C//DTD SVG 20010904//EN"
 "http://www.w3.org/TR/2001/REC-SVG-20010904/DTD/svg10.dtd">
<svg version="1.0" xmlns="http://www.w3.org/2000/svg"
 width="1679.000000pt" height="1056.000000pt" viewBox="0 0 1679.000000 1056.000000"
 preserveAspectRatio="xMidYMid meet">
<metadata>
Created by potrace 1.16, written by Peter Selinger 2001-2019
</metadata>
<g transform="translate(0.000000,1056.000000) scale(0.100000,-0.100000)"
fill="#000000" stroke="none">
<path d="M1262 5865 l3 -4666 3019 1 c1661 0 3022 2 3024 5 3 3 -378 5 -846 5
-469 0 -852 4 -852 8 0 4 25 32 55 62 30 29 52 56 49 59 -2 3 -31 -22 -64 -54
l-60 -59 0 82 c0 48 -4 82 -10 82 -5 0 -11 -6 -11 -12 -2 -21 -21 93 -64 382
-14 96 -28 186 -31 200 -4 21 5 15 55 -35 34 -33 61 -55 61 -50 0 5 -28 38
-62 72 l-62 63 64 65 c35 36 60 65 55 65 -5 0 -35 -26 -67 -57 -35 -34 -59
-51 -59 -43 -3 32 -7 58 -18 125 -6 39 -20 133 -32 210 -31 214 -97 648 -114
760 -9 55 -20 134 -26 175 -5 41 -12 86 -15 100 -4 21 5 15 55 -35 34 -33 61
-55 61 -49 0 5 -25 34 -55 64 -47 46 -53 56 -38 62 16 6 16 7 -2 7 -15 1 -7
13 38 59 31 32 57 62 57 67 0 5 -27 -17 -60 -50 -33 -32 -61 -57 -63 -54 -4 4
-25 133 -122 774 -36 237 -69 457 -75 490 -11 64 -90 591 -116 765 -8 58 -17
119 -21 135 -5 29 -4 29 49 -22 29 -29 58 -53 63 -53 5 0 -20 29 -55 65 l-64
65 64 65 c35 35 62 67 59 69 -3 3 -32 -21 -64 -54 -33 -33 -64 -60 -70 -60 -6
0 -37 27 -70 60 -58 58 -92 76 -44 23 l24 -27 -35 25 c-19 14 -807 572 -1750
1240 l-1714 1214 94 3 c139 4 139 22 0 22 l-114 0 57 58 c31 32 57 62 57 67 0
5 -27 -17 -60 -50 l-60 -59 0 1111 c0 731 -3 1114 -10 1118 -7 4 -9 -1548 -8
-4660z m134 2278 c4 4 -1 17 -12 29 -17 20 -15 20 16 -3 19 -14 809 -574 1755
-1244 946 -670 1722 -1219 1724 -1222 3 -2 -24 -33 -59 -68 -36 -36 -60 -65
-55 -65 5 0 35 25 66 56 l58 57 5 -34 c4 -19 24 -151 46 -294 21 -143 60 -395
85 -560 25 -165 61 -403 81 -530 53 -351 84 -551 100 -645 24 -142 23 -143
-41 -80 -30 30 -55 50 -55 44 0 -5 25 -34 55 -64 l56 -55 -93 -6 -93 -5 95 -2
94 -2 -64 -65 c-35 -36 -60 -65 -55 -65 5 0 35 26 67 57 40 39 59 52 62 42 3
-8 48 -304 100 -659 53 -355 99 -663 102 -685 l7 -40 -55 52 c-77 76 -85 65
-8 -12 l64 -65 -62 -63 c-34 -34 -62 -67 -62 -72 0 -5 29 20 65 55 36 35 65
62 65 58 0 -3 20 -131 44 -285 24 -153 50 -314 56 -358 6 -44 14 -89 17 -100
3 -12 -18 2 -56 40 -34 33 -61 55 -61 49 0 -5 23 -32 50 -59 28 -27 50 -53 50
-57 0 -9 -4068 -11 -4187 -1 l-83 6 0 388 0 389 116 0 c74 0 113 4 109 10 -4
6 -53 10 -116 10 l-109 0 0 715 0 715 118 2 117 2 -117 3 -118 4 0 1114 0
1115 109 0 c63 0 112 4 116 10 4 6 -35 10 -109 10 l-116 0 0 570 0 570 55 0
c30 0 55 5 55 10 0 6 -25 10 -55 10 -48 0 -55 2 -55 20 0 18 7 20 60 20 33 0
60 4 60 10 0 6 -27 10 -60 10 l-60 0 0 657 0 657 55 -54 c30 -29 58 -51 61
-47z"/>
<path d="M1520 6920 c0 -5 14 -10 31 -10 17 0 28 4 24 10 -3 6 -17 10 -31 10
-13 0 -24 -4 -24 -10z"/>
<path d="M1720 6910 c37 -12 220 -12 220 0 0 6 -47 10 -122 9 -77 -1 -114 -4
-98 -9z"/>
<path d="M2055 6910 c-4 -6 7 -10 24 -10 17 0 31 5 31 10 0 6 -11 10 -24 10
-14 0 -28 -4 -31 -10z"/>
<path d="M2265 6899 c58 -11 205 -11 205 1 0 6 -47 10 -122 9 -93 -1 -113 -3
-83 -10z"/>
<path d="M2585 6900 c-4 -6 8 -10 30 -10 22 0 34 4 30 10 -3 6 -17 10 -30 10
-13 0 -27 -4 -30 -10z"/>
<path d="M2800 6889 c66 -11 200 -11 200 1 0 6 -47 10 -122 9 -96 -1 -113 -3
-78 -10z"/>
<path d="M3115 6890 c-4 -6 8 -10 30 -10 22 0 34 4 30 10 -3 6 -17 10 -30 10
-13 0 -27 -4 -30 -10z"/>
<path d="M1740 5700 c0 -6 45 -10 114 -10 66 0 117 4 121 10 4 6 -37 10 -114
10 -74 0 -121 -4 -121 -10z"/>
<path d="M2215 5700 c4 -6 55 -10 121 -10 69 0 114 4 114 10 0 6 -47 10 -121
10 -77 0 -118 -4 -114 -10z"/>
<path d="M2685 5700 c4 -6 55 -10 121 -10 69 0 114 4 114 10 0 6 -47 10 -121
10 -77 0 -118 -4 -114 -10z"/>
<path d="M3160 5700 c0 -6 45 -10 114 -10 66 0 117 4 121 10 4 6 -37 10 -114
10 -74 0 -121 -4 -121 -10z"/>
<path d="M3630 5700 c0 -6 45 -10 114 -10 66 0 117 4 121 10 4 6 -37 10 -114
10 -74 0 -121 -4 -121 -10z"/>
<path d="M4100 5700 c0 -6 47 -10 120 -10 73 0 120 4 120 10 0 6 -47 10 -120
10 -73 0 -120 -4 -120 -10z"/>
<path d="M4575 5700 c4 -6 55 -10 121 -10 69 0 114 4 114 10 0 6 -47 10 -121
10 -77 0 -118 -4 -114 -10z"/>
<path d="M1798 3453 c34 -2 90 -2 125 0 34 2 6 3 -63 3 -69 0 -97 -1 -62 -3z"/>
<path d="M2268 3453 c34 -2 90 -2 125 0 34 2 6 3 -63 3 -69 0 -97 -1 -62 -3z"/>
<path d="M2738 3453 c34 -2 90 -2 125 0 34 2 6 3 -63 3 -69 0 -97 -1 -62 -3z"/>
<path d="M3218 3453 c34 -2 90 -2 125 0 34 2 6 3 -63 3 -69 0 -97 -1 -62 -3z"/>
<path d="M3688 3453 c34 -2 90 -2 125 0 34 2 6 3 -63 3 -69 0 -97 -1 -62 -3z"/>
<path d="M4158 3453 c34 -2 90 -2 125 0 34 2 6 3 -63 3 -69 0 -97 -1 -62 -3z"/>
<path d="M4628 3453 c34 -2 90 -2 125 0 34 2 6 3 -63 3 -69 0 -97 -1 -62 -3z"/>
<path d="M1740 2010 c0 -6 47 -10 121 -10 77 0 118 4 114 10 -4 6 -55 10 -121
10 -69 0 -114 -4 -114 -10z"/>
<path d="M2215 2010 c-4 -6 37 -10 114 -10 74 0 121 4 121 10 0 6 -45 10 -114
10 -66 0 -117 -4 -121 -10z"/>
<path d="M2685 2010 c-4 -6 37 -10 114 -10 74 0 121 4 121 10 0 6 -45 10 -114
10 -66 0 -117 -4 -121 -10z"/>
<path d="M3160 2010 c0 -6 47 -10 121 -10 77 0 118 4 114 10 -4 6 -55 10 -121
10 -69 0 -114 -4 -114 -10z"/>
<path d="M3630 2010 c0 -6 47 -10 121 -10 77 0 118 4 114 10 -4 6 -55 10 -121
10 -69 0 -114 -4 -114 -10z"/>
<path d="M4100 2010 c0 -6 47 -10 120 -10 73 0 120 4 120 10 0 6 -47 10 -120
10 -73 0 -120 -4 -120 -10z"/>
<path d="M4575 2010 c-4 -6 37 -10 114 -10 74 0 121 4 121 10 0 6 -45 10 -114
10 -66 0 -117 -4 -121 -10z"/>
<path d="M5045 2010 c-4 -6 38 -10 120 -10 82 0 124 4 120 10 -4 6 -55 10
-120 10 -65 0 -116 -4 -120 -10z"/>
<path d="M12480 9408 l0 -1112 -60 59 c-33 33 -60 55 -60 49 0 -5 27 -36 60
-69 l60 -59 -62 -63 c-34 -34 -59 -66 -55 -70 4 -4 32 18 62 47 l55 54 0 -657
0 -657 -25 0 c-14 0 -25 -4 -25 -10 0 -5 11 -10 25 -10 l25 0 0 -2850 0 -2850
-887 -2 -888 -3 1255 -5 c690 -3 2054 -3 3030 0 l1775 5 -1767 3 c-973 1
-1768 6 -1768 10 0 4 25 32 55 62 30 29 52 56 50 59 -3 3 -30 -19 -60 -49
l-54 -53 70 269 c38 148 82 317 96 377 l27 107 61 -60 c34 -33 64 -57 68 -53
4 4 -21 35 -55 70 l-62 63 64 65 c35 36 60 65 54 65 -5 0 -32 -22 -59 -50 -27
-27 -50 -48 -52 -46 -4 4 336 1378 343 1385 2 3 31 -22 64 -54 33 -33 60 -55
60 -49 0 5 -25 34 -55 64 -30 30 -55 59 -55 65 0 6 25 35 55 65 30 30 55 59
55 64 0 6 -24 -13 -52 -41 -30 -29 -58 -49 -64 -45 -6 5 -21 345 -43 977 -18
534 -35 1024 -38 1090 l-5 120 59 -57 c78 -77 94 -75 18 2 l-59 60 31 0 c18 0
35 5 38 10 4 6 -11 10 -37 10 l-42 0 57 58 c31 32 57 62 57 67 0 5 -29 -19
-64 -54 l-64 -63 -41 87 c-23 48 -41 91 -41 94 0 4 32 18 71 31 39 14 73 28
76 32 7 13 -12 9 -82 -17 -38 -15 -72 -22 -76 -18 -12 12 -1070 2285 -1066
2289 2 2 21 -14 42 -36 22 -22 44 -40 49 -40 6 0 -19 29 -54 65 l-64 65 62 63
c34 35 59 66 55 70 -4 4 -33 -18 -65 -50 l-58 -57 0 1112 c0 735 -3 1112 -10
1112 -7 0 -10 -377 -10 -1112z m589 -2391 c281 -604 509 -1102 506 -1108 -4
-5 -13 -9 -21 -9 -8 0 -14 -4 -14 -10 0 -5 12 -7 28 -4 26 5 29 2 60 -68 l32
-73 -50 50 c-58 57 -69 50 -12 -8 l37 -39 -82 41 c-46 23 -83 37 -83 33 0 -5
42 -31 93 -58 l92 -49 -52 -3 c-71 -4 -68 -22 4 -22 l57 0 -52 -53 c-29 -29
-52 -57 -52 -62 0 -5 27 17 59 49 l59 59 6 -64 c3 -35 19 -480 36 -989 16
-509 33 -977 36 -1040 l6 -115 -61 60 c-34 33 -61 55 -61 49 0 -5 25 -34 55
-64 l56 -55 -103 -6 -103 -5 105 -2 104 -2 -64 -65 c-77 -77 -69 -88 8 -13 35
34 52 46 49 33 -4 -11 -24 -96 -47 -190 -22 -93 -44 -183 -49 -200 -16 -50
-60 -230 -67 -271 -3 -22 -10 -46 -14 -54 -5 -9 -15 -47 -23 -85 -9 -39 -25
-104 -36 -145 -26 -90 -61 -242 -68 -290 -3 -19 -9 -39 -13 -45 -5 -5 -11 -27
-15 -47 -4 -21 -10 -38 -13 -38 -4 0 -30 23 -59 52 -29 28 -56 49 -60 45 -4
-4 21 -36 55 -70 l62 -63 -60 -59 c-33 -33 -60 -64 -60 -69 0 -6 27 16 60 49
58 58 60 59 47 25 -8 -19 -27 -87 -42 -150 -14 -63 -35 -146 -45 -185 -10 -38
-33 -124 -50 -190 -17 -66 -33 -124 -35 -130 -2 -5 -4 14 -4 43 -1 28 -5 52
-11 52 -6 0 -10 -34 -10 -82 l0 -82 -60 59 c-33 33 -60 55 -60 50 0 -5 26 -35
57 -67 l57 -58 -342 0 -342 0 0 2484 1 2484 100 -33 c54 -19 99 -30 99 -25 0
5 -45 23 -100 41 l-100 33 0 328 0 328 85 0 c50 0 85 4 85 10 0 6 -35 10 -85
10 l-85 0 0 683 1 682 28 -60 c15 -33 258 -554 540 -1158z"/>
<path d="M12810 6081 c0 -10 50 -25 58 -17 2 3 -7 10 -22 16 -33 12 -36 12
-36 1z"/>
<path d="M12980 6023 c0 -11 220 -92 220 -82 0 6 -200 89 -215 89 -3 0 -5 -3
-5 -7z"/>
<path d="M13310 5891 c0 -8 34 -21 55 -21 11 1 -35 29 -47 30 -5 0 -8 -4 -8
-9z"/>
<path d="M13221 5755 c-51 -25 -103 -45 -117 -45 -27 0 -34 -20 -6 -21 9 0 60
0 112 1 114 1 150 20 40 20 l-75 1 70 36 c78 39 80 41 73 48 -2 3 -46 -15 -97
-40z"/>
<path d="M12605 5700 c4 -6 55 -10 121 -10 69 0 114 4 114 10 0 6 -47 10 -121
10 -77 0 -118 -4 -114 -10z"/>
<path d="M12835 5508 c-72 -63 -113 -108 -98 -108 5 0 22 14 39 31 16 17 55
53 86 80 32 26 54 50 50 53 -4 2 -39 -23 -77 -56z"/>
<path d="M12585 5174 c-23 -55 -58 -185 -51 -191 3 -3 7 0 10 8 2 8 18 59 35
113 32 101 35 139 6 70z"/>
<path d="M12658 3453 c34 -2 90 -2 125 0 34 2 6 3 -63 3 -69 0 -97 -1 -62 -3z"/>
<path d="M13138 3453 c34 -2 90 -2 125 0 34 2 6 3 -63 3 -69 0 -97 -1 -62 -3z"/>
<path d="M12605 2010 c-4 -6 37 -10 114 -10 74 0 121 4 121 10 0 6 -45 10
-114 10 -66 0 -117 -4 -121 -10z"/>
<path d="M13080 2010 c0 -6 47 -10 121 -10 77 0 118 4 114 10 -4 6 -55 10
-121 10 -69 0 -114 -4 -114 -10z"/>
<path d="M16044 10385 c0 -77 2 -107 3 -67 2 40 2 103 0 140 -2 37 -3 4 -3
-73z"/>
<path d="M16042 10110 c0 -19 2 -27 5 -17 2 9 2 25 0 35 -3 9 -5 1 -5 -18z"/>
<path d="M16044 9900 c0 -85 2 -120 3 -77 2 42 2 112 0 155 -1 42 -3 7 -3 -78z"/>
<path d="M16042 9615 c0 -16 2 -22 5 -12 2 9 2 23 0 30 -3 6 -5 -1 -5 -18z"/>
<path d="M16044 9450 c0 -69 1 -97 3 -62 2 34 2 90 0 125 -2 34 -3 6 -3 -63z"/>
<path d="M16042 9285 c0 -16 2 -22 5 -12 2 9 2 23 0 30 -3 6 -5 -1 -5 -18z"/>
<path d="M16044 9000 c0 -80 2 -112 3 -72 2 39 2 105 0 145 -1 39 -3 7 -3 -73z"/>
<path d="M16042 8785 c0 -16 2 -22 5 -12 2 9 2 23 0 30 -3 6 -5 -1 -5 -18z"/>
<path d="M16044 8520 c0 -74 1 -105 3 -67 2 37 2 97 0 135 -2 37 -3 6 -3 -68z"/>
<path d="M16041 8303 c-1 -21 -6 -23 -67 -23 -41 0 -63 -4 -59 -10 4 -6 55
-10 121 -10 69 0 114 4 114 10 0 6 -22 10 -49 10 -43 0 -50 3 -54 23 l-4 22
-2 -22z"/>
<path d="M1740 8270 c0 -6 45 -10 114 -10 66 0 117 4 121 10 4 6 -37 10 -114
10 -74 0 -121 -4 -121 -10z"/>
<path d="M2215 8270 c4 -6 55 -10 121 -10 69 0 114 4 114 10 0 6 -47 10 -121
10 -77 0 -118 -4 -114 -10z"/>
<path d="M2685 8270 c4 -6 55 -10 121 -10 69 0 114 4 114 10 0 6 -47 10 -121
10 -77 0 -118 -4 -114 -10z"/>
<path d="M3160 8270 c0 -6 45 -10 114 -10 66 0 117 4 121 10 4 6 -37 10 -114
10 -74 0 -121 -4 -121 -10z"/>
<path d="M3630 8270 c0 -6 45 -10 114 -10 66 0 117 4 121 10 4 6 -37 10 -114
10 -74 0 -121 -4 -121 -10z"/>
<path d="M4100 8270 c0 -6 47 -10 120 -10 73 0 120 4 120 10 0 6 -47 10 -120
10 -73 0 -120 -4 -120 -10z"/>
<path d="M4575 8270 c4 -6 55 -10 121 -10 69 0 114 4 114 10 0 6 -47 10 -121
10 -77 0 -118 -4 -114 -10z"/>
<path d="M5045 8270 c4 -6 55 -10 120 -10 65 0 116 4 120 10 4 6 -38 10 -120
10 -82 0 -124 -4 -120 -10z"/>
<path d="M5520 8270 c0 -6 45 -10 114 -10 66 0 117 4 121 10 4 6 -37 10 -114
10 -74 0 -121 -4 -121 -10z"/>
<path d="M5990 8270 c0 -6 47 -10 120 -10 73 0 120 4 120 10 0 6 -47 10 -120
10 -73 0 -120 -4 -120 -10z"/>
<path d="M6465 8270 c4 -6 55 -10 121 -10 69 0 114 4 114 10 0 6 -47 10 -121
10 -77 0 -118 -4 -114 -10z"/>
<path d="M6935 8270 c4 -6 55 -10 120 -10 65 0 116 4 120 10 4 6 -38 10 -120
10 -82 0 -124 -4 -120 -10z"/>
<path d="M10715 8270 c4 -6 55 -10 120 -10 65 0 116 4 120 10 4 6 -38 10 -120
10 -82 0 -124 -4 -120 -10z"/>
<path d="M11190 8270 c0 -6 45 -10 114 -10 66 0 117 4 121 10 4 6 -37 10 -114
10 -74 0 -121 -4 -121 -10z"/>
<path d="M11660 8270 c0 -6 47 -10 120 -10 73 0 120 4 120 10 0 6 -47 10 -120
10 -73 0 -120 -4 -120 -10z"/>
<path d="M12135 8270 c4 -6 55 -10 121 -10 69 0 114 4 114 10 0 6 -47 10 -121
10 -77 0 -118 -4 -114 -10z"/>
<path d="M12605 8270 c4 -6 55 -10 121 -10 69 0 114 4 114 10 0 6 -47 10 -121
10 -77 0 -118 -4 -114 -10z"/>
<path d="M13080 8270 c0 -6 45 -10 114 -10 66 0 117 4 121 10 4 6 -37 10 -114
10 -74 0 -121 -4 -121 -10z"/>
<path d="M13550 8270 c0 -6 45 -10 114 -10 66 0 117 4 121 10 4 6 -37 10 -114
10 -74 0 -121 -4 -121 -10z"/>
<path d="M14025 8270 c4 -6 55 -10 121 -10 69 0 114 4 114 10 0 6 -47 10 -121
10 -77 0 -118 -4 -114 -10z"/>
<path d="M14495 8270 c4 -6 55 -10 121 -10 69 0 114 4 114 10 0 6 -47 10 -121
10 -77 0 -118 -4 -114 -10z"/>
<path d="M14970 8270 c0 -6 45 -10 114 -10 66 0 117 4 121 10 4 6 -37 10 -114
10 -74 0 -121 -4 -121 -10z"/>
<path d="M15440 8270 c0 -6 45 -10 114 -10 66 0 117 4 121 10 4 6 -37 10 -114
10 -74 0 -121 -4 -121 -10z"/>
<path d="M16385 8270 c4 -6 55 -10 121 -10 69 0 114 4 114 10 0 6 -47 10 -121
10 -77 0 -118 -4 -114 -10z"/>
<path d="M16044 8040 c0 -69 1 -97 3 -62 2 34 2 90 0 125 -2 34 -3 6 -3 -63z"/>
<path d="M16042 7795 c0 -16 2 -22 5 -12 2 9 2 23 0 30 -3 6 -5 -1 -5 -18z"/>
<path d="M16044 7565 c0 -71 1 -99 3 -62 2 37 2 96 0 130 -2 34 -3 4 -3 -68z"/>
<path d="M16042 7300 c0 -19 2 -27 5 -17 2 9 2 25 0 35 -3 9 -5 1 -5 -18z"/>
<path d="M16044 7075 c0 -77 2 -107 3 -67 2 40 2 103 0 140 -2 37 -3 4 -3 -73z"/>
<path d="M15910 6920 c-12 -8 -9 -10 13 -10 15 0 27 5 27 10 0 13 -20 13 -40
0z"/>
<path d="M12250 6910 c0 -5 11 -10 24 -10 14 0 28 5 31 10 4 6 -7 10 -24 10
-17 0 -31 -4 -31 -10z"/>
<path d="M15740 6910 c0 -5 11 -10 25 -10 14 0 25 5 25 10 0 6 -11 10 -25 10
-14 0 -25 -4 -25 -10z"/>
<path d="M821 6885 c-22 -29 -28 -55 -12 -55 5 0 11 7 15 15 4 11 21 15 63 15
l58 -1 -35 -27 c-69 -54 -120 -105 -120 -121 0 -13 2 -13 9 -2 6 10 17 12 37
6 16 -4 47 -8 68 -9 35 -1 42 3 59 32 23 40 17 52 -12 23 -16 -16 -33 -21 -73
-20 l-53 0 40 32 c77 62 130 116 122 123 -5 5 -12 2 -17 -6 -8 -13 -14 -13
-42 -1 -64 26 -83 25 -107 -4z"/>
<path d="M11910 6900 c-19 -12 123 -12 190 -1 36 7 23 9 -65 10 -60 0 -117 -4
-125 -9z"/>
<path d="M15575 6900 c3 -5 15 -10 26 -10 10 0 19 5 19 10 0 6 -12 10 -26 10
-14 0 -23 -4 -19 -10z"/>
<path d="M11720 6890 c0 -5 14 -10 30 -10 17 0 30 5 30 10 0 6 -13 10 -30 10
-16 0 -30 -4 -30 -10z"/>
<path d="M15245 6890 c-4 -6 5 -10 19 -10 14 0 26 5 26 10 0 6 -9 10 -19 10
-11 0 -23 -4 -26 -10z"/>
<path d="M15423 6893 c9 -2 23 -2 30 0 6 3 -1 5 -18 5 -16 0 -22 -2 -12 -5z"/>
<path d="M3335 6880 c74 -12 195 -12 195 0 0 6 -47 9 -122 9 -99 -1 -113 -3
-73 -9z"/>
<path d="M3645 6880 c-4 -6 8 -10 30 -10 22 0 34 4 30 10 -3 6 -17 10 -30 10
-13 0 -27 -4 -30 -10z"/>
<path d="M11420 6881 c-36 -3 -60 -8 -55 -11 17 -9 235 1 235 11 0 9 -71 9
-180 0z"/>
<path d="M15080 6880 c0 -5 9 -10 20 -10 11 0 20 5 20 10 0 6 -9 10 -20 10
-11 0 -20 -4 -20 -10z"/>
<path d="M3870 6870 c82 -12 190 -12 190 0 0 6 -47 9 -122 9 -102 -2 -114 -3
-68 -9z"/>
<path d="M4180 6870 c0 -5 14 -10 30 -10 17 0 30 5 30 10 0 6 -13 10 -30 10
-16 0 -30 -4 -30 -10z"/>
<path d="M14910 6870 c0 -5 11 -10 25 -10 14 0 25 5 25 10 0 6 -11 10 -25 10
-14 0 -25 -4 -25 -10z"/>
<path d="M4405 6860 c90 -12 185 -11 185 0 0 6 -47 9 -122 9 -106 -2 -114 -3
-63 -9z"/>
<path d="M4710 6853 c0 -10 5 -25 10 -33 8 -12 10 -9 10 12 0 15 -4 30 -10 33
-5 3 -10 -2 -10 -12z"/>
<path d="M11203 6863 c9 -2 25 -2 35 0 9 3 1 5 -18 5 -19 0 -27 -2 -17 -5z"/>
<path d="M14617 6857 c-4 -10 -7 -26 -7 -35 1 -15 2 -15 11 1 6 10 9 25 7 35
-3 16 -4 15 -11 -1z"/>
<path d="M14753 6863 c9 -2 25 -2 35 0 9 3 1 5 -18 5 -19 0 -27 -2 -17 -5z"/>
<path d="M11073 6823 c12 -41 121 -158 138 -148 5 4 -13 24 -40 45 -33 26 -58
57 -73 90 -27 59 -41 66 -25 13z"/>
<path d="M1094 6769 c-10 -17 13 -36 27 -22 12 12 4 33 -11 33 -5 0 -12 -5
-16 -11z"/>
<path d="M15946 6745 c-16 -13 -60 -41 -97 -62 -38 -21 -69 -42 -69 -46 0 -12
135 62 173 95 40 33 33 45 -7 13z"/>
<path d="M11851 6724 c-20 -25 -28 -54 -15 -54 3 0 13 9 22 21 14 17 26 20 72
17 l54 -3 -72 -54 c-64 -47 -92 -76 -92 -95 0 -4 8 -1 18 5 14 9 25 8 50 -5
58 -30 99 -15 116 42 8 24 -8 31 -18 7 -4 -11 -21 -15 -67 -15 l-62 0 49 37
c69 51 114 95 114 110 0 10 -4 11 -19 1 -15 -9 -25 -9 -46 0 -44 20 -81 15
-104 -14z"/>
<path d="M1042 6708 c-6 -6 -12 -19 -12 -27 1 -14 3 -13 14 2 7 9 19 17 26 17
8 0 9 -6 5 -17 -17 -39 -17 -79 0 -93 20 -17 48 -3 53 26 3 18 2 18 -11 2 -25
-31 -35 -21 -23 22 7 29 7 46 0 58 -14 22 -36 26 -52 10z"/>
<path d="M14577 6694 c-4 -4 -7 -17 -7 -28 1 -19 1 -20 11 -3 11 19 8 43 -4
31z"/>
<path d="M4740 6677 c0 -26 31 -211 36 -216 2 -2 6 -2 8 0 5 7 -28 217 -36
225 -5 4 -8 0 -8 -9z"/>
<path d="M11324 6605 c11 -8 27 -15 35 -15 13 1 12 4 -3 15 -11 8 -27 15 -35
15 -13 -1 -12 -4 3 -15z"/>
<path d="M12130 6605 c0 -8 7 -15 15 -15 8 0 15 7 15 15 0 8 -7 15 -15 15 -8
0 -15 -7 -15 -15z"/>
<path d="M12070 6545 c-7 -9 -10 -18 -6 -22 3 -4 13 2 20 13 21 28 30 11 16
-30 -8 -26 -8 -41 0 -56 14 -26 46 -26 60 0 13 24 3 26 -22 3 -16 -14 -18 -14
-18 0 0 9 5 28 10 42 19 50 -28 88 -60 50z"/>
<path d="M11470 6543 c0 -10 210 -96 218 -89 8 9 17 5 -205 93 -7 3 -13 1 -13
-4z"/>
<path d="M15447 6508 c-59 -22 -105 -43 -103 -46 8 -7 216 69 216 79 0 11 14
15 -113 -33z"/>
<path d="M14530 6513 c0 -22 2 -25 10 -13 13 20 13 40 0 40 -5 0 -10 -12 -10
-27z"/>
<path d="M11806 6411 c15 -14 54 -23 54 -13 0 5 -10 12 -22 16 -33 8 -44 8
-32 -3z"/>
<path d="M14991 6359 c-52 -16 -97 -31 -99 -34 -15 -15 15 -8 118 25 63 21
106 38 95 38 -11 1 -62 -12 -114 -29z"/>
<path d="M14490 6353 c0 -22 2 -25 10 -13 13 20 13 40 0 40 -5 0 -10 -12 -10
-27z"/>
<path d="M11970 6360 c0 -10 219 -84 227 -76 7 6 9 5 -124 50 -57 19 -103 31
-103 26z"/>
<path d="M4791 6328 c0 -7 4 -22 9 -33 7 -17 9 -15 9 13 1 17 -3 32 -9 32 -5
0 -10 -6 -9 -12z"/>
<path d="M12310 6250 c0 -11 48 -25 56 -17 3 2 -9 9 -25 15 -18 7 -31 7 -31 2z"/>
<path d="M14563 6230 c-51 -15 -93 -24 -93 -19 0 5 -4 9 -10 9 -5 0 -10 -7
-10 -15 0 -8 -6 -15 -12 -15 -9 0 -8 -3 2 -10 8 -5 19 -5 25 0 5 4 52 20 103
35 50 16 92 32 92 37 0 4 -1 8 -2 7 -2 0 -45 -13 -95 -29z"/>
<path d="M4820 6157 c0 -43 33 -227 42 -227 5 0 7 8 4 18 -2 9 -10 58 -17 107
-12 86 -28 144 -29 102z"/>
<path d="M14087 6084 c-60 -20 -106 -38 -103 -41 7 -7 226 60 226 70 0 11 -6
9 -123 -29z"/>
<path d="M14410 6033 c0 -22 2 -25 10 -13 13 20 13 40 0 40 -5 0 -10 -12 -10
-27z"/>
<path d="M14370 5873 c0 -22 2 -25 10 -13 13 20 13 40 0 40 -5 0 -10 -12 -10
-27z"/>
<path d="M50 5835 c10 -13 10 -23 -4 -54 -24 -52 -18 -81 22 -104 35 -21 59
-14 29 7 -13 10 -17 28 -17 71 l0 58 49 -64 c56 -74 88 -105 98 -95 4 4 2 11
-6 15 -10 7 -9 15 3 46 9 20 16 48 16 60 0 24 -42 65 -66 65 -19 0 -18 -6 6
-30 15 -15 20 -33 20 -70 0 -27 -2 -50 -4 -50 -2 0 -28 32 -56 70 -47 63 -75
90 -96 90 -3 0 -1 -7 6 -15z"/>
<path d="M4870 5803 c0 -10 5 -25 10 -33 8 -12 10 -9 10 12 0 15 -4 30 -10 33
-5 3 -10 -2 -10 -12z"/>
<path d="M14330 5713 c0 -22 2 -25 10 -13 13 20 13 40 0 40 -5 0 -10 -12 -10
-27z"/>
<path d="M5045 5700 c4 -6 55 -10 120 -10 65 0 116 4 120 10 4 6 -38 10 -120
10 -82 0 -124 -4 -120 -10z"/>
<path d="M5520 5700 c0 -6 45 -10 114 -10 66 0 117 4 121 10 4 6 -37 10 -114
10 -74 0 -121 -4 -121 -10z"/>
<path d="M5990 5700 c0 -6 47 -10 120 -10 73 0 120 4 120 10 0 6 -47 10 -120
10 -73 0 -120 -4 -120 -10z"/>
<path d="M6465 5700 c4 -6 55 -10 121 -10 69 0 114 4 114 10 0 6 -47 10 -121
10 -77 0 -118 -4 -114 -10z"/>
<path d="M6935 5700 c4 -6 55 -10 120 -10 65 0 116 4 120 10 4 6 -38 10 -120
10 -82 0 -124 -4 -120 -10z"/>
<path d="M10715 5700 c4 -6 55 -10 120 -10 65 0 116 4 120 10 4 6 -38 10 -120
10 -82 0 -124 -4 -120 -10z"/>
<path d="M11190 5700 c0 -6 45 -10 114 -10 66 0 117 4 121 10 4 6 -37 10 -114
10 -74 0 -121 -4 -121 -10z"/>
<path d="M11660 5700 c0 -6 47 -10 120 -10 73 0 120 4 120 10 0 6 -47 10 -120
10 -73 0 -120 -4 -120 -10z"/>
<path d="M12135 5700 c4 -6 55 -10 121 -10 69 0 114 4 114 10 0 6 -47 10 -121
10 -77 0 -118 -4 -114 -10z"/>
<path d="M14025 5700 c4 -6 55 -10 121 -10 69 0 114 4 114 10 0 6 -47 10 -121
10 -77 0 -118 -4 -114 -10z"/>
<path d="M14495 5700 c4 -6 55 -10 121 -10 69 0 114 4 114 10 0 6 -47 10 -121
10 -77 0 -118 -4 -114 -10z"/>
<path d="M14970 5700 c0 -6 45 -10 114 -10 66 0 117 4 121 10 4 6 -37 10 -114
10 -74 0 -121 -4 -121 -10z"/>
<path d="M15440 5700 c0 -6 45 -10 114 -10 66 0 117 4 121 10 4 6 -37 10 -114
10 -74 0 -121 -4 -121 -10z"/>
<path d="M15915 5700 c4 -6 55 -10 121 -10 69 0 114 4 114 10 0 6 -47 10 -121
10 -77 0 -118 -4 -114 -10z"/>
<path d="M16385 5700 c4 -6 55 -10 121 -10 69 0 114 4 114 10 0 6 -47 10 -121
10 -77 0 -118 -4 -114 -10z"/>
<path d="M13780 5642 c0 -14 37 -44 43 -35 3 4 -6 16 -19 26 -13 10 -24 14
-24 9z"/>
<path d="M14291 5553 c0 -25 1 -26 9 -8 12 27 12 35 0 35 -5 0 -10 -12 -9 -27z"/>
<path d="M13934 5498 c15 -18 46 -61 69 -96 23 -35 43 -58 45 -52 7 20 -110
180 -131 180 -5 0 2 -15 17 -32z"/>
<path d="M14251 5393 c0 -25 1 -26 9 -8 12 27 12 35 0 35 -5 0 -10 -12 -9 -27z"/>
<path d="M14211 5233 c0 -25 1 -26 9 -8 12 27 12 35 0 35 -5 0 -10 -12 -9 -27z"/>
<path d="M14086 5203 c7 -31 12 -38 18 -32 7 7 -6 59 -15 59 -5 0 -6 -12 -3
-27z"/>
<path d="M14171 5073 c0 -25 1 -26 9 -8 12 27 12 35 0 35 -5 0 -10 -12 -9 -27z"/>
<path d="M14099 4983 c0 -38 -4 -90 -8 -116 -8 -51 3 -76 12 -28 14 70 20 211
8 211 -7 0 -11 -24 -12 -67z"/>
<path d="M14128 4915 c-3 -14 -1 -25 3 -25 5 0 9 4 9 9 0 5 3 16 6 25 3 9 2
16 -4 16 -5 0 -12 -11 -14 -25z"/>
<path d="M14087 4758 c-6 -21 -2 -36 7 -27 10 11 16 49 8 49 -5 0 -12 -10 -15
-22z"/>
<path d="M14057 4673 c-5 -26 -2 -42 7 -32 9 11 15 59 7 59 -5 0 -11 -12 -14
-27z"/>
<path d="M9991 4508 c-57 -170 -79 -227 -67 -165 3 12 -18 89 -47 172 l-52
150 -45 1 c-25 1 -33 0 -17 -3 l27 -4 0 -180 c0 -172 -1 -179 -20 -179 -11 0
-20 -4 -20 -10 0 -5 23 -10 50 -10 28 0 50 5 50 10 0 6 -9 10 -20 10 -19 0
-20 6 -19 153 l1 152 57 -170 58 -170 56 165 55 165 1 -147 c1 -142 0 -148
-19 -148 -11 0 -20 -4 -20 -10 0 -6 27 -10 60 -10 33 0 60 4 60 10 0 6 -9 10
-20 10 -19 0 -20 7 -20 179 l0 180 28 4 c22 3 21 4 -10 6 -20 0 -38 7 -41 14
-2 6 -32 -72 -66 -175z"/>
<path d="M7203 4663 l27 -4 0 -180 0 -179 -25 0 c-14 0 -25 -4 -25 -10 0 -6
53 -10 140 -10 l140 0 0 60 c0 73 -17 79 -26 10 l-7 -50 -83 0 -84 0 0 179 0
180 28 4 c15 2 -4 4 -43 4 -38 0 -58 -2 -42 -4z"/>
<path d="M8528 4663 c22 -4 22 -6 22 -184 0 -172 -1 -179 -20 -179 -11 0 -20
-4 -20 -10 0 -6 27 -10 60 -10 33 0 60 4 60 10 0 6 -9 10 -20 10 -19 0 -20 7
-20 185 l0 185 -42 -1 c-24 -1 -33 -4 -20 -6z"/>
<path d="M9013 4663 l27 -4 0 -180 c0 -171 -1 -179 -19 -179 -11 0 -23 -4 -26
-10 -4 -6 15 -10 49 -10 31 0 56 5 56 10 0 6 -11 10 -25 10 l-25 0 0 181 c0
125 3 178 11 174 6 -4 8 -13 5 -21 -3 -8 45 -94 107 -192 l112 -177 3 197 2
197 28 4 c15 2 -2 4 -38 4 -36 0 -53 -2 -37 -4 l27 -4 0 -152 0 -152 -44 70
c-25 39 -69 109 -100 158 l-56 87 -42 -1 c-30 -2 -35 -3 -15 -6z"/>
<path d="M9401 4608 c0 -67 12 -60 24 15 6 36 7 37 50 37 l45 0 0 -180 c0
-173 -1 -180 -20 -180 -11 0 -20 -4 -20 -10 0 -6 27 -10 60 -10 33 0 60 4 60
10 0 6 -9 10 -20 10 -19 0 -20 7 -20 180 l0 180 45 0 c43 0 44 -1 50 -37 12
-75 24 -82 24 -15 l1 62 -140 0 -140 0 1 -62z"/>
<path d="M10213 4663 l27 -4 0 -180 c0 -171 -1 -179 -19 -179 -11 0 -23 -4
-26 -10 -4 -6 43 -10 134 -10 l141 0 0 61 c0 37 -4 58 -10 54 -5 -3 -10 -16
-10 -28 -1 -63 -6 -67 -96 -67 l-84 0 0 179 0 180 28 4 c15 2 -4 4 -43 4 -38
0 -58 -2 -42 -4z"/>
<path d="M14047 4598 c-6 -21 -2 -36 7 -27 10 11 16 49 8 49 -5 0 -12 -10 -15
-22z"/>
<path d="M7594 4536 c-90 -40 -108 -157 -33 -221 37 -31 68 -39 113 -31 35 7
91 44 82 54 -3 3 -15 -3 -26 -13 -11 -10 -41 -20 -68 -23 -45 -4 -50 -2 -80
32 -18 20 -32 48 -32 61 0 25 0 25 105 25 l105 0 0 33 c-1 76 -84 118 -166 83z
m116 -26 c11 -11 20 -31 20 -45 0 -25 -1 -25 -89 -25 -84 0 -89 1 -84 20 16
59 112 91 153 50z"/>
<path d="M7830 4540 c0 -5 6 -10 14 -10 8 0 34 -49 64 -117 28 -65 56 -118 62
-118 6 0 34 53 62 118 30 68 56 117 64 117 8 0 14 5 14 10 0 6 -22 10 -50 10
-27 0 -50 -4 -50 -10 0 -5 11 -10 25 -10 14 0 25 -2 25 -5 0 -3 -12 -34 -26
-68 -15 -34 -33 -77 -41 -96 l-15 -34 -42 99 c-37 88 -40 99 -24 102 38 7 16
22 -32 22 -27 0 -50 -4 -50 -10z"/>
<path d="M8250 4532 c-47 -23 -72 -73 -67 -135 7 -77 74 -127 152 -113 35 7
85 41 85 58 0 5 -14 -2 -31 -16 -55 -46 -131 -31 -164 34 -30 57 -26 60 90 60
118 0 127 6 104 61 -25 62 -100 85 -169 51z m122 -19 c10 -9 18 -29 18 -45 l0
-28 -85 0 c-91 0 -99 5 -69 48 29 42 102 56 136 25z"/>
<path d="M14025 4518 c-3 -7 -16 -62 -30 -123 -14 -60 -28 -118 -31 -127 -3
-10 -1 -18 4 -18 7 0 45 139 67 248 6 31 -1 45 -10 20z"/>
<path d="M13932 4138 c-10 -39 -9 -58 2 -47 10 9 24 89 16 89 -4 0 -12 -19
-18 -42z"/>
<path d="M13892 3975 c-18 -65 -52 -195 -52 -200 0 -3 4 -5 8 -5 11 0 66 214
59 232 -2 7 -9 -5 -15 -27z"/>
<path d="M13806 3644 c-6 -24 -2 -43 8 -33 11 10 17 59 8 59 -5 0 -13 -12 -16
-26z"/>
<path d="M5578 3453 c34 -2 90 -2 125 0 34 2 6 3 -63 3 -69 0 -97 -1 -62 -3z"/>
<path d="M6048 3453 c34 -2 90 -2 125 0 34 2 6 3 -63 3 -69 0 -97 -1 -62 -3z"/>
<path d="M6518 3453 c34 -2 90 -2 125 0 34 2 6 3 -63 3 -69 0 -97 -1 -62 -3z"/>
<path d="M6993 3453 c37 -2 96 -2 130 0 34 2 4 3 -68 3 -71 0 -99 -1 -62 -3z"/>
<path d="M10773 3453 c37 -2 96 -2 130 0 34 2 4 3 -68 3 -71 0 -99 -1 -62 -3z"/>
<path d="M11248 3453 c34 -2 90 -2 125 0 34 2 6 3 -63 3 -69 0 -97 -1 -62 -3z"/>
<path d="M11718 3453 c34 -2 90 -2 125 0 34 2 6 3 -63 3 -69 0 -97 -1 -62 -3z"/>
<path d="M12188 3453 c34 -2 90 -2 125 0 34 2 6 3 -63 3 -69 0 -97 -1 -62 -3z"/>
<path d="M14078 3453 c34 -2 90 -2 125 0 34 2 6 3 -63 3 -69 0 -97 -1 -62 -3z"/>
<path d="M14548 3453 c34 -2 90 -2 125 0 34 2 6 3 -63 3 -69 0 -97 -1 -62 -3z"/>
<path d="M15028 3453 c34 -2 90 -2 125 0 34 2 6 3 -63 3 -69 0 -97 -1 -62 -3z"/>
<path d="M15498 3453 c34 -2 90 -2 125 0 34 2 6 3 -63 3 -69 0 -97 -1 -62 -3z"/>
<path d="M15968 3453 c34 -2 90 -2 125 0 34 2 6 3 -63 3 -69 0 -97 -1 -62 -3z"/>
<path d="M16438 3453 c34 -2 90 -2 125 0 34 2 6 3 -63 3 -69 0 -97 -1 -62 -3z"/>
<path d="M5520 2010 c0 -6 47 -10 121 -10 77 0 118 4 114 10 -4 6 -55 10 -121
10 -69 0 -114 -4 -114 -10z"/>
<path d="M5990 2010 c0 -6 47 -10 120 -10 73 0 120 4 120 10 0 6 -47 10 -120
10 -73 0 -120 -4 -120 -10z"/>
<path d="M6465 2010 c-4 -6 37 -10 114 -10 74 0 121 4 121 10 0 6 -45 10 -114
10 -66 0 -117 -4 -121 -10z"/>
<path d="M6935 2010 c-4 -6 38 -10 120 -10 82 0 124 4 120 10 -4 6 -55 10
-120 10 -65 0 -116 -4 -120 -10z"/>
<path d="M10715 2010 c-4 -6 38 -10 120 -10 82 0 124 4 120 10 -4 6 -55 10
-120 10 -65 0 -116 -4 -120 -10z"/>
<path d="M11190 2010 c0 -6 47 -10 121 -10 77 0 118 4 114 10 -4 6 -55 10
-121 10 -69 0 -114 -4 -114 -10z"/>
<path d="M11660 2010 c0 -6 47 -10 120 -10 73 0 120 4 120 10 0 6 -47 10 -120
10 -73 0 -120 -4 -120 -10z"/>
<path d="M12135 2010 c-4 -6 37 -10 114 -10 74 0 121 4 121 10 0 6 -45 10
-114 10 -66 0 -117 -4 -121 -10z"/>
<path d="M13550 2010 c0 -6 47 -10 121 -10 77 0 118 4 114 10 -4 6 -55 10
-121 10 -69 0 -114 -4 -114 -10z"/>
<path d="M14025 2010 c-4 -6 37 -10 114 -10 74 0 121 4 121 10 0 6 -45 10
-114 10 -66 0 -117 -4 -121 -10z"/>
<path d="M14495 2010 c-4 -6 37 -10 114 -10 74 0 121 4 121 10 0 6 -45 10
-114 10 -66 0 -117 -4 -121 -10z"/>
<path d="M14970 2010 c0 -6 47 -10 121 -10 77 0 118 4 114 10 -4 6 -55 10
-121 10 -69 0 -114 -4 -114 -10z"/>
<path d="M15440 2010 c0 -6 47 -10 121 -10 77 0 118 4 114 10 -4 6 -55 10
-121 10 -69 0 -114 -4 -114 -10z"/>
<path d="M15915 2010 c-4 -6 37 -10 114 -10 74 0 121 4 121 10 0 6 -45 10
-114 10 -66 0 -117 -4 -121 -10z"/>
<path d="M16385 2010 c-4 -6 37 -10 114 -10 74 0 121 4 121 10 0 6 -45 10
-114 10 -66 0 -117 -4 -121 -10z"/>
<path d="M939 1493 c-43 -11 -71 -131 -50 -211 17 -61 41 -82 95 -82 73 0 100
41 100 150 1 124 -46 170 -145 143z m85 -26 c45 -45 45 -189 0 -234 -29 -29
-49 -29 -79 1 -62 63 -33 256 40 256 9 0 26 -10 39 -23z"/>
<path d="M5894 805 c0 -126 2 -177 3 -112 2 65 2 168 0 230 -1 62 -3 9 -3
-118z"/>
<path d="M13494 805 c0 -126 2 -177 3 -112 2 65 2 168 0 230 -1 62 -3 9 -3
-118z"/>
<path d="M1209 953 c-61 -16 -79 -208 -24 -267 19 -21 34 -26 69 -26 62 0 87
27 101 107 17 106 -27 194 -97 192 -18 -1 -40 -3 -49 -6z m101 -48 c21 -42 19
-164 -3 -198 -57 -87 -137 -2 -124 131 8 77 29 104 75 100 29 -2 40 -9 52 -33z"/>
<path d="M12432 950 c-72 -30 -74 -241 -3 -280 29 -15 83 -12 108 5 50 35 59
194 14 254 -19 25 -82 37 -119 21z m93 -30 c22 -25 31 -130 16 -188 -19 -68
-85 -82 -115 -24 -31 62 -25 181 11 217 20 21 67 19 88 -5z"/>
<path d="M13167 940 c-30 -24 -62 -102 -72 -178 -10 -72 9 -102 66 -102 53 0
83 32 109 118 36 117 20 182 -44 182 -18 0 -45 -9 -59 -20z m89 -24 c3 -13 4
-38 2 -57 l-3 -34 -59 -3 -58 -3 7 28 c13 55 44 93 76 93 22 0 30 -6 35 -24z
m-12 -133 c-9 -42 -50 -101 -75 -108 -40 -13 -57 30 -43 104 6 31 7 31 65 31
l59 0 -6 -27z"/>
<path d="M5052 860 c-12 -12 -22 -28 -22 -37 0 -11 6 -8 21 11 38 49 69 29 44
-30 -8 -20 -15 -51 -15 -69 0 -60 62 -85 112 -46 24 20 25 20 41 0 28 -32 70
-24 110 20 52 57 74 157 38 169 -10 3 -12 -4 -7 -35 12 -70 -40 -153 -96 -153
-24 0 -28 4 -28 28 0 15 9 56 20 92 11 36 20 66 20 68 0 2 -10 2 -22 0 -19 -2
-26 -16 -44 -83 -24 -85 -41 -105 -87 -105 -28 0 -29 2 -22 33 22 105 14 157
-23 157 -10 0 -28 -9 -40 -20z"/>
<path d="M5528 873 c-39 -10 -72 -94 -57 -148 12 -42 40 -59 84 -52 l32 5 -9
-39 c-6 -23 -18 -41 -29 -44 -37 -12 -18 -25 36 -25 30 0 55 5 55 10 0 6 -7
10 -15 10 -8 0 -15 2 -15 5 0 7 70 253 77 273 3 7 -3 12 -16 12 -14 0 -25 -10
-32 -27 -8 -20 -13 -24 -16 -13 -11 34 -47 46 -95 33z m83 -40 c12 -32 -4
-105 -28 -129 -19 -19 -59 -18 -67 2 -12 31 -5 90 14 122 26 42 66 45 81 5z"/>
<path d="M12692 857 c-12 -13 -22 -30 -22 -38 1 -8 9 -3 21 14 22 28 59 37 59
13 0 -7 -7 -30 -15 -49 -20 -49 -19 -83 5 -107 26 -26 60 -25 93 0 l26 21 21
-21 c32 -32 68 -26 110 20 38 41 50 74 50 136 0 23 -5 34 -15 34 -11 0 -13
-10 -8 -49 9 -77 -37 -141 -101 -141 -32 0 -33 12 -6 108 24 87 24 82 0 82
-14 0 -22 -11 -30 -42 -33 -128 -46 -148 -98 -148 -38 0 -38 -3 -10 88 11 37
10 47 -3 70 -19 35 -49 39 -77 9z"/>
<path d="M6127 756 c-5 -12 -16 -14 -49 -10 -34 5 -48 2 -68 -14 -22 -18 -23
-23 -12 -46 6 -15 28 -36 47 -48 50 -29 46 -62 -7 -66 -32 -3 -40 1 -50 23
-14 31 -28 16 -28 -30 1 -25 2 -27 10 -13 9 14 16 15 40 7 46 -17 85 7 85 51
0 29 -6 39 -37 59 -53 34 -51 61 3 61 32 0 42 -4 46 -20 8 -31 20 -24 28 16 7
38 2 56 -8 30z"/>
<path d="M13726 755 c-4 -12 -14 -14 -46 -9 -46 7 -90 -14 -90 -44 0 -20 31
-52 68 -71 16 -8 22 -20 20 -34 -2 -18 -10 -22 -43 -22 -32 0 -42 5 -52 24
l-12 25 -5 -27 c-3 -15 -8 -39 -11 -54 l-5 -28 15 27 c13 24 18 25 43 16 21
-8 35 -8 58 3 24 12 29 20 29 49 0 29 -6 39 -37 59 -53 34 -51 61 3 61 32 0
42 -4 46 -20 8 -31 20 -24 28 16 7 38 2 56 -9 29z"/>
<path d="M5784 720 c-4 -16 -13 -30 -20 -30 -16 0 -19 -17 -4 -22 7 -2 7 -15
0 -37 -7 -27 -6 -40 5 -58 9 -13 19 -23 24 -23 14 0 45 40 37 47 -4 5 -12 0
-17 -10 -12 -20 -29 -23 -29 -4 0 32 22 87 35 87 8 0 15 5 15 10 0 6 -5 10
-11 10 -7 0 -8 11 -4 30 5 24 3 30 -9 30 -10 0 -19 -12 -22 -30z"/>
<path d="M13384 734 c3 -9 -1 -43 -9 -76 -17 -65 -14 -93 13 -103 17 -6 59 32
47 43 -3 3 -12 -3 -19 -14 -8 -10 -18 -15 -22 -11 -7 6 2 47 33 160 4 13 -1
17 -22 17 -21 0 -26 -4 -21 -16z"/>
<path d="M4218 409 c-10 -5 -21 -28 -24 -49 -4 -24 -13 -41 -23 -43 -14 -4
-14 -5 2 -6 15 -1 17 -12 17 -91 0 -73 -3 -90 -15 -90 -8 0 -15 -4 -15 -10 0
-13 87 -13 95 0 3 5 -3 10 -14 10 -20 0 -21 6 -21 89 l0 90 28 4 27 4 -27 2
c-21 1 -28 6 -28 22 0 26 17 59 31 59 6 0 8 -4 5 -9 -3 -5 1 -14 9 -21 12 -10
16 -9 21 4 15 39 -26 60 -68 35z"/>
<path d="M4340 410 c0 -5 7 -10 15 -10 13 0 15 -22 15 -135 0 -113 -2 -135
-15 -135 -8 0 -15 -4 -15 -10 0 -13 87 -13 95 0 3 5 -3 10 -14 10 -20 0 -21 5
-21 145 l0 145 -30 0 c-16 0 -30 -4 -30 -10z"/>
<path d="M12510 410 c0 -5 7 -10 15 -10 13 0 15 -22 15 -135 0 -113 -2 -135
-15 -135 -8 0 -15 -4 -15 -10 0 -13 87 -13 95 0 3 5 -3 10 -14 10 -19 0 -21 6
-21 70 l0 70 75 0 75 0 0 -70 c0 -56 -3 -70 -15 -70 -8 0 -15 -4 -15 -10 0
-13 87 -13 95 0 3 5 -3 10 -14 10 -20 0 -21 5 -21 135 0 111 3 135 14 135 8 0
18 5 21 10 4 6 -13 10 -44 10 -28 0 -51 -4 -51 -10 0 -5 7 -10 15 -10 12 0 15
-13 15 -60 l0 -60 -75 0 -75 0 0 60 c0 46 3 60 14 60 8 0 18 5 21 10 4 6 -13
10 -44 10 -28 0 -51 -4 -51 -10z"/>
<path d="M13423 413 c-8 -3 -13 -22 -13 -48 0 -33 -4 -45 -17 -48 -17 -4 -17
-5 0 -6 14 -1 17 -11 17 -65 0 -79 12 -113 44 -128 20 -9 30 -8 51 6 14 9 25
23 25 31 0 12 -5 10 -20 -5 -45 -45 -70 -11 -70 95 0 62 1 64 28 68 l27 4 -27
2 c-25 1 -27 5 -30 49 -2 34 -7 47 -15 45z"/>
<path d="M13857 402 c-10 -10 -17 -33 -17 -50 0 -24 -5 -32 -22 -35 l-23 -4
23 -2 c21 -1 22 -5 22 -91 0 -84 -1 -90 -21 -90 -11 0 -17 -4 -14 -10 8 -13
95 -13 95 0 0 6 -7 10 -15 10 -12 0 -15 17 -15 89 l0 90 28 4 27 4 -27 2 c-23
1 -28 6 -28 25 0 31 10 56 22 56 5 0 7 -4 4 -9 -3 -5 0 -14 8 -20 10 -9 16 -8
26 4 30 36 -41 62 -73 27z"/>
<path d="M13985 410 c3 -5 13 -10 21 -10 11 0 14 -24 14 -135 0 -130 -1 -135
-21 -135 -11 0 -17 -4 -14 -10 8 -13 95 -13 95 0 0 6 -7 10 -15 10 -13 0 -15
23 -15 145 l0 145 -36 0 c-21 0 -33 -4 -29 -10z"/>
<path d="M3611 327 c-37 -19 -63 -75 -57 -122 6 -52 38 -79 84 -71 34 5 34 5
28 -26 -7 -36 -23 -58 -42 -58 -8 0 -14 -4 -14 -10 0 -5 25 -10 55 -10 50 0
73 12 43 22 -9 3 -2 41 25 139 21 74 37 137 37 142 0 18 -31 4 -44 -20 -8 -16
-15 -23 -16 -16 -1 37 -54 53 -99 30z m79 -22 c16 -20 8 -96 -14 -130 -23 -35
-63 -34 -77 2 -28 75 47 181 91 128z"/>
<path d="M15137 327 c-4 -10 -20 -13 -61 -9 -45 4 -61 1 -76 -13 -38 -35 -18
-61 73 -96 46 -18 57 -26 57 -44 0 -25 -17 -35 -61 -35 -28 0 -52 17 -76 56
-10 16 -12 11 -12 -36 0 -47 1 -53 13 -38 11 15 18 16 50 6 30 -10 43 -9 72 5
31 15 35 21 32 50 -3 29 -10 35 -76 67 -75 35 -83 49 -40 64 38 13 76 -1 98
-37 l20 -32 0 53 c0 52 -4 63 -13 39z"/>
<path d="M4508 313 c21 -4 22 -9 22 -89 l0 -84 35 -17 c31 -15 38 -15 74 -1
33 13 41 14 45 2 6 -16 56 -19 56 -4 0 6 -7 10 -15 10 -11 0 -15 19 -17 93
l-3 92 -35 2 c-20 0 -25 -1 -12 -4 22 -4 23 -8 20 -75 -3 -64 -6 -73 -30 -91
-23 -17 -33 -19 -55 -11 -27 9 -28 13 -33 94 l-5 85 -35 2 c-19 0 -25 -1 -12
-4z"/>
<path d="M4806 310 c12 -4 35 -27 52 -51 34 -46 34 -45 -17 -101 -14 -16 -31
-28 -38 -28 -8 0 -11 -4 -8 -10 8 -13 85 -13 85 0 0 6 -10 10 -22 10 -20 0
-19 3 12 35 l34 35 27 -33 c20 -24 23 -33 13 -35 -8 -2 -12 -8 -9 -13 8 -12
72 -12 80 1 3 6 0 10 -8 10 -8 0 -30 21 -50 46 l-36 46 32 40 c18 22 41 44 52
49 14 5 5 8 -30 7 -31 0 -42 -2 -28 -6 21 -7 21 -7 -8 -41 -16 -19 -30 -33
-31 -30 -2 2 -14 17 -28 32 -21 24 -22 30 -10 37 10 7 0 10 -35 9 -38 0 -45
-2 -29 -9z"/>
<path d="M12891 304 c-81 -57 -43 -188 55 -188 33 0 84 27 84 45 0 6 -12 1
-26 -10 -15 -12 -37 -21 -50 -21 -30 0 -72 38 -80 73 l-6 27 86 0 c77 0 86 2
86 19 0 10 -9 30 -21 45 -16 21 -29 26 -63 26 -23 0 -52 -7 -65 -16z m103 -10
c9 -8 16 -24 16 -35 0 -17 -7 -19 -65 -19 -73 0 -84 14 -39 49 32 25 67 27 88
5z"/>
<path d="M13138 309 c-22 -12 -24 -39 -3 -39 8 0 15 7 15 15 0 8 12 18 26 21
37 9 79 -7 79 -30 0 -16 -13 -22 -64 -32 -69 -14 -81 -24 -81 -66 0 -57 62
-83 122 -50 21 11 38 17 38 13 0 -4 11 -13 25 -19 28 -13 34 -2 10 18 -10 8
-15 31 -15 70 0 80 -24 110 -88 110 -26 0 -55 -5 -64 -11z m120 -111 c-2 -34
-8 -45 -30 -57 -39 -22 -82 -5 -86 33 -4 34 6 46 50 56 66 16 69 14 66 -32z"/>
<path d="M14148 313 c20 -4 22 -10 22 -78 0 -92 4 -101 45 -115 26 -9 41 -8
68 4 31 12 36 12 41 0 6 -16 52 -19 61 -4 3 6 -3 10 -14 10 -20 0 -21 6 -21
95 l0 95 -32 -1 c-18 -1 -25 -3 -15 -6 14 -4 17 -16 17 -78 0 -79 -7 -91 -57
-101 -49 -10 -63 14 -63 107 l0 79 -37 -1 c-24 -1 -29 -3 -15 -6z"/>
<path d="M14449 313 c17 -7 55 -49 72 -80 10 -19 7 -27 -22 -62 -19 -22 -40
-41 -46 -41 -7 0 -13 -4 -13 -10 0 -13 77 -13 85 -1 3 5 -4 11 -15 13 -20 3
-20 5 8 37 l28 34 27 -34 c21 -27 23 -35 12 -37 -9 -2 -13 -8 -10 -13 8 -12
85 -12 85 1 0 6 -6 10 -12 10 -13 1 -78 80 -78 95 0 12 61 79 79 87 9 4 -6 6
-34 6 -34 0 -42 -2 -26 -7 l24 -6 -29 -34 -28 -34 -28 34 c-26 30 -27 34 -11
41 11 4 -3 7 -32 7 -27 -1 -44 -3 -36 -6z"/>
<path d="M14763 305 c-13 -9 -28 -33 -34 -54 -16 -55 11 -110 63 -129 33 -13
41 -12 74 4 21 11 40 26 42 34 4 12 1 11 -15 -2 -10 -10 -33 -20 -50 -24 -36
-7 -79 26 -89 69 l-6 27 86 0 c80 0 86 1 86 20 0 12 -11 32 -25 45 -29 30 -97
34 -132 10z m109 -12 c10 -9 18 -24 18 -35 0 -16 -8 -18 -65 -18 -73 0 -84 14
-39 49 32 25 61 27 86 4z"/>
<path d="M3877 203 c-4 -3 -7 -15 -7 -26 0 -10 -9 -21 -20 -24 -21 -6 -28 -23
-9 -23 6 0 8 -15 4 -43 -5 -34 -3 -48 10 -60 20 -20 55 -7 55 21 -1 15 -2 15
-15 -2 -21 -27 -28 -14 -20 35 5 29 13 43 26 46 20 6 26 23 8 23 -7 0 -9 11
-5 30 5 29 -9 41 -27 23z"/>
</g>
</svg>
