<?xml version="1.0" standalone="no"?>
<!DOCTYPE svg PUBLIC "-//W3C//DTD SVG 20010904//EN"
 "http://www.w3.org/TR/2001/REC-SVG-20010904/DTD/svg10.dtd">
<svg version="1.0" xmlns="http://www.w3.org/2000/svg"
 width="1771.000000pt" height="1771.000000pt" viewBox="0 0 1771.000000 1771.000000"
 preserveAspectRatio="xMidYMid meet">
<metadata>
Created by potrace 1.16, written by Peter Selinger 2001-2019
</metadata>
<g transform="translate(0.000000,1771.000000) scale(0.100000,-0.100000)"
fill="#000000" stroke="none">
<path d="M10215 16480 l-6290 -5 -3 -6992 -2 -6993 6315 0 6315 0 2 6983 c3
6797 3 6982 -16 7000 -10 9 -21 16 -25 15 -3 -2 -2836 -5 -6296 -8z m6255 -25
c0 -3 -51 -61 -112 -128 -62 -68 -147 -161 -188 -207 -82 -92 -97 -109 -311
-345 -80 -88 -187 -207 -239 -265 -86 -97 -209 -234 -721 -799 -107 -118 -255
-283 -329 -365 -74 -83 -202 -225 -285 -316 -82 -91 -181 -201 -219 -243 l-69
-77 -3791 0 -3791 0 3 -1425 3 -1425 1242 -1378 c684 -757 1246 -1382 1250
-1389 5 -8 -218 -262 -613 -700 l-620 -687 0 -2103 0 -2103 -610 0 -610 0 -2
118 -2 117 -3 -117 -4 -118 -1244 0 c-685 0 -1245 3 -1245 6 0 4 32 42 71 85
39 44 67 79 61 79 -6 0 -42 -35 -81 -77 l-71 -78 0 6973 0 6972 6265 0 c3446
0 6265 -2 6265 -5z m60 -7005 l0 -6950 -1240 0 c-1233 0 -1240 0 -1240 20 0
16 -7 20 -35 20 -28 0 -35 -4 -35 -20 0 -20 -7 -20 -3115 -20 l-3115 0 0 2084
0 2084 43 50 c23 27 303 338 622 691 l579 643 35 -39 c92 -102 123 -134 128
-129 3 3 -28 42 -68 87 -100 110 -100 119 -2 227 41 45 70 82 65 82 -6 0 -44
-36 -84 -81 l-74 -81 -1252 1388 -1252 1388 0 1373 0 1373 3774 0 3775 0 99
113 c54 61 173 193 263 293 90 99 198 218 239 264 41 46 167 185 280 310 113
125 239 264 280 310 179 200 368 409 419 465 31 33 90 98 131 145 107 120 354
394 419 465 62 67 88 96 245 273 60 67 111 122 113 122 1 0 3 -3127 3 -6950z"/>
<path d="M3976 13618 c40 -49 109 -118 117 -118 4 0 -20 32 -54 70 -35 39 -67
70 -73 70 -5 0 -1 -10 10 -22z"/>
<path d="M4250 13324 c0 -14 152 -186 158 -179 6 5 -30 51 -103 130 -30 33
-55 55 -55 49z"/>
<path d="M4631 12890 c41 -46 82 -86 90 -88 8 -3 -20 32 -62 78 -41 46 -82 86
-90 88 -8 3 20 -32 62 -78z"/>
<path d="M4882 12622 c4 -17 151 -183 156 -177 3 2 -3 15 -11 27 -27 38 -149
164 -145 150z"/>
<path d="M5197 12273 c-4 -3 30 -46 75 -94 45 -49 83 -87 86 -84 3 2 -10 21
-28 42 -85 97 -128 142 -133 136z"/>
<path d="M5535 11888 c62 -74 136 -150 142 -145 6 7 -147 177 -160 177 -5 0 3
-15 18 -32z"/>
<path d="M5830 11563 c1 -12 160 -180 160 -168 0 11 -137 168 -152 173 -4 2
-8 0 -8 -5z"/>
<path d="M6175 11178 c89 -100 127 -139 132 -134 7 7 -146 176 -159 176 -6 0
7 -19 27 -42z"/>
<path d="M6454 10640 c0 -69 1 -97 3 -62 2 34 2 90 0 125 -2 34 -3 6 -3 -63z"/>
<path d="M6454 10170 c0 -69 1 -97 3 -62 2 34 2 90 0 125 -2 34 -3 6 -3 -63z"/>
<path d="M6454 9700 c0 -69 1 -97 3 -62 2 34 2 90 0 125 -2 34 -3 6 -3 -63z"/>
<path d="M6454 9230 c0 -69 1 -97 3 -62 2 34 2 90 0 125 -2 34 -3 6 -3 -63z"/>
<path d="M6454 8750 c0 -69 1 -97 3 -62 2 34 2 90 0 125 -2 34 -3 6 -3 -63z"/>
<path d="M6454 8280 c0 -69 1 -97 3 -62 2 34 2 90 0 125 -2 34 -3 6 -3 -63z"/>
<path d="M6454 7810 c0 -69 1 -97 3 -62 2 34 2 90 0 125 -2 34 -3 6 -3 -63z"/>
<path d="M6454 7340 c0 -69 1 -97 3 -62 2 34 2 90 0 125 -2 34 -3 6 -3 -63z"/>
<path d="M6454 6865 c0 -71 1 -99 3 -62 2 37 2 96 0 130 -2 34 -3 4 -3 -68z"/>
<path d="M7485 6445 c-43 -47 -75 -88 -72 -91 5 -5 43 34 132 134 20 23 33 42
27 42 -5 0 -44 -38 -87 -85z"/>
<path d="M6454 6390 c0 -69 1 -97 3 -62 2 34 2 90 0 125 -2 34 -3 6 -3 -63z"/>
<path d="M7168 6093 c-43 -48 -75 -89 -72 -92 5 -6 106 99 145 152 43 58 1 23
-73 -60z"/>
<path d="M6454 5920 c0 -69 1 -97 3 -62 2 34 2 90 0 125 -2 34 -3 6 -3 -63z"/>
<path d="M6856 5747 c-72 -80 -101 -123 -55 -81 41 36 142 155 137 160 -3 2
-40 -33 -82 -79z"/>
<path d="M6454 5450 c0 -69 1 -97 3 -62 2 34 2 90 0 125 -2 34 -3 6 -3 -63z"/>
<path d="M6537 5393 c-43 -47 -75 -89 -72 -92 3 -3 34 26 68 64 80 89 101 115
90 115 -5 0 -44 -39 -86 -87z"/>
<path d="M6254 5077 c-97 -102 -118 -127 -107 -127 12 0 168 169 161 175 -2 3
-26 -19 -54 -48z"/>
<path d="M6454 4975 c0 -71 1 -99 3 -62 2 37 2 96 0 130 -2 34 -3 4 -3 -68z"/>
<path d="M5906 4694 c-42 -47 -75 -89 -72 -92 4 -3 32 23 64 58 73 81 95 110
90 116 -3 2 -39 -35 -82 -82z"/>
<path d="M6454 4500 c0 -69 1 -97 3 -62 2 34 2 90 0 125 -2 34 -3 6 -3 -63z"/>
<path d="M5640 4400 c-14 -16 -49 -56 -78 -90 -30 -33 -50 -60 -45 -60 15 0
164 168 155 174 -4 2 -19 -8 -32 -24z"/>
<path d="M6454 4030 c0 -69 1 -97 3 -62 2 34 2 90 0 125 -2 34 -3 6 -3 -63z"/>
<path d="M5272 3991 c-45 -48 -79 -91 -75 -94 5 -6 48 39 133 136 18 21 31 40
28 42 -3 3 -41 -35 -86 -84z"/>
<path d="M4983 3670 c-83 -92 -106 -121 -101 -125 7 -7 160 164 156 174 -2 6
-27 -17 -55 -49z"/>
<path d="M6454 3560 c0 -69 1 -97 3 -62 2 34 2 90 0 125 -2 34 -3 6 -3 -63z"/>
<path d="M4635 3285 c-43 -47 -75 -88 -72 -91 5 -5 43 34 132 134 20 23 33 42
27 42 -5 0 -44 -38 -87 -85z"/>
<path d="M6454 3085 c0 -71 1 -99 3 -62 2 37 2 96 0 130 -2 34 -3 4 -3 -68z"/>
<path d="M4323 2939 c-40 -45 -73 -87 -73 -93 0 -11 102 95 141 147 42 56 2
24 -68 -54z"/>
<path d="M13980 13595 c0 -22 4 -25 35 -25 31 0 35 3 35 25 0 22 -4 25 -35 25
-31 0 -35 -3 -35 -25z"/>
<path d="M13816 13464 c-43 -47 -76 -88 -73 -91 4 -3 28 19 55 48 75 82 105
119 100 124 -2 3 -39 -34 -82 -81z"/>
<path d="M13980 13430 c0 -28 3 -30 35 -30 32 0 35 2 35 30 0 28 -3 30 -35 30
-32 0 -35 -2 -35 -30z"/>
<path d="M13980 13265 c0 -22 4 -25 35 -25 31 0 35 3 35 25 0 22 -4 25 -35 25
-31 0 -35 -3 -35 -25z"/>
<path d="M13498 13112 c-42 -48 -74 -89 -72 -92 6 -5 163 160 164 173 1 19
-21 0 -92 -81z"/>
<path d="M13980 13100 c0 -28 3 -30 35 -30 32 0 35 2 35 30 0 28 -3 30 -35 30
-32 0 -35 -2 -35 -30z"/>
<path d="M13980 12935 c0 -22 4 -25 35 -25 31 0 35 3 35 25 0 22 -4 25 -35 25
-31 0 -35 -3 -35 -25z"/>
<path d="M13182 12761 c-45 -48 -79 -91 -75 -94 5 -6 48 39 133 136 18 21 31
40 28 42 -3 3 -41 -35 -86 -84z"/>
<path d="M13980 12770 c0 -28 3 -30 35 -30 32 0 35 2 35 30 0 28 -3 30 -35 30
-32 0 -35 -2 -35 -30z"/>
<path d="M13980 12605 c0 -22 4 -25 35 -25 31 0 35 3 35 25 0 22 -4 25 -35 25
-31 0 -35 -3 -35 -25z"/>
<path d="M12870 12415 c-93 -104 -105 -135 -15 -40 70 75 100 113 94 120 -3 2
-38 -34 -79 -80z"/>
<path d="M13980 12435 c0 -22 4 -25 35 -25 31 0 35 3 35 25 0 22 -4 25 -35 25
-31 0 -35 -3 -35 -25z"/>
<path d="M13980 12275 c0 -22 4 -25 35 -25 31 0 35 3 35 25 0 22 -4 25 -35 25
-31 0 -35 -3 -35 -25z"/>
<path d="M12545 12055 c-80 -89 -93 -121 -15 -37 95 100 114 122 103 122 -6 0
-45 -38 -88 -85z"/>
<path d="M13980 12105 c0 -22 4 -25 35 -25 31 0 35 3 35 25 0 22 -4 25 -35 25
-31 0 -35 -3 -35 -25z"/>
<path d="M13980 11945 c0 -22 4 -25 35 -25 31 0 35 3 35 25 0 22 -4 25 -35 25
-31 0 -35 -3 -35 -25z"/>
<path d="M12237 11713 c-42 -47 -77 -91 -77 -97 0 -6 25 16 55 49 73 79 109
125 103 130 -2 3 -39 -34 -81 -82z"/>
<path d="M13980 11775 c0 -22 4 -25 35 -25 31 0 35 3 35 25 0 22 -4 25 -35 25
-31 0 -35 -3 -35 -25z"/>
<path d="M13980 11615 c0 -22 4 -25 35 -25 31 0 35 3 35 25 0 22 -4 25 -35 25
-31 0 -35 -3 -35 -25z"/>
<path d="M13980 11445 c0 -22 4 -25 35 -25 31 0 35 3 35 25 0 22 -4 25 -35 25
-31 0 -35 -3 -35 -25z"/>
<path d="M11950 11393 c-94 -100 -113 -123 -108 -128 3 -3 42 35 88 85 45 49
78 90 73 90 -5 0 -29 -21 -53 -47z"/>
<path d="M13980 11285 c0 -22 4 -25 35 -25 31 0 35 3 35 25 0 22 -4 25 -35 25
-31 0 -35 -3 -35 -25z"/>
<path d="M13980 11115 c0 -22 4 -25 35 -25 31 0 35 3 35 25 0 22 -4 25 -35 25
-31 0 -35 -3 -35 -25z"/>
<path d="M11597 11003 c-43 -47 -75 -89 -72 -92 3 -3 34 26 68 64 80 89 101
115 90 115 -5 0 -44 -39 -86 -87z"/>
<path d="M13980 10950 c0 -28 3 -30 35 -30 32 0 35 2 35 30 0 28 -3 30 -35 30
-32 0 -35 -2 -35 -30z"/>
<path d="M13980 10785 c0 -22 4 -25 35 -25 31 0 35 3 35 25 0 22 -4 25 -35 25
-31 0 -35 -3 -35 -25z"/>
<path d="M11285 10659 c-96 -110 -94 -123 4 -19 44 47 80 88 81 93 1 18 -20 0
-85 -74z"/>
<path d="M13980 10620 c0 -28 3 -30 35 -30 32 0 35 2 35 30 0 28 -3 30 -35 30
-32 0 -35 -2 -35 -30z"/>
<path d="M13980 10455 c0 -22 4 -25 35 -25 31 0 35 3 35 25 0 22 -4 25 -35 25
-31 0 -35 -3 -35 -25z"/>
<path d="M10966 10304 c-43 -47 -76 -88 -73 -91 6 -5 52 42 136 140 18 20 29
37 24 37 -5 0 -44 -38 -87 -86z"/>
<path d="M13980 10290 c0 -28 3 -30 35 -30 32 0 35 2 35 30 0 28 -3 30 -35 30
-32 0 -35 -2 -35 -30z"/>
<path d="M13980 10125 c0 -22 4 -25 35 -25 31 0 35 3 35 25 0 22 -4 25 -35 25
-31 0 -35 -3 -35 -25z"/>
<path d="M10648 9952 c-42 -48 -74 -89 -72 -92 6 -5 163 160 164 173 1 19 -21
0 -92 -81z"/>
<path d="M13980 9955 c0 -22 4 -25 35 -25 31 0 35 3 35 25 0 22 -4 25 -35 25
-31 0 -35 -3 -35 -25z"/>
<path d="M13980 9795 c0 -22 4 -25 35 -25 31 0 35 3 35 25 0 22 -4 25 -35 25
-31 0 -35 -3 -35 -25z"/>
<path d="M10335 9605 c-43 -47 -75 -88 -72 -91 5 -5 55 46 127 129 18 21 30
40 28 43 -3 2 -40 -34 -83 -81z"/>
<path d="M13980 9625 c0 -22 4 -25 35 -25 31 0 35 3 35 25 0 22 -4 25 -35 25
-31 0 -35 -3 -35 -25z"/>
<path d="M13980 9465 c0 -22 4 -25 35 -25 31 0 35 3 35 25 0 22 -4 25 -35 25
-31 0 -35 -3 -35 -25z"/>
<path d="M10018 9253 c-43 -48 -75 -89 -72 -92 5 -6 106 99 145 152 43 58 1
23 -73 -60z"/>
<path d="M13980 9295 c0 -22 4 -25 35 -25 31 0 35 3 35 25 0 22 -4 25 -35 25
-31 0 -35 -3 -35 -25z"/>
<path d="M13980 9135 c0 -22 4 -25 35 -25 31 0 35 3 35 25 0 22 -4 25 -35 25
-31 0 -35 -3 -35 -25z"/>
<path d="M9700 8900 c-45 -49 -78 -90 -73 -90 8 0 45 37 132 132 19 21 32 40
29 43 -3 3 -42 -35 -88 -85z"/>
<path d="M13980 8965 c0 -22 4 -25 35 -25 31 0 35 3 35 25 0 22 -4 25 -35 25
-31 0 -35 -3 -35 -25z"/>
<path d="M13980 8800 c0 -28 3 -30 35 -30 32 0 35 2 35 30 0 28 -3 30 -35 30
-32 0 -35 -2 -35 -30z"/>
<path d="M13980 8635 c0 -22 4 -25 35 -25 31 0 35 3 35 25 0 22 -4 25 -35 25
-31 0 -35 -3 -35 -25z"/>
<path d="M9387 8553 c-42 -47 -77 -91 -77 -97 0 -6 25 16 55 49 73 79 109 125
103 130 -2 3 -39 -34 -81 -82z"/>
<path d="M13980 8470 c0 -28 3 -30 35 -30 32 0 35 2 35 30 0 28 -3 30 -35 30
-32 0 -35 -2 -35 -30z"/>
<path d="M13980 8305 c0 -22 4 -25 35 -25 31 0 35 3 35 25 0 22 -4 25 -35 25
-31 0 -35 -3 -35 -25z"/>
<path d="M13980 8140 c0 -28 3 -30 35 -30 32 0 35 2 35 30 0 28 -3 30 -35 30
-32 0 -35 -2 -35 -30z"/>
<path d="M13980 7975 c0 -22 4 -25 35 -25 31 0 35 3 35 25 0 22 -4 25 -35 25
-31 0 -35 -3 -35 -25z"/>
<path d="M13980 7810 c0 -28 3 -30 35 -30 32 0 35 2 35 30 0 28 -3 30 -35 30
-32 0 -35 -2 -35 -30z"/>
<path d="M9316 7698 c17 -28 154 -173 154 -163 0 12 -137 168 -152 174 -7 2
-7 -2 -2 -11z"/>
<path d="M13980 7645 c0 -22 4 -25 35 -25 31 0 35 3 35 25 0 22 -4 25 -35 25
-31 0 -35 -3 -35 -25z"/>
<path d="M13980 7475 c0 -22 4 -25 35 -25 31 0 35 3 35 25 0 22 -4 25 -35 25
-31 0 -35 -3 -35 -25z"/>
<path d="M9689 7281 c76 -84 101 -108 101 -96 0 12 -151 175 -162 175 -6 0 22
-35 61 -79z"/>
<path d="M13980 7315 c0 -22 4 -25 35 -25 31 0 35 3 35 25 0 22 -4 25 -35 25
-31 0 -35 -3 -35 -25z"/>
<path d="M13980 7145 c0 -22 4 -25 35 -25 31 0 35 3 35 25 0 22 -4 25 -35 25
-31 0 -35 -3 -35 -25z"/>
<path d="M9957 6987 c45 -58 143 -160 148 -156 6 7 -145 179 -158 179 -4 0 0
-10 10 -23z"/>
<path d="M13980 6985 c0 -22 4 -25 35 -25 31 0 35 3 35 25 0 22 -4 25 -35 25
-31 0 -35 -3 -35 -25z"/>
<path d="M13980 6815 c0 -22 4 -25 35 -25 31 0 35 3 35 25 0 22 -4 25 -35 25
-31 0 -35 -3 -35 -25z"/>
<path d="M13980 6655 c0 -22 4 -25 34 -25 22 0 36 6 40 16 9 24 -2 34 -40 34
-30 0 -34 -3 -34 -25z"/>
<path d="M10334 6566 c43 -47 81 -84 84 -81 7 6 -130 157 -149 164 -7 2 22
-35 65 -83z"/>
<path d="M13980 6485 c0 -22 4 -25 35 -25 31 0 35 3 35 25 0 22 -4 25 -35 25
-31 0 -35 -3 -35 -25z"/>
<path d="M13980 6320 c0 -28 3 -30 35 -30 32 0 35 2 35 30 0 28 -3 30 -35 30
-32 0 -35 -2 -35 -30z"/>
<path d="M10596 6278 c68 -82 134 -151 140 -146 6 7 -146 178 -159 178 -5 0 4
-15 19 -32z"/>
<path d="M13980 6155 c0 -22 4 -25 35 -25 31 0 35 3 35 25 0 22 -4 25 -35 25
-31 0 -35 -3 -35 -25z"/>
<path d="M13980 5990 c0 -28 3 -30 35 -30 32 0 35 2 35 30 0 28 -3 30 -35 30
-32 0 -35 -2 -35 -30z"/>
<path d="M10890 5953 c1 -12 158 -179 164 -173 5 6 -141 172 -156 178 -4 2 -8
0 -8 -5z"/>
<path d="M13980 5825 c0 -22 4 -25 35 -25 31 0 35 3 35 25 0 22 -4 25 -35 25
-31 0 -35 -3 -35 -25z"/>
<path d="M13980 5660 c0 -28 3 -30 35 -30 32 0 35 2 35 30 0 28 -3 30 -35 30
-32 0 -35 -2 -35 -30z"/>
<path d="M11212 5602 c4 -15 140 -170 151 -171 17 -2 2 19 -74 99 -44 47 -79
79 -77 72z"/>
<path d="M13980 5495 c0 -22 4 -25 35 -25 31 0 35 3 35 25 0 22 -4 25 -35 25
-31 0 -35 -3 -35 -25z"/>
<path d="M13980 5330 c0 -28 3 -30 35 -30 32 0 35 2 35 30 0 28 -3 30 -35 30
-32 0 -35 -2 -35 -30z"/>
<path d="M11529 5244 c18 -31 149 -169 155 -164 3 3 -29 44 -70 90 -74 83
-107 112 -85 74z"/>
<path d="M13980 5165 c0 -22 4 -25 35 -25 31 0 35 3 35 25 0 22 -4 25 -35 25
-31 0 -35 -3 -35 -25z"/>
<path d="M13980 4995 c0 -22 4 -25 35 -25 31 0 35 3 35 25 0 22 -4 25 -35 25
-31 0 -35 -3 -35 -25z"/>
<path d="M11842 4903 c5 -19 157 -183 162 -175 2 4 -34 48 -81 97 -46 50 -83
85 -81 78z"/>
<path d="M13980 4835 c0 -22 4 -25 35 -25 31 0 35 3 35 25 0 22 -4 25 -35 25
-31 0 -35 -3 -35 -25z"/>
<path d="M13980 4665 c0 -22 4 -25 35 -25 31 0 35 3 35 25 0 22 -4 25 -35 25
-31 0 -35 -3 -35 -25z"/>
<path d="M12160 4553 c0 -14 152 -185 158 -178 3 2 -11 24 -31 47 -80 94 -127
142 -127 131z"/>
<path d="M13980 4505 c0 -22 4 -25 35 -25 31 0 35 3 35 25 0 22 -4 25 -35 25
-31 0 -35 -3 -35 -25z"/>
<path d="M13980 4335 c0 -22 4 -25 35 -25 31 0 35 3 35 25 0 22 -4 25 -35 25
-31 0 -35 -3 -35 -25z"/>
<path d="M12541 4120 c41 -46 82 -86 90 -88 8 -3 -20 32 -62 78 -41 46 -82 86
-90 88 -8 3 20 -32 62 -78z"/>
<path d="M13980 4175 c0 -22 4 -25 35 -25 31 0 35 3 35 25 0 22 -4 25 -35 25
-31 0 -35 -3 -35 -25z"/>
<path d="M13980 4005 c0 -22 4 -25 35 -25 31 0 35 3 35 25 0 22 -4 25 -35 25
-31 0 -35 -3 -35 -25z"/>
<path d="M13980 3840 c0 -28 3 -30 35 -30 32 0 35 2 35 30 0 28 -3 30 -35 30
-32 0 -35 -2 -35 -30z"/>
<path d="M12792 3852 c4 -17 151 -183 156 -177 3 2 -3 15 -11 27 -27 38 -149
164 -145 150z"/>
<path d="M13980 3675 c0 -22 4 -25 35 -25 31 0 35 3 35 25 0 22 -4 25 -35 25
-31 0 -35 -3 -35 -25z"/>
<path d="M13980 3510 c0 -28 3 -30 35 -30 32 0 35 2 35 30 0 28 -3 30 -35 30
-32 0 -35 -2 -35 -30z"/>
<path d="M13181 3410 c45 -50 84 -88 87 -85 3 3 -10 22 -29 43 -86 94 -124
132 -132 132 -5 0 28 -41 74 -90z"/>
<path d="M13980 3345 c0 -22 4 -25 35 -25 31 0 35 3 35 25 0 22 -4 25 -35 25
-31 0 -35 -3 -35 -25z"/>
<path d="M13980 3180 c0 -28 3 -30 35 -30 32 0 35 2 35 30 0 28 -3 30 -35 30
-32 0 -35 -2 -35 -30z"/>
<path d="M13446 3118 c68 -82 134 -151 140 -146 6 7 -146 178 -159 178 -5 0 4
-15 19 -32z"/>
<path d="M13980 3015 c0 -22 4 -25 35 -25 31 0 35 3 35 25 0 22 -4 25 -35 25
-31 0 -35 -3 -35 -25z"/>
<path d="M13980 2845 c0 -22 4 -25 35 -25 31 0 35 3 35 25 0 22 -4 25 -35 25
-31 0 -35 -3 -35 -25z"/>
<path d="M13740 2793 c1 -12 160 -180 160 -168 0 11 -137 168 -152 173 -4 2
-8 0 -8 -5z"/>
<path d="M13980 2685 c0 -22 4 -25 35 -25 31 0 35 3 35 25 0 22 -4 25 -35 25
-31 0 -35 -3 -35 -25z"/>
<path d="M3210 14040 l0 -30 105 0 c58 0 105 -3 105 -6 0 -3 -52 -68 -115
-144 -82 -98 -115 -145 -115 -164 l0 -26 160 0 160 0 0 30 0 29 -116 3 -116 3
111 135 c91 111 111 140 111 167 l0 33 -145 0 -145 0 0 -30z"/>
<path d="M3580 13670 c0 -163 1 -170 20 -170 18 0 20 7 20 74 0 41 4 86 10
101 13 35 55 50 86 30 22 -14 24 -22 24 -110 0 -88 1 -95 20 -95 19 0 20 7 20
100 0 94 -2 103 -25 125 -28 29 -74 33 -110 9 l-25 -16 0 61 c0 54 -2 61 -20
61 -19 0 -20 -7 -20 -170z"/>
<path d="M2120 11250 l0 -30 105 0 c58 0 105 -3 105 -6 0 -3 -52 -68 -115
-144 -82 -98 -115 -145 -115 -164 l0 -26 160 0 160 0 0 30 0 29 -116 3 -116 3
111 135 c91 111 111 140 111 167 l0 33 -145 0 -145 0 0 -30z"/>
<path d="M3010 11250 l0 -30 105 0 c58 0 105 -3 105 -6 0 -3 -52 -68 -115
-144 -82 -98 -115 -145 -115 -164 l0 -26 160 0 160 0 0 30 0 29 -116 3 -116 3
111 135 c91 111 111 140 111 167 l0 33 -145 0 -145 0 0 -30z"/>
<path d="M2757 11113 c-4 -3 -7 -17 -7 -30 0 -22 2 -23 90 -23 l90 0 0 30 0
30 -83 0 c-46 0 -87 -3 -90 -7z"/>
<path d="M2490 10870 c0 -163 1 -170 20 -170 18 0 20 7 20 74 0 41 4 86 10
101 13 35 55 50 86 30 22 -14 24 -22 24 -110 0 -88 1 -95 20 -95 19 0 20 7 20
100 0 94 -2 103 -25 125 -28 29 -74 33 -110 9 l-25 -16 0 61 c0 54 -2 61 -20
61 -19 0 -20 -7 -20 -170z"/>
<path d="M3403 10940 c-24 -10 -43 -39 -43 -68 0 -27 29 -50 91 -70 79 -25 80
-71 2 -72 -22 0 -37 7 -45 20 -16 26 -48 26 -48 1 0 -31 47 -61 95 -61 58 0
95 30 95 75 0 39 -20 57 -86 74 -52 14 -72 35 -54 56 19 23 77 19 90 -5 13
-25 40 -26 40 -2 0 34 -25 54 -71 58 -24 2 -54 0 -66 -6z"/>
<path d="M3639 10935 c-51 -28 -70 -112 -40 -179 21 -49 48 -66 102 -66 36 0
89 47 89 79 0 31 -27 25 -45 -9 -13 -24 -22 -30 -49 -30 -46 0 -66 26 -66 86
0 65 20 94 66 94 27 0 37 -5 46 -25 12 -27 48 -34 48 -9 0 8 -13 29 -29 45
-33 33 -78 38 -122 14z"/>
<path d="M2668 9514 l-3 -116 -135 111 c-109 90 -140 111 -167 111 l-32 0 0
-145 -1 -145 30 0 30 0 0 105 c0 58 3 105 6 105 3 0 68 -52 144 -115 98 -82
145 -115 164 -115 l26 0 0 160 0 160 -30 0 -29 0 -3 -116z"/>
<path d="M2750 7060 l0 -30 105 0 c58 0 105 -3 105 -6 0 -3 -52 -68 -115 -144
-82 -98 -115 -145 -115 -164 l0 -26 160 0 160 0 0 30 0 29 -116 3 -116 3 111
135 c91 111 111 140 111 167 l0 33 -145 0 -145 0 0 -30z"/>
<path d="M3730 6680 c0 -163 1 -170 20 -170 19 0 20 7 20 170 0 163 -1 170
-20 170 -19 0 -20 -7 -20 -170z"/>
<path d="M3143 6750 c-24 -10 -43 -39 -43 -68 0 -27 29 -50 91 -70 79 -25 80
-71 2 -72 -22 0 -37 7 -45 20 -16 26 -48 26 -48 1 0 -31 47 -61 95 -61 58 0
95 30 95 75 0 39 -20 57 -86 74 -52 14 -72 35 -54 56 19 23 77 19 90 -5 13
-25 40 -26 40 -2 0 34 -25 54 -71 58 -24 2 -54 0 -66 -6z"/>
<path d="M3412 6744 c-12 -8 -22 -10 -22 -5 0 6 -9 11 -20 11 -19 0 -20 -7
-20 -120 0 -113 1 -120 20 -120 18 0 20 7 20 81 0 44 5 89 10 99 16 30 46 43
70 30 18 -10 20 -21 20 -110 0 -93 1 -100 20 -100 18 0 20 7 20 81 0 44 5 89
10 99 16 30 46 43 70 30 18 -10 20 -21 20 -110 l0 -100 26 0 26 0 -4 104 c-2
85 -6 108 -22 125 -23 25 -72 28 -104 5 -21 -15 -25 -15 -41 0 -22 20 -70 21
-99 0z"/>
<path d="M3450 3011 c-69 -36 -108 -157 -97 -303 10 -129 56 -209 130 -229 54
-14 101 -4 142 32 54 48 70 104 70 249 0 113 -2 130 -25 175 -14 28 -40 60
-59 72 -42 29 -112 30 -161 4z m139 -67 c33 -43 44 -100 39 -219 -6 -150 -31
-195 -106 -195 -42 0 -78 45 -93 117 -16 81 -6 220 20 271 23 45 31 50 83 51
28 1 41 -5 57 -25z"/>
<path d="M6240 2170 l0 -30 105 0 c58 0 105 -3 105 -6 0 -3 -52 -68 -115 -144
-82 -98 -115 -145 -115 -164 l0 -26 160 0 160 0 0 30 0 29 -116 3 -116 3 111
135 c91 111 111 140 111 167 l0 33 -145 0 -145 0 0 -30z"/>
<path d="M7420 2170 l0 -30 105 0 c58 0 105 -3 105 -6 0 -3 -52 -68 -115 -144
-82 -98 -115 -145 -115 -164 l0 -26 160 0 160 0 0 30 0 29 -116 3 -116 3 111
135 c91 111 111 140 111 167 l0 33 -145 0 -145 0 0 -30z"/>
<path d="M13870 2170 l0 -30 105 0 c58 0 105 -3 105 -6 0 -3 -52 -68 -115
-144 -82 -98 -115 -145 -115 -164 l0 -26 160 0 160 0 0 30 0 29 -116 3 -116 3
111 135 c91 111 111 140 111 167 l0 33 -145 0 -145 0 0 -30z"/>
<path d="M3850 2081 c-69 -36 -108 -157 -97 -303 10 -129 56 -209 130 -229 54
-14 101 -4 142 32 54 48 70 104 70 249 0 113 -2 130 -25 175 -14 28 -40 60
-59 72 -42 29 -112 30 -161 4z m139 -67 c33 -43 44 -100 39 -219 -6 -150 -31
-195 -106 -195 -42 0 -78 45 -93 117 -16 81 -6 220 20 271 23 45 31 50 83 51
28 1 41 -5 57 -25z"/>
<path d="M8410 1790 c0 -163 1 -170 20 -170 19 0 20 7 20 170 0 163 -1 170
-20 170 -19 0 -20 -7 -20 -170z"/>
<path d="M14230 1790 c0 -163 1 -170 20 -170 18 0 20 7 20 74 0 41 4 86 10
101 13 35 55 50 86 30 22 -14 24 -22 24 -110 0 -88 1 -95 20 -95 19 0 20 7 20
100 0 94 -2 103 -25 125 -28 29 -74 33 -110 9 l-25 -16 0 61 c0 54 -2 61 -20
61 -19 0 -20 -7 -20 -170z"/>
<path d="M6643 1860 c-24 -10 -43 -39 -43 -68 0 -27 29 -50 91 -70 79 -25 80
-71 2 -72 -22 0 -37 7 -45 20 -16 26 -48 26 -48 1 0 -31 47 -61 95 -61 58 0
95 30 95 75 0 39 -20 57 -86 74 -52 14 -72 35 -54 56 19 23 77 19 90 -5 13
-25 40 -26 40 -2 0 34 -25 54 -71 58 -24 2 -54 0 -66 -6z"/>
<path d="M6879 1855 c-51 -28 -70 -112 -40 -179 21 -49 48 -66 102 -66 36 0
89 47 89 79 0 31 -27 25 -45 -9 -13 -24 -22 -30 -49 -30 -46 0 -66 26 -66 86
0 65 20 94 66 94 27 0 37 -5 46 -25 12 -27 48 -34 48 -9 0 8 -13 29 -29 45
-33 33 -78 38 -122 14z"/>
<path d="M7823 1860 c-24 -10 -43 -39 -43 -68 0 -27 29 -50 91 -70 79 -25 80
-71 2 -72 -22 0 -37 7 -45 20 -16 26 -48 26 -48 1 0 -31 47 -61 95 -61 58 0
95 30 95 75 0 39 -20 57 -86 74 -52 14 -72 35 -54 56 19 23 77 19 90 -5 13
-25 40 -26 40 -2 0 34 -25 54 -71 58 -24 2 -54 0 -66 -6z"/>
<path d="M8082 1854 c-12 -8 -22 -10 -22 -5 0 6 -9 11 -20 11 -19 0 -20 -7
-20 -120 0 -113 1 -120 20 -120 18 0 20 7 20 81 0 44 5 89 10 99 16 30 46 43
70 30 18 -10 20 -21 20 -110 0 -93 1 -100 20 -100 18 0 20 7 20 81 0 44 5 89
10 99 16 30 46 43 70 30 18 -10 20 -21 20 -110 l0 -100 26 0 26 0 -4 104 c-2
85 -6 108 -22 125 -23 25 -72 28 -104 5 -21 -15 -25 -15 -41 0 -22 20 -70 21
-99 0z"/>
<path d="M9690 1120 l0 -30 105 0 c58 0 105 -3 105 -6 0 -3 -52 -68 -115 -144
-82 -98 -115 -145 -115 -164 l0 -26 160 0 160 0 0 30 0 29 -116 3 -116 3 111
135 c91 111 111 140 111 167 l0 33 -145 0 -145 0 0 -30z"/>
<path d="M10580 740 c0 -163 1 -170 20 -170 11 0 20 5 20 11 0 5 10 3 22 -5
36 -25 83 -20 120 13 28 25 32 35 35 92 3 51 0 70 -16 96 -26 41 -81 54 -123
30 l-28 -16 0 59 c0 57 -1 60 -25 60 l-25 0 0 -170z m160 20 c15 -15 20 -33
20 -70 0 -37 -5 -55 -20 -70 -24 -24 -67 -26 -92 -3 -24 22 -25 118 -1 145 21
24 68 23 93 -2z"/>
<path d="M10060 845 c0 -24 -5 -35 -15 -35 -8 0 -15 -7 -15 -15 0 -8 7 -15 15
-15 12 0 15 -18 15 -98 0 -107 6 -122 52 -122 33 0 39 25 8 33 -18 5 -20 14
-20 96 0 84 1 91 20 91 11 0 20 7 20 15 0 8 -9 15 -20 15 -16 0 -20 7 -20 35
0 28 -4 35 -20 35 -16 0 -20 -7 -20 -35z"/>
<path d="M10502 798 c-19 -19 -22 -20 -22 -5 0 10 -8 17 -20 17 -19 0 -20 -7
-20 -120 0 -113 1 -120 20 -120 18 0 20 7 20 79 0 64 4 83 21 105 11 14 29 26
40 26 12 0 19 7 19 20 0 27 -30 26 -58 -2z"/>
<path d="M10180 705 c0 -92 3 -108 20 -125 26 -26 80 -26 114 1 21 17 26 18
26 5 0 -9 8 -16 20 -16 19 0 20 7 20 120 l0 120 -25 0 c-25 0 -25 -1 -25 -88
0 -59 -5 -94 -14 -107 -16 -22 -74 -25 -87 -4 -5 8 -9 56 -9 107 0 85 -1 92
-20 92 -19 0 -20 -7 -20 -105z"/>
</g>
</svg>
